<svg width="24" height="24" viewBox="0 0 24 24" fill="none" xmlns="http://www.w3.org/2000/svg">
<circle opacity="0.1" cx="12" cy="12" r="12" fill="black"/>
<g clip-path="url(#clip0_2826_8653)">
<path d="M6.26562 9.25601V14.744C6.26562 15.0968 6.45043 15.416 6.75843 15.5952L11.5128 18.3392C11.8152 18.5128 12.1904 18.5128 12.4928 18.3392L17.2472 15.5952C17.5496 15.4216 17.74 15.0968 17.74 14.744V9.25601C17.74 8.90321 17.5552 8.58401 17.2472 8.40481L12.4928 5.66081C12.1904 5.48721 11.8152 5.48721 11.5128 5.66081L6.75843 8.40481C6.45603 8.57841 6.27123 8.90321 6.27123 9.25601H6.26562Z" fill="#213147"/>
<path d="M13.0369 13.0639L12.3593 14.9231C12.3425 14.9735 12.3425 15.0295 12.3593 15.0855L13.5241 18.2831L14.8737 17.5047L13.2553 13.0639C13.2161 12.9631 13.0761 12.9631 13.0369 13.0639Z" fill="#12AAFF"/>
<path d="M14.3979 9.93909C14.3587 9.83829 14.2187 9.83829 14.1795 9.93909L13.5019 11.7983C13.4851 11.8487 13.4851 11.9047 13.5019 11.9607L15.4115 17.1967L16.7611 16.4183L14.3979 9.94469V9.93909Z" fill="#12AAFF"/>
<path d="M12.0002 5.868C12.0338 5.868 12.0674 5.8792 12.0954 5.896L17.2362 8.864C17.2978 8.8976 17.3314 8.9648 17.3314 9.032V14.968C17.3314 15.0352 17.2922 15.1024 17.2362 15.136L12.0954 18.104C12.0674 18.1208 12.0338 18.132 12.0002 18.132C11.9666 18.132 11.933 18.1208 11.905 18.104L6.76421 15.136C6.70261 15.1024 6.66901 15.0352 6.66901 14.968V9.0264C6.66901 8.9592 6.70821 8.892 6.76421 8.8584L11.905 5.8904C11.933 5.8736 11.9666 5.8624 12.0002 5.8624V5.868ZM12.0002 5C11.8154 5 11.6362 5.0448 11.4682 5.14L6.32741 8.108C5.99701 8.2984 5.79541 8.6456 5.79541 9.0264V14.9624C5.79541 15.3432 5.99701 15.6904 6.32741 15.8808L11.4682 18.8488C11.6306 18.944 11.8154 18.9888 12.0002 18.9888C12.185 18.9888 12.3642 18.944 12.5322 18.8488L17.673 15.8808C18.0034 15.6904 18.205 15.3432 18.205 14.9624V9.0264C18.205 8.6456 18.0034 8.2984 17.673 8.108L12.5266 5.14C12.3642 5.0448 12.1794 5 11.9946 5H12.0002Z" fill="#9DCCED"/>
<path d="M8.5957 17.2025L9.0717 15.9033L10.0237 16.6929L9.1333 17.5105L8.5957 17.2025Z" fill="#213147"/>
<path d="M11.5632 8.6064H10.2584C10.1632 8.6064 10.0736 8.668 10.04 8.7576L7.24561 16.4184L8.59521 17.1968L11.6752 8.7576C11.7032 8.6792 11.6472 8.6008 11.5688 8.6008L11.5632 8.6064Z" fill="white"/>
<path d="M13.8475 8.6064H12.5427C12.4475 8.6064 12.3579 8.668 12.3243 8.7576L9.13232 17.5048L10.4819 18.2832L13.9539 8.7576C13.9819 8.6792 13.9259 8.6008 13.8475 8.6008V8.6064Z" fill="white"/>
</g>
<defs>
<clipPath id="clip0_2826_8653">
<rect width="14" height="14" fill="white" transform="translate(5 5)"/>
</clipPath>
</defs>
</svg>
