<svg width="12" height="12" viewBox="0 0 12 12" fill="none" xmlns="http://www.w3.org/2000/svg">
<g clip-path="url(#clip0_417_4118)">
<path d="M1.08496 3.64797V8.35197C1.08496 8.65437 1.24336 8.92797 1.50736 9.08157L5.58256 11.4336C5.84176 11.5824 6.16336 11.5824 6.42256 11.4336L10.4978 9.08157C10.757 8.93277 10.9202 8.65437 10.9202 8.35197V3.64797C10.9202 3.34557 10.7618 3.07197 10.4978 2.91837L6.42256 0.566373C6.16336 0.417573 5.84176 0.417573 5.58256 0.566373L1.50736 2.91837C1.24816 3.06717 1.08976 3.34557 1.08976 3.64797H1.08496Z" fill="#213147"/>
<path d="M6.88847 6.91191L6.30767 8.50551C6.29328 8.54871 6.29328 8.59671 6.30767 8.64471L7.30607 11.3855L8.46287 10.7183L7.07567 6.91191C7.04207 6.82551 6.92207 6.82551 6.88847 6.91191Z" fill="#12AAFF"/>
<path d="M8.05517 4.2335C8.02157 4.1471 7.90157 4.1471 7.86797 4.2335L7.28717 5.8271C7.27277 5.8703 7.27277 5.9183 7.28717 5.9663L8.92397 10.4543L10.0808 9.7871L8.05517 4.2383V4.2335Z" fill="#12AAFF"/>
<path d="M6.00004 0.744C6.02884 0.744 6.05764 0.7536 6.08164 0.768L10.488 3.312C10.5408 3.3408 10.5696 3.3984 10.5696 3.456V8.544C10.5696 8.6016 10.536 8.6592 10.488 8.688L6.08164 11.232C6.05764 11.2464 6.02884 11.256 6.00004 11.256C5.97124 11.256 5.94244 11.2464 5.91844 11.232L1.51204 8.688C1.45924 8.6592 1.43044 8.6016 1.43044 8.544V3.4512C1.43044 3.3936 1.46404 3.336 1.51204 3.3072L5.91844 0.7632C5.94244 0.7488 5.97124 0.7392 6.00004 0.7392V0.744ZM6.00004 0C5.84164 0 5.68804 0.0384 5.54404 0.12L1.13764 2.664C0.854441 2.8272 0.681641 3.1248 0.681641 3.4512V8.5392C0.681641 8.8656 0.854441 9.1632 1.13764 9.3264L5.54404 11.8704C5.68324 11.952 5.84164 11.9904 6.00004 11.9904C6.15844 11.9904 6.31204 11.952 6.45604 11.8704L10.8624 9.3264C11.1456 9.1632 11.3184 8.8656 11.3184 8.5392V3.4512C11.3184 3.1248 11.1456 2.8272 10.8624 2.664L6.45124 0.12C6.31204 0.0384 6.15364 0 5.99524 0H6.00004Z" fill="#9DCCED"/>
<path d="M3.08203 10.4593L3.49003 9.3457L4.30603 10.0225L3.54283 10.7233L3.08203 10.4593Z" fill="#213147"/>
<path d="M5.6256 3.09123H4.5072C4.4256 3.09123 4.3488 3.14403 4.32 3.22083L1.9248 9.78723L3.0816 10.4544L5.7216 3.22083C5.7456 3.15363 5.6976 3.08643 5.6304 3.08643L5.6256 3.09123Z" fill="#16171B"/>
<path d="M7.58359 3.09123H6.46519C6.38359 3.09123 6.30679 3.14403 6.27799 3.22083L3.54199 10.7184L4.69879 11.3856L7.67479 3.22083C7.69879 3.15363 7.65079 3.08643 7.58359 3.08643V3.09123Z" fill="#16171B"/>
</g>
<defs>
<clipPath id="clip0_417_4118">
<rect width="12" height="12" fill="white"/>
</clipPath>
</defs>
</svg>
