<svg width="23" height="20" viewBox="0 0 23 20" fill="none" xmlns="http://www.w3.org/2000/svg">
<g filter="url(#filter0_d_417_7599)">
<circle cx="13.75" cy="10" r="9" fill="white"/>
<g clip-path="url(#clip0_417_7599)">
<path d="M8.86133 7.73928V12.561C8.86133 12.8709 9.02369 13.1514 9.2943 13.3088L13.4715 15.7197C13.7371 15.8722 14.0668 15.8722 14.3325 15.7197L18.5096 13.3088C18.7753 13.1563 18.9426 12.8709 18.9426 12.561V7.73928C18.9426 7.42932 18.7802 7.14887 18.5096 6.99143L14.3325 4.58058C14.0668 4.42806 13.7371 4.42806 13.4715 4.58058L9.2943 6.99143C9.02861 7.14395 8.86625 7.42932 8.86625 7.73928H8.86133Z" fill="#213147"/>
<path d="M14.8095 11.0849L14.2142 12.7183C14.1994 12.7626 14.1994 12.8118 14.2142 12.861L15.2376 15.6704L16.4233 14.9865L15.0014 11.0849C14.967 10.9963 14.844 10.9963 14.8095 11.0849Z" fill="#12AAFF"/>
<path d="M16.0053 8.33949C15.9709 8.25093 15.8479 8.25093 15.8134 8.33949L15.2181 9.97296C15.2033 10.0172 15.2033 10.0664 15.2181 10.1156L16.8959 14.7159L18.0816 14.032L16.0053 8.34441V8.33949Z" fill="#12AAFF"/>
<path d="M13.8997 4.76262C13.9292 4.76262 13.9588 4.77246 13.9834 4.78722L18.5 7.39487C18.5541 7.42439 18.5836 7.48343 18.5836 7.54247V12.7578C18.5836 12.8168 18.5492 12.8759 18.5 12.9054L13.9834 15.513C13.9588 15.5278 13.9292 15.5376 13.8997 15.5376C13.8702 15.5376 13.8407 15.5278 13.8161 15.513L9.29942 12.9054C9.2453 12.8759 9.21578 12.8168 9.21578 12.7578V7.53755C9.21578 7.47851 9.25022 7.41947 9.29942 7.38995L13.8161 4.7823C13.8407 4.76754 13.8702 4.7577 13.8997 4.7577V4.76262ZM13.8997 4C13.7373 4 13.5799 4.03936 13.4323 4.123L8.91565 6.73065C8.62537 6.89794 8.44824 7.20298 8.44824 7.53755V12.7529C8.44824 13.0874 8.62537 13.3925 8.91565 13.5597L13.4323 16.1674C13.575 16.251 13.7373 16.2904 13.8997 16.2904C14.0621 16.2904 14.2195 16.251 14.3671 16.1674L18.8838 13.5597C19.1741 13.3925 19.3512 13.0874 19.3512 12.7529V7.53755C19.3512 7.20298 19.1741 6.89794 18.8838 6.73065L14.3622 4.123C14.2195 4.03936 14.0572 4 13.8948 4H13.8997Z" fill="#9DCCED"/>
<path d="M10.9082 14.7209L11.3264 13.5795L12.1628 14.2732L11.3805 14.9915L10.9082 14.7209Z" fill="#213147"/>
<path d="M13.5161 7.16849H12.3697C12.286 7.16849 12.2073 7.22262 12.1778 7.30134L9.72266 14.032L10.9084 14.7159L13.6145 7.30134C13.6391 7.23246 13.5899 7.16357 13.521 7.16357L13.5161 7.16849Z" fill="white"/>
<path d="M15.5236 7.16849H14.3772C14.2936 7.16849 14.2148 7.22262 14.1853 7.30134L11.3809 14.9865L12.5666 15.6704L15.6171 7.30134C15.6417 7.23246 15.5925 7.16357 15.5236 7.16357V7.16849Z" fill="white"/>
</g>
</g>
<defs>
<filter id="filter0_d_417_7599" x="0.75" y="0" width="22" height="20" filterUnits="userSpaceOnUse" color-interpolation-filters="sRGB">
<feFlood flood-opacity="0" result="BackgroundImageFix"/>
<feColorMatrix in="SourceAlpha" type="matrix" values="0 0 0 0 0 0 0 0 0 0 0 0 0 0 0 0 0 0 127 0" result="hardAlpha"/>
<feOffset dx="-3"/>
<feGaussianBlur stdDeviation="0.5"/>
<feComposite in2="hardAlpha" operator="out"/>
<feColorMatrix type="matrix" values="0 0 0 0 0 0 0 0 0 0 0 0 0 0 0 0 0 0 0.25 0"/>
<feBlend mode="normal" in2="BackgroundImageFix" result="effect1_dropShadow_417_7599"/>
<feBlend mode="normal" in="SourceGraphic" in2="effect1_dropShadow_417_7599" result="shape"/>
</filter>
<clipPath id="clip0_417_7599">
<rect width="12.3002" height="12.3002" fill="white" transform="translate(7.74902 4)"/>
</clipPath>
</defs>
</svg>
