<svg width="91" height="30" viewBox="0 0 91 30" fill="none" xmlns="http://www.w3.org/2000/svg">
<rect width="91" height="30" fill="#1E1E1E"/>
<g id="Light Theme_Open Nav">
<rect width="1440" height="1967" transform="translate(-1325 -1907)" fill="#F0F0F5"/>
<g id="Group 427319186">
<g id="Group 427319185">
<path id="Rectangle 34624109" d="M0.5 2C0.5 1.17157 1.17157 0.5 2 0.5H89C89.8284 0.5 90.5 1.17157 90.5 2V28C90.5 28.8284 89.8284 29.5 89 29.5H2C1.17157 29.5 0.5 28.8284 0.5 28V2Z" fill="#202020" stroke="#202020"/>
<g id="Group 427319005">
<path id="Back to Top" d="M30.7 19V11.8H33.48C33.8833 11.8 34.235 11.8833 34.535 12.05C34.835 12.2167 35.0683 12.4417 35.235 12.725C35.4017 13.005 35.485 13.315 35.485 13.655C35.485 14.0417 35.3817 14.3867 35.175 14.69C34.9683 14.99 34.6917 15.1983 34.345 15.315L34.335 15.07C34.8017 15.2033 35.1683 15.4367 35.435 15.77C35.7017 16.1033 35.835 16.5067 35.835 16.98C35.835 17.3967 35.7467 17.7567 35.57 18.06C35.3933 18.36 35.145 18.5917 34.825 18.755C34.505 18.9183 34.1333 19 33.71 19H30.7ZM31.44 18.295H33.53C33.8233 18.295 34.0867 18.2433 34.32 18.14C34.5533 18.0333 34.7367 17.8833 34.87 17.69C35.0067 17.4967 35.075 17.2633 35.075 16.99C35.075 16.7233 35.0133 16.4833 34.89 16.27C34.7667 16.0567 34.5983 15.8867 34.385 15.76C34.175 15.63 33.935 15.565 33.665 15.565H31.44V18.295ZM31.44 14.87H33.475C33.705 14.87 33.915 14.8183 34.105 14.715C34.295 14.6083 34.445 14.4633 34.555 14.28C34.6683 14.0967 34.725 13.885 34.725 13.645C34.725 13.305 34.6067 13.0283 34.37 12.815C34.1367 12.6017 33.8383 12.495 33.475 12.495H31.44V14.87ZM38.3778 19.15C37.9711 19.15 37.6295 19.0767 37.3528 18.93C37.0795 18.7833 36.8745 18.5883 36.7378 18.345C36.6011 18.1017 36.5328 17.8367 36.5328 17.55C36.5328 17.2567 36.5911 17.0067 36.7078 16.8C36.8278 16.59 36.9895 16.4183 37.1928 16.285C37.3995 16.1517 37.6378 16.05 37.9078 15.98C38.1811 15.9133 38.4828 15.855 38.8128 15.805C39.1461 15.7517 39.4711 15.7067 39.7878 15.67C40.1078 15.63 40.3878 15.5917 40.6278 15.555L40.3678 15.715C40.3778 15.1817 40.2745 14.7867 40.0578 14.53C39.8411 14.2733 39.4645 14.145 38.9278 14.145C38.5578 14.145 38.2445 14.2283 37.9878 14.395C37.7345 14.5617 37.5561 14.825 37.4528 15.185L36.7378 14.975C36.8611 14.4917 37.1095 14.1167 37.4828 13.85C37.8561 13.5833 38.3411 13.45 38.9378 13.45C39.4311 13.45 39.8495 13.5433 40.1928 13.73C40.5395 13.9133 40.7845 14.18 40.9278 14.53C40.9945 14.6867 41.0378 14.8617 41.0578 15.055C41.0778 15.2483 41.0878 15.445 41.0878 15.645V19H40.4328V17.645L40.6228 17.725C40.4395 18.1883 40.1545 18.5417 39.7678 18.785C39.3811 19.0283 38.9178 19.15 38.3778 19.15ZM38.4628 18.515C38.8061 18.515 39.1061 18.4533 39.3628 18.33C39.6195 18.2067 39.8261 18.0383 39.9828 17.825C40.1395 17.6083 40.2411 17.365 40.2878 17.095C40.3278 16.9217 40.3495 16.7317 40.3528 16.525C40.3561 16.315 40.3578 16.1583 40.3578 16.055L40.6378 16.2C40.3878 16.2333 40.1161 16.2667 39.8228 16.3C39.5328 16.3333 39.2461 16.3717 38.9628 16.415C38.6828 16.4583 38.4295 16.51 38.2028 16.57C38.0495 16.6133 37.9011 16.675 37.7578 16.755C37.6145 16.8317 37.4961 16.935 37.4028 17.065C37.3128 17.195 37.2678 17.3567 37.2678 17.55C37.2678 17.7067 37.3061 17.8583 37.3828 18.005C37.4628 18.1517 37.5895 18.2733 37.7628 18.37C37.9395 18.4667 38.1728 18.515 38.4628 18.515ZM44.6295 19.15C44.0861 19.15 43.6261 19.0283 43.2495 18.785C42.8728 18.5417 42.5861 18.2067 42.3895 17.78C42.1961 17.35 42.0961 16.8567 42.0895 16.3C42.0961 15.7333 42.1995 15.2367 42.3995 14.81C42.5995 14.38 42.8878 14.0467 43.2645 13.81C43.6411 13.57 44.0978 13.45 44.6345 13.45C45.1811 13.45 45.6561 13.5833 46.0595 13.85C46.4661 14.1167 46.7445 14.4817 46.8945 14.945L46.1745 15.175C46.0478 14.8517 45.8461 14.6017 45.5695 14.425C45.2961 14.245 44.9828 14.155 44.6295 14.155C44.2328 14.155 43.9045 14.2467 43.6445 14.43C43.3845 14.61 43.1911 14.8617 43.0645 15.185C42.9378 15.5083 42.8728 15.88 42.8695 16.3C42.8761 16.9467 43.0261 17.4667 43.3195 17.86C43.6128 18.25 44.0495 18.445 44.6295 18.445C44.9961 18.445 45.3078 18.3617 45.5645 18.195C45.8245 18.025 46.0211 17.7783 46.1545 17.455L46.8945 17.675C46.6945 18.155 46.4011 18.5217 46.0145 18.775C45.6278 19.025 45.1661 19.15 44.6295 19.15ZM47.9216 19L47.9266 11.8H48.6666V16.2L51.0766 13.6H52.0566L49.5266 16.3L52.3866 19H51.3166L48.6666 16.4V19H47.9216ZM57.8295 19C57.5261 19.0633 57.2261 19.0883 56.9295 19.075C56.6361 19.0617 56.3728 18.9983 56.1395 18.885C55.9095 18.7717 55.7345 18.595 55.6145 18.355C55.5178 18.155 55.4645 17.9533 55.4545 17.75C55.4478 17.5433 55.4445 17.3083 55.4445 17.045V12.1H56.1745V17.015C56.1745 17.2417 56.1761 17.4317 56.1795 17.585C56.1861 17.735 56.2211 17.8683 56.2845 17.985C56.4045 18.2083 56.5945 18.3417 56.8545 18.385C57.1178 18.4283 57.4428 18.4183 57.8295 18.355V19ZM54.2895 14.23V13.6H57.8295V14.23H54.2895ZM60.953 19.15C60.4164 19.15 59.958 19.0283 59.578 18.785C59.198 18.5417 58.9064 18.205 58.703 17.775C58.4997 17.345 58.398 16.8517 58.398 16.295C58.398 15.7283 58.5014 15.2317 58.708 14.805C58.9147 14.3783 59.208 14.0467 59.588 13.81C59.9714 13.57 60.4264 13.45 60.953 13.45C61.493 13.45 61.953 13.5717 62.333 13.815C62.7164 14.055 63.008 14.39 63.208 14.82C63.4114 15.2467 63.513 15.7383 63.513 16.295C63.513 16.8617 63.4114 17.36 63.208 17.79C63.0047 18.2167 62.7114 18.55 62.328 18.79C61.9447 19.03 61.4864 19.15 60.953 19.15ZM60.953 18.445C61.553 18.445 61.9997 18.2467 62.293 17.85C62.5864 17.45 62.733 16.9317 62.733 16.295C62.733 15.6417 62.5847 15.1217 62.288 14.735C61.9947 14.3483 61.5497 14.155 60.953 14.155C60.5497 14.155 60.2164 14.2467 59.953 14.43C59.693 14.61 59.498 14.8617 59.368 15.185C59.2414 15.505 59.178 15.875 59.178 16.295C59.178 16.945 59.328 17.4667 59.628 17.86C59.928 18.25 60.3697 18.445 60.953 18.445ZM68.533 19V12.505H66.018V11.8H71.783V12.505H69.268V19H68.533ZM74.039 19.15C73.5023 19.15 73.044 19.0283 72.664 18.785C72.284 18.5417 71.9923 18.205 71.789 17.775C71.5857 17.345 71.484 16.8517 71.484 16.295C71.484 15.7283 71.5873 15.2317 71.794 14.805C72.0007 14.3783 72.294 14.0467 72.674 13.81C73.0573 13.57 73.5123 13.45 74.039 13.45C74.579 13.45 75.039 13.5717 75.419 13.815C75.8023 14.055 76.094 14.39 76.294 14.82C76.4973 15.2467 76.599 15.7383 76.599 16.295C76.599 16.8617 76.4973 17.36 76.294 17.79C76.0907 18.2167 75.7973 18.55 75.414 18.79C75.0307 19.03 74.5723 19.15 74.039 19.15ZM74.039 18.445C74.639 18.445 75.0857 18.2467 75.379 17.85C75.6723 17.45 75.819 16.9317 75.819 16.295C75.819 15.6417 75.6707 15.1217 75.374 14.735C75.0807 14.3483 74.6357 14.155 74.039 14.155C73.6357 14.155 73.3023 14.2467 73.039 14.43C72.779 14.61 72.584 14.8617 72.454 15.185C72.3273 15.505 72.264 15.875 72.264 16.295C72.264 16.945 72.414 17.4667 72.714 17.86C73.014 18.25 73.4557 18.445 74.039 18.445ZM80.127 19.15C79.6303 19.15 79.2103 19.025 78.867 18.775C78.5236 18.5217 78.2636 18.18 78.087 17.75C77.9103 17.3167 77.822 16.8317 77.822 16.295C77.822 15.7483 77.9103 15.2617 78.087 14.835C78.267 14.405 78.5303 14.0667 78.877 13.82C79.2236 13.5733 79.6503 13.45 80.157 13.45C80.6503 13.45 81.0736 13.575 81.427 13.825C81.7803 14.075 82.0503 14.415 82.237 14.845C82.427 15.275 82.522 15.7583 82.522 16.295C82.522 16.835 82.427 17.32 82.237 17.75C82.047 18.18 81.7736 18.5217 81.417 18.775C81.0603 19.025 80.6303 19.15 80.127 19.15ZM77.697 21.4V13.6H78.357V17.665H78.437V21.4H77.697ZM80.052 18.465C80.4286 18.465 80.742 18.37 80.992 18.18C81.242 17.99 81.4286 17.7317 81.552 17.405C81.6786 17.075 81.742 16.705 81.742 16.295C81.742 15.8883 81.6803 15.5217 81.557 15.195C81.4336 14.8683 81.2453 14.61 80.992 14.42C80.742 14.23 80.4236 14.135 80.037 14.135C79.6603 14.135 79.347 14.2267 79.097 14.41C78.8503 14.5933 78.6653 14.8483 78.542 15.175C78.4186 15.4983 78.357 15.8717 78.357 16.295C78.357 16.7117 78.4186 17.085 78.542 17.415C78.6653 17.7417 78.852 17.9983 79.102 18.185C79.352 18.3717 79.6686 18.465 80.052 18.465Z" fill="white"/>
<g id="chevron-down">
<g id="Vector">
<path d="M20.7998 18.3999L15.9998 13.5999L11.1998 18.3999" fill="white"/>
<path d="M20.7998 18.3999L15.9998 13.5999L11.1998 18.3999H20.7998Z" stroke="white" stroke-linecap="round" stroke-linejoin="round"/>
</g>
</g>
</g>
</g>
</g>
</g>
</svg>
