<svg width="91" height="30" viewBox="0 0 91 30" fill="none" xmlns="http://www.w3.org/2000/svg">
<rect width="91" height="30" fill="#1E1E1E"/>
<g id="Dark Theme_Open Nav">
<rect width="1440" height="1967" transform="translate(-1325 -1907)" fill="#191919"/>
<g id="Group 427319186">
<g id="Group 427319185">
<path id="Rectangle 34624109" d="M0.5 2C0.5 1.17157 1.17157 0.5 2 0.5H89C89.8284 0.5 90.5 1.17157 90.5 2V28C90.5 28.8284 89.8284 29.5 89 29.5H2C1.17157 29.5 0.5 28.8284 0.5 28V2Z" fill="white" stroke="white"/>
<g id="Group 427319005">
<path id="Back to Top" d="M29.7 19V11.8H32.48C32.8833 11.8 33.235 11.8833 33.535 12.05C33.835 12.2167 34.0683 12.4417 34.235 12.725C34.4017 13.005 34.485 13.315 34.485 13.655C34.485 14.0417 34.3817 14.3867 34.175 14.69C33.9683 14.99 33.6917 15.1983 33.345 15.315L33.335 15.07C33.8017 15.2033 34.1683 15.4367 34.435 15.77C34.7017 16.1033 34.835 16.5067 34.835 16.98C34.835 17.3967 34.7467 17.7567 34.57 18.06C34.3933 18.36 34.145 18.5917 33.825 18.755C33.505 18.9183 33.1333 19 32.71 19H29.7ZM30.44 18.295H32.53C32.8233 18.295 33.0867 18.2433 33.32 18.14C33.5533 18.0333 33.7367 17.8833 33.87 17.69C34.0067 17.4967 34.075 17.2633 34.075 16.99C34.075 16.7233 34.0133 16.4833 33.89 16.27C33.7667 16.0567 33.5983 15.8867 33.385 15.76C33.175 15.63 32.935 15.565 32.665 15.565H30.44V18.295ZM30.44 14.87H32.475C32.705 14.87 32.915 14.8183 33.105 14.715C33.295 14.6083 33.445 14.4633 33.555 14.28C33.6683 14.0967 33.725 13.885 33.725 13.645C33.725 13.305 33.6067 13.0283 33.37 12.815C33.1367 12.6017 32.8383 12.495 32.475 12.495H30.44V14.87ZM37.3778 19.15C36.9711 19.15 36.6295 19.0767 36.3528 18.93C36.0795 18.7833 35.8745 18.5883 35.7378 18.345C35.6011 18.1017 35.5328 17.8367 35.5328 17.55C35.5328 17.2567 35.5911 17.0067 35.7078 16.8C35.8278 16.59 35.9895 16.4183 36.1928 16.285C36.3995 16.1517 36.6378 16.05 36.9078 15.98C37.1811 15.9133 37.4828 15.855 37.8128 15.805C38.1461 15.7517 38.4711 15.7067 38.7878 15.67C39.1078 15.63 39.3878 15.5917 39.6278 15.555L39.3678 15.715C39.3778 15.1817 39.2745 14.7867 39.0578 14.53C38.8411 14.2733 38.4645 14.145 37.9278 14.145C37.5578 14.145 37.2445 14.2283 36.9878 14.395C36.7345 14.5617 36.5561 14.825 36.4528 15.185L35.7378 14.975C35.8611 14.4917 36.1095 14.1167 36.4828 13.85C36.8561 13.5833 37.3411 13.45 37.9378 13.45C38.4311 13.45 38.8495 13.5433 39.1928 13.73C39.5395 13.9133 39.7845 14.18 39.9278 14.53C39.9945 14.6867 40.0378 14.8617 40.0578 15.055C40.0778 15.2483 40.0878 15.445 40.0878 15.645V19H39.4328V17.645L39.6228 17.725C39.4395 18.1883 39.1545 18.5417 38.7678 18.785C38.3811 19.0283 37.9178 19.15 37.3778 19.15ZM37.4628 18.515C37.8061 18.515 38.1061 18.4533 38.3628 18.33C38.6195 18.2067 38.8261 18.0383 38.9828 17.825C39.1395 17.6083 39.2411 17.365 39.2878 17.095C39.3278 16.9217 39.3495 16.7317 39.3528 16.525C39.3561 16.315 39.3578 16.1583 39.3578 16.055L39.6378 16.2C39.3878 16.2333 39.1161 16.2667 38.8228 16.3C38.5328 16.3333 38.2461 16.3717 37.9628 16.415C37.6828 16.4583 37.4295 16.51 37.2028 16.57C37.0495 16.6133 36.9011 16.675 36.7578 16.755C36.6145 16.8317 36.4961 16.935 36.4028 17.065C36.3128 17.195 36.2678 17.3567 36.2678 17.55C36.2678 17.7067 36.3061 17.8583 36.3828 18.005C36.4628 18.1517 36.5895 18.2733 36.7628 18.37C36.9395 18.4667 37.1728 18.515 37.4628 18.515ZM43.6295 19.15C43.0861 19.15 42.6261 19.0283 42.2495 18.785C41.8728 18.5417 41.5861 18.2067 41.3895 17.78C41.1961 17.35 41.0961 16.8567 41.0895 16.3C41.0961 15.7333 41.1995 15.2367 41.3995 14.81C41.5995 14.38 41.8878 14.0467 42.2645 13.81C42.6411 13.57 43.0978 13.45 43.6345 13.45C44.1811 13.45 44.6561 13.5833 45.0595 13.85C45.4661 14.1167 45.7445 14.4817 45.8945 14.945L45.1745 15.175C45.0478 14.8517 44.8461 14.6017 44.5695 14.425C44.2961 14.245 43.9828 14.155 43.6295 14.155C43.2328 14.155 42.9045 14.2467 42.6445 14.43C42.3845 14.61 42.1911 14.8617 42.0645 15.185C41.9378 15.5083 41.8728 15.88 41.8695 16.3C41.8761 16.9467 42.0261 17.4667 42.3195 17.86C42.6128 18.25 43.0495 18.445 43.6295 18.445C43.9961 18.445 44.3078 18.3617 44.5645 18.195C44.8245 18.025 45.0211 17.7783 45.1545 17.455L45.8945 17.675C45.6945 18.155 45.4011 18.5217 45.0145 18.775C44.6278 19.025 44.1661 19.15 43.6295 19.15ZM46.9216 19L46.9266 11.8H47.6666V16.2L50.0766 13.6H51.0566L48.5266 16.3L51.3866 19H50.3166L47.6666 16.4V19H46.9216ZM56.8295 19C56.5261 19.0633 56.2261 19.0883 55.9295 19.075C55.6361 19.0617 55.3728 18.9983 55.1395 18.885C54.9095 18.7717 54.7345 18.595 54.6145 18.355C54.5178 18.155 54.4645 17.9533 54.4545 17.75C54.4478 17.5433 54.4445 17.3083 54.4445 17.045V12.1H55.1745V17.015C55.1745 17.2417 55.1761 17.4317 55.1795 17.585C55.1861 17.735 55.2211 17.8683 55.2845 17.985C55.4045 18.2083 55.5945 18.3417 55.8545 18.385C56.1178 18.4283 56.4428 18.4183 56.8295 18.355V19ZM53.2895 14.23V13.6H56.8295V14.23H53.2895ZM59.953 19.15C59.4164 19.15 58.958 19.0283 58.578 18.785C58.198 18.5417 57.9064 18.205 57.703 17.775C57.4997 17.345 57.398 16.8517 57.398 16.295C57.398 15.7283 57.5014 15.2317 57.708 14.805C57.9147 14.3783 58.208 14.0467 58.588 13.81C58.9714 13.57 59.4264 13.45 59.953 13.45C60.493 13.45 60.953 13.5717 61.333 13.815C61.7164 14.055 62.008 14.39 62.208 14.82C62.4114 15.2467 62.513 15.7383 62.513 16.295C62.513 16.8617 62.4114 17.36 62.208 17.79C62.0047 18.2167 61.7114 18.55 61.328 18.79C60.9447 19.03 60.4864 19.15 59.953 19.15ZM59.953 18.445C60.553 18.445 60.9997 18.2467 61.293 17.85C61.5864 17.45 61.733 16.9317 61.733 16.295C61.733 15.6417 61.5847 15.1217 61.288 14.735C60.9947 14.3483 60.5497 14.155 59.953 14.155C59.5497 14.155 59.2164 14.2467 58.953 14.43C58.693 14.61 58.498 14.8617 58.368 15.185C58.2414 15.505 58.178 15.875 58.178 16.295C58.178 16.945 58.328 17.4667 58.628 17.86C58.928 18.25 59.3697 18.445 59.953 18.445ZM67.533 19V12.505H65.018V11.8H70.783V12.505H68.268V19H67.533ZM73.039 19.15C72.5023 19.15 72.044 19.0283 71.664 18.785C71.284 18.5417 70.9923 18.205 70.789 17.775C70.5857 17.345 70.484 16.8517 70.484 16.295C70.484 15.7283 70.5873 15.2317 70.794 14.805C71.0007 14.3783 71.294 14.0467 71.674 13.81C72.0573 13.57 72.5123 13.45 73.039 13.45C73.579 13.45 74.039 13.5717 74.419 13.815C74.8023 14.055 75.094 14.39 75.294 14.82C75.4973 15.2467 75.599 15.7383 75.599 16.295C75.599 16.8617 75.4973 17.36 75.294 17.79C75.0907 18.2167 74.7973 18.55 74.414 18.79C74.0307 19.03 73.5723 19.15 73.039 19.15ZM73.039 18.445C73.639 18.445 74.0857 18.2467 74.379 17.85C74.6723 17.45 74.819 16.9317 74.819 16.295C74.819 15.6417 74.6707 15.1217 74.374 14.735C74.0807 14.3483 73.6357 14.155 73.039 14.155C72.6357 14.155 72.3023 14.2467 72.039 14.43C71.779 14.61 71.584 14.8617 71.454 15.185C71.3273 15.505 71.264 15.875 71.264 16.295C71.264 16.945 71.414 17.4667 71.714 17.86C72.014 18.25 72.4557 18.445 73.039 18.445ZM79.127 19.15C78.6303 19.15 78.2103 19.025 77.867 18.775C77.5236 18.5217 77.2636 18.18 77.087 17.75C76.9103 17.3167 76.822 16.8317 76.822 16.295C76.822 15.7483 76.9103 15.2617 77.087 14.835C77.267 14.405 77.5303 14.0667 77.877 13.82C78.2236 13.5733 78.6503 13.45 79.157 13.45C79.6503 13.45 80.0736 13.575 80.427 13.825C80.7803 14.075 81.0503 14.415 81.237 14.845C81.427 15.275 81.522 15.7583 81.522 16.295C81.522 16.835 81.427 17.32 81.237 17.75C81.047 18.18 80.7736 18.5217 80.417 18.775C80.0603 19.025 79.6303 19.15 79.127 19.15ZM76.697 21.4V13.6H77.357V17.665H77.437V21.4H76.697ZM79.052 18.465C79.4286 18.465 79.742 18.37 79.992 18.18C80.242 17.99 80.4286 17.7317 80.552 17.405C80.6786 17.075 80.742 16.705 80.742 16.295C80.742 15.8883 80.6803 15.5217 80.557 15.195C80.4336 14.8683 80.2453 14.61 79.992 14.42C79.742 14.23 79.4236 14.135 79.037 14.135C78.6603 14.135 78.347 14.2267 78.097 14.41C77.8503 14.5933 77.6653 14.8483 77.542 15.175C77.4186 15.4983 77.357 15.8717 77.357 16.295C77.357 16.7117 77.4186 17.085 77.542 17.415C77.6653 17.7417 77.852 17.9983 78.102 18.185C78.352 18.3717 78.6686 18.465 79.052 18.465Z" fill="black"/>
<g id="chevron-down">
<g id="Vector">
<path d="M19.7998 18.3999L14.9998 13.5999L10.1998 18.3999" fill="black"/>
<path d="M19.7998 18.3999L14.9998 13.5999L10.1998 18.3999H19.7998Z" stroke="black" stroke-linecap="round" stroke-linejoin="round"/>
</g>
</g>
</g>
</g>
</g>
</g>
</svg>
