<svg width="24" height="24" viewBox="0 0 24 24" fill="none" xmlns="http://www.w3.org/2000/svg">
<circle opacity="0.1" cx="12" cy="12" r="12" fill="black"/>
<g clip-path="url(#clip0_2826_8645)">
<path d="M8.637 10.6482L11.927 7.35838L15.2187 10.65L17.1331 8.73564L11.927 3.52942L6.72266 8.7339L8.637 10.6482Z" fill="#F3BA2F"/>
<path d="M7.28541 11.9997L5.37109 10.0854L3.45668 11.9998L5.371 13.9141L7.28541 11.9997Z" fill="#F3BA2F"/>
<path d="M8.63688 13.3518L11.9269 16.6416L15.2185 13.3502L17.1339 15.2634L17.133 15.2645L11.9269 20.4706L6.7224 15.2662L6.71973 15.2636L8.63688 13.3518Z" fill="#F3BA2F"/>
<path d="M18.4831 13.915L20.3975 12.0006L18.4831 10.0863L16.5687 12.0007L18.4831 13.915Z" fill="#F3BA2F"/>
<path d="M13.8682 11.999H13.869L11.9264 10.0564L10.4908 11.492H10.4907L10.3259 11.657L9.98559 11.9973L9.98291 11.9999L9.98559 12.0028L11.9264 13.9436L13.869 12.001L13.8699 11.9999L13.8682 11.999Z" fill="#F3BA2F"/>
</g>
<defs>
<clipPath id="clip0_2826_8645">
<rect width="16.9412" height="16.9412" fill="white" transform="translate(3.5293 3.52942)"/>
</clipPath>
</defs>
</svg>
