<svg width="12" height="12" viewBox="0 0 12 12" fill="none" xmlns="http://www.w3.org/2000/svg">
<g clip-path="url(#clip0_417_4112)">
<path d="M3.61771 5.0425L5.94813 2.71218L8.27977 5.04373L9.63577 3.68774L5.94813 0L2.26172 3.6865L3.61771 5.0425Z" fill="#F3BA2F"/>
<path d="M2.66066 5.99977L1.30469 4.6438L-0.051352 5.99984L1.30462 7.35581L2.66066 5.99977Z" fill="#F3BA2F"/>
<path d="M3.61775 6.95756L5.94817 9.28788L8.27972 6.95642L9.63647 8.31166L9.63581 8.31242L5.94817 12.0001L2.26166 8.31365L2.25977 8.31175L3.61775 6.95756Z" fill="#F3BA2F"/>
<path d="M10.5922 7.35641L11.9482 6.00037L10.5923 4.64439L9.23623 6.00043L10.5922 7.35641Z" fill="#F3BA2F"/>
<path d="M7.32337 5.99929H7.32394L5.94795 4.62329L4.93107 5.64017H4.93097L4.81421 5.75703L4.57318 5.99805L4.57129 5.99995L4.57318 6.00194L5.94795 7.3767L7.32394 6.00071L7.3246 5.99995L7.32337 5.99929Z" fill="#F3BA2F"/>
</g>
<defs>
<clipPath id="clip0_417_4112">
<rect width="12" height="12" fill="white"/>
</clipPath>
</defs>
</svg>
