<svg width="31" height="29" viewBox="0 0 31 29" fill="none" xmlns="http://www.w3.org/2000/svg">
<g id="Component 2">
<g id="Group">
<path id="Vector" d="M27.9225 13.8563C27.8853 14.1024 27.9314 14.3546 27.9444 14.6041C27.9676 15.042 28.0022 15.4795 28.0122 15.9167C28.0421 17.234 27.9607 18.6077 27.3079 19.7848C27.255 19.8798 27.1995 19.9742 27.1404 20.0675C27.0929 20.1429 27.0364 20.212 26.975 20.2765C26.4268 20.8522 25.9358 21.4885 25.4846 22.1602C24.7481 23.2569 24.2075 24.7602 23.2092 25.6343C22.4218 26.3236 21.3401 26.5725 20.3587 26.8489C19.4385 27.108 18.7361 27.6569 17.8906 28.0721C17.0773 28.4715 16.1106 28.5638 15.2195 28.4615C14.4724 28.3758 13.7524 28.4363 13.0083 28.2559C12.3113 28.0868 11.5953 27.8113 10.9378 27.6097C9.36244 27.1263 7.5558 27.322 6.19535 26.2808C5.11429 25.4539 4.38905 24.2426 3.23988 23.4921C2.74022 23.1658 2.23324 22.83 1.85982 22.3652C0.899365 21.1702 1.6276 19.4878 1.16813 18.1207C1.11365 17.9579 1.05086 17.7958 0.979098 17.6343C0.926939 17.5074 0.870461 17.3825 0.809996 17.2592C-0.116908 15.3662 -0.2591 13.0925 0.439234 11.1008C0.474782 10.9998 0.521294 10.9021 0.579433 10.8124C0.983417 10.1888 1.53491 9.64932 1.81963 8.95796C2.09604 8.28753 2.12128 7.54601 2.33457 6.85697C2.59171 6.02641 3.1246 5.16795 3.85217 4.67659C4.70566 4.10084 5.70964 3.78922 6.56511 3.15699C7.78504 2.25567 8.9641 1.1291 10.4375 0.654019C11.9269 0.173291 13.289 0.966642 14.7697 1.01947C14.9112 1.02445 15.0528 1.02511 15.1963 1.02511C15.2016 1.02511 15.2066 1.02511 15.2119 1.02511C15.9202 1.02412 16.5192 1.557 16.593 2.26165C16.6116 2.43773 16.6541 2.6075 16.7308 2.75999C16.9212 3.13872 16.9146 3.58722 16.7288 3.96829C16.3754 4.69353 16.0262 5.8397 16.5817 6.92442C17.0956 7.92873 18.0448 8.26726 18.7697 8.37258C19.3282 8.45364 19.776 8.86493 19.9218 9.40978C20.1042 10.0922 20.4684 10.9224 21.184 11.2337C21.977 11.5785 23.1065 11.349 23.866 11.1184C24.3281 10.9782 24.8331 11.0815 25.1922 11.4041C25.5873 11.7586 26.2029 12.139 27.0079 12.1084C27.0079 12.1084 28.1982 12.0211 27.9218 13.8566L27.9225 13.8563Z" fill="#F7B658"/>
<path id="Vector_2" d="M5.11431 7.93988C5.47776 7.00566 6.72327 6.53856 7.70964 7.31696C8.69568 8.09536 8.01761 10.0173 6.03955 9.86013C4.73258 9.75648 4.75119 8.87409 5.11464 7.93955L5.11431 7.93988ZM13.7917 2.43094C13.0608 2.20702 12.4066 2.813 12.4913 3.56449C12.5598 4.17146 13.0847 4.67976 13.6714 4.79903C14.4445 4.95618 15.1106 5.11398 15.1322 4.06415C15.1216 3.94489 15.1003 3.8296 15.0687 3.71964C14.9056 3.14821 14.3581 2.60536 13.7913 2.43127L13.7917 2.43094ZM11.4342 12.6382C11.2558 12.6757 11.0987 12.5913 10.9199 12.6193C10.6943 12.6545 10.4741 12.7688 10.302 12.9163C8.8382 14.1707 11.8056 15.8963 13.0119 14.6937C13.6996 14.0079 13.6764 12.6538 12.6153 12.3591C12.3907 12.2967 12.1425 12.294 11.9209 12.3704C11.7531 12.4282 11.6295 12.5854 11.4601 12.6319C11.4515 12.6342 11.4428 12.6362 11.4345 12.6382H11.4342ZM17.3043 8.99303C17.2096 8.94884 17.1299 8.86579 17.071 8.70831C16.9644 8.42293 17.0584 8.22194 16.7913 8.02592C15.8754 7.35384 15.3352 8.67011 15.377 9.34917C15.4249 10.1229 15.8578 11.0296 16.682 11.2066C17.2019 11.3183 17.8006 11.1472 18.1644 10.7532C18.4219 10.4741 18.591 10.0346 18.478 9.6608C18.2704 8.97442 17.7873 9.21894 17.3043 8.99336V8.99303ZM6.70466 16.7671C5.9442 16.0528 4.61796 15.7877 3.95451 16.8488C3.68907 17.2468 3.68907 17.7774 3.82195 18.1754C4.35252 19.369 5.81164 18.7059 6.85383 18.8401C6.9535 18.7996 7.02725 18.7239 7.07875 18.6235C7.13024 18.5235 7.15948 18.399 7.17044 18.2624C7.1814 18.1259 7.17376 17.9764 7.15117 17.8265C7.00532 17.5119 7.00533 17.2468 6.86778 17.0156C6.81463 16.9192 6.75915 16.8345 6.70466 16.7671ZM10.5418 20.9295C9.79102 21.2258 9.1279 22.1544 9.65846 22.9501C10.189 23.4807 11.2502 22.9501 11.7023 23.6986C11.7658 23.8252 11.8352 23.8923 11.9063 23.9175C12.0485 23.9677 12.1973 23.8507 12.3139 23.6956C12.3721 23.6179 12.4226 23.5308 12.4598 23.4501C13.2398 22.287 12.4442 20.2973 10.8585 20.8036C10.7495 20.8335 10.6428 20.876 10.5418 20.9295ZM19.3956 17.9139C19.7564 17.0983 19.689 15.8604 18.6481 15.6236C18.2242 15.5269 17.7056 15.6927 17.6249 16.1711C17.4568 17.1674 15.4355 16.1289 15.6488 17.5485C15.8053 18.59 16.8906 19.0561 17.8747 18.9328C18.5245 18.8514 19.1302 18.5132 19.3953 17.9139H19.3956ZM24.9929 14.2206C24.2664 13.7535 22.5016 14.486 22.865 15.5471C23.2285 16.6083 24.6298 17.1272 25.4604 16.5564C26.2909 15.9853 26.4341 15.29 26.0188 14.7192C25.6036 14.1481 24.9933 14.2209 24.9933 14.2209L24.9929 14.2206ZM20.9534 23.4185C21.0654 22.9501 21.5959 22.1544 21.0654 22.0215C20.5348 21.889 19.7388 21.889 19.3043 22.3647C19.2315 22.4149 19.1621 22.4697 19.096 22.5298C19.0302 22.59 18.9677 22.6551 18.9099 22.7262C18.6574 23.0358 18.4073 23.4484 18.4896 23.8634C18.5491 24.163 18.7617 24.4278 19.0418 24.5501C19.5046 24.7524 20.0295 24.56 20.4033 24.2441C20.478 24.181 20.5468 24.1125 20.6072 24.0418C20.6923 23.9421 20.7624 23.8371 20.8195 23.7315C20.8767 23.6262 20.9199 23.5212 20.9537 23.4185H20.9534Z" fill="#593412"/>
<path id="Vector_3" d="M26.0055 10.1183C26.0553 10.3336 25.9686 10.6522 25.6909 10.6177C25.2992 10.5688 24.4766 10.8432 24.3962 10.3466C24.3162 9.85188 25.0663 9.52498 25.5759 9.67647C25.7829 9.73793 25.95 9.87846 26.0058 10.1187L26.0055 10.1183ZM29.538 11.5339C29.2969 11.306 29.0663 11.1927 28.8284 11.5655C28.6171 11.8967 29.0125 12.2509 28.9261 12.5788C28.8397 12.9067 28.7729 13.1077 29.2148 13.1871C29.55 13.2475 29.9493 12.9645 30.0463 12.6509C30.1603 12.2814 29.9018 11.9087 29.659 11.6555C29.6181 11.613 29.5776 11.5718 29.5377 11.5339H29.538ZM29.062 10.0452C28.6191 10.0452 28.4198 10.4602 28.7686 10.5987C29.1175 10.7369 29.8646 10.1838 29.062 10.0452ZM20.4883 1.28715C20.1052 1.06522 19.7245 1.32436 19.9567 1.61871C20.1889 1.91339 21.1132 1.80907 20.4883 1.28715ZM27.244 10.7253C26.9892 10.7167 26.5457 10.9067 27.1171 11.2393C27.3111 11.3522 27.7696 11.8213 27.8085 11.3299C27.8347 10.9991 27.564 10.7363 27.244 10.7253ZM26.964 8.86883C26.7467 9.08544 26.5656 9.42232 26.7799 9.51301C27.0862 9.64225 27.8098 9.54125 27.7035 9.08046C27.6663 8.91933 27.466 8.75355 27.3168 8.68744C27.2374 8.65222 27.0942 8.73893 26.9636 8.86883H26.964ZM17.5205 0.814727C17.1534 0.712734 16.9703 1.23798 17.2242 1.4918C17.478 1.74562 17.182 1.99778 17.7321 2.16788C18.2823 2.33831 18.2823 1.02602 17.5205 0.814395V0.814727ZM17.9949 3.22601C17.8145 3.23531 17.6986 3.4187 17.7375 3.5878C17.7843 3.79079 17.9501 3.79976 18.1139 3.85723C18.2165 3.89311 18.3378 4.15856 18.4687 4.03963C18.5019 4.00973 18.5145 3.96222 18.5125 3.91737C18.5002 3.6373 18.3355 3.20807 17.9946 3.22601H17.9949Z" fill="#F7B658"/>
</g>
</g>
</svg>
