<svg width="185" height="133" viewBox="0 0 185 133" fill="none" xmlns="http://www.w3.org/2000/svg">
<rect x="1.33594" y="0.5" width="182.418" height="132" rx="1.5" stroke="#989898"/>
<rect x="7.79004" y="6.08496" width="170.379" height="119.961" fill="#191919"/>
<g filter="url(#filter0_d_375_5569)">
<rect x="7.79004" y="6.08496" width="170.379" height="12.1699" fill="#191919"/>
</g>
<g filter="url(#filter1_d_375_5569)">
<rect x="7.79004" y="6.08496" width="26.9477" height="119.961" fill="#191919"/>
</g>
<line x1="14.3486" y1="11.8407" x2="13.0666" y2="14.7709" stroke="#676767" stroke-width="0.5" stroke-linecap="round" stroke-linejoin="round"/>
<path d="M14.7399 14.9422L16.7019 10.4381C16.852 10.0937 17.2506 9.93328 17.5974 10.0778V10.0778C17.9522 10.2256 18.1171 10.6355 17.9635 10.9879L16.6778 13.9373C16.5479 14.2352 16.6835 14.5821 16.9809 14.713V14.713C17.2716 14.8409 17.6113 14.7158 17.7496 14.43L18.137 13.6291" stroke="#676767" stroke-width="0.5" stroke-linecap="round" stroke-linejoin="round"/>
<rect x="45.1689" y="26.0784" width="58.2418" height="43.4641" rx="2" fill="#202020"/>
<rect x="45.1689" y="76.4967" width="126.046" height="43.4641" rx="2" fill="#202020"/>
<rect x="110.365" y="26.0784" width="60.8497" height="43.4641" rx="2" fill="#202020"/>
<path opacity="0.5" d="M13.0059 26.9477H29.5222" stroke="#464646" stroke-width="2" stroke-linecap="round"/>
<path opacity="0.5" d="M13.0059 37.3791H29.5222" stroke="#464646" stroke-width="2" stroke-linecap="round"/>
<path opacity="0.5" d="M13.0059 47.8105H29.5222" stroke="#464646" stroke-width="2" stroke-linecap="round"/>
<path opacity="0.5" d="M13.0059 58.2418H29.5222" stroke="#464646" stroke-width="2" stroke-linecap="round"/>
<defs>
<filter id="filter0_d_375_5569" x="7.79004" y="6.08496" width="170.379" height="13.1699" filterUnits="userSpaceOnUse" color-interpolation-filters="sRGB">
<feFlood flood-opacity="0" result="BackgroundImageFix"/>
<feColorMatrix in="SourceAlpha" type="matrix" values="0 0 0 0 0 0 0 0 0 0 0 0 0 0 0 0 0 0 127 0" result="hardAlpha"/>
<feOffset dy="1"/>
<feComposite in2="hardAlpha" operator="out"/>
<feColorMatrix type="matrix" values="0 0 0 0 1 0 0 0 0 1 0 0 0 0 1 0 0 0 0.06 0"/>
<feBlend mode="normal" in2="BackgroundImageFix" result="effect1_dropShadow_375_5569"/>
<feBlend mode="normal" in="SourceGraphic" in2="effect1_dropShadow_375_5569" result="shape"/>
</filter>
<filter id="filter1_d_375_5569" x="7.79004" y="6.08496" width="27.9473" height="119.961" filterUnits="userSpaceOnUse" color-interpolation-filters="sRGB">
<feFlood flood-opacity="0" result="BackgroundImageFix"/>
<feColorMatrix in="SourceAlpha" type="matrix" values="0 0 0 0 0 0 0 0 0 0 0 0 0 0 0 0 0 0 127 0" result="hardAlpha"/>
<feOffset dx="1"/>
<feComposite in2="hardAlpha" operator="out"/>
<feColorMatrix type="matrix" values="0 0 0 0 1 0 0 0 0 1 0 0 0 0 1 0 0 0 0.06 0"/>
<feBlend mode="normal" in2="BackgroundImageFix" result="effect1_dropShadow_375_5569"/>
<feBlend mode="normal" in="SourceGraphic" in2="effect1_dropShadow_375_5569" result="shape"/>
</filter>
</defs>
</svg>
