<svg width="380" height="154" viewBox="0 0 380 154" fill="none" xmlns="http://www.w3.org/2000/svg">
<rect x="0.5" y="0.5" width="379" height="153" stroke="url(#paint0_linear_5322_4160)"/>
<path d="M26.1 108V94H28.1V106.26H35.68V108H26.1ZM37.395 108V97.4H39.315V108H37.395ZM38.355 95.36C37.9817 95.36 37.6683 95.24 37.415 95C37.175 94.76 37.055 94.4667 37.055 94.12C37.055 93.76 37.175 93.46 37.415 93.22C37.6683 92.98 37.9817 92.86 38.355 92.86C38.7283 92.86 39.035 92.98 39.275 93.22C39.5283 93.4467 39.655 93.7333 39.655 94.08C39.655 94.44 39.535 94.7467 39.295 95C39.055 95.24 38.7417 95.36 38.355 95.36ZM55.9409 97.3C56.7943 97.3 57.5476 97.4667 58.2009 97.8C58.8543 98.1333 59.3609 98.64 59.7209 99.32C60.0943 100 60.2809 100.86 60.2809 101.9V108H58.3609V102.12C58.3609 101.093 58.1209 100.32 57.6409 99.8C57.1609 99.28 56.4876 99.02 55.6209 99.02C54.9809 99.02 54.4209 99.1533 53.9409 99.42C53.4609 99.6867 53.0876 100.08 52.8209 100.6C52.5676 101.12 52.4409 101.767 52.4409 102.54V108H50.5209V102.12C50.5209 101.093 50.2809 100.32 49.8009 99.8C49.3343 99.28 48.6609 99.02 47.7809 99.02C47.1543 99.02 46.6009 99.1533 46.1209 99.42C45.6409 99.6867 45.2676 100.08 45.0009 100.6C44.7343 101.12 44.6009 101.767 44.6009 102.54V108H42.6809V97.4H44.5209V100.22L44.2209 99.5C44.5543 98.8067 45.0676 98.2667 45.7609 97.88C46.4543 97.4933 47.2609 97.3 48.1809 97.3C49.1943 97.3 50.0676 97.5533 50.8009 98.06C51.5343 98.5533 52.0143 99.3067 52.2409 100.32L51.4609 100C51.7809 99.1867 52.3409 98.5333 53.1409 98.04C53.9409 97.5467 54.8743 97.3 55.9409 97.3ZM63.5137 108V97.4H65.4337V108H63.5137ZM64.4737 95.36C64.1004 95.36 63.7871 95.24 63.5337 95C63.2937 94.76 63.1737 94.4667 63.1737 94.12C63.1737 93.76 63.2937 93.46 63.5337 93.22C63.7871 92.98 64.1004 92.86 64.4737 92.86C64.8471 92.86 65.1537 92.98 65.3937 93.22C65.6471 93.4467 65.7737 93.7333 65.7737 94.08C65.7737 94.44 65.6537 94.7467 65.4137 95C65.1737 95.24 64.8604 95.36 64.4737 95.36ZM72.4397 108.12C71.373 108.12 70.5464 107.833 69.9597 107.26C69.373 106.687 69.0797 105.867 69.0797 104.8V95.08H70.9997V104.72C70.9997 105.293 71.1397 105.733 71.4197 106.04C71.713 106.347 72.1264 106.5 72.6597 106.5C73.2597 106.5 73.7597 106.333 74.1597 106L74.7597 107.38C74.4664 107.633 74.113 107.82 73.6997 107.94C73.2997 108.06 72.8797 108.12 72.4397 108.12ZM67.2797 98.98V97.4H74.0397V98.98H67.2797ZM76.7809 108V93.16H78.7009V108H76.7809ZM86.7869 108.12C85.6535 108.12 84.6535 107.887 83.7869 107.42C82.9335 106.953 82.2669 106.313 81.7869 105.5C81.3202 104.687 81.0869 103.753 81.0869 102.7C81.0869 101.647 81.3135 100.713 81.7669 99.9C82.2335 99.0867 82.8669 98.4533 83.6669 98C84.4802 97.5333 85.3935 97.3 86.4069 97.3C87.4335 97.3 88.3402 97.5267 89.1269 97.98C89.9135 98.4333 90.5269 99.0733 90.9669 99.9C91.4202 100.713 91.6469 101.667 91.6469 102.76C91.6469 102.84 91.6402 102.933 91.6269 103.04C91.6269 103.147 91.6202 103.247 91.6069 103.34H82.5869V101.96H90.6069L89.8269 102.44C89.8402 101.76 89.7002 101.153 89.4069 100.62C89.1135 100.087 88.7069 99.6733 88.1869 99.38C87.6802 99.0733 87.0869 98.92 86.4069 98.92C85.7402 98.92 85.1469 99.0733 84.6269 99.38C84.1069 99.6733 83.7002 100.093 83.4069 100.64C83.1135 101.173 82.9669 101.787 82.9669 102.48V102.8C82.9669 103.507 83.1269 104.14 83.4469 104.7C83.7802 105.247 84.2402 105.673 84.8269 105.98C85.4135 106.287 86.0869 106.44 86.8469 106.44C87.4735 106.44 88.0402 106.333 88.5469 106.12C89.0669 105.907 89.5202 105.587 89.9069 105.16L90.9669 106.4C90.4869 106.96 89.8869 107.387 89.1669 107.68C88.4602 107.973 87.6669 108.12 86.7869 108.12ZM97.053 108.12C96.173 108.12 95.333 108 94.533 107.76C93.7463 107.52 93.1263 107.227 92.673 106.88L93.473 105.36C93.9263 105.667 94.4863 105.927 95.153 106.14C95.8196 106.353 96.4996 106.46 97.193 106.46C98.0863 106.46 98.7263 106.333 99.113 106.08C99.513 105.827 99.713 105.473 99.713 105.02C99.713 104.687 99.593 104.427 99.353 104.24C99.113 104.053 98.793 103.913 98.393 103.82C98.0063 103.727 97.573 103.647 97.093 103.58C96.613 103.5 96.133 103.407 95.653 103.3C95.173 103.18 94.733 103.02 94.333 102.82C93.933 102.607 93.613 102.32 93.373 101.96C93.133 101.587 93.013 101.093 93.013 100.48C93.013 99.84 93.193 99.28 93.553 98.8C93.913 98.32 94.4196 97.9533 95.073 97.7C95.7396 97.4333 96.5263 97.3 97.433 97.3C98.1263 97.3 98.8263 97.3867 99.533 97.56C100.253 97.72 100.84 97.9533 101.293 98.26L100.473 99.78C99.993 99.46 99.493 99.24 98.973 99.12C98.453 99 97.933 98.94 97.413 98.94C96.573 98.94 95.9463 99.08 95.533 99.36C95.1196 99.6267 94.913 99.9733 94.913 100.4C94.913 100.76 95.033 101.04 95.273 101.24C95.5263 101.427 95.8463 101.573 96.233 101.68C96.633 101.787 97.073 101.88 97.553 101.96C98.033 102.027 98.513 102.12 98.993 102.24C99.473 102.347 99.9063 102.5 100.293 102.7C100.693 102.9 101.013 103.18 101.253 103.54C101.506 103.9 101.633 104.38 101.633 104.98C101.633 105.62 101.446 106.173 101.073 106.64C100.7 107.107 100.173 107.473 99.493 107.74C98.813 107.993 97.9996 108.12 97.053 108.12ZM106.772 108.12C105.892 108.12 105.052 108 104.252 107.76C103.466 107.52 102.846 107.227 102.392 106.88L103.192 105.36C103.646 105.667 104.206 105.927 104.872 106.14C105.539 106.353 106.219 106.46 106.912 106.46C107.806 106.46 108.446 106.333 108.832 106.08C109.232 105.827 109.432 105.473 109.432 105.02C109.432 104.687 109.312 104.427 109.072 104.24C108.832 104.053 108.512 103.913 108.112 103.82C107.726 103.727 107.292 103.647 106.812 103.58C106.332 103.5 105.852 103.407 105.372 103.3C104.892 103.18 104.452 103.02 104.052 102.82C103.652 102.607 103.332 102.32 103.092 101.96C102.852 101.587 102.732 101.093 102.732 100.48C102.732 99.84 102.912 99.28 103.272 98.8C103.632 98.32 104.139 97.9533 104.792 97.7C105.459 97.4333 106.246 97.3 107.152 97.3C107.846 97.3 108.546 97.3867 109.252 97.56C109.972 97.72 110.559 97.9533 111.012 98.26L110.192 99.78C109.712 99.46 109.212 99.24 108.692 99.12C108.172 99 107.652 98.94 107.132 98.94C106.292 98.94 105.666 99.08 105.252 99.36C104.839 99.6267 104.632 99.9733 104.632 100.4C104.632 100.76 104.752 101.04 104.992 101.24C105.246 101.427 105.566 101.573 105.952 101.68C106.352 101.787 106.792 101.88 107.272 101.96C107.752 102.027 108.232 102.12 108.712 102.24C109.192 102.347 109.626 102.5 110.012 102.7C110.412 102.9 110.732 103.18 110.972 103.54C111.226 103.9 111.352 104.38 111.352 104.98C111.352 105.62 111.166 106.173 110.792 106.64C110.419 107.107 109.892 107.473 109.212 107.74C108.532 107.993 107.719 108.12 106.772 108.12ZM116.683 108L123.023 94H125.003L131.363 108H129.263L123.603 95.12H124.403L118.743 108H116.683ZM119.383 104.5L119.923 102.9H127.803L128.383 104.5H119.383ZM133.152 108V94H135.152V108H133.152ZM145.934 100.04H153.134V101.74H145.934V100.04ZM146.114 106.26H154.274V108H144.114V94H153.994V95.74H146.114V106.26ZM162.593 97.3C163.459 97.3 164.219 97.4667 164.873 97.8C165.539 98.1333 166.059 98.64 166.433 99.32C166.806 100 166.993 100.86 166.993 101.9V108H165.073V102.12C165.073 101.093 164.819 100.32 164.313 99.8C163.819 99.28 163.119 99.02 162.213 99.02C161.533 99.02 160.939 99.1533 160.433 99.42C159.926 99.6867 159.533 100.08 159.253 100.6C158.986 101.12 158.853 101.767 158.853 102.54V108H156.933V97.4H158.773V100.26L158.473 99.5C158.819 98.8067 159.353 98.2667 160.073 97.88C160.793 97.4933 161.633 97.3 162.593 97.3ZM174.886 112C173.912 112 172.966 111.86 172.046 111.58C171.139 111.313 170.399 110.927 169.826 110.42L170.746 108.94C171.239 109.367 171.846 109.7 172.566 109.94C173.286 110.193 174.039 110.32 174.826 110.32C176.079 110.32 176.999 110.027 177.586 109.44C178.172 108.853 178.466 107.96 178.466 106.76V104.52L178.666 102.42L178.566 100.3V97.4H180.386V106.56C180.386 108.427 179.919 109.8 178.986 110.68C178.052 111.56 176.686 112 174.886 112ZM174.646 107.56C173.619 107.56 172.699 107.347 171.886 106.92C171.086 106.48 170.446 105.873 169.966 105.1C169.499 104.327 169.266 103.433 169.266 102.42C169.266 101.393 169.499 100.5 169.966 99.74C170.446 98.9667 171.086 98.3667 171.886 97.94C172.699 97.5133 173.619 97.3 174.646 97.3C175.552 97.3 176.379 97.4867 177.126 97.86C177.872 98.22 178.466 98.78 178.906 99.54C179.359 100.3 179.586 101.26 179.586 102.42C179.586 103.567 179.359 104.52 178.906 105.28C178.466 106.04 177.872 106.613 177.126 107C176.379 107.373 175.552 107.56 174.646 107.56ZM174.866 105.88C175.572 105.88 176.199 105.733 176.746 105.44C177.292 105.147 177.719 104.74 178.026 104.22C178.346 103.7 178.506 103.1 178.506 102.42C178.506 101.74 178.346 101.14 178.026 100.62C177.719 100.1 177.292 99.7 176.746 99.42C176.199 99.1267 175.572 98.98 174.866 98.98C174.159 98.98 173.526 99.1267 172.966 99.42C172.419 99.7 171.986 100.1 171.666 100.62C171.359 101.14 171.206 101.74 171.206 102.42C171.206 103.1 171.359 103.7 171.666 104.22C171.986 104.74 172.419 105.147 172.966 105.44C173.526 105.733 174.159 105.88 174.866 105.88ZM183.754 108V97.4H185.674V108H183.754ZM184.714 95.36C184.341 95.36 184.028 95.24 183.774 95C183.534 94.76 183.414 94.4667 183.414 94.12C183.414 93.76 183.534 93.46 183.774 93.22C184.028 92.98 184.341 92.86 184.714 92.86C185.088 92.86 185.394 92.98 185.634 93.22C185.888 93.4467 186.014 93.7333 186.014 94.08C186.014 94.44 185.894 94.7467 185.654 95C185.414 95.24 185.101 95.36 184.714 95.36ZM194.7 97.3C195.567 97.3 196.327 97.4667 196.98 97.8C197.647 98.1333 198.167 98.64 198.54 99.32C198.914 100 199.1 100.86 199.1 101.9V108H197.18V102.12C197.18 101.093 196.927 100.32 196.42 99.8C195.927 99.28 195.227 99.02 194.32 99.02C193.64 99.02 193.047 99.1533 192.54 99.42C192.034 99.6867 191.64 100.08 191.36 100.6C191.094 101.12 190.96 101.767 190.96 102.54V108H189.04V97.4H190.88V100.26L190.58 99.5C190.927 98.8067 191.46 98.2667 192.18 97.88C192.9 97.4933 193.74 97.3 194.7 97.3ZM207.074 108.12C205.94 108.12 204.94 107.887 204.074 107.42C203.22 106.953 202.554 106.313 202.074 105.5C201.607 104.687 201.374 103.753 201.374 102.7C201.374 101.647 201.6 100.713 202.054 99.9C202.52 99.0867 203.154 98.4533 203.954 98C204.767 97.5333 205.68 97.3 206.694 97.3C207.72 97.3 208.627 97.5267 209.414 97.98C210.2 98.4333 210.814 99.0733 211.254 99.9C211.707 100.713 211.934 101.667 211.934 102.76C211.934 102.84 211.927 102.933 211.914 103.04C211.914 103.147 211.907 103.247 211.894 103.34H202.874V101.96H210.894L210.114 102.44C210.127 101.76 209.987 101.153 209.694 100.62C209.4 100.087 208.994 99.6733 208.474 99.38C207.967 99.0733 207.374 98.92 206.694 98.92C206.027 98.92 205.434 99.0733 204.914 99.38C204.394 99.6733 203.987 100.093 203.694 100.64C203.4 101.173 203.254 101.787 203.254 102.48V102.8C203.254 103.507 203.414 104.14 203.734 104.7C204.067 105.247 204.527 105.673 205.114 105.98C205.7 106.287 206.374 106.44 207.134 106.44C207.76 106.44 208.327 106.333 208.834 106.12C209.354 105.907 209.807 105.587 210.194 105.16L211.254 106.4C210.774 106.96 210.174 107.387 209.454 107.68C208.747 107.973 207.954 108.12 207.074 108.12Z" fill="#DADADA"/>
<defs>
<linearGradient id="paint0_linear_5322_4160" x1="0" y1="0" x2="188.935" y2="155.295" gradientUnits="userSpaceOnUse">
<stop stop-color="#B27EFA" stop-opacity="0.42"/>
<stop offset="0.457909" stop-color="white" stop-opacity="0"/>
<stop offset="1" stop-color="#63B8FF" stop-opacity="0.42"/>
</linearGradient>
</defs>
</svg>
