<svg width="24" height="24" viewBox="0 0 24 24" fill="none" xmlns="http://www.w3.org/2000/svg">
<circle opacity="0.1" cx="12" cy="12" r="12" fill="black"/>
<g clip-path="url(#clip0_2826_8630)">
<path d="M12.3505 3.5293L12.2349 3.91525V15.1146L12.3505 15.228L17.643 12.1551L12.3505 3.5293Z" fill="#343434"/>
<path d="M12.3511 3.5293L7.05859 12.1551L12.3511 15.228V9.79217V3.5293Z" fill="#8C8C8C"/>
<path d="M12.3508 16.2124L12.2856 16.2904V20.2799L12.3508 20.4668L17.6465 13.1411L12.3508 16.2124Z" fill="#3C3C3B"/>
<path d="M12.3511 20.4666V16.2122L7.05859 13.1409L12.3511 20.4666Z" fill="#8C8C8C"/>
<path d="M12.3516 15.228L17.644 12.1552L12.3516 9.79227V15.228Z" fill="#141414"/>
<path d="M7.05859 12.1551L12.3511 15.228V9.79221L7.05859 12.1551Z" fill="#393939"/>
</g>
<defs>
<clipPath id="clip0_2826_8630">
<rect width="10.5882" height="16.9412" fill="white" transform="translate(7.05859 3.5293)"/>
</clipPath>
</defs>
</svg>
