<svg width="22" height="20" viewBox="0 0 22 20" fill="none" xmlns="http://www.w3.org/2000/svg">
<g filter="url(#filter0_d_417_7573)">
<circle cx="13" cy="10" r="9" fill="#D9D9D9"/>
<g clip-path="url(#clip0_417_7573)">
<path d="M13.1953 2.50012L13.0928 2.84868V12.9631L13.1953 13.0655L17.8903 10.2903L13.1953 2.50012Z" fill="#343434"/>
<path d="M13.195 2.50012L8.5 10.2903L13.195 13.0655V8.15628V2.50012Z" fill="#8C8C8C"/>
<path d="M13.1945 13.9545L13.1367 14.0249V17.6279L13.1945 17.7967L17.8923 11.1807L13.1945 13.9545Z" fill="#3C3C3B"/>
<path d="M13.195 17.7966V13.9544L8.5 11.1805L13.195 17.7966Z" fill="#8C8C8C"/>
<path d="M13.1953 13.0654L17.8902 10.2903L13.1953 8.15625V13.0654Z" fill="#141414"/>
<path d="M8.5 10.2903L13.1949 13.0654V8.15625L8.5 10.2903Z" fill="#393939"/>
</g>
</g>
<defs>
<filter id="filter0_d_417_7573" x="0" y="0" width="22" height="20" filterUnits="userSpaceOnUse" color-interpolation-filters="sRGB">
<feFlood flood-opacity="0" result="BackgroundImageFix"/>
<feColorMatrix in="SourceAlpha" type="matrix" values="0 0 0 0 0 0 0 0 0 0 0 0 0 0 0 0 0 0 127 0" result="hardAlpha"/>
<feOffset dx="-3"/>
<feGaussianBlur stdDeviation="0.5"/>
<feComposite in2="hardAlpha" operator="out"/>
<feColorMatrix type="matrix" values="0 0 0 0 0 0 0 0 0 0 0 0 0 0 0 0 0 0 0.25 0"/>
<feBlend mode="normal" in2="BackgroundImageFix" result="effect1_dropShadow_417_7573"/>
<feBlend mode="normal" in="SourceGraphic" in2="effect1_dropShadow_417_7573" result="shape"/>
</filter>
<clipPath id="clip0_417_7573">
<rect width="9.3928" height="15.3" fill="white" transform="translate(8.5 2.50012)"/>
</clipPath>
</defs>
</svg>
