<svg width="24" height="24" viewBox="0 0 24 24" fill="none" xmlns="http://www.w3.org/2000/svg">
<path d="M12.2451 9.81815V14.4654H18.8351C18.5457 15.96 17.6773 17.2255 16.3749 18.0764L20.3489 21.0982C22.6643 19.0037 24.0002 15.9273 24.0002 12.2728C24.0002 11.4219 23.9223 10.6037 23.7775 9.81828L12.2451 9.81815Z" fill="#4285F4"/>
<path d="M5.38236 14.284L4.48607 14.9564L1.31348 17.3782C3.32831 21.2945 7.45788 24 12.2445 24C15.5505 24 18.3223 22.9309 20.3483 21.0982L16.3743 18.0764C15.2834 18.7964 13.8919 19.2328 12.2445 19.2328C9.06083 19.2328 6.3559 17.1273 5.38737 14.291L5.38236 14.284Z" fill="#34A853"/>
<path d="M1.31345 6.62183C0.478614 8.23631 0 10.0581 0 11.9999C0 13.9417 0.478614 15.7636 1.31345 17.378C1.31345 17.3889 5.38773 14.2799 5.38773 14.2799C5.14283 13.5599 4.99808 12.7963 4.99808 11.9998C4.99808 11.2033 5.14283 10.4398 5.38773 9.71976L1.31345 6.62183Z" fill="#FBBC05"/>
<path d="M12.2447 4.77818C14.0481 4.77818 15.651 5.38907 16.9312 6.56727L20.4376 3.13095C18.3115 1.18917 15.5509 0 12.2447 0C7.45813 0 3.32831 2.69454 1.31348 6.62183L5.38763 9.72001C6.35604 6.88362 9.06108 4.77818 12.2447 4.77818Z" fill="#EA4335"/>
</svg>
