<svg width="184" height="133" viewBox="0 0 184 133" fill="none" xmlns="http://www.w3.org/2000/svg">
<rect opacity="0.3" x="0.917969" y="0.5" width="182.418" height="132" rx="1.5" stroke="#333333"/>
<rect x="7.37207" y="6.08496" width="170.379" height="119.961" fill="#DDDDDF"/>
<g filter="url(#filter0_d_375_5593)">
<rect x="7.37207" y="6.08496" width="170.379" height="12.1699" fill="white"/>
</g>
<g filter="url(#filter1_d_375_5593)">
<rect x="7.37207" y="6.08496" width="26.9477" height="119.961" fill="white"/>
</g>
<line x1="13.9306" y1="11.8407" x2="12.6486" y2="14.7709" stroke="#676767" stroke-width="0.5" stroke-linecap="round" stroke-linejoin="round"/>
<path d="M14.3219 14.9422L16.2839 10.4381C16.434 10.0937 16.8326 9.93328 17.1794 10.0778V10.0778C17.5342 10.2256 17.6991 10.6355 17.5455 10.9879L16.2598 13.9373C16.13 14.2352 16.2655 14.5821 16.563 14.713V14.713C16.8536 14.8409 17.1933 14.7158 17.3316 14.43L17.7191 13.6291" stroke="#676767" stroke-width="0.5" stroke-linecap="round" stroke-linejoin="round"/>
<rect x="44.751" y="26.0784" width="58.2418" height="43.4641" rx="2" fill="white"/>
<rect x="44.751" y="76.4967" width="126.046" height="43.4641" rx="2" fill="white"/>
<rect x="109.947" y="26.0784" width="60.8497" height="43.4641" rx="2" fill="white"/>
<path opacity="0.3" d="M12.5879 26.9477H29.1042" stroke="#464646" stroke-width="2" stroke-linecap="round"/>
<path opacity="0.3" d="M12.5879 37.3791H29.1042" stroke="#464646" stroke-width="2" stroke-linecap="round"/>
<path opacity="0.3" d="M12.5879 47.8105H29.1042" stroke="#464646" stroke-width="2" stroke-linecap="round"/>
<path opacity="0.3" d="M12.5879 58.2418H29.1042" stroke="#464646" stroke-width="2" stroke-linecap="round"/>
<defs>
<filter id="filter0_d_375_5593" x="7.37207" y="6.08496" width="170.379" height="13.1699" filterUnits="userSpaceOnUse" color-interpolation-filters="sRGB">
<feFlood flood-opacity="0" result="BackgroundImageFix"/>
<feColorMatrix in="SourceAlpha" type="matrix" values="0 0 0 0 0 0 0 0 0 0 0 0 0 0 0 0 0 0 127 0" result="hardAlpha"/>
<feOffset dy="1"/>
<feComposite in2="hardAlpha" operator="out"/>
<feColorMatrix type="matrix" values="0 0 0 0 1 0 0 0 0 1 0 0 0 0 1 0 0 0 0.06 0"/>
<feBlend mode="normal" in2="BackgroundImageFix" result="effect1_dropShadow_375_5593"/>
<feBlend mode="normal" in="SourceGraphic" in2="effect1_dropShadow_375_5593" result="shape"/>
</filter>
<filter id="filter1_d_375_5593" x="7.37207" y="6.08496" width="27.9473" height="119.961" filterUnits="userSpaceOnUse" color-interpolation-filters="sRGB">
<feFlood flood-opacity="0" result="BackgroundImageFix"/>
<feColorMatrix in="SourceAlpha" type="matrix" values="0 0 0 0 0 0 0 0 0 0 0 0 0 0 0 0 0 0 127 0" result="hardAlpha"/>
<feOffset dx="1"/>
<feComposite in2="hardAlpha" operator="out"/>
<feColorMatrix type="matrix" values="0 0 0 0 1 0 0 0 0 1 0 0 0 0 1 0 0 0 0.06 0"/>
<feBlend mode="normal" in2="BackgroundImageFix" result="effect1_dropShadow_375_5593"/>
<feBlend mode="normal" in="SourceGraphic" in2="effect1_dropShadow_375_5593" result="shape"/>
</filter>
</defs>
</svg>
