<svg width="23" height="20" viewBox="0 0 23 20" fill="none" xmlns="http://www.w3.org/2000/svg">
<g filter="url(#filter0_d_417_7623)">
<circle cx="13.75" cy="10" r="9" fill="white"/>
<g clip-path="url(#clip0_417_7623)">
<path d="M17.3799 8.13684C17.1475 8.00403 16.8486 8.00403 16.583 8.13684L14.7236 9.23254L13.4619 9.92981L11.6357 11.0255C11.4033 11.1583 11.1045 11.1583 10.8389 11.0255L9.41113 10.1622C9.17871 10.0294 9.0127 9.76379 9.0127 9.46497V7.80481C9.0127 7.53919 9.14551 7.27356 9.41113 7.10754L10.8389 6.27747C11.0713 6.14465 11.3701 6.14465 11.6357 6.27747L13.0635 7.14075C13.2959 7.27356 13.4619 7.53919 13.4619 7.83801V8.93372L14.7236 8.20325V7.07434C14.7236 6.80872 14.5908 6.54309 14.3252 6.37708L11.6689 4.81653C11.4365 4.68372 11.1377 4.68372 10.8721 4.81653L8.14941 6.41028C7.88379 6.54309 7.75098 6.80872 7.75098 7.07434V10.1954C7.75098 10.4611 7.88379 10.7267 8.14941 10.8927L10.8389 12.4532C11.0713 12.5861 11.3701 12.5861 11.6357 12.4532L13.4619 11.3907L14.7236 10.6603L16.5498 9.59778C16.7822 9.46497 17.0811 9.46497 17.3467 9.59778L18.7744 10.4279C19.0068 10.5607 19.1728 10.8263 19.1728 11.1251V12.7853C19.1728 13.0509 19.04 13.3165 18.7744 13.4825L17.3799 14.3126C17.1475 14.4454 16.8486 14.4454 16.583 14.3126L15.1553 13.4825C14.9229 13.3497 14.7568 13.0841 14.7568 12.7853V11.7228L13.4951 12.4532V13.549C13.4951 13.8146 13.6279 14.0802 13.8936 14.2462L16.583 15.8068C16.8154 15.9396 17.1143 15.9396 17.3799 15.8068L20.0693 14.2462C20.3018 14.1134 20.4678 13.8478 20.4678 13.549V10.3947C20.4678 10.129 20.335 9.8634 20.0693 9.69739L17.3799 8.13684Z" fill="#8247E5"/>
</g>
</g>
<defs>
<filter id="filter0_d_417_7623" x="0.75" y="0" width="22" height="20" filterUnits="userSpaceOnUse" color-interpolation-filters="sRGB">
<feFlood flood-opacity="0" result="BackgroundImageFix"/>
<feColorMatrix in="SourceAlpha" type="matrix" values="0 0 0 0 0 0 0 0 0 0 0 0 0 0 0 0 0 0 127 0" result="hardAlpha"/>
<feOffset dx="-3"/>
<feGaussianBlur stdDeviation="0.5"/>
<feComposite in2="hardAlpha" operator="out"/>
<feColorMatrix type="matrix" values="0 0 0 0 0 0 0 0 0 0 0 0 0 0 0 0 0 0 0.25 0"/>
<feBlend mode="normal" in2="BackgroundImageFix" result="effect1_dropShadow_417_7623"/>
<feBlend mode="normal" in="SourceGraphic" in2="effect1_dropShadow_417_7623" result="shape"/>
</filter>
<clipPath id="clip0_417_7623">
<rect width="12.75" height="11.123" fill="white" transform="translate(7.75098 4.75012)"/>
</clipPath>
</defs>
</svg>
