<svg width="14" height="12" viewBox="0 0 14 12" fill="none" xmlns="http://www.w3.org/2000/svg">
<g clip-path="url(#clip0_417_4137)">
<path d="M10.3881 3.65372C10.1373 3.51044 9.81493 3.51044 9.52836 3.65372L7.52239 4.83581L6.16119 5.58805L4.19104 6.77014C3.9403 6.91343 3.61791 6.91343 3.33134 6.77014L1.79104 5.8388C1.5403 5.69552 1.36119 5.40895 1.36119 5.08656V3.29552C1.36119 3.00895 1.50448 2.72238 1.79104 2.54328L3.33134 1.64775C3.58209 1.50447 3.90448 1.50447 4.19104 1.64775L5.73134 2.5791C5.98209 2.72238 6.16119 3.00895 6.16119 3.33134V4.51343L7.52239 3.72537V2.50746C7.52239 2.22089 7.3791 1.93432 7.09254 1.75522L4.22687 0.0716351C3.97612 -0.0716485 3.65373 -0.0716485 3.36716 0.0716351L0.429851 1.79104C0.143284 1.93432 0 2.22089 0 2.50746V5.87462C0 6.16119 0.143284 6.44775 0.429851 6.62686L3.33134 8.31044C3.58209 8.45372 3.90448 8.45372 4.19104 8.31044L6.16119 7.16417L7.52239 6.37611L9.49254 5.22984C9.74328 5.08656 10.0657 5.08656 10.3522 5.22984L11.8925 6.12537C12.1433 6.26865 12.3224 6.55522 12.3224 6.87761V8.66865C12.3224 8.95522 12.1791 9.24178 11.8925 9.42089L10.3881 10.3164C10.1373 10.4597 9.81493 10.4597 9.52836 10.3164L7.98806 9.42089C7.73731 9.27761 7.55821 8.99104 7.55821 8.66865V7.52238L6.19701 8.31044V9.49253C6.19701 9.7791 6.3403 10.0657 6.62687 10.2448L9.52836 11.9284C9.7791 12.0716 10.1015 12.0716 10.3881 11.9284L13.2896 10.2448C13.5403 10.1015 13.7194 9.81492 13.7194 9.49253V6.08955C13.7194 5.80298 13.5761 5.51641 13.2896 5.33731L10.3881 3.65372Z" fill="#8247E5"/>
</g>
<defs>
<clipPath id="clip0_417_4137">
<rect width="13.7552" height="12" fill="white"/>
</clipPath>
</defs>
</svg>
