<svg width="24" height="24" viewBox="0 0 24 24" fill="none" xmlns="http://www.w3.org/2000/svg">
<circle opacity="0.1" cx="12" cy="12" r="12" fill="black"/>
<g clip-path="url(#clip0_2826_8674)">
<path d="M15.3881 9.65372C15.1373 9.51044 14.8149 9.51044 14.5284 9.65372L12.5224 10.8358L11.1612 11.5881L9.19104 12.7701C8.9403 12.9134 8.61791 12.9134 8.33134 12.7701L6.79104 11.8388C6.5403 11.6955 6.36119 11.4089 6.36119 11.0866V9.29552C6.36119 9.00895 6.50448 8.72238 6.79104 8.54328L8.33134 7.64775C8.58209 7.50447 8.90448 7.50447 9.19104 7.64775L10.7313 8.5791C10.9821 8.72238 11.1612 9.00895 11.1612 9.33134V10.5134L12.5224 9.72537V8.50746C12.5224 8.22089 12.3791 7.93432 12.0925 7.75522L9.22687 6.07164C8.97612 5.92835 8.65373 5.92835 8.36716 6.07164L5.42985 7.79104C5.14328 7.93432 5 8.22089 5 8.50746V11.8746C5 12.1612 5.14328 12.4478 5.42985 12.6269L8.33134 14.3104C8.58209 14.4537 8.90448 14.4537 9.19104 14.3104L11.1612 13.1642L12.5224 12.3761L14.4925 11.2298C14.7433 11.0866 15.0657 11.0866 15.3522 11.2298L16.8925 12.1254C17.1433 12.2687 17.3224 12.5552 17.3224 12.8776V14.6687C17.3224 14.9552 17.1791 15.2418 16.8925 15.4209L15.3881 16.3164C15.1373 16.4597 14.8149 16.4597 14.5284 16.3164L12.9881 15.4209C12.7373 15.2776 12.5582 14.991 12.5582 14.6687V13.5224L11.197 14.3104V15.4925C11.197 15.7791 11.3403 16.0657 11.6269 16.2448L14.5284 17.9284C14.7791 18.0716 15.1015 18.0716 15.3881 17.9284L18.2896 16.2448C18.5403 16.1015 18.7194 15.8149 18.7194 15.4925V12.0895C18.7194 11.803 18.5761 11.5164 18.2896 11.3373L15.3881 9.65372Z" fill="#8247E5"/>
</g>
<defs>
<clipPath id="clip0_2826_8674">
<rect width="13.7552" height="12" fill="white" transform="translate(5 6)"/>
</clipPath>
</defs>
</svg>
