<svg width="24" height="24" viewBox="0 0 24 24" fill="none" xmlns="http://www.w3.org/2000/svg">
<g id="briefcase">
<path id="Vector" d="M20.0022 7.00113H4.00224C2.89767 7.00113 2.00224 7.89656 2.00224 9.00113V19.0011C2.00224 20.1057 2.89767 21.0011 4.00224 21.0011H20.0022C21.1068 21.0011 22.0022 20.1057 22.0022 19.0011V9.00113C22.0022 7.89656 21.1068 7.00113 20.0022 7.00113Z" stroke="black" stroke-linecap="round" stroke-linejoin="round"/>
<path id="Vector_2" d="M16.0022 12.4286V5C16.0022 4.46957 15.7915 3.96086 15.4164 3.58579C15.0414 3.21071 14.5327 3 14.0022 3H10.0022C9.4718 3 8.96309 3.21071 8.58802 3.58579C8.21295 3.96086 8.00224 4.46957 8.00224 5V12.4286" stroke="black" stroke-linecap="round" stroke-linejoin="round"/>
</g>
</svg>
