<svg width="24" height="24" viewBox="0 0 24 24" fill="none" xmlns="http://www.w3.org/2000/svg">
<g id="briefcase">
<path id="Vector" d="M20.0022 7.00027H4.0022C2.89763 7.00027 2.0022 7.89571 2.0022 9.00027V19.0003C2.0022 20.1048 2.89763 21.0003 4.0022 21.0003H20.0022C21.1068 21.0003 22.0022 20.1048 22.0022 19.0003V9.00027C22.0022 7.89571 21.1068 7.00027 20.0022 7.00027Z" stroke="white" stroke-linecap="round" stroke-linejoin="round"/>
<path id="Vector_2" d="M16.0022 12.4286V5C16.0022 4.46957 15.7915 3.96086 15.4164 3.58579C15.0413 3.21071 14.5326 3 14.0022 3H10.0022C9.47176 3 8.96306 3.21071 8.58798 3.58579C8.21291 3.96086 8.0022 4.46957 8.0022 5V12.4286" stroke="white" stroke-linecap="round" stroke-linejoin="round"/>
</g>
</svg>
