<svg width="30" height="30" viewBox="0 0 30 30" fill="none" xmlns="http://www.w3.org/2000/svg">
<g id="bi:reddit" clip-path="url(#clip0_5865_17663)">
<g id="Group">
<path id="Vector" d="M11.5631 15C11.3587 15 11.1563 15.0403 10.9675 15.1185C10.7787 15.1967 10.6072 15.3113 10.4627 15.4558C10.3181 15.6003 10.2035 15.7719 10.1253 15.9607C10.0471 16.1495 10.0068 16.3519 10.0068 16.5562C10.0068 17.4169 10.7043 18.1313 11.5631 18.1144C11.9667 18.1004 12.3492 17.9302 12.6297 17.6397C12.9103 17.3492 13.0672 16.9611 13.0672 16.5572C13.0672 16.1533 12.9103 15.7652 12.6297 15.4747C12.3492 15.1842 11.9667 15.014 11.5631 15ZM15.0187 21.8381C15.6093 21.8381 17.6493 21.7669 18.7237 20.6925C18.7941 20.6135 18.833 20.5114 18.833 20.4056C18.833 20.2998 18.7941 20.1977 18.7237 20.1187C18.6865 20.0803 18.6419 20.0497 18.5926 20.0289C18.5433 20.008 18.4904 19.9972 18.4368 19.9972C18.3833 19.9972 18.3303 20.008 18.2811 20.0289C18.2318 20.0497 18.1872 20.0803 18.15 20.1187C17.4881 20.7994 16.0387 21.0319 15.0187 21.0319C13.9968 21.0319 12.5662 20.7994 11.8856 20.1187C11.8484 20.0803 11.8038 20.0497 11.7545 20.0289C11.7052 20.008 11.6522 19.9972 11.5987 19.9972C11.5452 19.9972 11.4922 20.008 11.4429 20.0289C11.3937 20.0497 11.3491 20.0803 11.3118 20.1187C11.2734 20.156 11.2428 20.2006 11.2219 20.2498C11.2011 20.2991 11.1903 20.3521 11.1903 20.4056C11.1903 20.4591 11.2011 20.5121 11.2219 20.5614C11.2428 20.6107 11.2734 20.6553 11.3118 20.6925C12.3693 21.7481 14.4093 21.8362 15.0187 21.8362V21.8381ZM16.8787 16.575C16.8787 17.4338 17.5781 18.1313 18.4368 18.1313C19.2956 18.1313 19.9931 17.4169 19.9931 16.575C19.9735 16.1755 19.8009 15.7988 19.5112 15.523C19.2215 15.2471 18.8368 15.0933 18.4368 15.0933C18.0368 15.0933 17.6521 15.2471 17.3624 15.523C17.0727 15.7988 16.9002 16.1755 16.8806 16.575H16.8787Z" fill="#1B1B1B"/>
<path id="Vector_2" d="M30 15C30 18.9782 28.4196 22.7936 25.6066 25.6066C22.7936 28.4196 18.9782 30 15 30C11.0218 30 7.20644 28.4196 4.3934 25.6066C1.58035 22.7936 0 18.9782 0 15C0 11.0218 1.58035 7.20644 4.3934 4.3934C7.20644 1.58035 11.0218 0 15 0C18.9782 0 22.7936 1.58035 25.6066 4.3934C28.4196 7.20644 30 11.0218 30 15ZM22.8225 12.8156C22.2319 12.8156 21.6937 13.0481 21.3 13.425C19.7981 12.3506 17.7375 11.6531 15.4481 11.5631L16.4494 6.87375L19.7081 7.57125C19.7224 7.87552 19.8257 8.16891 20.0052 8.41503C20.1847 8.66116 20.4324 8.8492 20.7178 8.95586C21.0031 9.06252 21.3134 9.08309 21.6103 9.01504C21.9073 8.94699 22.1777 8.79329 22.3881 8.57302C22.5984 8.35274 22.7396 8.07556 22.7939 7.77584C22.8483 7.47612 22.8135 7.16704 22.6939 6.8869C22.5742 6.60677 22.375 6.36791 22.1209 6.19992C21.8668 6.03193 21.569 5.94221 21.2644 5.94187C20.973 5.94289 20.6878 6.02568 20.4412 6.18081C20.1946 6.33594 19.9964 6.55719 19.8694 6.81938L16.2356 6.05062C16.1867 6.03977 16.1361 6.03883 16.0869 6.04784C16.0376 6.05686 15.9906 6.07566 15.9487 6.10313C15.9061 6.13173 15.8698 6.16879 15.842 6.21201C15.8143 6.25523 15.7957 6.30369 15.7875 6.35437L14.6775 11.5819C12.3525 11.6531 10.2563 12.3506 8.73375 13.4419C8.34 13.0669 7.80375 12.8344 7.215 12.8344C6.7157 12.8336 6.23126 13.0043 5.84264 13.3178C5.45402 13.6313 5.18476 14.0686 5.07984 14.5568C4.97492 15.0449 5.04071 15.5543 5.2662 15.9998C5.49169 16.4453 5.86324 16.7999 6.31875 17.0044C6.28125 17.2169 6.26312 17.4375 6.26438 17.6663C6.26438 21.0319 10.185 23.7713 15.0188 23.7713C19.8525 23.7713 23.7713 21.0506 23.7713 17.6663C23.7713 17.4525 23.7525 17.22 23.7169 17.0044C24.4688 16.665 25.0069 15.8944 25.0069 15C25.0069 13.7812 24.0225 12.8156 22.8225 12.8156Z" fill="#1B1B1B"/>
</g>
</g>
<defs>
<clipPath id="clip0_5865_17663">
<rect width="30" height="30" fill="white"/>
</clipPath>
</defs>
</svg>
