<svg width="184" height="133" viewBox="0 0 184 133" fill="none" xmlns="http://www.w3.org/2000/svg">
<rect opacity="0.3" x="0.5" y="0.5" width="182.418" height="132" rx="1.5" stroke="#333333"/>
<rect x="6.9541" y="6.08496" width="170.379" height="119.961" fill="#DDDDDF"/>
<g filter="url(#filter0_d_375_5616)">
<rect x="6.9541" y="6.08496" width="170.379" height="12.1699" fill="#191919"/>
</g>
<g filter="url(#filter1_d_375_5616)">
<rect x="6.9541" y="6.08496" width="26.9477" height="119.961" fill="#191919"/>
</g>
<line x1="13.5126" y1="11.8407" x2="12.2307" y2="14.7709" stroke="#676767" stroke-width="0.5" stroke-linecap="round" stroke-linejoin="round"/>
<path d="M13.904 14.9422L15.866 10.4381C16.016 10.0937 16.4146 9.93328 16.7614 10.0778V10.0778C17.1162 10.2256 17.2811 10.6355 17.1275 10.9879L15.8419 13.9373C15.712 14.2352 15.8476 14.5821 16.145 14.713V14.713C16.4356 14.8409 16.7753 14.7158 16.9136 14.43L17.3011 13.6291" stroke="#676767" stroke-width="0.5" stroke-linecap="round" stroke-linejoin="round"/>
<rect x="44.333" y="26.0784" width="58.2418" height="43.4641" rx="2" fill="white"/>
<rect x="44.333" y="76.4967" width="126.046" height="43.4641" rx="2" fill="white"/>
<rect x="109.529" y="26.0784" width="60.8497" height="43.4641" rx="2" fill="white"/>
<path opacity="0.3" d="M12.1699 26.9477H28.6863" stroke="#464646" stroke-width="2" stroke-linecap="round"/>
<path opacity="0.3" d="M12.1699 37.3791H28.6863" stroke="#464646" stroke-width="2" stroke-linecap="round"/>
<path opacity="0.3" d="M12.1699 47.8105H28.6863" stroke="#464646" stroke-width="2" stroke-linecap="round"/>
<path opacity="0.3" d="M12.1699 58.2418H28.6863" stroke="#464646" stroke-width="2" stroke-linecap="round"/>
<defs>
<filter id="filter0_d_375_5616" x="6.9541" y="6.08496" width="170.379" height="13.1699" filterUnits="userSpaceOnUse" color-interpolation-filters="sRGB">
<feFlood flood-opacity="0" result="BackgroundImageFix"/>
<feColorMatrix in="SourceAlpha" type="matrix" values="0 0 0 0 0 0 0 0 0 0 0 0 0 0 0 0 0 0 127 0" result="hardAlpha"/>
<feOffset dy="1"/>
<feComposite in2="hardAlpha" operator="out"/>
<feColorMatrix type="matrix" values="0 0 0 0 1 0 0 0 0 1 0 0 0 0 1 0 0 0 0.06 0"/>
<feBlend mode="normal" in2="BackgroundImageFix" result="effect1_dropShadow_375_5616"/>
<feBlend mode="normal" in="SourceGraphic" in2="effect1_dropShadow_375_5616" result="shape"/>
</filter>
<filter id="filter1_d_375_5616" x="6.9541" y="6.08496" width="27.9473" height="119.961" filterUnits="userSpaceOnUse" color-interpolation-filters="sRGB">
<feFlood flood-opacity="0" result="BackgroundImageFix"/>
<feColorMatrix in="SourceAlpha" type="matrix" values="0 0 0 0 0 0 0 0 0 0 0 0 0 0 0 0 0 0 127 0" result="hardAlpha"/>
<feOffset dx="1"/>
<feComposite in2="hardAlpha" operator="out"/>
<feColorMatrix type="matrix" values="0 0 0 0 1 0 0 0 0 1 0 0 0 0 1 0 0 0 0.06 0"/>
<feBlend mode="normal" in2="BackgroundImageFix" result="effect1_dropShadow_375_5616"/>
<feBlend mode="normal" in="SourceGraphic" in2="effect1_dropShadow_375_5616" result="shape"/>
</filter>
</defs>
</svg>
