<svg width="24" height="24" viewBox="0 0 24 24" fill="none" xmlns="http://www.w3.org/2000/svg">
<circle opacity="0.1" cx="12" cy="12" r="12" fill="black"/>
<g clip-path="url(#clip0_2826_8640)">
<path d="M19.8228 9.33874C19.0287 8.6055 17.9301 7.4858 17.0354 6.69168L16.9825 6.65462C16.8944 6.58389 16.7951 6.52841 16.6887 6.4905C14.5313 6.08815 4.49102 4.21139 4.29514 4.23521C4.24025 4.2429 4.18778 4.2628 4.14161 4.29345L4.09131 4.33315C4.02938 4.39605 3.98235 4.47203 3.95367 4.5555L3.94043 4.58992V4.77786V4.80697C5.07072 7.95433 9.53367 18.2646 10.4125 20.684C10.4654 20.8482 10.566 21.1605 10.754 21.1764H10.7963C10.8969 21.1764 11.3257 20.6099 11.3257 20.6099C11.3257 20.6099 18.9916 11.3134 19.7672 10.3234C19.8676 10.2015 19.9562 10.0703 20.0319 9.93168C20.0512 9.8232 20.0421 9.71157 20.0055 9.60766C19.9688 9.50375 19.9059 9.4111 19.8228 9.33874ZM13.2925 10.4214L16.5643 7.70815L18.4834 9.47639L13.2925 10.4214ZM12.0219 10.244L6.38896 5.62756L15.5028 7.30845L12.0219 10.244ZM12.5301 11.4537L18.2954 10.5246L11.7043 18.4658L12.5301 11.4537ZM5.62396 6.08815L11.5507 11.1176L10.6931 18.4711L5.62396 6.08815Z" fill="#FF060A"/>
</g>
<defs>
<clipPath id="clip0_2826_8640">
<rect width="16.9412" height="16.9412" fill="white" transform="translate(3.5293 4.23529)"/>
</clipPath>
</defs>
</svg>
