<svg width="14" height="14" viewBox="0 0 14 14" fill="none" xmlns="http://www.w3.org/2000/svg">
<g clip-path="url(#clip0_417_4109)">
<path d="M13.4648 4.21744C12.8086 3.6115 11.9008 2.68619 11.1614 2.02994L11.1177 1.99932C11.0449 1.94086 10.9628 1.89502 10.8748 1.86369C9.09203 1.53119 0.794844 -0.0197459 0.632969 -5.83638e-05C0.587611 0.00629415 0.544255 0.0227395 0.506094 0.0480666L0.464531 0.0808791C0.413353 0.132854 0.374483 0.195645 0.350781 0.264629L0.339844 0.293067V0.448379V0.472442C1.27391 3.07338 4.96203 11.5937 5.68828 13.5931C5.73203 13.7287 5.81516 13.9868 5.97047 13.9999H6.00547C6.08859 13.9999 6.44297 13.5318 6.44297 13.5318C6.44297 13.5318 12.778 5.84932 13.4189 5.03119C13.5019 4.93042 13.5751 4.82202 13.6377 4.70744C13.6536 4.6178 13.6461 4.52555 13.6158 4.43967C13.5855 4.3538 13.5335 4.27724 13.4648 4.21744ZM8.06828 5.11213L10.772 2.86994L12.358 4.33119L8.06828 5.11213ZM7.01828 4.96557L2.36328 1.15057L9.89484 2.53963L7.01828 4.96557ZM7.43828 5.96525L12.2027 5.19744L6.75578 11.7599L7.43828 5.96525ZM1.73109 1.53119L6.62891 5.68744L5.92016 11.7643L1.73109 1.53119Z" fill="#FF060A"/>
</g>
<defs>
<clipPath id="clip0_417_4109">
<rect width="14" height="14" fill="white"/>
</clipPath>
</defs>
</svg>
