<svg width="24" height="20" viewBox="0 0 24 20" fill="none" xmlns="http://www.w3.org/2000/svg">
<path id="t" d="M21.543 4.77979C21.5576 4.9881 21.5576 5.1964 21.5576 5.40663C21.5576 11.8123 16.6045 19.2 7.54759 19.2V19.1962C4.87215 19.2 2.25229 18.4455 0 17.0229C0.389031 17.0689 0.780012 17.092 1.17197 17.0929C3.38915 17.0949 5.54296 16.3624 7.28726 15.0137C5.18026 14.9743 3.3326 13.6218 2.68714 11.6472C3.42523 11.7873 4.18574 11.7585 4.91018 11.5637C2.61304 11.1068 0.96039 9.11968 0.96039 6.81198V6.75055C1.64485 7.12588 2.41121 7.33419 3.19512 7.35723C1.03157 5.93364 0.364656 3.0999 1.67118 0.884356C4.17111 3.91297 7.8596 5.75413 11.8191 5.949C11.4223 4.26526 11.9644 2.50089 13.2436 1.31729C15.2268 -0.518115 18.3459 -0.424041 20.2101 1.52752C21.3129 1.31345 22.3698 0.915074 23.337 0.35063C22.9694 1.4728 22.2001 2.42602 21.1725 3.03174C22.1484 2.91847 23.102 2.6612 24 2.26859C23.3389 3.24389 22.5063 4.09343 21.543 4.77979Z" fill="#1D9BF0"/>
</svg>
