<svg width="30" height="30" viewBox="0 0 30 30" fill="none" xmlns="http://www.w3.org/2000/svg">
<circle cx="15" cy="15" r="15" fill="#1B1B1B"/>
<path d="M15.6835 9C16.084 9.00225 17.0861 9.012 18.1511 9.05475L18.5292 9.07125C19.601 9.12151 20.672 9.20851 21.2038 9.35627C21.9126 9.55578 22.4692 10.1363 22.6574 10.8729C22.9574 12.0429 22.9949 14.3246 22.9994 14.8774L23.0002 14.9914V15.1219C22.9949 15.6747 22.9574 17.9571 22.6574 19.1264C22.4669 19.8652 21.9096 20.4465 21.2038 20.643C20.672 20.7907 19.601 20.8777 18.5292 20.928L18.1511 20.9452C17.0861 20.9872 16.084 20.9977 15.6835 20.9992L15.5072 21H15.316C14.4684 20.9948 10.9237 20.9565 9.79561 20.643C9.08757 20.4435 8.53028 19.8629 8.34202 19.1264C8.042 17.9563 8.0045 15.6747 8 15.1219V14.8774C8.0045 14.3246 8.042 12.0422 8.34202 10.8729C8.53253 10.1341 9.08982 9.55278 9.79636 9.35702C10.9237 9.04275 14.4692 9.0045 15.3167 9H15.6835ZM13.9996 12.3752V17.6255L18.4999 15.0004L13.9996 12.3752Z" fill="white"/>
</svg>
