<svg width="12" height="12" viewBox="0 0 12 12" fill="none" xmlns="http://www.w3.org/2000/svg">
<g clip-path="url(#clip0_1_561)">
<path d="M1.08484 3.64797V8.35197C1.08484 8.65437 1.24324 8.92797 1.50724 9.08157L5.58244 11.4336C5.84164 11.5824 6.16324 11.5824 6.42244 11.4336L10.4976 9.08157C10.7568 8.93277 10.92 8.65437 10.92 8.35197V3.64797C10.92 3.34557 10.7616 3.07197 10.4976 2.91837L6.42244 0.566373C6.16324 0.417573 5.84164 0.417573 5.58244 0.566373L1.50724 2.91837C1.24804 3.06717 1.08964 3.34557 1.08964 3.64797H1.08484Z" fill="#213147"/>
<path d="M6.88799 6.91203L6.30719 8.50563C6.29279 8.54883 6.29279 8.59683 6.30719 8.64483L7.30559 11.3856L8.46239 10.7184L7.07519 6.91203C7.04159 6.82563 6.92159 6.82563 6.88799 6.91203Z" fill="#12AAFF"/>
<path d="M8.05443 4.23362C8.02083 4.14722 7.90083 4.14722 7.86723 4.23362L7.28643 5.82722C7.27203 5.87042 7.27203 5.91842 7.28643 5.96642L8.92323 10.4544L10.08 9.78722L8.05443 4.23842V4.23362Z" fill="#12AAFF"/>
<path d="M6.00004 0.744C6.02884 0.744 6.05764 0.7536 6.08164 0.768L10.488 3.312C10.5408 3.3408 10.5696 3.3984 10.5696 3.456V8.544C10.5696 8.6016 10.536 8.6592 10.488 8.688L6.08164 11.232C6.05764 11.2464 6.02884 11.256 6.00004 11.256C5.97124 11.256 5.94244 11.2464 5.91844 11.232L1.51204 8.688C1.45924 8.6592 1.43044 8.6016 1.43044 8.544V3.4512C1.43044 3.3936 1.46404 3.336 1.51204 3.3072L5.91844 0.7632C5.94244 0.7488 5.97124 0.7392 6.00004 0.7392V0.744ZM6.00004 0C5.84164 0 5.68804 0.0384 5.54404 0.12L1.13764 2.664C0.854441 2.8272 0.681641 3.1248 0.681641 3.4512V8.5392C0.681641 8.8656 0.854441 9.1632 1.13764 9.3264L5.54404 11.8704C5.68324 11.952 5.84164 11.9904 6.00004 11.9904C6.15844 11.9904 6.31204 11.952 6.45604 11.8704L10.8624 9.3264C11.1456 9.1632 11.3184 8.8656 11.3184 8.5392V3.4512C11.3184 3.1248 11.1456 2.8272 10.8624 2.664L6.45124 0.12C6.31204 0.0384 6.15364 0 5.99524 0H6.00004Z" fill="#9DCCED"/>
<path d="M3.08167 10.4592L3.48967 9.34558L4.30567 10.0224L3.54247 10.7232L3.08167 10.4592Z" fill="#213147"/>
<path d="M5.6256 3.09123H4.5072C4.4256 3.09123 4.3488 3.14403 4.32 3.22083L1.9248 9.78723L3.0816 10.4544L5.7216 3.22083C5.7456 3.15363 5.6976 3.08643 5.6304 3.08643L5.6256 3.09123Z" fill="#16171B"/>
<path d="M7.58396 3.09123H6.46556C6.38396 3.09123 6.30716 3.14403 6.27836 3.22083L3.54236 10.7184L4.69916 11.3856L7.67516 3.22083C7.69916 3.15363 7.65116 3.08643 7.58396 3.08643V3.09123Z" fill="#16171B"/>
</g>
<defs>
<clipPath id="clip0_1_561">
<rect width="12" height="12" fill="white"/>
</clipPath>
</defs>
</svg>
