<svg width="24" height="24" viewBox="0 0 24 24" fill="none" xmlns="http://www.w3.org/2000/svg">
<rect width="24" height="24" rx="12" fill="#F0F0F5"/>
<path d="M9.2809 5.19638L16.7801 11.9366C16.8498 11.9992 16.9051 12.0736 16.9428 12.1554C16.9806 12.2372 17 12.3249 17 12.4135C17 12.5021 16.9806 12.5898 16.9428 12.6716C16.9051 12.7534 16.8498 12.8278 16.7801 12.8904L9.2809 19.6306C9.14018 19.7571 8.94933 19.8281 8.75033 19.8281C8.55133 19.8281 8.36048 19.7571 8.21977 19.6306C8.07905 19.5041 8 19.3326 8 19.1537C8 18.9749 8.07905 18.8033 8.21977 18.6769L15.1893 12.4135L8.21977 6.15013C8.15009 6.0875 8.09482 6.01316 8.05712 5.93134C8.01941 5.84951 8 5.76182 8 5.67326C8 5.58469 8.01941 5.497 8.05712 5.41517C8.09482 5.33335 8.15009 5.25901 8.21977 5.19638C8.28944 5.13376 8.37216 5.08409 8.46319 5.05019C8.55423 5.0163 8.6518 4.99886 8.75033 4.99886C8.84887 4.99886 8.94644 5.0163 9.03747 5.05019C9.12851 5.08409 9.21122 5.13376 9.2809 5.19638Z" fill="#191919"/>
</svg>
