<?xml version="1.0" standalone="no"?>
<!DOCTYPE svg PUBLIC "-//W3C//DTD SVG 20010904//EN"
 "http://www.w3.org/TR/2001/REC-SVG-20010904/DTD/svg10.dtd">
<svg version="1.0" xmlns="http://www.w3.org/2000/svg"
 width="64.000000pt" height="64.000000pt" viewBox="0 0 64.000000 64.000000"
 preserveAspectRatio="xMidYMid meet">

<g transform="translate(0.000000,64.000000) scale(0.100000,-0.100000)"
fill="#000000" stroke="none">
<path d="M244 631 c-49 -12 -134 -63 -160 -94 -14 -17 -37 -53 -52 -81 -22
-43 -26 -64 -26 -136 -1 -78 2 -90 33 -148 38 -70 70 -100 145 -140 43 -22 64
-26 136 -26 72 0 93 4 136 26 75 40 107 70 145 140 31 58 34 70 33 148 0 72
-4 93 -26 136 -39 75 -70 107 -137 143 -65 34 -164 49 -227 32z m116 -163 c17
-32 27 -61 24 -71 -9 -29 -105 -191 -117 -199 -7 -4 -38 -8 -69 -8 -45 0 -58
3 -58 15 0 20 169 315 181 315 5 0 22 -24 39 -52z m114 -200 c19 -34 32 -66
30 -70 -3 -4 -36 -8 -75 -8 -55 0 -69 3 -69 15 0 20 59 125 70 125 5 0 25 -28
44 -62z"/>
</g>
</svg>
