<svg width="36" height="36" viewBox="0 0 36 36" fill="none" xmlns="http://www.w3.org/2000/svg">
<rect width="36" height="36" fill="#1E1E1E"/>
<g clip-path="url(#clip0_0_1)">
<rect x="-1241" y="-16" width="1440" height="1580" rx="4" fill="#F0F0F5"/>
<rect x="-1029" y="-16" width="1227" height="67" fill="white"/>
<circle cx="18" cy="18" r="18" fill="#191919" fill-opacity="0.4"/>
<path d="M26 27V25C26 23.9391 25.5786 22.9217 24.8284 22.1716C24.0783 21.4214 23.0609 21 22 21H14C12.9391 21 11.9217 21.4214 11.1716 22.1716C10.4214 22.9217 10 23.9391 10 25V27" stroke="black" stroke-width="2" stroke-linecap="round" stroke-linejoin="round"/>
<path d="M18 17C20.2091 17 22 15.2091 22 13C22 10.7909 20.2091 9 18 9C15.7909 9 14 10.7909 14 13C14 15.2091 15.7909 17 18 17Z" stroke="black" stroke-width="2" stroke-linecap="round" stroke-linejoin="round"/>
</g>
<defs>
<clipPath id="clip0_0_1">
<rect x="-1241" y="-16" width="1440" height="1580" rx="4" fill="white"/>
</clipPath>
</defs>
</svg>
