<svg width="25" height="25" viewBox="0 0 25 25" fill="none" xmlns="http://www.w3.org/2000/svg">
<g id="Bell">
<path id="Vector" d="M21.6532 17.1816C21.1112 16.248 20.3055 13.6064 20.3055 10.1562C20.3055 8.08425 19.4824 6.09711 18.0173 4.63198C16.5522 3.16685 14.565 2.34375 12.493 2.34375C10.421 2.34375 8.43386 3.16685 6.96874 4.63198C5.50361 6.09711 4.68051 8.08425 4.68051 10.1562C4.68051 13.6074 3.87387 16.248 3.33188 17.1816C3.19347 17.419 3.12009 17.6886 3.11915 17.9634C3.11821 18.2381 3.18973 18.5083 3.3265 18.7466C3.46328 18.9849 3.66047 19.1829 3.89819 19.3206C4.13591 19.4584 4.40575 19.531 4.68051 19.5312H8.66586C8.84611 20.4132 9.32545 21.2059 10.0228 21.7752C10.7202 22.3444 11.5928 22.6554 12.493 22.6554C13.3932 22.6554 14.2658 22.3444 14.9632 21.7752C15.6606 21.2059 16.1399 20.4132 16.3202 19.5312H20.3055C20.5802 19.5309 20.8499 19.4581 21.0875 19.3203C21.3251 19.1824 21.5221 18.9844 21.6588 18.7461C21.7954 18.5079 21.8669 18.2378 21.8659 17.9631C21.8649 17.6885 21.7915 17.4189 21.6532 17.1816ZM12.493 21.0937C12.0085 21.0936 11.5359 20.9433 11.1403 20.6635C10.7447 20.3836 10.4455 19.9881 10.284 19.5312H14.702C14.5405 19.9881 14.2413 20.3836 13.8457 20.6635C13.4502 20.9433 12.9776 21.0936 12.493 21.0937ZM4.68051 17.9687C5.43246 16.6758 6.24301 13.6797 6.24301 10.1562C6.24301 8.49865 6.90149 6.90893 8.07359 5.73683C9.24569 4.56473 10.8354 3.90625 12.493 3.90625C14.1506 3.90625 15.7403 4.56473 16.9124 5.73683C18.0845 6.90893 18.743 8.49865 18.743 10.1562C18.743 13.6768 19.5516 16.6729 20.3055 17.9687H4.68051Z" fill="#1C1C1C"/>
</g>
</svg>
