<svg width="550" height="155" viewBox="0 0 550 155" fill="none" xmlns="http://www.w3.org/2000/svg">
<g clip-path="url(#clip0_1131_878)">
<path fill-rule="evenodd" clip-rule="evenodd" d="M0 0H77.9947C95.2716 0 109 13.9448 109 30.7707V124.229C109 141.375 94.9489 155 77.9947 155H30.0424C13.4082 155 0 141.693 0 125.185C0 108.677 13.4082 95.3699 30.0424 95.3699H66.2474V116.393H30.0424C25.1077 116.393 21.1837 120.288 21.1837 125.185C21.1837 130.082 25.1077 133.977 30.0424 133.977H77.9947C83.3797 133.977 87.8163 129.636 87.8163 124.229V30.7707C87.8163 25.4264 83.4422 21.0234 77.9947 21.0234H21.1837V54.2787C21.1837 59.623 25.5578 64.0259 31.0053 64.0259H66.2474V85.0493H31.0053C13.7284 85.0493 0 71.1045 0 54.2787V0Z" fill="#4682B4"/>
</g>
<path d="M547.07 136.263C547.07 138.381 546.594 140.269 545.642 141.925C544.717 143.581 543.452 144.885 541.847 145.835C540.269 146.786 538.487 147.261 536.501 147.261C534.515 147.261 532.719 146.786 531.114 145.835C529.509 144.885 528.23 143.581 527.278 141.925C526.353 140.269 525.891 138.381 525.891 136.263C525.891 134.145 526.353 132.258 527.278 130.601C528.23 128.945 529.509 127.642 531.114 126.691C532.719 125.741 534.515 125.266 536.501 125.266C538.487 125.266 540.269 125.741 541.847 126.691C543.452 127.642 544.717 128.945 545.642 130.601C546.594 132.258 547.07 134.145 547.07 136.263ZM543.805 136.263C543.805 134.688 543.479 133.303 542.826 132.109C542.2 130.914 541.33 129.977 540.214 129.298C539.126 128.619 537.888 128.28 536.501 128.28C535.113 128.28 533.862 128.619 532.746 129.298C531.658 129.977 530.788 130.914 530.135 132.109C529.482 133.303 529.155 134.688 529.155 136.263C529.155 137.811 529.482 139.182 530.135 140.377C530.788 141.572 531.658 142.522 532.746 143.228C533.862 143.907 535.113 144.247 536.501 144.247C537.888 144.247 539.126 143.907 540.214 143.228C541.33 142.522 542.2 141.572 542.826 140.377C543.479 139.182 543.805 137.811 543.805 136.263Z" fill="black"/>
<path d="M519.351 116.712C519.814 116.712 520.195 116.875 520.494 117.201C520.82 117.499 520.983 117.879 520.983 118.341V145.184C520.983 145.645 520.82 146.039 520.494 146.365C520.195 146.691 519.814 146.854 519.351 146.854C518.861 146.854 518.467 146.691 518.168 146.365C517.868 146.039 517.719 145.645 517.719 145.184V141.314L518.494 141.029C518.494 141.681 518.29 142.373 517.882 143.106C517.474 143.812 516.916 144.478 516.209 145.102C515.502 145.727 514.658 146.243 513.679 146.65C512.727 147.057 511.693 147.261 510.578 147.261C508.755 147.261 507.095 146.786 505.599 145.835C504.13 144.885 502.96 143.581 502.09 141.925C501.246 140.269 500.824 138.381 500.824 136.263C500.824 134.118 501.246 132.217 502.09 130.561C502.96 128.904 504.13 127.614 505.599 126.691C507.068 125.741 508.7 125.266 510.496 125.266C511.639 125.266 512.713 125.456 513.72 125.836C514.726 126.216 515.597 126.732 516.331 127.384C517.093 128.035 517.692 128.755 518.127 129.542C518.562 130.33 518.78 131.117 518.78 131.905L517.719 131.661V118.341C517.719 117.879 517.868 117.499 518.168 117.201C518.467 116.875 518.861 116.712 519.351 116.712ZM510.945 144.247C512.305 144.247 513.502 143.907 514.536 143.228C515.597 142.522 516.413 141.572 516.984 140.377C517.583 139.155 517.882 137.784 517.882 136.263C517.882 134.715 517.583 133.344 516.984 132.149C516.413 130.954 515.597 130.018 514.536 129.339C513.502 128.633 512.305 128.28 510.945 128.28C509.612 128.28 508.415 128.633 507.354 129.339C506.32 130.018 505.504 130.954 504.905 132.149C504.307 133.344 504.007 134.715 504.007 136.263C504.007 137.757 504.307 139.114 504.905 140.336C505.504 141.531 506.32 142.482 507.354 143.188C508.415 143.894 509.612 144.247 510.945 144.247Z" fill="black"/>
<path d="M488.624 125.266C490.474 125.266 491.929 125.646 492.99 126.406C494.051 127.166 494.799 128.185 495.234 129.461C495.697 130.737 495.928 132.163 495.928 133.738V145.184C495.928 145.645 495.765 146.039 495.438 146.365C495.139 146.691 494.758 146.854 494.296 146.854C493.833 146.854 493.439 146.691 493.112 146.365C492.813 146.039 492.664 145.645 492.664 145.184V133.819C492.664 132.787 492.5 131.864 492.174 131.05C491.875 130.208 491.358 129.542 490.623 129.054C489.916 128.538 488.936 128.28 487.685 128.28C486.542 128.28 485.495 128.538 484.543 129.054C483.591 129.542 482.829 130.208 482.258 131.05C481.686 131.864 481.401 132.787 481.401 133.819V145.184C481.401 145.645 481.237 146.039 480.911 146.365C480.612 146.691 480.231 146.854 479.768 146.854C479.306 146.854 478.911 146.691 478.585 146.365C478.286 146.039 478.136 145.645 478.136 145.184V127.424C478.136 126.963 478.286 126.583 478.585 126.284C478.911 125.958 479.306 125.795 479.768 125.795C480.258 125.795 480.652 125.958 480.952 126.284C481.251 126.583 481.401 126.963 481.401 127.424V130.316L480.584 131.212C480.72 130.506 481.033 129.8 481.523 129.094C482.013 128.361 482.625 127.71 483.359 127.139C484.094 126.569 484.91 126.121 485.808 125.795C486.706 125.442 487.644 125.266 488.624 125.266Z" fill="black"/>
<path d="M464.496 147.261C462.32 147.261 460.415 146.799 458.783 145.876C457.151 144.953 455.872 143.69 454.947 142.088C454.049 140.459 453.601 138.585 453.601 136.467C453.601 134.104 454.063 132.095 454.988 130.439C455.94 128.755 457.164 127.479 458.661 126.61C460.184 125.714 461.789 125.266 463.476 125.266C464.727 125.266 465.938 125.496 467.108 125.958C468.278 126.42 469.312 127.099 470.209 127.995C471.107 128.864 471.828 129.923 472.372 131.172C472.916 132.394 473.202 133.765 473.229 135.286C473.229 135.72 473.066 136.087 472.739 136.385C472.413 136.684 472.032 136.834 471.597 136.834H455.478L454.743 134.023H470.454L469.801 134.593V133.697C469.692 132.584 469.312 131.633 468.659 130.846C468.033 130.031 467.258 129.407 466.333 128.972C465.435 128.538 464.483 128.321 463.476 128.321C462.66 128.321 461.844 128.47 461.028 128.769C460.239 129.04 459.518 129.502 458.865 130.153C458.239 130.778 457.722 131.593 457.314 132.597C456.933 133.602 456.743 134.81 456.743 136.223C456.743 137.797 457.056 139.182 457.681 140.377C458.334 141.572 459.232 142.522 460.375 143.228C461.517 143.907 462.85 144.247 464.374 144.247C465.326 144.247 466.156 144.125 466.863 143.88C467.57 143.636 468.183 143.337 468.699 142.984C469.216 142.604 469.652 142.224 470.005 141.844C470.359 141.599 470.699 141.477 471.025 141.477C471.434 141.477 471.76 141.613 472.005 141.884C472.277 142.156 472.413 142.482 472.413 142.862C472.413 143.323 472.195 143.731 471.76 144.084C470.998 144.926 469.964 145.672 468.659 146.324C467.353 146.949 465.965 147.261 464.496 147.261Z" fill="black"/>
<path d="M432.905 125.429C433.231 125.429 433.544 125.524 433.843 125.714C434.143 125.877 434.36 126.121 434.496 126.447L441.27 142.332L440.617 142.658L447.514 126.488C447.813 125.754 448.317 125.401 449.024 125.429C449.432 125.429 449.786 125.564 450.085 125.836C450.384 126.107 450.534 126.447 450.534 126.854C450.534 127.017 450.507 127.18 450.452 127.343C450.425 127.479 450.384 127.601 450.33 127.71L442.454 145.795C442.155 146.473 441.678 146.826 441.026 146.854C440.672 146.881 440.332 146.813 440.005 146.65C439.706 146.46 439.488 146.175 439.352 145.795L431.476 127.75C431.422 127.642 431.368 127.519 431.313 127.384C431.286 127.248 431.272 127.085 431.272 126.895C431.272 126.542 431.408 126.216 431.681 125.917C431.98 125.591 432.388 125.429 432.905 125.429Z" fill="black"/>
<path d="M427.609 145.184C427.609 145.645 427.446 146.039 427.119 146.365C426.793 146.691 426.398 146.854 425.936 146.854C425.473 146.854 425.092 146.691 424.793 146.365C424.494 146.039 424.344 145.645 424.344 145.184V118.341C424.344 117.879 424.494 117.499 424.793 117.201C425.12 116.875 425.514 116.712 425.977 116.712C426.466 116.712 426.861 116.875 427.16 117.201C427.459 117.499 427.609 117.879 427.609 118.341V145.184Z" fill="black"/>
<path d="M419.107 136.263C419.107 138.381 418.631 140.269 417.679 141.925C416.754 143.581 415.489 144.885 413.884 145.835C412.306 146.786 410.524 147.261 408.538 147.261C406.552 147.261 404.757 146.786 403.152 145.835C401.546 144.885 400.268 143.581 399.316 141.925C398.391 140.269 397.928 138.381 397.928 136.263C397.928 134.145 398.391 132.258 399.316 130.601C400.268 128.945 401.546 127.642 403.152 126.691C404.757 125.741 406.552 125.266 408.538 125.266C410.524 125.266 412.306 125.741 413.884 126.691C415.489 127.642 416.754 128.945 417.679 130.601C418.631 132.258 419.107 134.145 419.107 136.263ZM415.843 136.263C415.843 134.688 415.516 133.303 414.863 132.109C414.238 130.914 413.367 129.977 412.252 129.298C411.163 128.619 409.926 128.28 408.538 128.28C407.151 128.28 405.899 128.619 404.784 129.298C403.696 129.977 402.825 130.914 402.172 132.109C401.519 133.303 401.193 134.688 401.193 136.263C401.193 137.811 401.519 139.182 402.172 140.377C402.825 141.572 403.696 142.522 404.784 143.228C405.899 143.907 407.151 144.247 408.538 144.247C409.926 144.247 411.163 143.907 412.252 143.228C413.367 142.522 414.238 141.572 414.863 140.377C415.516 139.182 415.843 137.811 415.843 136.263Z" fill="black"/>
<path d="M384.534 147.261C382.521 147.261 380.753 146.962 379.229 146.365C377.706 145.767 376.237 144.817 374.822 143.514C374.632 143.323 374.468 143.12 374.332 142.903C374.224 142.658 374.169 142.4 374.169 142.129C374.169 141.694 374.319 141.314 374.618 140.988C374.945 140.635 375.339 140.459 375.802 140.459C376.182 140.459 376.522 140.608 376.822 140.907C377.883 141.939 379.025 142.726 380.25 143.269C381.501 143.812 382.902 144.084 384.453 144.084C385.65 144.084 386.724 143.894 387.677 143.514C388.656 143.133 389.431 142.604 390.003 141.925C390.574 141.246 390.86 140.459 390.86 139.563C390.832 138.476 390.506 137.58 389.88 136.874C389.282 136.168 388.438 135.584 387.35 135.123C386.289 134.634 385.051 134.227 383.637 133.901C382.385 133.602 381.229 133.235 380.168 132.801C379.134 132.367 378.236 131.837 377.475 131.212C376.713 130.561 376.114 129.787 375.679 128.891C375.271 127.967 375.067 126.895 375.067 125.673C375.067 124.125 375.475 122.767 376.291 121.6C377.107 120.432 378.236 119.536 379.678 118.911C381.12 118.26 382.78 117.934 384.657 117.934C386.316 117.934 387.881 118.205 389.35 118.748C390.846 119.292 392.043 120.038 392.941 120.989C393.485 121.505 393.757 122.007 393.757 122.496C393.757 122.903 393.58 123.283 393.226 123.636C392.9 123.962 392.519 124.125 392.084 124.125C391.785 124.125 391.512 124.016 391.268 123.799C390.805 123.283 390.22 122.822 389.513 122.414C388.806 122.007 388.03 121.681 387.187 121.437C386.344 121.192 385.5 121.07 384.657 121.07C383.405 121.07 382.304 121.26 381.351 121.64C380.399 121.993 379.651 122.509 379.107 123.188C378.59 123.84 378.332 124.627 378.332 125.551C378.332 126.583 378.631 127.438 379.229 128.117C379.828 128.769 380.63 129.312 381.637 129.746C382.644 130.153 383.759 130.52 384.983 130.846C386.316 131.172 387.541 131.552 388.656 131.986C389.799 132.394 390.778 132.91 391.594 133.534C392.41 134.159 393.036 134.96 393.471 135.937C393.934 136.888 394.165 138.069 394.165 139.481C394.165 140.975 393.743 142.305 392.9 143.473C392.057 144.64 390.9 145.564 389.431 146.243C387.989 146.894 386.357 147.234 384.534 147.261Z" fill="black"/>
<path d="M356.721 125.469C357.183 125.469 357.564 125.632 357.863 125.958C358.19 126.257 358.353 126.637 358.353 127.099V144.858C358.353 147.139 357.904 149.026 357.006 150.519C356.108 152.04 354.898 153.167 353.374 153.9C351.878 154.633 350.178 155 348.273 155C347.212 155 346.192 154.891 345.213 154.674C344.233 154.457 343.431 154.172 342.805 153.819C342.288 153.574 341.921 153.262 341.703 152.882C341.513 152.529 341.486 152.149 341.622 151.741C341.812 151.253 342.084 150.913 342.438 150.723C342.819 150.533 343.213 150.533 343.621 150.723C344.057 150.913 344.682 151.171 345.498 151.497C346.342 151.85 347.28 152.027 348.314 152.027C349.729 152.027 350.939 151.755 351.946 151.212C352.953 150.669 353.728 149.868 354.272 148.809C354.816 147.777 355.088 146.487 355.088 144.939V142.047L355.578 143.065C355.143 143.907 354.558 144.64 353.823 145.265C353.089 145.89 352.245 146.378 351.293 146.731C350.341 147.084 349.294 147.261 348.151 147.261C346.6 147.261 345.281 146.935 344.193 146.283C343.132 145.604 342.315 144.681 341.744 143.514C341.2 142.319 340.928 140.947 340.928 139.4V127.099C340.928 126.637 341.078 126.257 341.377 125.958C341.703 125.632 342.098 125.469 342.56 125.469C343.05 125.469 343.444 125.632 343.744 125.958C344.043 126.257 344.193 126.637 344.193 127.099V138.666C344.193 140.513 344.601 141.911 345.417 142.862C346.233 143.785 347.498 144.247 349.212 144.247C350.3 144.247 351.28 144.002 352.15 143.514C353.048 143.025 353.755 142.359 354.272 141.518C354.816 140.649 355.088 139.698 355.088 138.666V127.099C355.088 126.637 355.238 126.257 355.537 125.958C355.836 125.632 356.231 125.469 356.721 125.469Z" fill="black"/>
<path d="M326.267 125.266C328.117 125.266 329.777 125.741 331.246 126.691C332.715 127.614 333.871 128.891 334.714 130.52C335.585 132.149 336.02 134.037 336.02 136.182C336.02 138.327 335.585 140.228 334.714 141.884C333.871 143.541 332.715 144.858 331.246 145.835C329.804 146.786 328.172 147.261 326.349 147.261C325.342 147.261 324.39 147.112 323.492 146.813C322.622 146.487 321.819 146.066 321.085 145.55C320.377 145.007 319.779 144.423 319.289 143.799C318.799 143.147 318.446 142.509 318.228 141.884L319.126 141.314V145.387C319.126 145.849 318.976 146.243 318.677 146.568C318.378 146.894 317.983 147.057 317.494 147.057C317.031 147.057 316.637 146.908 316.31 146.609C316.011 146.283 315.861 145.876 315.861 145.387V118.382C315.861 117.92 316.011 117.526 316.31 117.201C316.637 116.875 317.031 116.712 317.494 116.712C317.983 116.712 318.378 116.875 318.677 117.201C318.976 117.526 319.126 117.92 319.126 118.382V130.927L318.514 130.601C318.704 129.923 319.031 129.271 319.493 128.646C319.983 127.995 320.568 127.424 321.248 126.936C321.955 126.42 322.731 126.012 323.574 125.714C324.445 125.415 325.342 125.266 326.267 125.266ZM325.9 128.28C324.54 128.28 323.329 128.619 322.268 129.298C321.234 129.977 320.418 130.914 319.82 132.109C319.248 133.303 318.963 134.661 318.963 136.182C318.963 137.702 319.248 139.074 319.82 140.296C320.418 141.518 321.234 142.482 322.268 143.188C323.329 143.894 324.54 144.247 325.9 144.247C327.26 144.247 328.457 143.894 329.491 143.188C330.525 142.482 331.341 141.518 331.94 140.296C332.538 139.074 332.837 137.702 332.837 136.182C332.837 134.661 332.538 133.303 331.94 132.109C331.341 130.914 330.525 129.977 329.491 129.298C328.457 128.619 327.26 128.28 325.9 128.28Z" fill="black"/>
<path d="M296.941 116.712C297.403 116.712 297.784 116.875 298.083 117.201C298.41 117.499 298.573 117.879 298.573 118.341V145.184C298.573 145.645 298.41 146.039 298.083 146.365C297.784 146.691 297.403 146.854 296.941 146.854C296.451 146.854 296.057 146.691 295.757 146.365C295.458 146.039 295.309 145.645 295.309 145.184V141.314L296.084 141.029C296.084 141.681 295.88 142.373 295.472 143.106C295.064 143.812 294.506 144.478 293.799 145.102C293.091 145.727 292.248 146.243 291.269 146.65C290.316 147.057 289.283 147.261 288.167 147.261C286.344 147.261 284.685 146.786 283.189 145.835C281.72 144.885 280.55 143.581 279.679 141.925C278.836 140.269 278.414 138.381 278.414 136.263C278.414 134.118 278.836 132.217 279.679 130.561C280.55 128.904 281.72 127.614 283.189 126.691C284.658 125.741 286.29 125.266 288.086 125.266C289.228 125.266 290.303 125.456 291.309 125.836C292.316 126.216 293.187 126.732 293.921 127.384C294.683 128.035 295.281 128.755 295.717 129.542C296.152 130.33 296.37 131.117 296.37 131.905L295.309 131.661V118.341C295.309 117.879 295.458 117.499 295.757 117.201C296.057 116.875 296.451 116.712 296.941 116.712ZM288.534 144.247C289.895 144.247 291.092 143.907 292.126 143.228C293.187 142.522 294.003 141.572 294.574 140.377C295.173 139.155 295.472 137.784 295.472 136.263C295.472 134.715 295.173 133.344 294.574 132.149C294.003 130.954 293.187 130.018 292.126 129.339C291.092 128.633 289.895 128.28 288.534 128.28C287.201 128.28 286.004 128.633 284.943 129.339C283.91 130.018 283.093 130.954 282.495 132.149C281.896 133.344 281.597 134.715 281.597 136.263C281.597 137.757 281.896 139.114 282.495 140.336C283.093 141.531 283.91 142.482 284.943 143.188C286.004 143.894 287.201 144.247 288.534 144.247Z" fill="black"/>
<path d="M265.917 147.261C263.741 147.261 261.836 146.799 260.204 145.876C258.572 144.953 257.293 143.69 256.368 142.088C255.47 140.459 255.022 138.585 255.022 136.467C255.022 134.104 255.484 132.095 256.409 130.439C257.361 128.755 258.585 127.479 260.082 126.61C261.605 125.714 263.21 125.266 264.897 125.266C266.148 125.266 267.359 125.496 268.529 125.958C269.699 126.42 270.733 127.099 271.63 127.995C272.528 128.864 273.249 129.923 273.793 131.172C274.337 132.394 274.623 133.765 274.65 135.286C274.65 135.72 274.487 136.087 274.16 136.385C273.834 136.684 273.453 136.834 273.018 136.834H256.899L256.164 134.023H271.875L271.222 134.593V133.697C271.113 132.584 270.733 131.633 270.08 130.846C269.454 130.031 268.679 129.407 267.754 128.972C266.856 128.538 265.904 128.321 264.897 128.321C264.081 128.321 263.265 128.47 262.449 128.769C261.66 129.04 260.939 129.502 260.286 130.153C259.66 130.778 259.143 131.593 258.735 132.597C258.354 133.602 258.164 134.81 258.164 136.223C258.164 137.797 258.477 139.182 259.102 140.377C259.755 141.572 260.653 142.522 261.796 143.228C262.938 143.907 264.271 144.247 265.795 144.247C266.747 144.247 267.577 144.125 268.284 143.88C268.991 143.636 269.603 143.337 270.12 142.984C270.637 142.604 271.073 142.224 271.426 141.844C271.78 141.599 272.12 141.477 272.446 141.477C272.855 141.477 273.181 141.613 273.426 141.884C273.698 142.156 273.834 142.482 273.834 142.862C273.834 143.323 273.616 143.731 273.181 144.084C272.419 144.926 271.385 145.672 270.08 146.324C268.774 146.949 267.386 147.261 265.917 147.261Z" fill="black"/>
<path d="M242.334 146.854C241.872 146.854 241.477 146.691 241.151 146.365C240.851 146.039 240.702 145.645 240.702 145.184V127.424C240.702 126.963 240.851 126.583 241.151 126.284C241.477 125.958 241.872 125.795 242.334 125.795C242.824 125.795 243.218 125.958 243.518 126.284C243.817 126.583 243.966 126.963 243.966 127.424V132.801L243.477 131.946C243.64 131.104 243.926 130.289 244.334 129.502C244.769 128.687 245.313 127.967 245.966 127.343C246.619 126.691 247.367 126.189 248.21 125.836C249.054 125.456 249.979 125.266 250.985 125.266C251.584 125.266 252.128 125.415 252.618 125.714C253.135 125.985 253.393 126.379 253.393 126.895C253.393 127.465 253.243 127.886 252.944 128.158C252.645 128.429 252.305 128.565 251.924 128.565C251.57 128.565 251.23 128.497 250.904 128.361C250.577 128.198 250.169 128.117 249.679 128.117C248.999 128.117 248.319 128.307 247.639 128.687C246.986 129.04 246.374 129.556 245.803 130.235C245.259 130.914 244.81 131.688 244.456 132.557C244.13 133.398 243.966 134.308 243.966 135.286V145.184C243.966 145.645 243.803 146.039 243.477 146.365C243.177 146.691 242.797 146.854 242.334 146.854Z" fill="black"/>
<path d="M227.062 147.261C224.886 147.261 222.981 146.799 221.349 145.876C219.717 144.953 218.438 143.69 217.513 142.088C216.615 140.459 216.167 138.585 216.167 136.467C216.167 134.104 216.629 132.095 217.554 130.439C218.506 128.755 219.73 127.479 221.227 126.61C222.75 125.714 224.355 125.266 226.042 125.266C227.293 125.266 228.504 125.496 229.674 125.958C230.844 126.42 231.878 127.099 232.775 127.995C233.673 128.864 234.394 129.923 234.938 131.172C235.482 132.394 235.768 133.765 235.795 135.286C235.795 135.72 235.632 136.087 235.305 136.385C234.979 136.684 234.598 136.834 234.163 136.834H218.044L217.309 134.023H233.02L232.367 134.593V133.697C232.258 132.584 231.878 131.633 231.225 130.846C230.599 130.031 229.824 129.407 228.899 128.972C228.001 128.538 227.049 128.321 226.042 128.321C225.226 128.321 224.41 128.47 223.594 128.769C222.805 129.04 222.084 129.502 221.431 130.153C220.805 130.778 220.288 131.593 219.88 132.597C219.499 133.602 219.309 134.81 219.309 136.223C219.309 137.797 219.622 139.182 220.247 140.377C220.9 141.572 221.798 142.522 222.941 143.228C224.083 143.907 225.416 144.247 226.94 144.247C227.892 144.247 228.722 144.125 229.429 143.88C230.136 143.636 230.748 143.337 231.265 142.984C231.782 142.604 232.218 142.224 232.571 141.844C232.925 141.599 233.265 141.477 233.591 141.477C234 141.477 234.326 141.613 234.571 141.884C234.843 142.156 234.979 142.482 234.979 142.862C234.979 143.323 234.761 143.731 234.326 144.084C233.564 144.926 232.53 145.672 231.225 146.324C229.919 146.949 228.531 147.261 227.062 147.261Z" fill="black"/>
<path d="M211.317 125.428C211.752 125.428 212.12 125.578 212.419 125.877C212.745 126.175 212.909 126.569 212.909 127.058C212.909 127.166 212.895 127.289 212.868 127.424C212.868 127.533 212.841 127.642 212.786 127.75L206.502 145.795C206.366 146.148 206.135 146.419 205.808 146.609C205.509 146.799 205.182 146.881 204.829 146.854C204.203 146.826 203.727 146.473 203.4 145.795L198.259 132.923L199.075 133.045L194.423 145.795C194.123 146.473 193.647 146.826 192.994 146.854C192.641 146.881 192.301 146.799 191.974 146.609C191.648 146.419 191.43 146.148 191.321 145.795L184.915 127.75C184.833 127.506 184.792 127.275 184.792 127.058C184.792 126.623 184.942 126.243 185.241 125.917C185.54 125.591 185.948 125.428 186.465 125.428C186.792 125.428 187.091 125.51 187.363 125.673C187.635 125.836 187.825 126.094 187.934 126.447L193.443 142.495L192.586 142.455L197.361 130.235C197.633 129.556 198.136 129.217 198.871 129.217C199.252 129.217 199.551 129.312 199.769 129.502C200.013 129.665 200.19 129.909 200.299 130.235L205.278 142.455L204.257 142.536L209.766 126.447C210.011 125.768 210.528 125.428 211.317 125.428Z" fill="black"/>
<path d="M181.514 136.263C181.514 138.381 181.038 140.269 180.086 141.925C179.161 143.581 177.896 144.885 176.291 145.835C174.713 146.786 172.931 147.261 170.945 147.261C168.959 147.261 167.163 146.786 165.558 145.835C163.953 144.885 162.674 143.581 161.722 141.925C160.797 140.269 160.335 138.381 160.335 136.263C160.335 134.145 160.797 132.258 161.722 130.601C162.674 128.945 163.953 127.642 165.558 126.691C167.163 125.741 168.959 125.266 170.945 125.266C172.931 125.266 174.713 125.741 176.291 126.691C177.896 127.642 179.161 128.945 180.086 130.601C181.038 132.258 181.514 134.145 181.514 136.263ZM178.249 136.263C178.249 134.688 177.923 133.303 177.27 132.109C176.644 130.914 175.774 129.977 174.658 129.298C173.57 128.619 172.332 128.28 170.945 128.28C169.557 128.28 168.306 128.619 167.19 129.298C166.102 129.977 165.232 130.914 164.579 132.109C163.926 133.303 163.599 134.688 163.599 136.263C163.599 137.811 163.926 139.182 164.579 140.377C165.232 141.572 166.102 142.522 167.19 143.228C168.306 143.907 169.557 144.247 170.945 144.247C172.332 144.247 173.57 143.907 174.658 143.228C175.774 142.522 176.644 141.572 177.27 140.377C177.923 139.182 178.249 137.811 178.249 136.263Z" fill="black"/>
<path d="M149.2 118.341C150.696 118.341 152.043 118.708 153.24 119.441C154.437 120.174 155.375 121.179 156.055 122.455C156.763 123.731 157.116 125.184 157.116 126.813C157.116 128.416 156.763 129.868 156.055 131.172C155.375 132.475 154.437 133.507 153.24 134.267C152.043 135.028 150.696 135.408 149.2 135.408H140.916L141.201 134.919V145.184C141.201 145.645 141.052 146.039 140.752 146.365C140.453 146.691 140.072 146.854 139.61 146.854C139.12 146.854 138.726 146.691 138.426 146.365C138.154 146.039 138.018 145.645 138.018 145.184V119.97C138.018 119.509 138.168 119.129 138.467 118.83C138.794 118.504 139.188 118.341 139.651 118.341H149.2ZM149.2 132.272C150.097 132.272 150.886 132.027 151.567 131.538C152.247 131.05 152.791 130.384 153.199 129.542C153.607 128.701 153.811 127.791 153.811 126.813C153.811 125.782 153.607 124.872 153.199 124.084C152.791 123.297 152.247 122.672 151.567 122.211C150.886 121.722 150.097 121.478 149.2 121.478H140.916L141.201 121.029V132.679L140.916 132.272H149.2Z" fill="black"/>
<path d="M549.649 76.9589C549.649 78.9862 548.985 80.7016 547.657 82.1051C546.329 83.4307 544.649 84.0934 542.618 84.0934C540.587 84.0934 538.907 83.4307 537.579 82.1051C536.251 80.7016 535.588 78.9862 535.588 76.9589V28.6549C535.588 26.6276 536.251 24.9512 537.579 23.6257C538.907 22.2222 540.587 21.5204 542.618 21.5204C544.649 21.5204 546.329 22.2222 547.657 23.6257C548.985 24.9512 549.649 26.6276 549.649 28.6549V76.9589ZM542.501 13.9181C539.845 13.9181 537.97 13.4893 536.876 12.6316C535.783 11.7739 535.236 10.2534 535.236 8.07016V5.84794C535.236 3.58674 535.822 2.06628 536.994 1.28655C538.243 0.42885 540.118 0 542.618 0C545.352 0 547.266 0.42885 548.36 1.28655C549.453 2.14425 550 3.66471 550 5.84794V8.07016C550 10.3314 549.414 11.8908 548.243 12.7485C547.071 13.5282 545.157 13.9181 542.501 13.9181Z" fill="#4682B4"/>
<path d="M479.164 84.0934C476.977 84.0934 475.18 83.4306 473.774 82.1051C472.446 80.7016 471.782 78.9862 471.782 76.9589V9.35669C471.782 7.3294 472.446 5.65299 473.774 4.32746C475.18 2.92395 476.899 2.2222 478.93 2.2222H517.012C519.043 2.2222 520.723 2.88496 522.051 4.2105C523.457 5.45806 524.16 7.09548 524.16 9.12277C524.16 10.8382 523.457 12.3586 522.051 13.6842C520.723 15.0097 519.043 15.6725 517.012 15.6725H485.375L486.429 14.269V37.7777L485.609 36.2572H511.739C513.77 36.2572 515.45 36.92 516.778 38.2455C518.184 39.4931 518.887 41.1305 518.887 43.1578C518.887 44.8732 518.184 46.3937 516.778 47.7192C515.45 49.0447 513.77 49.7075 511.739 49.7075H485.375L486.429 48.6549V76.9589C486.429 78.9862 485.687 80.7016 484.203 82.1051C482.797 83.4306 481.117 84.0934 479.164 84.0934Z" fill="#4682B4"/>
<path d="M421.901 20.3508C425.182 20.3508 428.189 20.8577 430.924 21.8713C433.658 22.885 436.001 24.1715 437.954 25.731C439.985 27.2904 441.548 28.8888 442.641 30.5263C443.813 32.0857 444.399 33.4113 444.399 34.5029L441.352 36.0233V27.4853C441.352 25.458 442.016 23.7816 443.344 22.4561C444.672 21.0526 446.352 20.3508 448.383 20.3508C450.414 20.3508 452.093 21.0136 453.421 22.3391C454.749 23.6647 455.413 25.3801 455.413 27.4853V79.532C455.413 86.3157 453.929 91.7347 450.961 95.7893C448.07 99.9219 444.243 102.885 439.477 104.678C434.712 106.55 429.596 107.485 424.127 107.485C422.565 107.485 420.534 107.29 418.034 106.9C415.534 106.511 413.152 106.043 410.886 105.497C408.621 104.951 406.902 104.444 405.731 103.976C403.387 102.963 401.747 101.676 400.809 100.117C399.95 98.6353 399.794 97.0369 400.341 95.3215C401.044 93.0603 402.176 91.5008 403.739 90.6431C405.301 89.8634 406.942 89.7854 408.66 90.4092C409.441 90.6431 410.73 91.111 412.527 91.8127C414.324 92.5145 416.277 93.1382 418.386 93.6841C420.573 94.3078 422.487 94.6197 424.127 94.6197C429.986 94.6197 434.322 93.4501 437.134 91.111C439.946 88.7718 441.352 85.5359 441.352 81.4034V71.228L442.758 72.2806C442.758 73.2942 442.212 74.5418 441.118 76.0233C440.102 77.4268 438.657 78.8303 436.782 80.2338C434.986 81.6373 432.837 82.8459 430.338 83.8595C427.838 84.7952 425.182 85.263 422.37 85.263C416.823 85.263 411.824 83.8985 407.371 81.1695C402.918 78.3624 399.403 74.5418 396.825 69.7075C394.247 64.7952 392.958 59.1812 392.958 52.8654C392.958 46.4717 394.247 40.8576 396.825 36.0233C399.403 31.1111 402.879 27.2904 407.254 24.5614C411.629 21.7544 416.511 20.3508 421.901 20.3508ZM424.127 33.2163C420.612 33.2163 417.526 34.074 414.87 35.7894C412.214 37.5048 410.144 39.844 408.66 42.8069C407.176 45.7699 406.434 49.1227 406.434 52.8654C406.434 56.5301 407.176 59.844 408.66 62.8069C410.144 65.7699 412.214 68.109 414.87 69.8244C417.526 71.5398 420.612 72.3975 424.127 72.3975C427.721 72.3975 430.845 71.5398 433.501 69.8244C436.157 68.109 438.228 65.7699 439.712 62.8069C441.196 59.844 441.938 56.5301 441.938 52.8654C441.938 49.1227 441.196 45.7699 439.712 42.8069C438.228 39.844 436.157 37.5048 433.501 35.7894C430.845 34.074 427.721 33.2163 424.127 33.2163Z" fill="black"/>
<path d="M375.351 21.5204C377.382 21.5204 379.061 22.2222 380.389 23.6257C381.717 24.9512 382.381 26.6277 382.381 28.6549V78.3625C382.381 85.5359 381.014 91.2279 378.28 95.4385C375.624 99.727 372.031 102.807 367.5 104.678C362.969 106.55 357.891 107.485 352.267 107.485C349.767 107.485 347.111 107.29 344.299 106.9C341.487 106.511 339.182 105.926 337.386 105.146C335.042 104.132 333.402 102.846 332.464 101.286C331.605 99.8049 331.449 98.2065 331.996 96.4911C332.699 94.2299 333.831 92.6704 335.394 91.8127C336.956 91.033 338.596 90.955 340.315 91.5788C341.565 91.9687 343.205 92.5535 345.236 93.3332C347.267 94.1909 349.611 94.6198 352.267 94.6198C355.86 94.6198 358.829 94.1129 361.172 93.0993C363.594 92.1636 365.391 90.5262 366.562 88.187C367.812 85.9258 368.437 82.8069 368.437 78.8303V70.994L370.898 73.8011C369.57 76.3742 367.89 78.5184 365.859 80.2338C363.907 81.8712 361.563 83.1188 358.829 83.9765C356.095 84.8342 352.97 85.263 349.455 85.263C345.315 85.263 341.682 84.3274 338.557 82.456C335.511 80.5067 333.128 77.8556 331.41 74.5028C329.691 71.072 328.832 67.1734 328.832 62.8069V28.6549C328.832 26.6277 329.496 24.9512 330.824 23.6257C332.152 22.2222 333.831 21.5204 335.862 21.5204C337.893 21.5204 339.573 22.2222 340.901 23.6257C342.229 24.9512 342.893 26.6277 342.893 28.6549V58.5964C342.893 63.6646 343.987 67.2514 346.174 69.3566C348.439 71.3839 351.564 72.3976 355.548 72.3976C358.282 72.3976 360.587 71.8907 362.461 70.8771C364.336 69.7855 365.781 68.226 366.797 66.1987C367.812 64.0935 368.32 61.5594 368.32 58.5964V28.6549C368.32 26.6277 368.984 24.9512 370.312 23.6257C371.64 22.2222 373.32 21.5204 375.351 21.5204Z" fill="black"/>
<path d="M281.589 22.69H309.36C311.235 22.69 312.797 23.3138 314.047 24.5613C315.297 25.8089 315.922 27.3684 315.922 29.2397C315.922 31.0331 315.297 32.5535 314.047 33.8011C312.797 34.9707 311.235 35.5555 309.36 35.5555H281.589C279.714 35.5555 278.152 34.9317 276.902 33.6841C275.652 32.4366 275.027 30.8771 275.027 29.0058C275.027 27.2124 275.652 25.7309 276.902 24.5613C278.152 23.3138 279.714 22.69 281.589 22.69ZM294.127 8.07014C296.158 8.07014 297.798 8.7719 299.048 10.1754C300.376 11.5009 301.04 13.1773 301.04 15.2046V67.2513C301.04 68.343 301.235 69.2396 301.626 69.9414C302.095 70.6431 302.681 71.15 303.384 71.4619C304.165 71.7738 304.985 71.9297 305.844 71.9297C306.782 71.9297 307.641 71.7738 308.422 71.4619C309.203 71.072 310.102 70.8771 311.117 70.8771C312.211 70.8771 313.187 71.3839 314.047 72.3975C314.984 73.4112 315.453 74.8147 315.453 76.608C315.453 78.7913 314.242 80.5846 311.82 81.9882C309.477 83.3917 306.938 84.0934 304.204 84.0934C302.563 84.0934 300.728 83.9765 298.697 83.7425C296.744 83.4306 294.869 82.7679 293.072 81.7542C291.354 80.6626 289.908 79.0252 288.737 76.842C287.565 74.6587 286.979 71.6568 286.979 67.8361V15.2046C286.979 13.1773 287.643 11.5009 288.971 10.1754C290.377 8.7719 292.096 8.07014 294.127 8.07014Z" fill="black"/>
<path d="M241.299 85.263C234.659 85.263 228.878 83.8985 223.957 81.1695C219.113 78.3625 215.364 74.5808 212.708 69.8245C210.13 65.0681 208.841 59.688 208.841 53.6841C208.841 46.6666 210.247 40.7017 213.059 35.7894C215.95 30.7992 219.699 26.9785 224.308 24.3274C228.917 21.6764 233.799 20.3508 238.955 20.3508C242.939 20.3508 246.689 21.1696 250.204 22.807C253.798 24.4444 256.961 26.7056 259.695 29.5906C262.429 32.3976 264.578 35.6725 266.14 39.4151C267.781 43.1578 268.601 47.1344 268.601 51.345C268.523 53.2163 267.781 54.7368 266.374 55.9063C264.968 57.0759 263.328 57.6607 261.453 57.6607H216.692L213.176 45.9648H256.18L253.602 48.304V45.1461C253.446 42.8849 252.626 40.8576 251.142 39.0643C249.735 37.2709 247.939 35.8674 245.751 34.8537C243.642 33.7621 241.377 33.2163 238.955 33.2163C236.612 33.2163 234.424 33.5282 232.393 34.152C230.362 34.7758 228.605 35.8284 227.12 37.3099C225.636 38.7914 224.464 40.7797 223.605 43.2748C222.746 45.7699 222.316 48.9278 222.316 52.7485C222.316 56.959 223.175 60.5457 224.894 63.5087C226.691 66.3937 228.956 68.6159 231.69 70.1753C234.503 71.6568 237.471 72.3975 240.596 72.3975C243.486 72.3975 245.79 72.1636 247.509 71.6958C249.228 71.228 250.595 70.6821 251.61 70.0584C252.704 69.3566 253.68 68.7718 254.54 68.304C255.946 67.6022 257.274 67.2514 258.524 67.2514C260.242 67.2514 261.648 67.8362 262.742 69.0057C263.914 70.1753 264.5 71.5398 264.5 73.0993C264.5 75.2046 263.406 77.1149 261.219 78.8303C259.188 80.5457 256.336 82.0662 252.665 83.3917C248.993 84.6392 245.205 85.263 241.299 85.263Z" fill="black"/>
<path d="M172.95 2.2222C180.449 2.2222 186.035 3.97658 189.706 7.48535C193.378 10.9941 195.214 16.1793 195.214 23.0409C195.214 26.7056 194.315 29.9415 192.519 32.7485C190.722 35.4775 188.066 37.6218 184.551 39.1812C181.035 40.6627 176.7 41.4034 171.544 41.4034L172.013 36.1403C174.434 36.1403 177.208 36.4911 180.332 37.1929C183.457 37.8167 186.464 38.9863 189.355 40.7017C192.323 42.3391 194.745 44.6783 196.62 47.7192C198.573 50.6822 199.549 54.5028 199.549 59.1812C199.549 64.3274 198.69 68.5379 196.971 71.8127C195.331 75.0876 193.143 77.6217 190.409 79.4151C187.675 81.2084 184.746 82.456 181.621 83.1577C178.496 83.7815 175.489 84.0934 172.599 84.0934H143.422C141.391 84.0934 139.672 83.4306 138.266 82.1051C136.938 80.7016 136.274 78.9862 136.274 76.9589V9.35669C136.274 7.3294 136.938 5.65299 138.266 4.32746C139.672 2.92395 141.391 2.2222 143.422 2.2222H172.95ZM170.841 16.0233H149.984L151.507 14.152V35.3216L150.101 34.2689H171.192C173.458 34.2689 175.489 33.5282 177.286 32.0467C179.082 30.5652 179.981 28.421 179.981 25.614C179.981 22.2612 179.121 19.844 177.403 18.3625C175.762 16.8031 173.575 16.0233 170.841 16.0233ZM171.778 48.0701H150.452L151.507 47.1344V71.8127L150.335 70.6431H172.599C176.192 70.6431 179.043 69.7075 181.152 67.8361C183.262 65.8868 184.316 63.0018 184.316 59.1812C184.316 55.6724 183.613 53.1383 182.207 51.5788C180.801 50.0194 179.121 49.0447 177.168 48.6549C175.216 48.265 173.419 48.0701 171.778 48.0701Z" fill="black"/>
<defs>
<clipPath id="clip0_1131_878">
<rect width="108.876" height="155" fill="white"/>
</clipPath>
</defs>
</svg>
