<svg width="150" height="150" viewBox="0 0 150 150" fill="none" xmlns="http://www.w3.org/2000/svg">
<circle cx="75" cy="75" r="75" fill="#4682B4"/>
<path fill-rule="evenodd" clip-rule="evenodd" d="M42.6 28.8H89.3968C99.763 28.8 108 37.1669 108 47.2624V103.338C108 113.625 99.5693 121.8 89.3968 121.8H60.6254C50.6449 121.8 42.6 113.816 42.6 103.911C42.6 94.006 50.6449 86.0219 60.6254 86.0219H82.3484V98.636H60.6254C57.6646 98.636 55.3103 100.973 55.3103 103.911C55.3103 106.849 57.6646 109.186 60.6254 109.186H89.3968C92.6279 109.186 95.2898 106.581 95.2898 103.338V47.2624C95.2898 44.0558 92.6653 41.414 89.3968 41.414H55.3103V61.3672C55.3103 64.5738 57.9347 67.2155 61.2032 67.2155H82.3484V79.8296H61.2032C50.8371 79.8296 42.6 71.4627 42.6 61.3672V28.8Z" fill="white"/>
</svg>
