<svg width="32" height="32" viewBox="0 0 32 32" fill="none" xmlns="http://www.w3.org/2000/svg">
<g clip-path="url(#clip0_4171_3150)">
<path d="M31.5214 19.8692C29.3836 28.4452 20.6947 33.6585 12.131 31.5206C3.55473 29.3829 -1.65852 20.6944 0.479358 12.1307C2.61711 3.55473 11.2934 -1.65852 19.8696 0.479359C28.4334 2.60461 33.6592 11.2931 31.5214 19.8692Z" fill="url(#paint0_linear_4171_3150)"/>
<path d="M23.6188 14.0047C23.9313 11.8797 22.3187 10.7297 20.0937 9.96719L20.8187 7.07969L19.0687 6.64219L18.3688 9.45469C17.9063 9.34219 17.4313 9.22969 16.9563 9.12969L17.6562 6.30469L15.9062 5.86719L15.1937 8.74219C14.8062 8.65469 14.4312 8.56719 14.0687 8.47969V8.46719L11.6437 7.86719L11.1812 9.74219C11.1812 9.74219 12.4812 10.0422 12.4562 10.0547C13.1687 10.2297 13.2937 10.7047 13.2687 11.0797L12.4437 14.3672C12.4937 14.3797 12.5562 14.3922 12.6312 14.4297C12.5687 14.4172 12.5062 14.4047 12.4437 14.3797L11.2937 18.9797C11.2062 19.1922 10.9812 19.5172 10.4937 19.3922C10.5062 19.4172 9.21875 19.0797 9.21875 19.0797L8.34375 21.0922L10.6312 21.6672C11.0562 21.7797 11.4687 21.8797 11.8812 21.9922L11.1562 24.9047L12.9062 25.3422L13.6312 22.4547C14.1062 22.5797 14.5813 22.7047 15.0312 22.8172L14.3187 25.6922L16.0687 26.1297L16.7937 23.2172C19.7937 23.7797 22.0437 23.5547 22.9812 20.8422C23.7437 18.6672 22.9438 17.4047 21.3688 16.5797C22.5313 16.3172 23.3938 15.5547 23.6188 14.0047ZM19.6062 19.6297C19.0687 21.8047 15.3937 20.6297 14.2062 20.3297L15.1687 16.4672C16.3562 16.7672 20.1812 17.3547 19.6062 19.6297ZM20.1562 13.9672C19.6562 15.9547 16.6062 14.9422 15.6187 14.6922L16.4938 11.1922C17.4813 11.4422 20.6687 11.9047 20.1562 13.9672Z" fill="white"/>
</g>
<defs>
<linearGradient id="paint0_linear_4171_3150" x1="1599.13" y1="-0.767999" x2="1599.13" y2="3199.68" gradientUnits="userSpaceOnUse">
<stop stop-color="#F9AA4B"/>
<stop offset="1" stop-color="#F7931A"/>
</linearGradient>
<clipPath id="clip0_4171_3150">
<rect width="32" height="32" fill="white"/>
</clipPath>
</defs>
</svg>
