<svg width="14" height="13" viewBox="0 0 14 13" fill="none" xmlns="http://www.w3.org/2000/svg">
<path d="M1 1H4.60002C5.23654 1 5.84699 1.25286 6.29708 1.70295C6.74717 2.15304 7.00003 2.76349 7.00003 3.40001V11.8001C7.00003 11.3227 6.81039 10.8648 6.47282 10.5273C6.13525 10.1897 5.67741 10 5.20002 10H1V1Z" stroke="#676767" stroke-linecap="round" stroke-linejoin="round"/>
<path d="M12.9999 1H9.39989C8.76337 1 8.15291 1.25286 7.70282 1.70295C7.25274 2.15304 6.99988 2.76349 6.99988 3.40001V11.8001C6.99988 11.3227 7.18952 10.8648 7.52709 10.5273C7.86466 10.1897 8.32249 10 8.79989 10H12.9999V1Z" stroke="#676767" stroke-linecap="round" stroke-linejoin="round"/>
</svg>
