<svg width="12" height="12" viewBox="0 0 12 12" fill="none" xmlns="http://www.w3.org/2000/svg">
<g clip-path="url(#clip0_1_553)">
<path d="M3.61778 5.0425L5.94819 2.71218L8.27984 5.04373L9.63583 3.68774L5.94819 0L2.26178 3.6865L3.61778 5.0425Z" fill="#F3BA2F"/>
<path d="M2.66017 5.99977L1.3042 4.6438L-0.0518403 5.99984L1.30413 7.35581L2.66017 5.99977Z" fill="#F3BA2F"/>
<path d="M3.61781 6.9575L5.94823 9.28782L8.27978 6.95636L9.63653 8.3116L9.63587 8.31236L5.94823 12L2.26172 8.31359L2.25983 8.31169L3.61781 6.9575Z" fill="#F3BA2F"/>
<path d="M10.5923 7.35647L11.9484 6.00043L10.5924 4.64445L9.23635 6.00049L10.5923 7.35647Z" fill="#F3BA2F"/>
<path d="M7.32362 5.99929H7.32418L5.94819 4.62329L4.93131 5.64017H4.93122L4.81445 5.75703L4.57343 5.99805L4.57153 5.99995L4.57343 6.00194L5.94819 7.3767L7.32418 6.00071L7.32485 5.99995L7.32362 5.99929Z" fill="#F3BA2F"/>
</g>
<defs>
<clipPath id="clip0_1_553">
<rect width="12" height="12" fill="white"/>
</clipPath>
</defs>
</svg>
