<svg width="100" height="100" viewBox="0 0 100 100" fill="none" xmlns="http://www.w3.org/2000/svg">
<g id="crypto-currency-bitcoin-code">
<g id="Group">
<g id="Group_2">
<path id="Vector" d="M10.4688 6.05469H13.3984C14.1723 6.0648 14.9116 6.37672 15.4589 6.92396C16.0061 7.47121 16.318 8.21052 16.3281 8.98437V29.4922" stroke="#0D75D3" stroke-width="3" stroke-linecap="round" stroke-linejoin="round"/>
<path id="Vector_2" d="M10.4688 29.4922H22.1875" stroke="#0D75D3" stroke-width="3" stroke-linecap="round" stroke-linejoin="round"/>
</g>
<path id="Vector_3" d="M45.625 23.6328C45.625 25.1868 45.0077 26.6772 43.9088 27.776C42.81 28.8749 41.3196 29.4922 39.7656 29.4922C38.2116 29.4922 36.7213 28.8749 35.6224 27.776C34.5236 26.6772 33.9063 25.1868 33.9062 23.6328V11.9141C33.9062 10.3601 34.5236 8.8697 35.6224 7.77086C36.7213 6.67201 38.2116 6.05469 39.7656 6.05469C41.3196 6.05469 42.81 6.67201 43.9088 7.77086C45.0077 8.8697 45.625 10.3601 45.625 11.9141V23.6328Z" stroke="#0D75D3" stroke-width="3" stroke-linecap="round" stroke-linejoin="round"/>
<g id="Group_3">
<path id="Vector_4" d="M57.3047 6.05469H60.2344C61.0114 6.05469 61.7566 6.36335 62.306 6.91277C62.8554 7.4622 63.1641 8.20737 63.1641 8.98437V29.4922" stroke="#0D75D3" stroke-width="3" stroke-linecap="round" stroke-linejoin="round"/>
<path id="Vector_5" d="M57.3047 29.4922H69.0234" stroke="#0D75D3" stroke-width="3" stroke-linecap="round" stroke-linejoin="round"/>
</g>
<path id="Vector_6" d="M92.4609 23.6328C92.4609 25.1868 91.8436 26.6772 90.7448 27.776C89.6459 28.8749 88.1556 29.4922 86.6016 29.4922C85.0476 29.4922 83.5572 28.8749 82.4584 27.776C81.3595 26.6772 80.7422 25.1868 80.7422 23.6328V11.9141C80.7422 10.3601 81.3595 8.8697 82.4584 7.77086C83.5572 6.67201 85.0476 6.05469 86.6016 6.05469C88.1556 6.05469 89.6459 6.67201 90.7448 7.77086C91.8436 8.8697 92.4609 10.3601 92.4609 11.9141V23.6328Z" stroke="#0D75D3" stroke-width="3" stroke-linecap="round" stroke-linejoin="round"/>
<path id="Vector_7" d="M63.1641 38.2812C64.7181 38.2812 66.2084 38.8986 67.3073 39.9974C68.4061 41.0963 69.0234 42.5866 69.0234 44.1406V50" stroke="#0D75D3" stroke-width="3" stroke-linecap="round" stroke-linejoin="round"/>
<g id="Group_4">
<path id="Vector_8" d="M80.7422 38.2812H83.6719C84.4489 38.2812 85.1941 38.5899 85.7435 39.1393C86.2929 39.6888 86.6016 40.4339 86.6016 41.2109V61.7187" stroke="#0D75D3" stroke-width="3" stroke-linecap="round" stroke-linejoin="round"/>
<path id="Vector_9" d="M80.7422 61.7188H92.4609" stroke="#0D75D3" stroke-width="3" stroke-linecap="round" stroke-linejoin="round"/>
</g>
<path id="Vector_10" d="M92.4609 88.0859C92.4609 89.6399 91.8436 91.1303 90.7448 92.2291C89.6459 93.328 88.1556 93.9453 86.6016 93.9453C85.0476 93.9453 83.5572 93.328 82.4584 92.2291C81.3595 91.1303 80.7422 89.6399 80.7422 88.0859V76.3672C80.7422 74.8132 81.3595 73.3228 82.4584 72.224C83.5572 71.1251 85.0476 70.5078 86.6016 70.5078C88.1556 70.5078 89.6459 71.1251 90.7448 72.224C91.8436 73.3228 92.4609 74.8132 92.4609 76.3672V88.0859Z" stroke="#0D75D3" stroke-width="3" stroke-linecap="round" stroke-linejoin="round"/>
<g id="Group_5">
<path id="Vector_11" d="M7.53906 67.5781C7.53906 71.0407 8.22107 74.4694 9.54614 77.6684C10.8712 80.8674 12.8134 83.7741 15.2618 86.2225C17.7103 88.671 20.6169 90.6132 23.816 91.9382C27.015 93.2633 30.4437 93.9453 33.9062 93.9453C37.3688 93.9453 40.7975 93.2633 43.9965 91.9382C47.1956 90.6132 50.1022 88.671 52.5507 86.2225C54.9991 83.7741 56.9413 80.8674 58.2664 77.6684C59.5914 74.4694 60.2734 71.0407 60.2734 67.5781C60.2734 60.5851 57.4955 53.8785 52.5507 48.9337C47.6059 43.9889 40.8993 41.2109 33.9062 41.2109C26.9132 41.2109 20.2066 43.9889 15.2618 48.9337C10.317 53.8785 7.53906 60.5851 7.53906 67.5781Z" stroke="#0D75D3" stroke-width="3" stroke-linecap="round" stroke-linejoin="round"/>
</g>
<g id="Group_6">
<path id="Vector_12" d="M63.1641 88.0859V93.9453" stroke="#0D75D3" stroke-width="3" stroke-linecap="round" stroke-linejoin="round"/>
<path id="Vector_13" d="M57.3047 93.9453H69.0234" stroke="#0D75D3" stroke-width="3" stroke-linecap="round" stroke-linejoin="round"/>
</g>
</g>
<path id="XMLID_16_ (Stroke)" fill-rule="evenodd" clip-rule="evenodd" d="M26 56H38.0766C40.7517 56 42.8774 58.1592 42.8774 60.7645V75.2355C42.8774 77.8904 40.7018 80 38.0766 80H30.6517C28.0761 80 26 77.9396 26 75.3835C26 72.8274 28.0761 70.767 30.6517 70.767H36.2577V74.0222H30.6517C29.8876 74.0222 29.2801 74.6252 29.2801 75.3835C29.2801 76.1418 29.8876 76.7448 30.6517 76.7448H38.0766C38.9104 76.7448 39.5974 76.0726 39.5974 75.2355V60.7645C39.5974 59.937 38.9201 59.2552 38.0766 59.2552H29.2801V64.4044C29.2801 65.2319 29.9573 65.9137 30.8008 65.9137H36.2577V69.1689H30.8008C28.1257 69.1689 26 67.0097 26 64.4044V56Z" fill="#0D75D3"/>
</g>
</svg>
