<svg width="100" height="100" viewBox="0 0 100 100" fill="none" xmlns="http://www.w3.org/2000/svg">
<path d="M16.9901 30.222C20.3146 28.1663 24.1467 27.0788 28.0554 27.082C32.6249 27.0858 37.0686 28.5794 40.7127 31.3364C43.8191 33.6866 46.2 36.8457 47.607 40.4501H85.3301L92.9687 48.0891L85.3301 55.7277H79.6008L73.8715 61.457L68.1422 55.7277H64.323L58.5937 61.457L52.8645 55.7277H47.607C46.4371 58.7246 44.591 61.4215 42.202 63.6027C39.3155 66.2383 35.7509 68.016 31.9091 68.7363C28.0673 69.4566 24.1007 69.0906 20.4555 67.6797C16.8103 66.2688 13.6311 63.8688 11.2753 60.7496C8.91949 57.6309 7.48066 53.9164 7.12059 50.0242C6.76051 46.132 7.49348 42.2168 9.23703 38.7184C10.9806 35.2201 13.6656 32.2777 16.9901 30.222Z" stroke="#0D75D3" stroke-width="3" stroke-linecap="round" stroke-linejoin="round"/>
<path d="M24.237 53.8254C27.4011 53.8254 29.9662 51.2605 29.9662 48.0965C29.9662 44.932 27.4011 42.3672 24.237 42.3672C21.0729 42.3672 18.5078 44.932 18.5078 48.0965C18.5078 51.2605 21.0729 53.8254 24.237 53.8254Z" stroke="#0D75D3" stroke-width="3" stroke-linecap="round" stroke-linejoin="round"/>
<path d="M34.7188 9.96094C34.7188 10.7379 35.0274 11.4831 35.5768 12.0325C36.1263 12.582 36.8714 12.8906 37.6484 12.8906C38.4254 12.8906 39.1706 12.582 39.72 12.0325C40.2695 11.4831 40.5781 10.7379 40.5781 9.96094C40.5781 9.18394 40.2695 8.43876 39.72 7.88934C39.1706 7.33991 38.4254 7.03125 37.6484 7.03125C36.8714 7.03125 36.1263 7.33991 35.5768 7.88934C35.0274 8.43876 34.7188 9.18394 34.7188 9.96094Z" stroke="#0D75D3" stroke-width="3" stroke-linejoin="round"/>
<path d="M24.2344 90.168C24.2344 90.945 24.543 91.6901 25.0925 92.2396C25.6419 92.789 26.3871 93.0977 27.1641 93.0977C27.9411 93.0977 28.6862 92.789 29.2357 92.2396C29.7851 91.6901 30.0937 90.945 30.0937 90.168C30.0937 89.391 29.7851 88.6458 29.2357 88.0964C28.6862 87.5469 27.9411 87.2383 27.1641 87.2383C26.3871 87.2383 25.6419 87.5469 25.0925 88.0964C24.543 88.6458 24.2344 89.391 24.2344 90.168Z" stroke="#0D75D3" stroke-width="3" stroke-linejoin="round"/>
<path d="M87.2344 17.5977C87.2344 18.3747 87.543 19.1198 88.0925 19.6693C88.6419 20.2187 89.3871 20.5273 90.1641 20.5273C90.9411 20.5273 91.6862 20.2187 92.2357 19.6693C92.7851 19.1198 93.0937 18.3747 93.0937 17.5977C93.0937 16.8207 92.7851 16.0755 92.2357 15.5261C91.6862 14.9766 90.9411 14.668 90.1641 14.668C89.3871 14.668 88.6419 14.9766 88.0925 15.5261C87.543 16.0755 87.2344 16.8207 87.2344 17.5977Z" stroke="#0D75D3" stroke-width="3" stroke-linejoin="round"/>
<path d="M87.2344 78.7109C87.2344 79.4879 87.543 80.2331 88.0925 80.7825C88.6419 81.332 89.3871 81.6406 90.1641 81.6406C90.9411 81.6406 91.6862 81.332 92.2357 80.7825C92.7851 80.2331 93.0937 79.4879 93.0937 78.7109C93.0937 77.9339 92.7851 77.1888 92.2357 76.6393C91.6862 76.0899 90.9411 75.7812 90.1641 75.7812C89.3871 75.7812 88.6419 76.0899 88.0925 76.6393C87.543 77.1888 87.2344 77.9339 87.2344 78.7109Z" stroke="#0D75D3" stroke-width="3" stroke-linejoin="round"/>
<path d="M71 32.809V21.3507C71 19.2412 72.7102 17.5312 74.8195 17.5312H78.6391" stroke="#0D75D3" stroke-width="3" stroke-linecap="round" stroke-linejoin="round"/>
<path d="M50 9.89453H53.8195C55.9289 9.89453 57.6391 11.6045 57.6391 13.7139V32.8112" stroke="#0D75D3" stroke-width="3" stroke-linecap="round" stroke-linejoin="round"/>
<path d="M67.1875 65.2773V74.8262C67.1875 76.9356 68.8977 78.6457 71.007 78.6457H78.6461" stroke="#0D75D3" stroke-width="3" stroke-linecap="round" stroke-linejoin="round"/>
<path d="M40.4531 90.1043H48.0921C50.2014 90.1043 51.9116 88.3941 51.9116 86.2848V67.1875" stroke="#0D75D3" stroke-width="3" stroke-linecap="round" stroke-linejoin="round"/>
</svg>
