<svg width="100" height="100" viewBox="0 0 100 100" fill="none" xmlns="http://www.w3.org/2000/svg">
<g id="heroicons:rocket-launch">
<path id="Vector" d="M64.9583 59.875C65.4 61.725 65.6222 63.6417 65.625 65.625C65.625 72.2554 62.9911 78.6143 58.3027 83.3027C53.6143 87.9911 47.2554 90.625 40.625 90.625V70.625M64.9583 59.875C72.9162 54.0783 79.3899 46.4812 83.8507 37.7045C88.3114 28.9278 90.6328 19.2203 90.625 9.37502C80.7804 9.36791 71.0738 11.6895 62.2978 16.1503C53.5219 20.611 45.9255 27.0844 40.1292 35.0417M64.9583 59.875C57.718 65.175 49.419 68.8425 40.625 70.625M40.625 70.625C40.1944 70.7139 39.7625 70.7972 39.3292 70.875C35.5469 67.8801 32.1241 64.4573 29.1292 60.675L29.375 59.375M40.1292 35.0417C36.4577 34.1733 32.6374 34.1472 28.9544 34.9652C25.2715 35.7832 21.8214 37.4241 18.8628 39.7651C15.9042 42.106 13.5137 45.0862 11.8706 48.4823C10.2275 51.8784 9.37431 55.6023 9.375 59.375H29.375M40.1292 35.0417C34.8297 42.2808 31.1581 50.5824 29.375 59.375M20.0458 69.3333C17.3039 71.3706 15.172 74.1197 13.8815 77.2825C12.5909 80.4453 12.191 83.9011 12.725 87.275C13.6722 87.425 14.6389 87.5 15.625 87.5C18.5471 87.5007 21.4289 86.8184 24.0405 85.5075C26.6521 84.1966 28.9212 82.2935 30.6667 79.95M68.75 37.5C68.75 39.1576 68.0915 40.7473 66.9194 41.9194C65.7473 43.0915 64.1576 43.75 62.5 43.75C60.8424 43.75 59.2527 43.0915 58.0806 41.9194C56.9085 40.7473 56.25 39.1576 56.25 37.5C56.25 35.8424 56.9085 34.2527 58.0806 33.0806C59.2527 31.9085 60.8424 31.25 62.5 31.25C64.1576 31.25 65.7473 31.9085 66.9194 33.0806C68.0915 34.2527 68.75 35.8424 68.75 37.5Z" stroke="#0D75D3" stroke-width="3" stroke-linecap="round" stroke-linejoin="round"/>
</g>
</svg>
