<svg width="40" height="40" viewBox="0 0 40 40" fill="none" xmlns="http://www.w3.org/2000/svg">
<rect width="40" height="40" fill="white" style="mix-blend-mode:multiply"/>
<path d="M20 2.5C16.5388 2.5 13.1554 3.52636 10.2775 5.44928C7.39967 7.37221 5.15665 10.1053 3.83212 13.303C2.50758 16.5007 2.16102 20.0194 2.83627 23.4141C3.51151 26.8087 5.17822 29.9269 7.62564 32.3744C10.0731 34.8218 13.1913 36.4885 16.5859 37.1637C19.9806 37.839 23.4993 37.4924 26.697 36.1679C29.8947 34.8434 32.6278 32.6003 34.5507 29.7225C36.4737 26.8446 37.5 23.4612 37.5 20C37.5 15.3587 35.6563 10.9075 32.3744 7.62563C29.0925 4.34374 24.6413 2.5 20 2.5ZM17.5 26.9885L11.25 20.7385L13.2383 18.75L17.5 23.0115L26.7625 13.75L28.7571 15.7324L17.5 26.9885Z" fill="#24A148"/>
</svg>
