<svg width="32" height="32" viewBox="0 0 32 32" fill="none" xmlns="http://www.w3.org/2000/svg">
<g id="Icon 6">
<g id="Group 427319237">
<path id="Ellipse 67" d="M21.8337 11.9815C21.8337 14.9783 19.4046 17.4075 16.4084 17.4075C13.4121 17.4075 10.983 14.9783 10.983 11.9815C10.983 8.98477 13.4121 6.55553 16.4084 6.55553C19.4046 6.55553 21.8337 8.98477 21.8337 11.9815Z" stroke="#6F7383" stroke-width="1.11111"/>
<path id="Ellipse 69" d="M23.5159 16.1776C25.4065 16.1776 26.9392 14.6447 26.9392 12.7538C26.9392 10.8629 25.4065 9.33008 23.5159 9.33008" stroke="#6F7383" stroke-linecap="round"/>
<path id="Ellipse 71" d="M9.4043 16.1776C7.51363 16.1776 5.98094 14.6447 5.98094 12.7538C5.98094 10.8629 7.51363 9.33008 9.4043 9.33008" stroke="#6F7383" stroke-linecap="round"/>
<path id="Ellipse 68" d="M24.9527 26C24.9527 21.2807 21.1274 17.4546 16.4086 17.4546C13.2803 17.4546 10.5448 19.136 9.05603 21.6444C8.2991 22.9198 7.8645 24.409 7.8645 25.9997" stroke="#6F7383" stroke-width="1.11111" stroke-linecap="round"/>
<path id="Ellipse 70" d="M28.4064 21.1071C28.4064 18.4058 26.2168 16.2158 23.5159 16.2158" stroke="#6F7383" stroke-linecap="round"/>
<path id="Ellipse 72" d="M4.2908 21.1071C4.2908 18.4059 6.48035 16.2159 9.18131 16.2159" stroke="#6F7383" stroke-linecap="round"/>
</g>
</g>
</svg>
