<svg width="189" height="98" viewBox="0 0 189 98" fill="none" xmlns="http://www.w3.org/2000/svg">
<rect width="189" height="98" fill="#1E1E1E"/>
<g clip-path="url(#clip0_269_1080)">
<rect width="1440" height="1131" transform="translate(-784 -265)" fill="#191919"/>
<rect x="175.5" y="-179.5" width="450" height="348" rx="5.5" fill="#202020" stroke="#272727"/>
<path d="M-541.5 -174C-541.5 -177.038 -539.038 -179.5 -536 -179.5H150C153.038 -179.5 155.5 -177.038 155.5 -174V163C155.5 166.038 153.038 168.5 150 168.5H-536C-539.038 168.5 -541.5 166.038 -541.5 163V-174Z" fill="#202020" stroke="#272727"/>
<line x1="-498.761" y1="1.37082" x2="36.4279" y2="1.37082" stroke="white" stroke-opacity="0.2" stroke-width="0.5"/>
<line x1="-498.761" y1="35.4985" x2="36.4279" y2="35.4985" stroke="white" stroke-opacity="0.2" stroke-width="0.5"/>
<line x1="-498.761" y1="70.4794" x2="36.4279" y2="70.4794" stroke="white" stroke-opacity="0.2" stroke-width="0.5"/>
<path d="M49.1912 103.909V94.8182H49.6564V103.909H49.1912ZM51.1905 97.5455C51.1503 97.1406 50.9715 96.8187 50.6543 96.5795C50.3371 96.3404 49.9382 96.2209 49.4576 96.2209C49.119 96.2209 48.8207 96.2789 48.5627 96.3949C48.307 96.5109 48.1058 96.6719 47.959 96.8778C47.8146 97.0814 47.7424 97.3134 47.7424 97.5739C47.7424 97.7656 47.7838 97.9337 47.8667 98.0781C47.9495 98.2225 48.0608 98.3468 48.2005 98.451C48.3425 98.5528 48.4988 98.6404 48.6692 98.7138C48.842 98.7872 49.0161 98.8487 49.1912 98.8984L49.9583 99.1186C50.1903 99.1825 50.4223 99.2642 50.6543 99.3636C50.8863 99.4631 51.0982 99.5885 51.29 99.7401C51.4841 99.8892 51.6392 100.073 51.7552 100.29C51.8735 100.506 51.9327 100.765 51.9327 101.068C51.9327 101.456 51.8321 101.806 51.6309 102.116C51.4296 102.426 51.1408 102.672 50.7644 102.854C50.388 103.034 49.937 103.124 49.4114 103.124C48.9166 103.124 48.4869 103.043 48.1223 102.879C47.7578 102.714 47.4713 102.485 47.263 102.194C47.0546 101.903 46.9375 101.565 46.9114 101.182H47.5932C47.6169 101.468 47.7116 101.711 47.8773 101.91C48.043 102.109 48.2585 102.26 48.5236 102.364C48.7888 102.466 49.0847 102.517 49.4114 102.517C49.7736 102.517 50.0956 102.457 50.3773 102.336C50.6614 102.213 50.8839 102.042 51.0449 101.825C51.2083 101.604 51.29 101.349 51.29 101.058C51.29 100.811 51.226 100.605 51.0982 100.44C50.9704 100.272 50.7916 100.131 50.562 100.017C50.3347 99.9034 50.0707 99.8028 49.7701 99.7152L48.9 99.4595C48.3295 99.2891 47.8868 99.0535 47.5719 98.7528C47.2571 98.4522 47.0996 98.0687 47.0996 97.6023C47.0996 97.2116 47.2038 96.8684 47.4121 96.5724C47.6228 96.2741 47.9069 96.0421 48.2644 95.8764C48.6242 95.7083 49.0279 95.6243 49.4753 95.6243C49.9275 95.6243 50.3276 95.7071 50.6756 95.8729C51.0236 96.0386 51.2994 96.267 51.503 96.5582C51.709 96.8471 51.8191 97.1761 51.8333 97.5455H51.1905ZM55.633 103.099C55.1216 103.099 54.6848 102.953 54.3226 102.659C53.9628 102.363 53.6858 101.936 53.4917 101.377C53.2999 100.818 53.204 100.147 53.204 99.3636C53.204 98.5824 53.2999 97.9136 53.4917 97.3572C53.6858 96.7985 53.964 96.3712 54.3262 96.0753C54.6908 95.777 55.1264 95.6278 55.633 95.6278C56.1396 95.6278 56.5741 95.777 56.9363 96.0753C57.3009 96.3712 57.579 96.7985 57.7708 97.3572C57.9649 97.9136 58.062 98.5824 58.062 99.3636C58.062 100.147 57.9649 100.818 57.7708 101.377C57.579 101.936 57.302 102.363 56.9398 102.659C56.58 102.953 56.1444 103.099 55.633 103.099ZM55.633 102.503C56.1941 102.503 56.6321 102.229 56.9469 101.683C57.2618 101.133 57.4192 100.36 57.4192 99.3636C57.4192 98.7008 57.347 98.1349 57.2026 97.6662C57.0606 97.1951 56.8558 96.8352 56.5883 96.5866C56.3231 96.3381 56.0047 96.2138 55.633 96.2138C55.0767 96.2138 54.6399 96.4908 54.3226 97.0447C54.0054 97.5964 53.8468 98.3693 53.8468 99.3636C53.8468 100.027 53.9178 100.592 54.0598 101.061C54.2043 101.53 54.409 101.887 54.6742 102.134C54.9417 102.38 55.2613 102.503 55.633 102.503ZM47.2417 123V115.727H47.8773V118.586H47.9341C48.0052 118.423 48.107 118.254 48.2395 118.082C48.3745 117.909 48.5509 117.764 48.7687 117.648C48.9888 117.53 49.2658 117.471 49.5996 117.471C50.0471 117.471 50.4401 117.589 50.7786 117.826C51.1171 118.06 51.3811 118.389 51.5705 118.813C51.7599 119.235 51.8546 119.726 51.8546 120.287C51.8546 120.85 51.7599 121.344 51.5705 121.768C51.3835 122.192 51.1207 122.522 50.7821 122.759C50.446 122.995 50.0553 123.114 49.6103 123.114C49.2788 123.114 49.0018 123.054 48.7793 122.936C48.5591 122.818 48.3816 122.672 48.2466 122.499C48.1117 122.324 48.0075 122.154 47.9341 121.988H47.856V123H47.2417ZM47.8667 120.276C47.8667 120.717 47.9318 121.107 48.062 121.448C48.1946 121.787 48.3839 122.053 48.6302 122.247C48.8787 122.439 49.1794 122.535 49.5321 122.535C49.8944 122.535 50.2009 122.435 50.4519 122.237C50.7028 122.035 50.8934 121.764 51.0236 121.423C51.1538 121.082 51.2189 120.7 51.2189 120.276C51.2189 119.857 51.1538 119.48 51.0236 119.143C50.8958 118.807 50.7064 118.541 50.4554 118.344C50.2045 118.146 49.8967 118.046 49.5321 118.046C49.177 118.046 48.8752 118.142 48.6266 118.334C48.3804 118.523 48.1922 118.786 48.062 119.122C47.9318 119.456 47.8667 119.841 47.8667 120.276Z" fill="white"/>
<path d="M121.97 103.909V94.8182H122.435V103.909H121.97ZM123.969 97.5455C123.929 97.1406 123.75 96.8187 123.433 96.5795C123.116 96.3404 122.717 96.2209 122.236 96.2209C121.898 96.2209 121.6 96.2789 121.341 96.3949C121.086 96.5109 120.885 96.6719 120.738 96.8778C120.593 97.0814 120.521 97.3134 120.521 97.5739C120.521 97.7656 120.563 97.9337 120.645 98.0781C120.728 98.2225 120.84 98.3468 120.979 98.451C121.121 98.5528 121.278 98.6404 121.448 98.7138C121.621 98.7872 121.795 98.8487 121.97 98.8984L122.737 99.1186C122.969 99.1825 123.201 99.2642 123.433 99.3636C123.665 99.4631 123.877 99.5885 124.069 99.7401C124.263 99.8892 124.418 100.073 124.534 100.29C124.652 100.506 124.712 100.765 124.712 101.068C124.712 101.456 124.611 101.806 124.41 102.116C124.208 102.426 123.92 102.672 123.543 102.854C123.167 103.034 122.716 103.124 122.19 103.124C121.695 103.124 121.266 103.043 120.901 102.879C120.537 102.714 120.25 102.485 120.042 102.194C119.833 101.903 119.716 101.565 119.69 101.182H120.372C120.396 101.468 120.49 101.711 120.656 101.91C120.822 102.109 121.037 102.26 121.302 102.364C121.568 102.466 121.864 102.517 122.19 102.517C122.552 102.517 122.874 102.457 123.156 102.336C123.44 102.213 123.663 102.042 123.824 101.825C123.987 101.604 124.069 101.349 124.069 101.058C124.069 100.811 124.005 100.605 123.877 100.44C123.749 100.272 123.57 100.131 123.341 100.017C123.114 99.9034 122.85 99.8028 122.549 99.7152L121.679 99.4595C121.108 99.2891 120.666 99.0535 120.351 98.7528C120.036 98.4522 119.878 98.0687 119.878 97.6023C119.878 97.2116 119.983 96.8684 120.191 96.5724C120.402 96.2741 120.686 96.0421 121.043 95.8764C121.403 95.7083 121.807 95.6243 122.254 95.6243C122.706 95.6243 123.106 95.7071 123.454 95.8729C123.802 96.0386 124.078 96.267 124.282 96.5582C124.488 96.8471 124.598 97.1761 124.612 97.5455H123.969ZM128.412 103.099C127.9 103.099 127.464 102.953 127.101 102.659C126.742 102.363 126.465 101.936 126.27 101.377C126.079 100.818 125.983 100.147 125.983 99.3636C125.983 98.5824 126.079 97.9136 126.27 97.3572C126.465 96.7985 126.743 96.3712 127.105 96.0753C127.47 95.777 127.905 95.6278 128.412 95.6278C128.918 95.6278 129.353 95.777 129.715 96.0753C130.08 96.3712 130.358 96.7985 130.55 97.3572C130.744 97.9136 130.841 98.5824 130.841 99.3636C130.841 100.147 130.744 100.818 130.55 101.377C130.358 101.936 130.081 102.363 129.719 102.659C129.359 102.953 128.923 103.099 128.412 103.099ZM128.412 102.503C128.973 102.503 129.411 102.229 129.726 101.683C130.041 101.133 130.198 100.36 130.198 99.3636C130.198 98.7008 130.126 98.1349 129.981 97.6662C129.839 97.1951 129.635 96.8352 129.367 96.5866C129.102 96.3381 128.783 96.2138 128.412 96.2138C127.855 96.2138 127.419 96.4908 127.101 97.0447C126.784 97.5964 126.626 98.3693 126.626 99.3636C126.626 100.027 126.697 100.592 126.839 101.061C126.983 101.53 127.188 101.887 127.453 102.134C127.721 102.38 128.04 102.503 128.412 102.503ZM120.02 123V115.727H120.656V118.586H120.713C120.784 118.423 120.886 118.254 121.018 118.082C121.153 117.909 121.33 117.764 121.547 117.648C121.768 117.53 122.045 117.471 122.378 117.471C122.826 117.471 123.219 117.589 123.557 117.826C123.896 118.06 124.16 118.389 124.349 118.813C124.539 119.235 124.633 119.726 124.633 120.287C124.633 120.85 124.539 121.344 124.349 121.768C124.162 122.192 123.899 122.522 123.561 122.759C123.225 122.995 122.834 123.114 122.389 123.114C122.058 123.114 121.781 123.054 121.558 122.936C121.338 122.818 121.16 122.672 121.025 122.499C120.891 122.324 120.786 122.154 120.713 121.988H120.635V123H120.02ZM120.645 120.276C120.645 120.717 120.711 121.107 120.841 121.448C120.973 121.787 121.163 122.053 121.409 122.247C121.658 122.439 121.958 122.535 122.311 122.535C122.673 122.535 122.98 122.435 123.231 122.237C123.482 122.035 123.672 121.764 123.802 121.423C123.933 121.082 123.998 120.7 123.998 120.276C123.998 119.857 123.933 119.48 123.802 119.143C123.675 118.807 123.485 118.541 123.234 118.344C122.983 118.146 122.676 118.046 122.311 118.046C121.956 118.046 121.654 118.142 121.405 118.334C121.159 118.523 120.971 118.786 120.841 119.122C120.711 119.456 120.645 119.841 120.645 120.276Z" fill="white"/>
<path d="M49.1912 67.9091V58.8182H49.6564V67.9091H49.1912ZM51.1905 61.5455C51.1503 61.1406 50.9715 60.8187 50.6543 60.5795C50.3371 60.3404 49.9382 60.2209 49.4576 60.2209C49.119 60.2209 48.8207 60.2789 48.5627 60.3949C48.307 60.5109 48.1058 60.6719 47.959 60.8778C47.8146 61.0814 47.7424 61.3134 47.7424 61.5739C47.7424 61.7656 47.7838 61.9337 47.8667 62.0781C47.9495 62.2225 48.0608 62.3468 48.2005 62.451C48.3425 62.5528 48.4988 62.6404 48.6692 62.7138C48.842 62.7872 49.0161 62.8487 49.1912 62.8984L49.9583 63.1186C50.1903 63.1825 50.4223 63.2642 50.6543 63.3636C50.8863 63.4631 51.0982 63.5885 51.29 63.7401C51.4841 63.8892 51.6392 64.0727 51.7552 64.2905C51.8735 64.5059 51.9327 64.7652 51.9327 65.0682C51.9327 65.4564 51.8321 65.8056 51.6309 66.1158C51.4296 66.4259 51.1408 66.6721 50.7644 66.8544C50.388 67.0343 49.937 67.1243 49.4114 67.1243C48.9166 67.1243 48.4869 67.0426 48.1223 66.8793C47.7578 66.7135 47.4713 66.4851 47.263 66.1939C47.0546 65.9027 46.9375 65.5653 46.9114 65.1818H47.5932C47.6169 65.4683 47.7116 65.7109 47.8773 65.9098C48.043 66.1087 48.2585 66.2602 48.5236 66.3643C48.7888 66.4661 49.0847 66.517 49.4114 66.517C49.7736 66.517 50.0956 66.4567 50.3773 66.3359C50.6614 66.2128 50.8839 66.0424 51.0449 65.8246C51.2083 65.6044 51.29 65.3487 51.29 65.0575C51.29 64.8113 51.226 64.6054 51.0982 64.4396C50.9704 64.2715 50.7916 64.1307 50.562 64.017C50.3347 63.9034 50.0707 63.8028 49.7701 63.7152L48.9 63.4595C48.3295 63.2891 47.8868 63.0535 47.5719 62.7528C47.2571 62.4522 47.0996 62.0687 47.0996 61.6023C47.0996 61.2116 47.2038 60.8684 47.4121 60.5724C47.6228 60.2741 47.9069 60.0421 48.2644 59.8764C48.6242 59.7083 49.0279 59.6243 49.4753 59.6243C49.9275 59.6243 50.3276 59.7071 50.6756 59.8729C51.0236 60.0386 51.2994 60.267 51.503 60.5582C51.709 60.8471 51.8191 61.1761 51.8333 61.5455H51.1905ZM55.6188 59.7273V67H54.9547V60.4233H54.9121L53.2076 61.5561V60.8672L54.9263 59.7273H55.6188ZM47.2417 87V79.7273H47.8773V82.5859H47.9341C48.0052 82.4226 48.107 82.2545 48.2395 82.0817C48.3745 81.9089 48.5509 81.7644 48.7687 81.6484C48.9888 81.5301 49.2658 81.4709 49.5996 81.4709C50.0471 81.4709 50.4401 81.5893 50.7786 81.826C51.1171 82.0604 51.3811 82.3894 51.5705 82.8132C51.7599 83.2346 51.8546 83.7259 51.8546 84.2869C51.8546 84.8504 51.7599 85.344 51.5705 85.7678C51.3835 86.1915 51.1207 86.5218 50.7821 86.7585C50.446 86.9953 50.0553 87.1136 49.6103 87.1136C49.2788 87.1136 49.0018 87.0545 48.7793 86.9361C48.5591 86.8177 48.3816 86.6721 48.2466 86.4993C48.1117 86.3241 48.0075 86.1536 47.9341 85.9879H47.856V87H47.2417ZM47.8667 84.2763C47.8667 84.7166 47.9318 85.1072 48.062 85.4482C48.1946 85.7867 48.3839 86.053 48.6302 86.2472C48.8787 86.4389 49.1794 86.5348 49.5321 86.5348C49.8944 86.5348 50.2009 86.4354 50.4519 86.2365C50.7028 86.0353 50.8934 85.7642 51.0236 85.4233C51.1538 85.0824 51.2189 84.7 51.2189 84.2763C51.2189 83.8572 51.1538 83.4796 51.0236 83.1435C50.8958 82.8073 50.7064 82.541 50.4554 82.3445C50.2045 82.1456 49.8967 82.0462 49.5321 82.0462C49.177 82.0462 48.8752 82.142 48.6266 82.3338C48.3804 82.5232 48.1922 82.786 48.062 83.1222C47.9318 83.456 47.8667 83.8407 47.8667 84.2763Z" fill="white"/>
<path d="M83.9732 77V76.5135L86.3489 73.843C86.6591 73.4927 86.9088 73.1932 87.0982 72.9446C87.2876 72.696 87.4249 72.4664 87.5102 72.2557C87.5978 72.045 87.6416 71.826 87.6416 71.5987C87.6416 71.3217 87.5765 71.0803 87.4462 70.8743C87.3184 70.666 87.142 70.5038 86.9171 70.3878C86.6922 70.2718 86.4389 70.2138 86.1572 70.2138C85.8589 70.2138 85.5973 70.2777 85.3724 70.4055C85.1498 70.5334 84.977 70.7086 84.8539 70.9311C84.7308 71.1536 84.6693 71.4093 84.6693 71.6982H84.0336C84.0336 71.2957 84.1259 70.9394 84.3106 70.6293C84.4976 70.3168 84.7521 70.0717 85.0741 69.8942C85.3984 69.7166 85.7654 69.6278 86.1749 69.6278C86.5798 69.6278 86.9396 69.7154 87.2545 69.8906C87.5694 70.0634 87.8167 70.299 87.9967 70.5973C88.1766 70.8956 88.2666 71.2294 88.2666 71.5987C88.2666 71.8662 88.2192 72.1255 88.1245 72.3764C88.0322 72.6274 87.8724 72.9067 87.6451 73.2145C87.4178 73.5223 87.103 73.8987 86.7005 74.3438L84.8965 76.3572V76.4034H88.4938V77H83.9732ZM93.7557 75.6506V75.3203C93.7557 75.0481 93.8102 74.803 93.9191 74.5852C94.028 74.3651 94.183 74.1911 94.3843 74.0632C94.5855 73.9354 94.8246 73.8714 95.1016 73.8714C95.381 73.8714 95.6201 73.9354 95.8189 74.0632C96.0178 74.1911 96.1705 74.3651 96.277 74.5852C96.3836 74.803 96.4368 75.0481 96.4368 75.3203V75.6506C96.4368 75.9228 96.3824 76.1679 96.2735 76.3857C96.1669 76.6035 96.0142 76.7775 95.8154 76.9077C95.6165 77.0355 95.3786 77.0994 95.1016 77.0994C94.8199 77.0994 94.5784 77.0355 94.3772 76.9077C94.1783 76.7775 94.0244 76.6035 93.9155 76.3857C93.809 76.1679 93.7557 75.9228 93.7557 75.6506ZM94.3133 75.3203V75.6506C94.3133 75.9181 94.3784 76.1465 94.5086 76.3359C94.6411 76.523 94.8388 76.6165 95.1016 76.6165C95.3573 76.6165 95.5502 76.523 95.6804 76.3359C95.8107 76.1465 95.8758 75.9181 95.8758 75.6506V75.3203C95.8758 75.0528 95.8118 74.8255 95.684 74.6385C95.5562 74.4491 95.362 74.3544 95.1016 74.3544C94.8436 74.3544 94.6471 74.4491 94.5121 74.6385C94.3795 74.8255 94.3133 75.0528 94.3133 75.3203ZM90.091 71.407V71.0767C90.091 70.8045 90.1454 70.5594 90.2543 70.3416C90.3632 70.1238 90.5183 69.951 90.7195 69.8232C90.9207 69.6929 91.1598 69.6278 91.4368 69.6278C91.7162 69.6278 91.9553 69.6929 92.1542 69.8232C92.353 69.951 92.5057 70.1238 92.6123 70.3416C92.7188 70.5594 92.7721 70.8045 92.7721 71.0767V71.407C92.7721 71.6792 92.7176 71.9254 92.6087 72.1456C92.5022 72.3634 92.3495 72.5362 92.1506 72.6641C91.9517 72.7919 91.7138 72.8558 91.4368 72.8558C91.1551 72.8558 90.9136 72.7919 90.7124 72.6641C90.5135 72.5362 90.3597 72.3634 90.2508 72.1456C90.1442 71.9254 90.091 71.6792 90.091 71.407ZM90.6485 71.0767V71.407C90.6485 71.6745 90.7136 71.9029 90.8438 72.0923C90.9764 72.2794 91.1741 72.3729 91.4368 72.3729C91.6925 72.3729 91.8855 72.2794 92.0157 72.0923C92.1459 71.9029 92.211 71.6745 92.211 71.407V71.0767C92.211 70.8092 92.1471 70.5819 92.0192 70.3949C91.8914 70.2055 91.6973 70.1108 91.4368 70.1108C91.1788 70.1108 90.9823 70.2055 90.8473 70.3949C90.7148 70.5819 90.6485 70.8092 90.6485 71.0767ZM90.4177 77L95.4141 69.7273H96.0427L91.0462 77H90.4177Z" fill="white"/>
<path d="M121.97 67.9091V58.8182H122.435V67.9091H121.97ZM123.969 61.5455C123.929 61.1406 123.75 60.8187 123.433 60.5795C123.116 60.3404 122.717 60.2209 122.236 60.2209C121.898 60.2209 121.6 60.2789 121.341 60.3949C121.086 60.5109 120.885 60.6719 120.738 60.8778C120.593 61.0814 120.521 61.3134 120.521 61.5739C120.521 61.7656 120.563 61.9337 120.645 62.0781C120.728 62.2225 120.84 62.3468 120.979 62.451C121.121 62.5528 121.278 62.6404 121.448 62.7138C121.621 62.7872 121.795 62.8487 121.97 62.8984L122.737 63.1186C122.969 63.1825 123.201 63.2642 123.433 63.3636C123.665 63.4631 123.877 63.5885 124.069 63.7401C124.263 63.8892 124.418 64.0727 124.534 64.2905C124.652 64.5059 124.712 64.7652 124.712 65.0682C124.712 65.4564 124.611 65.8056 124.41 66.1158C124.208 66.4259 123.92 66.6721 123.543 66.8544C123.167 67.0343 122.716 67.1243 122.19 67.1243C121.695 67.1243 121.266 67.0426 120.901 66.8793C120.537 66.7135 120.25 66.4851 120.042 66.1939C119.833 65.9027 119.716 65.5653 119.69 65.1818H120.372C120.396 65.4683 120.49 65.7109 120.656 65.9098C120.822 66.1087 121.037 66.2602 121.302 66.3643C121.568 66.4661 121.864 66.517 122.19 66.517C122.552 66.517 122.874 66.4567 123.156 66.3359C123.44 66.2128 123.663 66.0424 123.824 65.8246C123.987 65.6044 124.069 65.3487 124.069 65.0575C124.069 64.8113 124.005 64.6054 123.877 64.4396C123.749 64.2715 123.57 64.1307 123.341 64.017C123.114 63.9034 122.85 63.8028 122.549 63.7152L121.679 63.4595C121.108 63.2891 120.666 63.0535 120.351 62.7528C120.036 62.4522 119.878 62.0687 119.878 61.6023C119.878 61.2116 119.983 60.8684 120.191 60.5724C120.402 60.2741 120.686 60.0421 121.043 59.8764C121.403 59.7083 121.807 59.6243 122.254 59.6243C122.706 59.6243 123.106 59.7071 123.454 59.8729C123.802 60.0386 124.078 60.267 124.282 60.5582C124.488 60.8471 124.598 61.1761 124.612 61.5455H123.969ZM128.398 59.7273V67H127.734V60.4233H127.691L125.986 61.5561V60.8672L127.705 59.7273H128.398ZM120.02 87V79.7273H120.656V82.5859H120.713C120.784 82.4226 120.886 82.2545 121.018 82.0817C121.153 81.9089 121.33 81.7644 121.547 81.6484C121.768 81.5301 122.045 81.4709 122.378 81.4709C122.826 81.4709 123.219 81.5893 123.557 81.826C123.896 82.0604 124.16 82.3894 124.349 82.8132C124.539 83.2346 124.633 83.7259 124.633 84.2869C124.633 84.8504 124.539 85.344 124.349 85.7678C124.162 86.1915 123.899 86.5218 123.561 86.7585C123.225 86.9953 122.834 87.1136 122.389 87.1136C122.058 87.1136 121.781 87.0545 121.558 86.9361C121.338 86.8177 121.16 86.6721 121.025 86.4993C120.891 86.3241 120.786 86.1536 120.713 85.9879H120.635V87H120.02ZM120.645 84.2763C120.645 84.7166 120.711 85.1072 120.841 85.4482C120.973 85.7867 121.163 86.053 121.409 86.2472C121.658 86.4389 121.958 86.5348 122.311 86.5348C122.673 86.5348 122.98 86.4354 123.231 86.2365C123.482 86.0353 123.672 85.7642 123.802 85.4233C123.933 85.0824 123.998 84.7 123.998 84.2763C123.998 83.8572 123.933 83.4796 123.802 83.1435C123.675 82.8073 123.485 82.541 123.234 82.3445C122.983 82.1456 122.676 82.0462 122.311 82.0462C121.956 82.0462 121.654 82.142 121.405 82.3338C121.159 82.5232 120.971 82.786 120.841 83.1222C120.711 83.456 120.645 83.8407 120.645 84.2763Z" fill="white"/>
<path d="M49.1912 32.9091V23.8182H49.6564V32.9091H49.1912ZM51.1905 26.5455C51.1503 26.1406 50.9715 25.8187 50.6543 25.5795C50.3371 25.3404 49.9382 25.2209 49.4576 25.2209C49.119 25.2209 48.8207 25.2789 48.5627 25.3949C48.307 25.5109 48.1058 25.6719 47.959 25.8778C47.8146 26.0814 47.7424 26.3134 47.7424 26.5739C47.7424 26.7656 47.7838 26.9337 47.8667 27.0781C47.9495 27.2225 48.0608 27.3468 48.2005 27.451C48.3425 27.5528 48.4988 27.6404 48.6692 27.7138C48.842 27.7872 49.0161 27.8487 49.1912 27.8984L49.9583 28.1186C50.1903 28.1825 50.4223 28.2642 50.6543 28.3636C50.8863 28.4631 51.0982 28.5885 51.29 28.7401C51.4841 28.8892 51.6392 29.0727 51.7552 29.2905C51.8735 29.5059 51.9327 29.7652 51.9327 30.0682C51.9327 30.4564 51.8321 30.8056 51.6309 31.1158C51.4296 31.4259 51.1408 31.6721 50.7644 31.8544C50.388 32.0343 49.937 32.1243 49.4114 32.1243C48.9166 32.1243 48.4869 32.0426 48.1223 31.8793C47.7578 31.7135 47.4713 31.4851 47.263 31.1939C47.0546 30.9027 46.9375 30.5653 46.9114 30.1818H47.5932C47.6169 30.4683 47.7116 30.7109 47.8773 30.9098C48.043 31.1087 48.2585 31.2602 48.5236 31.3643C48.7888 31.4661 49.0847 31.517 49.4114 31.517C49.7736 31.517 50.0956 31.4567 50.3773 31.3359C50.6614 31.2128 50.8839 31.0424 51.0449 30.8246C51.2083 30.6044 51.29 30.3487 51.29 30.0575C51.29 29.8113 51.226 29.6054 51.0982 29.4396C50.9704 29.2715 50.7916 29.1307 50.562 29.017C50.3347 28.9034 50.0707 28.8028 49.7701 28.7152L48.9 28.4595C48.3295 28.2891 47.8868 28.0535 47.5719 27.7528C47.2571 27.4522 47.0996 27.0687 47.0996 26.6023C47.0996 26.2116 47.2038 25.8684 47.4121 25.5724C47.6228 25.2741 47.9069 25.0421 48.2644 24.8764C48.6242 24.7083 49.0279 24.6243 49.4753 24.6243C49.9275 24.6243 50.3276 24.7071 50.6756 24.8729C51.0236 25.0386 51.2994 25.267 51.503 25.5582C51.709 25.8471 51.8191 26.1761 51.8333 26.5455H51.1905ZM53.3745 32V31.5135L55.7502 28.843C56.0603 28.4927 56.3101 28.1932 56.4995 27.9446C56.6889 27.696 56.8262 27.4664 56.9114 27.2557C56.999 27.045 57.0428 26.826 57.0428 26.5987C57.0428 26.3217 56.9777 26.0803 56.8475 25.8743C56.7196 25.666 56.5433 25.5038 56.3184 25.3878C56.0935 25.2718 55.8402 25.2138 55.5584 25.2138C55.2601 25.2138 54.9985 25.2777 54.7736 25.4055C54.5511 25.5334 54.3783 25.7086 54.2552 25.9311C54.1321 26.1536 54.0705 26.4093 54.0705 26.6982H53.4348C53.4348 26.2957 53.5272 25.9394 53.7118 25.6293C53.8989 25.3168 54.1534 25.0717 54.4753 24.8942C54.7997 24.7166 55.1666 24.6278 55.5762 24.6278C55.981 24.6278 56.3409 24.7154 56.6557 24.8906C56.9706 25.0634 57.218 25.299 57.3979 25.5973C57.5778 25.8956 57.6678 26.2294 57.6678 26.5987C57.6678 26.8662 57.6205 27.1255 57.5258 27.3764C57.4334 27.6274 57.2736 27.9067 57.0464 28.2145C56.8191 28.5223 56.5042 28.8987 56.1018 29.3438L54.2978 31.3572V31.4034H57.8951V32H53.3745ZM47.2417 52V44.7273H47.8773V47.5859H47.9341C48.0052 47.4226 48.107 47.2545 48.2395 47.0817C48.3745 46.9089 48.5509 46.7644 48.7687 46.6484C48.9888 46.5301 49.2658 46.4709 49.5996 46.4709C50.0471 46.4709 50.4401 46.5893 50.7786 46.826C51.1171 47.0604 51.3811 47.3894 51.5705 47.8132C51.7599 48.2346 51.8546 48.7259 51.8546 49.2869C51.8546 49.8504 51.7599 50.344 51.5705 50.7678C51.3835 51.1915 51.1207 51.5218 50.7821 51.7585C50.446 51.9953 50.0553 52.1136 49.6103 52.1136C49.2788 52.1136 49.0018 52.0545 48.7793 51.9361C48.5591 51.8177 48.3816 51.6721 48.2466 51.4993C48.1117 51.3241 48.0075 51.1536 47.9341 50.9879H47.856V52H47.2417ZM47.8667 49.2763C47.8667 49.7166 47.9318 50.1072 48.062 50.4482C48.1946 50.7867 48.3839 51.053 48.6302 51.2472C48.8787 51.4389 49.1794 51.5348 49.5321 51.5348C49.8944 51.5348 50.2009 51.4354 50.4519 51.2365C50.7028 51.0353 50.8934 50.7642 51.0236 50.4233C51.1538 50.0824 51.2189 49.7 51.2189 49.2763C51.2189 48.8572 51.1538 48.4796 51.0236 48.1435C50.8958 47.8073 50.7064 47.541 50.4554 47.3445C50.2045 47.1456 49.8967 47.0462 49.5321 47.0462C49.177 47.0462 48.8752 47.142 48.6266 47.3338C48.3804 47.5232 48.1922 47.786 48.062 48.1222C47.9318 48.456 47.8667 48.8407 47.8667 49.2763Z" fill="white"/>
<path d="M83.7992 40.4375V39.8977L87.0414 34.7273H87.4391V35.6328H87.1444L84.5414 39.7947V39.8409H88.7921V40.4375H83.7992ZM87.1941 42V40.267V40.0185V34.7273H87.8262V42H87.1941ZM93.912 40.6506V40.3203C93.912 40.0481 93.9664 39.803 94.0753 39.5852C94.1842 39.3651 94.3393 39.1911 94.5405 39.0632C94.7418 38.9354 94.9809 38.8714 95.2579 38.8714C95.5372 38.8714 95.7763 38.9354 95.9752 39.0632C96.1741 39.1911 96.3267 39.3651 96.4333 39.5852C96.5398 39.803 96.5931 40.0481 96.5931 40.3203V40.6506C96.5931 40.9228 96.5386 41.1679 96.4297 41.3857C96.3232 41.6035 96.1705 41.7775 95.9716 41.9077C95.7728 42.0355 95.5348 42.0994 95.2579 42.0994C94.9761 42.0994 94.7347 42.0355 94.5334 41.9077C94.3346 41.7775 94.1807 41.6035 94.0718 41.3857C93.9652 41.1679 93.912 40.9228 93.912 40.6506ZM94.4695 40.3203V40.6506C94.4695 40.9181 94.5346 41.1465 94.6648 41.3359C94.7974 41.523 94.9951 41.6165 95.2579 41.6165C95.5135 41.6165 95.7065 41.523 95.8367 41.3359C95.9669 41.1465 96.032 40.9181 96.032 40.6506V40.3203C96.032 40.0528 95.9681 39.8255 95.8402 39.6385C95.7124 39.4491 95.5183 39.3544 95.2579 39.3544C94.9998 39.3544 94.8033 39.4491 94.6684 39.6385C94.5358 39.8255 94.4695 40.0528 94.4695 40.3203ZM90.2472 36.407V36.0767C90.2472 35.8045 90.3017 35.5594 90.4106 35.3416C90.5195 35.1238 90.6745 34.951 90.8758 34.8232C91.077 34.6929 91.3161 34.6278 91.5931 34.6278C91.8724 34.6278 92.1116 34.6929 92.3104 34.8232C92.5093 34.951 92.662 35.1238 92.7685 35.3416C92.875 35.5594 92.9283 35.8045 92.9283 36.0767V36.407C92.9283 36.6792 92.8739 36.9254 92.765 37.1456C92.6584 37.3634 92.5057 37.5362 92.3069 37.6641C92.108 37.7919 91.8701 37.8558 91.5931 37.8558C91.3114 37.8558 91.0699 37.7919 90.8687 37.6641C90.6698 37.5362 90.5159 37.3634 90.407 37.1456C90.3005 36.9254 90.2472 36.6792 90.2472 36.407ZM90.8047 36.0767V36.407C90.8047 36.6745 90.8698 36.9029 91 37.0923C91.1326 37.2794 91.3303 37.3729 91.5931 37.3729C91.8488 37.3729 92.0417 37.2794 92.1719 37.0923C92.3021 36.9029 92.3672 36.6745 92.3672 36.407V36.0767C92.3672 35.8092 92.3033 35.5819 92.1755 35.3949C92.0476 35.2055 91.8535 35.1108 91.5931 35.1108C91.335 35.1108 91.1385 35.2055 91.0036 35.3949C90.871 35.5819 90.8047 35.8092 90.8047 36.0767ZM90.5739 42L95.5704 34.7273H96.1989L91.2025 42H90.5739Z" fill="white"/>
<path d="M121.97 32.9091V23.8182H122.435V32.9091H121.97ZM123.969 26.5455C123.929 26.1406 123.75 25.8187 123.433 25.5795C123.116 25.3404 122.717 25.2209 122.236 25.2209C121.898 25.2209 121.6 25.2789 121.341 25.3949C121.086 25.5109 120.885 25.6719 120.738 25.8778C120.593 26.0814 120.521 26.3134 120.521 26.5739C120.521 26.7656 120.563 26.9337 120.645 27.0781C120.728 27.2225 120.84 27.3468 120.979 27.451C121.121 27.5528 121.278 27.6404 121.448 27.7138C121.621 27.7872 121.795 27.8487 121.97 27.8984L122.737 28.1186C122.969 28.1825 123.201 28.2642 123.433 28.3636C123.665 28.4631 123.877 28.5885 124.069 28.7401C124.263 28.8892 124.418 29.0727 124.534 29.2905C124.652 29.5059 124.712 29.7652 124.712 30.0682C124.712 30.4564 124.611 30.8056 124.41 31.1158C124.208 31.4259 123.92 31.6721 123.543 31.8544C123.167 32.0343 122.716 32.1243 122.19 32.1243C121.695 32.1243 121.266 32.0426 120.901 31.8793C120.537 31.7135 120.25 31.4851 120.042 31.1939C119.833 30.9027 119.716 30.5653 119.69 30.1818H120.372C120.396 30.4683 120.49 30.7109 120.656 30.9098C120.822 31.1087 121.037 31.2602 121.302 31.3643C121.568 31.4661 121.864 31.517 122.19 31.517C122.552 31.517 122.874 31.4567 123.156 31.3359C123.44 31.2128 123.663 31.0424 123.824 30.8246C123.987 30.6044 124.069 30.3487 124.069 30.0575C124.069 29.8113 124.005 29.6054 123.877 29.4396C123.749 29.2715 123.57 29.1307 123.341 29.017C123.114 28.9034 122.85 28.8028 122.549 28.7152L121.679 28.4595C121.108 28.2891 120.666 28.0535 120.351 27.7528C120.036 27.4522 119.878 27.0687 119.878 26.6023C119.878 26.2116 119.983 25.8684 120.191 25.5724C120.402 25.2741 120.686 25.0421 121.043 24.8764C121.403 24.7083 121.807 24.6243 122.254 24.6243C122.706 24.6243 123.106 24.7071 123.454 24.8729C123.802 25.0386 124.078 25.267 124.282 25.5582C124.488 25.8471 124.598 26.1761 124.612 26.5455H123.969ZM126.153 32V31.5135L128.529 28.843C128.839 28.4927 129.089 28.1932 129.278 27.9446C129.468 27.696 129.605 27.4664 129.69 27.2557C129.778 27.045 129.822 26.826 129.822 26.5987C129.822 26.3217 129.757 26.0803 129.626 25.8743C129.498 25.666 129.322 25.5038 129.097 25.3878C128.872 25.2718 128.619 25.2138 128.337 25.2138C128.039 25.2138 127.777 25.2777 127.552 25.4055C127.33 25.5334 127.157 25.7086 127.034 25.9311C126.911 26.1536 126.849 26.4093 126.849 26.6982H126.214C126.214 26.2957 126.306 25.9394 126.491 25.6293C126.678 25.3168 126.932 25.0717 127.254 24.8942C127.578 24.7166 127.945 24.6278 128.355 24.6278C128.76 24.6278 129.12 24.7154 129.435 24.8906C129.749 25.0634 129.997 25.299 130.177 25.5973C130.357 25.8956 130.447 26.2294 130.447 26.5987C130.447 26.8662 130.399 27.1255 130.305 27.3764C130.212 27.6274 130.052 27.9067 129.825 28.2145C129.598 28.5223 129.283 28.8987 128.881 29.3438L127.077 31.3572V31.4034H130.674V32H126.153ZM120.02 52V44.7273H120.656V47.5859H120.713C120.784 47.4226 120.886 47.2545 121.018 47.0817C121.153 46.9089 121.33 46.7644 121.547 46.6484C121.768 46.5301 122.045 46.4709 122.378 46.4709C122.826 46.4709 123.219 46.5893 123.557 46.826C123.896 47.0604 124.16 47.3894 124.349 47.8132C124.539 48.2346 124.633 48.7259 124.633 49.2869C124.633 49.8504 124.539 50.344 124.349 50.7678C124.162 51.1915 123.899 51.5218 123.561 51.7585C123.225 51.9953 122.834 52.1136 122.389 52.1136C122.058 52.1136 121.781 52.0545 121.558 51.9361C121.338 51.8177 121.16 51.6721 121.025 51.4993C120.891 51.3241 120.786 51.1536 120.713 50.9879H120.635V52H120.02ZM120.645 49.2763C120.645 49.7166 120.711 50.1072 120.841 50.4482C120.973 50.7867 121.163 51.053 121.409 51.2472C121.658 51.4389 121.958 51.5348 122.311 51.5348C122.673 51.5348 122.98 51.4354 123.231 51.2365C123.482 51.0353 123.672 50.7642 123.802 50.4233C123.933 50.0824 123.998 49.7 123.998 49.2763C123.998 48.8572 123.933 48.4796 123.802 48.1435C123.675 47.8073 123.485 47.541 123.234 47.3445C122.983 47.1456 122.676 47.0462 122.311 47.0462C121.956 47.0462 121.654 47.142 121.405 47.3338C121.159 47.5232 120.971 47.786 120.841 48.1222C120.711 48.456 120.645 48.8407 120.645 49.2763Z" fill="white"/>
<path d="M49.1912 -2.09091V-11.1818H49.6564V-2.09091H49.1912ZM51.1905 -8.45455C51.1503 -8.85938 50.9715 -9.18134 50.6543 -9.42045C50.3371 -9.65956 49.9382 -9.77912 49.4576 -9.77912C49.119 -9.77912 48.8207 -9.72112 48.5627 -9.60511C48.307 -9.48911 48.1058 -9.32813 47.959 -9.12216C47.8146 -8.91856 47.7424 -8.68655 47.7424 -8.42614C47.7424 -8.23438 47.7838 -8.06629 47.8667 -7.92188C47.9495 -7.77746 48.0608 -7.65317 48.2005 -7.54901C48.3425 -7.44721 48.4988 -7.35961 48.6692 -7.28622C48.842 -7.21283 49.0161 -7.15128 49.1912 -7.10156L49.9583 -6.88139C50.1903 -6.81747 50.4223 -6.7358 50.6543 -6.63636C50.8863 -6.53693 51.0982 -6.41146 51.29 -6.25994C51.4841 -6.1108 51.6392 -5.92732 51.7552 -5.70952C51.8735 -5.49408 51.9327 -5.23485 51.9327 -4.93182C51.9327 -4.54356 51.8321 -4.19437 51.6309 -3.88423C51.4296 -3.5741 51.1408 -3.32789 50.7644 -3.1456C50.388 -2.96567 49.937 -2.87571 49.4114 -2.87571C48.9166 -2.87571 48.4869 -2.95739 48.1223 -3.12074C47.7578 -3.28646 47.4713 -3.51491 47.263 -3.80611C47.0546 -4.0973 46.9375 -4.43466 46.9114 -4.81818H47.5932C47.6169 -4.53172 47.7116 -4.28906 47.8773 -4.0902C48.043 -3.89134 48.2585 -3.73982 48.5236 -3.63565C48.7888 -3.53385 49.0847 -3.48295 49.4114 -3.48295C49.7736 -3.48295 50.0956 -3.54332 50.3773 -3.66406C50.6614 -3.78717 50.8839 -3.95762 51.0449 -4.17543C51.2083 -4.3956 51.29 -4.65128 51.29 -4.94247C51.29 -5.18868 51.226 -5.39465 51.0982 -5.56037C50.9704 -5.72846 50.7916 -5.86932 50.562 -5.98295C50.3347 -6.09659 50.0707 -6.19721 49.7701 -6.2848L48.9 -6.54048C48.3295 -6.71094 47.8868 -6.9465 47.5719 -7.24716C47.2571 -7.54782 47.0996 -7.93134 47.0996 -8.39773C47.0996 -8.78835 47.2038 -9.13163 47.4121 -9.42756C47.6228 -9.72585 47.9069 -9.95786 48.2644 -10.1236C48.6242 -10.2917 49.0279 -10.3757 49.4753 -10.3757C49.9275 -10.3757 50.3276 -10.2929 50.6756 -10.1271C51.0236 -9.96141 51.2994 -9.73295 51.503 -9.44176C51.709 -9.15294 51.8191 -8.82386 51.8333 -8.45455H51.1905ZM55.736 -2.90057C55.2885 -2.90057 54.8884 -2.98106 54.5357 -3.14205C54.183 -3.3054 53.9036 -3.53149 53.6976 -3.82031C53.4917 -4.10914 53.3828 -4.44176 53.3709 -4.81818H54.0421C54.0539 -4.55303 54.1356 -4.32102 54.2871 -4.12216C54.4386 -3.92566 54.6399 -3.77178 54.8908 -3.66051C55.1418 -3.55161 55.4211 -3.49716 55.7289 -3.49716C56.0651 -3.49716 56.361 -3.5599 56.6167 -3.68537C56.8747 -3.81084 57.0759 -3.98248 57.2204 -4.20028C57.3671 -4.42045 57.4405 -4.66903 57.4405 -4.94602C57.4405 -5.23958 57.366 -5.49882 57.2168 -5.72372C57.0677 -5.94863 56.8534 -6.12382 56.5741 -6.24929C56.2971 -6.37476 55.9656 -6.4375 55.5797 -6.4375H55.1536V-7.03409H55.5797C55.8946 -7.03409 56.1728 -7.09091 56.4143 -7.20455C56.6581 -7.32055 56.8499 -7.48272 56.9895 -7.69105C57.1292 -7.89938 57.1991 -8.14441 57.1991 -8.42614C57.1991 -8.69366 57.1387 -8.92921 57.0179 -9.13281C56.8972 -9.33641 56.7268 -9.49621 56.5066 -9.61222C56.2888 -9.72822 56.0343 -9.78622 55.7431 -9.78622C55.4614 -9.78622 55.2033 -9.73177 54.9689 -9.62287C54.7346 -9.51397 54.5452 -9.36009 54.4008 -9.16122C54.2587 -8.96236 54.183 -8.7268 54.1735 -8.45455H53.5307C53.5402 -8.83333 53.6444 -9.16596 53.8432 -9.45241C54.0445 -9.74124 54.3108 -9.96615 54.6422 -10.1271C54.976 -10.2905 55.3454 -10.3722 55.7502 -10.3722C56.1787 -10.3722 56.5492 -10.2846 56.8617 -10.1094C57.1742 -9.93419 57.4157 -9.70099 57.5861 -9.4098C57.7589 -9.12098 57.8454 -8.80256 57.8454 -8.45455C57.8454 -8.04025 57.7329 -7.68513 57.508 -7.3892C57.2831 -7.09564 56.9801 -6.89205 56.5989 -6.77841V-6.73224C57.0629 -6.63991 57.4275 -6.43395 57.6927 -6.11435C57.9602 -5.79711 58.0939 -5.40767 58.0939 -4.94602C58.0939 -4.55777 57.9921 -4.20857 57.7885 -3.89844C57.5849 -3.59067 57.3056 -3.34683 56.9505 -3.1669C56.5977 -2.98935 56.1929 -2.90057 55.736 -2.90057ZM47.2417 17V9.72727H47.8773V12.5859H47.9341C48.0052 12.4226 48.107 12.2545 48.2395 12.0817C48.3745 11.9089 48.5509 11.7644 48.7687 11.6484C48.9888 11.5301 49.2658 11.4709 49.5996 11.4709C50.0471 11.4709 50.4401 11.5893 50.7786 11.826C51.1171 12.0604 51.3811 12.3894 51.5705 12.8132C51.7599 13.2346 51.8546 13.7259 51.8546 14.2869C51.8546 14.8504 51.7599 15.344 51.5705 15.7678C51.3835 16.1915 51.1207 16.5218 50.7821 16.7585C50.446 16.9953 50.0553 17.1136 49.6103 17.1136C49.2788 17.1136 49.0018 17.0545 48.7793 16.9361C48.5591 16.8177 48.3816 16.6721 48.2466 16.4993C48.1117 16.3241 48.0075 16.1536 47.9341 15.9879H47.856V17H47.2417ZM47.8667 14.2763C47.8667 14.7166 47.9318 15.1072 48.062 15.4482C48.1946 15.7867 48.3839 16.053 48.6302 16.2472C48.8787 16.4389 49.1794 16.5348 49.5321 16.5348C49.8944 16.5348 50.2009 16.4354 50.4519 16.2365C50.7028 16.0353 50.8934 15.7642 51.0236 15.4233C51.1538 15.0824 51.2189 14.7 51.2189 14.2763C51.2189 13.8572 51.1538 13.4796 51.0236 13.1435C50.8958 12.8073 50.7064 12.541 50.4554 12.3445C50.2045 12.1456 49.8967 12.0462 49.5321 12.0462C49.177 12.0462 48.8752 12.142 48.6266 12.3338C48.3804 12.5232 48.1922 12.786 48.062 13.1222C47.9318 13.456 47.8667 13.8407 47.8667 14.2763Z" fill="white"/>
<path d="M86.2637 7.09943C85.9631 7.09706 85.6695 7.0367 85.383 6.91832C85.0966 6.79759 84.8385 6.60464 84.6089 6.33949C84.3792 6.07197 84.197 5.71922 84.062 5.28125C83.9271 4.84328 83.8596 4.30469 83.8596 3.66548C83.8596 3.07363 83.9117 2.53149 84.0158 2.03906C84.12 1.54664 84.2763 1.1205 84.4846 0.760653C84.6929 0.400805 84.9533 0.122633 85.2658 -0.0738637C85.5783 -0.272727 85.9441 -0.372159 86.3631 -0.372159C86.7561 -0.372159 87.103 -0.290483 87.4036 -0.127131C87.7043 0.033854 87.9481 0.258759 88.1352 0.547585C88.3222 0.836411 88.4394 1.16903 88.4867 1.54545H87.8333C87.767 1.16193 87.6096 0.84588 87.361 0.597301C87.1124 0.348721 86.7798 0.224432 86.3631 0.224432C85.7666 0.224432 85.3049 0.50142 84.9782 1.0554C84.6515 1.60701 84.487 2.39062 84.4846 3.40625H84.5308C84.6468 3.19081 84.7959 3.00497 84.9782 2.84872C85.1629 2.6901 85.3724 2.567 85.6068 2.4794C85.8411 2.38944 86.0873 2.34446 86.3454 2.34446C86.7502 2.34446 87.1207 2.44744 87.4569 2.65341C87.7931 2.85701 88.0618 3.13755 88.263 3.49503C88.4642 3.85014 88.5649 4.25616 88.5649 4.71307C88.5649 5.14631 88.469 5.54522 88.2772 5.9098C88.0878 6.27438 87.8203 6.56439 87.4747 6.77983C87.1314 6.99527 86.7277 7.1018 86.2637 7.09943ZM86.2637 6.50284C86.581 6.50284 86.8639 6.42235 87.1124 6.26136C87.3634 6.10038 87.5611 5.88494 87.7055 5.61506C87.8499 5.3428 87.9221 5.04214 87.9221 4.71307C87.9221 4.384 87.8499 4.0857 87.7055 3.81818C87.5611 3.55066 87.3634 3.33759 87.1124 3.17898C86.8639 3.02036 86.581 2.94105 86.2637 2.94105C86.0222 2.94105 85.7973 2.99077 85.589 3.0902C85.3807 3.18726 85.1996 3.32102 85.0457 3.49148C84.8942 3.65956 84.7782 3.85251 84.6977 4.07031C84.6195 4.28812 84.5899 4.51657 84.6089 4.75568C84.6349 5.08949 84.7213 5.38897 84.8681 5.65412C85.0173 5.9169 85.2114 6.12405 85.4505 6.27557C85.692 6.42708 85.9631 6.50284 86.2637 6.50284ZM93.746 5.65057V5.32031C93.746 5.04806 93.8004 4.80303 93.9093 4.58523C94.0182 4.36506 94.1733 4.19105 94.3745 4.06321C94.5757 3.93537 94.8149 3.87145 95.0918 3.87145C95.3712 3.87145 95.6103 3.93537 95.8092 4.06321C96.008 4.19105 96.1607 4.36506 96.2673 4.58523C96.3738 4.80303 96.4271 5.04806 96.4271 5.32031V5.65057C96.4271 5.92282 96.3726 6.16785 96.2637 6.38565C96.1572 6.60346 96.0045 6.77746 95.8056 6.90767C95.6068 7.03551 95.3688 7.09943 95.0918 7.09943C94.8101 7.09943 94.5686 7.03551 94.3674 6.90767C94.1685 6.77746 94.0147 6.60346 93.9058 6.38565C93.7992 6.16785 93.746 5.92282 93.746 5.65057ZM94.3035 5.32031V5.65057C94.3035 5.91809 94.3686 6.14654 94.4988 6.33594C94.6314 6.52296 94.8291 6.61648 95.0918 6.61648C95.3475 6.61648 95.5405 6.52296 95.6707 6.33594C95.8009 6.14654 95.866 5.91809 95.866 5.65057V5.32031C95.866 5.05279 95.8021 4.82552 95.6742 4.63849C95.5464 4.4491 95.3523 4.3544 95.0918 4.3544C94.8338 4.3544 94.6373 4.4491 94.5024 4.63849C94.3698 4.82552 94.3035 5.05279 94.3035 5.32031ZM90.0812 1.40696V1.0767C90.0812 0.804451 90.1356 0.559422 90.2445 0.341619C90.3534 0.123816 90.5085 -0.049006 90.7097 -0.176847C90.911 -0.307055 91.1501 -0.372159 91.4271 -0.372159C91.7064 -0.372159 91.9455 -0.307055 92.1444 -0.176847C92.3433 -0.049006 92.496 0.123816 92.6025 0.341619C92.709 0.559422 92.7623 0.804451 92.7623 1.0767V1.40696C92.7623 1.67921 92.7078 1.92543 92.5989 2.1456C92.4924 2.3634 92.3397 2.53622 92.1408 2.66406C91.942 2.7919 91.7041 2.85582 91.4271 2.85582C91.1453 2.85582 90.9039 2.7919 90.7026 2.66406C90.5038 2.53622 90.3499 2.3634 90.241 2.1456C90.1345 1.92543 90.0812 1.67921 90.0812 1.40696ZM90.6387 1.0767V1.40696C90.6387 1.67448 90.7038 1.90294 90.834 2.09233C90.9666 2.27936 91.1643 2.37287 91.4271 2.37287C91.6828 2.37287 91.8757 2.27936 92.0059 2.09233C92.1361 1.90294 92.2012 1.67448 92.2012 1.40696V1.0767C92.2012 0.809186 92.1373 0.581913 92.0095 0.394886C91.8816 0.205492 91.6875 0.110795 91.4271 0.110795C91.169 0.110795 90.9725 0.205492 90.8376 0.394886C90.705 0.581913 90.6387 0.809186 90.6387 1.0767ZM90.4079 7L95.4043 -0.272727H96.0329L91.0364 7H90.4079Z" fill="white"/>
<path d="M121.97 -2.09091V-11.1818H122.435V-2.09091H121.97ZM123.969 -8.45455C123.929 -8.85938 123.75 -9.18134 123.433 -9.42045C123.116 -9.65956 122.717 -9.77912 122.236 -9.77912C121.898 -9.77912 121.6 -9.72112 121.341 -9.60511C121.086 -9.48911 120.885 -9.32813 120.738 -9.12216C120.593 -8.91856 120.521 -8.68655 120.521 -8.42614C120.521 -8.23438 120.563 -8.06629 120.645 -7.92188C120.728 -7.77746 120.84 -7.65317 120.979 -7.54901C121.121 -7.44721 121.278 -7.35961 121.448 -7.28622C121.621 -7.21283 121.795 -7.15128 121.97 -7.10156L122.737 -6.88139C122.969 -6.81747 123.201 -6.7358 123.433 -6.63636C123.665 -6.53693 123.877 -6.41146 124.069 -6.25994C124.263 -6.1108 124.418 -5.92732 124.534 -5.70952C124.652 -5.49408 124.712 -5.23485 124.712 -4.93182C124.712 -4.54356 124.611 -4.19437 124.41 -3.88423C124.208 -3.5741 123.92 -3.32789 123.543 -3.1456C123.167 -2.96567 122.716 -2.87571 122.19 -2.87571C121.695 -2.87571 121.266 -2.95739 120.901 -3.12074C120.537 -3.28646 120.25 -3.51491 120.042 -3.80611C119.833 -4.0973 119.716 -4.43466 119.69 -4.81818H120.372C120.396 -4.53172 120.49 -4.28906 120.656 -4.0902C120.822 -3.89134 121.037 -3.73982 121.302 -3.63565C121.568 -3.53385 121.864 -3.48295 122.19 -3.48295C122.552 -3.48295 122.874 -3.54332 123.156 -3.66406C123.44 -3.78717 123.663 -3.95762 123.824 -4.17543C123.987 -4.3956 124.069 -4.65128 124.069 -4.94247C124.069 -5.18868 124.005 -5.39465 123.877 -5.56037C123.749 -5.72846 123.57 -5.86932 123.341 -5.98295C123.114 -6.09659 122.85 -6.19721 122.549 -6.2848L121.679 -6.54048C121.108 -6.71094 120.666 -6.9465 120.351 -7.24716C120.036 -7.54782 119.878 -7.93134 119.878 -8.39773C119.878 -8.78835 119.983 -9.13163 120.191 -9.42756C120.402 -9.72585 120.686 -9.95786 121.043 -10.1236C121.403 -10.2917 121.807 -10.3757 122.254 -10.3757C122.706 -10.3757 123.106 -10.2929 123.454 -10.1271C123.802 -9.96141 124.078 -9.73295 124.282 -9.44176C124.488 -9.15294 124.598 -8.82386 124.612 -8.45455H123.969ZM128.515 -2.90057C128.067 -2.90057 127.667 -2.98106 127.315 -3.14205C126.962 -3.3054 126.682 -3.53149 126.476 -3.82031C126.27 -4.10914 126.162 -4.44176 126.15 -4.81818H126.821C126.833 -4.55303 126.914 -4.32102 127.066 -4.12216C127.217 -3.92566 127.419 -3.77178 127.67 -3.66051C127.921 -3.55161 128.2 -3.49716 128.508 -3.49716C128.844 -3.49716 129.14 -3.5599 129.395 -3.68537C129.654 -3.81084 129.855 -3.98248 129.999 -4.20028C130.146 -4.42045 130.219 -4.66903 130.219 -4.94602C130.219 -5.23958 130.145 -5.49882 129.996 -5.72372C129.846 -5.94863 129.632 -6.12382 129.353 -6.24929C129.076 -6.37476 128.744 -6.4375 128.359 -6.4375H127.932V-7.03409H128.359C128.673 -7.03409 128.952 -7.09091 129.193 -7.20455C129.437 -7.32055 129.629 -7.48272 129.768 -7.69105C129.908 -7.89938 129.978 -8.14441 129.978 -8.42614C129.978 -8.69366 129.917 -8.92921 129.797 -9.13281C129.676 -9.33641 129.506 -9.49621 129.285 -9.61222C129.068 -9.72822 128.813 -9.78622 128.522 -9.78622C128.24 -9.78622 127.982 -9.73177 127.748 -9.62287C127.513 -9.51397 127.324 -9.36009 127.18 -9.16122C127.038 -8.96236 126.962 -8.7268 126.952 -8.45455H126.31C126.319 -8.83333 126.423 -9.16596 126.622 -9.45241C126.823 -9.74124 127.09 -9.96615 127.421 -10.1271C127.755 -10.2905 128.124 -10.3722 128.529 -10.3722C128.958 -10.3722 129.328 -10.2846 129.641 -10.1094C129.953 -9.93419 130.194 -9.70099 130.365 -9.4098C130.538 -9.12098 130.624 -8.80256 130.624 -8.45455C130.624 -8.04025 130.512 -7.68513 130.287 -7.3892C130.062 -7.09564 129.759 -6.89205 129.378 -6.77841V-6.73224C129.842 -6.63991 130.206 -6.43395 130.471 -6.11435C130.739 -5.79711 130.873 -5.40767 130.873 -4.94602C130.873 -4.55777 130.771 -4.20857 130.567 -3.89844C130.364 -3.59067 130.084 -3.34683 129.729 -3.1669C129.377 -2.98935 128.972 -2.90057 128.515 -2.90057ZM120.02 17V9.72727H120.656V12.5859H120.713C120.784 12.4226 120.886 12.2545 121.018 12.0817C121.153 11.9089 121.33 11.7644 121.547 11.6484C121.768 11.5301 122.045 11.4709 122.378 11.4709C122.826 11.4709 123.219 11.5893 123.557 11.826C123.896 12.0604 124.16 12.3894 124.349 12.8132C124.539 13.2346 124.633 13.7259 124.633 14.2869C124.633 14.8504 124.539 15.344 124.349 15.7678C124.162 16.1915 123.899 16.5218 123.561 16.7585C123.225 16.9953 122.834 17.1136 122.389 17.1136C122.058 17.1136 121.781 17.0545 121.558 16.9361C121.338 16.8177 121.16 16.6721 121.025 16.4993C120.891 16.3241 120.786 16.1536 120.713 15.9879H120.635V17H120.02ZM120.645 14.2763C120.645 14.7166 120.711 15.1072 120.841 15.4482C120.973 15.7867 121.163 16.053 121.409 16.2472C121.658 16.4389 121.958 16.5348 122.311 16.5348C122.673 16.5348 122.98 16.4354 123.231 16.2365C123.482 16.0353 123.672 15.7642 123.802 15.4233C123.933 15.0824 123.998 14.7 123.998 14.2763C123.998 13.8572 123.933 13.4796 123.802 13.1435C123.675 12.8073 123.485 12.541 123.234 12.3445C122.983 12.1456 122.676 12.0462 122.311 12.0462C121.956 12.0462 121.654 12.142 121.405 12.3338C121.159 12.5232 120.971 12.786 120.841 13.1222C120.711 13.456 120.645 13.8407 120.645 14.2763Z" fill="white"/>
<g clip-path="url(#clip1_269_1080)">
<path opacity="0.2" d="M-495.704 -26.5145C-495.704 -26.5145 -471.86 -46.5785 -455.268 -42.3634C-438.675 -38.1483 -438.061 -23.3111 -425.77 -20.8663C-413.479 -18.3372 -401.68 -20.8663 -387.546 -28.7907C-366.775 -40.5087 -369.725 -53.7442 -340.227 -53.7442C-315.4 -53.7442 -310.73 -42.2791 -291.065 -47.3372C-271.4 -52.3954 -274.226 -73.9768 -244.237 -74.8198C-224.572 -75.4099 -214.371 -52.9012 -195.321 -51.2151C-176.27 -49.5291 -173.812 -39.1599 -144.314 -43.6279C-116.169 -47.9273 -111.621 -34.1861 -95.5205 -34.1861C-74.2577 -34.1861 -74.9951 -45.314 -31.9778 -42.7849C11.0394 -40.2558 -4.32391 -18.1686 38.0788 -22.8895V98H-495.704V-26.5145Z" fill="url(#paint0_linear_269_1080)"/>
<path opacity="0.2" d="M-495.704 -8.22092C-495.704 -8.22092 -463.011 -14.4593 -442.485 -8.22092C-421.96 -1.98255 -410.284 -1.89825 -396.887 -3.07848C-383.613 -4.25871 -365.546 -14.375 -354.116 -15.4709C-342.685 -16.6512 -307.288 -11.0029 -291.802 -15.4709C-272.137 -21.1192 -267.712 -44.7238 -242.394 -45.3139C-217.075 -45.9041 -196.181 -34.7762 -186.103 -29.0436C-171.845 -20.9506 -138.415 -8.38952 -128.705 -8.30522C-118.873 -8.22092 -113.219 -16.6512 -101.666 -15.5552C-90.2355 -14.4593 -81.7549 -9.48545 -75.7325 -8.30522C-69.7101 -7.12499 -58.034 -14.1221 -45.3746 -15.3866C-32.8382 -16.6512 -21.285 -21.3721 -13.1731 -13.9535C-4.93842 -6.53488 -9.11722 2.99129 4.03375 2.48547C17.1848 1.89536 38.8163 -11.593 38.8163 -11.593V98H-495.704V-8.22092Z" fill="url(#paint1_linear_269_1080)"/>
<g opacity="0.2">
<path opacity="0.2" d="M38.5705 98H-495.704V16.9012C-495.704 16.9012 -472.352 -0.633711 -462.273 0.799429C-448.139 2.73838 -439.044 26.0901 -428.843 33.0872C-421.591 38.0611 -405.491 50.6221 -395.412 49.189C-381.278 47.25 -375.256 20.8634 -361.982 16.9012C-353.87 14.4564 -337.4 24.3198 -328.551 24.9942C-319.702 25.5843 -295.121 16.9012 -295.121 16.9012C-295.121 16.9012 -270.048 4.84594 -261.69 0.799429C-253.332 -3.24708 -238.338 -14.0378 -228.259 -15.3023C-219.779 -16.3982 -203.309 -11.0029 -194.952 -9.65406C-186.594 -8.30522 -169.633 -6.61917 -161.644 -4.51161C-152.549 -2.06685 -136.817 6.11047 -128.091 8.89245C-120.102 11.4215 -101.543 13.1919 -94.6601 16.9855C-85.1963 22.2122 -73.3973 40.3372 -61.2296 41.1802C-51.0283 41.8547 -36.4025 28.8721 -27.799 25.0785C-20.4246 21.7907 -1.86572 20.3576 5.63156 16.9855C15.8328 12.4332 39.0621 -7.20929 39.0621 -7.20929V98H38.5705Z" fill="url(#paint2_linear_269_1080)"/>
</g>
<path opacity="0.2" d="M-495.704 45.1424C-495.704 45.1424 -475.67 61.1599 -461.536 62.8459C-447.525 64.532 -432.776 60.907 -419.871 60.4855C-406.965 60.0639 -398.976 65.2907 -384.228 66.0494C-369.479 66.8081 -342.44 74.9012 -315.4 66.0494C-288.361 57.1977 -273.612 49.4419 -259.478 49.3575C-245.343 49.2732 -249.276 49.5262 -238.829 51.9709C-228.505 54.4157 -225.064 59.2209 -206.874 54.4157C-188.684 49.6105 -184.873 29.0407 -158.203 26.1744C-131.532 23.2238 -135.219 33.0872 -107.565 43.7936C-79.9113 54.5 -69.2184 49.5262 -61.967 48.5988C-54.7155 47.6715 -25.7096 32.6657 7.35226 34.436C32.5481 35.7849 40.1683 39.5785 40.1683 39.5785V98.0843H-495.704V45.1424Z" fill="url(#paint3_linear_269_1080)"/>
<path d="M-397.133 49.7791C-406.351 49.7791 -418.887 40.843 -426.63 35.4477C-427.737 34.6889 -428.72 33.9302 -429.58 33.3401C-433.636 30.5581 -437.446 25.3314 -441.502 19.8517C-447.524 11.5901 -454.284 2.31686 -462.519 1.13663C-470.385 0.0406952 -488.698 12.3488 -495.089 17.1541C-495.458 17.407 -496.073 17.407 -496.441 17.1541C-496.81 16.9012 -496.81 16.4796 -496.441 16.2267C-495.458 15.468 -472.597 -1.56105 -462.15 -0.127909C-453.055 1.13663 -446.295 10.3256 -439.781 19.2616C-435.848 24.657 -432.161 29.7994 -428.228 32.4128C-427.368 33.0029 -426.385 33.7616 -425.155 34.5204C-417.167 40.1686 -403.893 49.5262 -395.658 48.4302C-388.652 47.5029 -383.49 39.7471 -378.574 32.2442C-373.658 24.9099 -369.11 17.9971 -362.473 16.0581C-357.311 14.5407 -349.445 17.407 -341.948 20.1889C-336.909 22.0436 -332.115 23.8139 -328.674 24.0669C-320.439 24.657 -297.21 16.4796 -295.858 16.0581L-262.55 -0.127909C-260.092 -1.30814 -256.897 -3.2471 -253.578 -5.18605C-245.343 -9.99128 -236.125 -15.4709 -228.874 -16.3983C-222.852 -17.157 -213.265 -14.8808 -204.907 -12.8576C-201.22 -12.0145 -197.779 -11.1715 -195.198 -10.75C-192.494 -10.3285 -188.806 -9.82268 -184.873 -9.31686C-176.639 -8.22093 -167.298 -7.0407 -161.89 -5.52326C-156.851 -4.17442 -149.968 -1.13954 -143.208 1.89535C-137.554 4.42442 -132.147 6.78488 -128.214 7.96511C-125.141 8.97674 -120.348 9.81977 -115.308 10.7471C-107.319 12.2645 -98.9618 13.782 -94.6601 16.1424C-90.9729 18.1657 -87.0399 22.0436 -82.861 26.0901C-76.347 32.4971 -68.8497 39.7471 -61.7212 40.2529C-55.2071 40.6744 -46.235 34.8576 -39.1064 30.1366C-35.4192 27.6919 -31.8549 25.4157 -29.028 24.1512C-25.2179 22.4651 -18.581 21.2006 -12.067 20.0203C-5.79874 18.8401 0.838257 17.6599 4.40256 16.0581C14.358 11.5901 37.3415 -7.88372 37.5873 -8.13663C37.956 -8.38954 38.4476 -8.47384 38.9392 -8.22093C39.3079 -7.96802 39.4308 -7.63082 39.0621 -7.29361C38.0789 -6.45058 15.7099 12.6017 5.5087 17.1541C1.69861 18.8401 -4.93839 20.1046 -11.4524 21.2849C-17.7206 22.4651 -24.3576 23.6453 -27.9219 25.2471C-30.6258 26.5116 -34.0672 28.7035 -37.7544 31.0639C-45.6204 36.2064 -54.5926 42.0233 -61.8441 41.5174C-69.833 41.0116 -77.2074 33.7616 -84.3359 26.7645C-88.3918 22.718 -92.3248 18.9244 -95.7662 17.0698C-99.8221 14.8779 -108.303 13.2762 -115.8 11.9273C-120.962 11 -125.755 10.0727 -128.951 9.06104C-133.007 7.79651 -138.415 5.35174 -144.191 2.90697C-150.828 -0.0436077 -157.711 -3.07849 -162.504 -4.34303C-167.789 -5.77617 -177.007 -6.9564 -185.242 -8.05233C-189.175 -8.55814 -192.985 -9.06395 -195.689 -9.48547C-198.393 -9.90698 -201.835 -10.75 -205.522 -11.6773C-213.388 -13.532 -222.974 -15.8924 -228.628 -15.1337C-235.388 -14.2907 -244.852 -8.64245 -252.472 -4.17442C-255.913 -2.15117 -259.109 -0.296511 -261.69 0.968023L-295.12 17.1541C-295.12 17.1541 -295.243 17.1541 -295.243 17.2384C-296.227 17.5756 -320.193 26.0058 -329.166 25.4157C-332.976 25.1628 -337.892 23.3081 -343.177 21.3692C-350.06 18.8401 -357.803 15.9738 -362.104 17.2384C-368.127 19.0087 -372.797 26.0058 -377.222 32.8343C-382.384 40.5901 -387.792 48.5988 -395.658 49.6948C-395.904 49.6948 -396.518 49.7791 -397.133 49.7791Z" fill="#DE50CF"/>
<path d="M2.92734 2.56977C-4.93866 2.56977 -6.53647 -1.22383 -8.38007 -5.60755C-9.48621 -8.30522 -10.8382 -11.4244 -13.9109 -14.1221C-19.8104 -19.4331 -27.5534 -18.0843 -36.4027 -16.5669C-39.2296 -16.061 -42.1793 -15.5552 -45.252 -15.3023C-51.2744 -14.7122 -57.051 -12.7732 -62.2131 -11.0029C-67.7439 -9.14825 -72.5372 -7.5465 -75.9786 -8.22092C-78.3138 -8.64243 -80.8948 -9.65406 -83.8446 -10.75C-88.6379 -12.5203 -94.6604 -14.7965 -101.789 -15.4709C-107.688 -16.061 -111.99 -13.9535 -116.292 -11.8459C-119.979 -10.0756 -123.789 -8.22092 -128.583 -8.22092H-128.705C-138.661 -8.30522 -172.337 -20.9506 -186.717 -29.1279C-199.377 -36.2936 -218.796 -45.8198 -242.394 -45.3139C-256.282 -44.9767 -263.903 -37.3052 -271.277 -29.8023C-276.931 -24.0698 -282.83 -18.0843 -291.556 -15.5552C-301.512 -12.6889 -319.456 -13.8692 -333.959 -14.8808C-342.563 -15.4709 -349.937 -15.9767 -354.116 -15.5552C-359.401 -15.0494 -366.161 -12.5203 -373.412 -9.82267C-381.524 -6.87208 -389.882 -3.7529 -397.01 -3.16278C-411.636 -1.89824 -423.312 -2.31976 -443.1 -8.38953C-463.011 -14.4593 -495.335 -8.38953 -495.581 -8.38953C-496.073 -8.30523 -496.564 -8.47383 -496.687 -8.81104C-496.81 -9.14825 -496.564 -9.48545 -496.073 -9.56976C-494.721 -9.82266 -462.888 -15.8081 -442.24 -9.56976C-422.821 -3.66859 -411.39 -3.24708 -397.133 -4.42731C-390.25 -5.01743 -382.016 -8.05232 -374.15 -11.0029C-366.775 -13.7006 -359.892 -16.3139 -354.239 -16.8198C-349.814 -17.2413 -342.317 -16.7355 -333.59 -16.1453C-319.333 -15.218 -301.635 -14.0378 -292.171 -16.7355C-283.936 -19.0959 -278.528 -24.6599 -272.752 -30.4767C-265.132 -38.2325 -257.266 -46.2413 -242.394 -46.5785C-215.477 -47.1686 -192.863 -34.3546 -185.488 -30.1395C-171.6 -22.2151 -138.169 -9.56976 -128.705 -9.56976H-128.583C-124.404 -9.56976 -120.962 -11.2558 -117.398 -12.9418C-112.85 -15.1337 -108.18 -17.4099 -101.666 -16.7355C-94.2917 -16.061 -88.0234 -13.7006 -83.1071 -11.8459C-80.2803 -10.75 -77.8222 -9.90697 -75.6099 -9.48545C-72.9059 -8.97964 -68.3584 -10.4128 -63.1963 -12.1831C-57.9113 -13.9535 -52.0118 -15.9767 -45.6207 -16.5669C-42.6709 -16.9041 -39.7212 -17.3256 -36.8943 -17.8314C-27.6764 -19.4331 -19.0729 -20.8663 -12.4359 -14.8808C-9.24039 -11.9302 -7.8884 -8.81104 -6.65933 -5.94476C-4.69284 -1.39243 -3.46381 1.64245 3.91058 1.30524C16.5699 0.799427 39.1848 -12.436 39.4306 -12.6046C39.7993 -12.8576 40.4138 -12.7732 40.7825 -12.5203C41.1512 -12.2674 41.0284 -11.8459 40.6597 -11.593C39.6764 -11.0029 17.3074 2.06396 4.03351 2.56977C3.66476 2.56977 3.29608 2.56977 2.92734 2.56977Z" fill="#C0E253"/>
<path d="M-343.177 70.8546C-353.747 70.8546 -363.457 69.3372 -371.569 68.157C-376.485 67.3983 -380.787 66.7238 -384.228 66.5552C-391.357 66.1337 -396.765 64.7006 -402.049 63.3517C-407.703 61.8343 -413.111 60.4855 -419.748 60.6541C-424.418 60.8227 -429.212 61.4128 -434.374 62.0029C-443.346 63.0988 -452.564 64.1948 -461.659 63.0988C-475.916 61.3285 -495.458 45.8169 -496.319 45.1424C-496.687 44.8895 -496.565 44.468 -496.196 44.2151C-495.827 43.9622 -495.213 44.0465 -494.844 44.2994C-494.598 44.468 -474.81 60.1483 -461.29 61.8343C-452.564 62.9302 -443.469 61.8343 -434.62 60.7384C-429.458 60.1483 -424.541 59.4738 -419.748 59.3895C-412.742 59.1366 -407.212 60.6541 -401.312 62.1715C-396.15 63.5203 -390.865 64.9535 -383.982 65.2907C-380.295 65.4593 -375.993 66.1337 -371.077 66.8924C-356.205 69.1686 -335.803 72.2878 -315.646 65.375C-307.043 62.4244 -299.791 59.6424 -293.277 57.1134C-279.266 51.718 -269.188 47.8401 -259.355 47.7558C-249.523 47.6715 -248.171 48.1773 -244.975 49.3576C-243.5 49.8634 -241.657 50.5378 -238.461 51.3808C-235.88 52.0552 -233.791 52.8139 -231.701 53.5727C-225.433 55.8488 -220.517 57.7035 -207.243 53.9942C-199.746 51.8866 -194.706 46.8285 -189.298 41.3488C-182.17 34.0988 -174.058 25.9215 -158.326 24.1512C-141.242 22.2122 -135.957 25.7529 -128.091 31.2326C-123.298 34.5203 -117.398 38.5669 -107.074 42.782C-83.8447 52.2238 -72.906 49.9477 -65.7775 48.4302C-64.5484 48.1773 -63.3193 47.9244 -62.2132 47.7558C-60.3696 47.5029 -56.6824 46.3227 -52.012 44.8052C-38.9839 40.5901 -17.1065 33.6773 7.22894 32.75C29.7208 31.907 40.2908 38.061 40.6595 38.314C41.0283 38.5669 41.0282 38.9041 40.7824 39.2413C40.4137 39.4942 39.9221 39.5785 39.4305 39.3256C39.3076 39.2413 28.8605 33.2558 7.22894 34.0988C-16.7378 34.9419 -38.3694 41.8546 -51.2745 45.9855C-56.1908 47.5872 -59.878 48.6831 -61.9673 49.0203C-62.9506 49.189 -64.0568 49.3576 -65.4088 49.6948C-72.9061 51.2965 -84.3363 53.657 -108.18 43.8779C-118.627 39.5785 -124.65 35.4477 -129.566 32.1599C-137.678 26.5959 -142.102 23.561 -158.203 25.4157C-173.075 27.1017 -180.572 34.7733 -187.946 42.1076C-193.477 47.6715 -198.639 52.8983 -206.751 55.1744C-220.885 59.1366 -226.416 57.0291 -232.807 54.6686C-234.774 53.9099 -236.863 53.1512 -239.321 52.561C-242.763 51.718 -244.606 51.0436 -246.081 50.4535C-249.031 49.3576 -250.26 48.936 -259.601 49.0203C-269.065 49.1047 -278.897 52.8983 -292.663 58.2093C-299.177 60.7384 -306.551 63.5203 -315.032 66.4709C-324.618 69.6744 -334.205 70.8546 -343.177 70.8546Z" fill="#29A88E"/>
</g>
<line x1="38.797" y1="105" x2="38.797" y2="-81" stroke="#7DE314"/>
<line x1="76.6819" y1="105" x2="76.6819" y2="-81" stroke="#14A0C0"/>
<line x1="112.573" y1="105" x2="112.573" y2="-81" stroke="#09909F"/>
<g filter="url(#filter0_b_269_1080)">
<rect x="-784" y="-265" width="1440" height="1131" fill="#191919" fill-opacity="0.2"/>
</g>
<g filter="url(#filter1_d_269_1080)">
<rect x="-272" width="501" height="453" rx="6" fill="#313131"/>
</g>
<g clip-path="url(#clip2_269_1080)">
<g filter="url(#filter2_d_269_1080)">
<path d="M-270 8C-270 4.68629 -267.314 2 -264 2H221C224.314 2 227 4.68629 227 8V98H-270V8Z" fill="#202020"/>
</g>
<path opacity="0.1" d="M189 102.732L113.143 -19L0 137L189 102.732ZM186 100.581L106.143 65.1654L113.571 -15.5588L186 100.581ZM112.143 -15.1287L104.714 65.3088L4.57143 133.129L112.143 -15.1287ZM4.71429 134.706L105.429 66.5993L185.429 102.015L4.71429 134.706Z" fill="white"/>
</g>
</g>
<defs>
<filter id="filter0_b_269_1080" x="-804" y="-285" width="1480" height="1171" filterUnits="userSpaceOnUse" color-interpolation-filters="sRGB">
<feFlood flood-opacity="0" result="BackgroundImageFix"/>
<feGaussianBlur in="BackgroundImageFix" stdDeviation="10"/>
<feComposite in2="SourceAlpha" operator="in" result="effect1_backgroundBlur_269_1080"/>
<feBlend mode="normal" in="SourceGraphic" in2="effect1_backgroundBlur_269_1080" result="shape"/>
</filter>
<filter id="filter1_d_269_1080" x="-296" y="0" width="549" height="511" filterUnits="userSpaceOnUse" color-interpolation-filters="sRGB">
<feFlood flood-opacity="0" result="BackgroundImageFix"/>
<feColorMatrix in="SourceAlpha" type="matrix" values="0 0 0 0 0 0 0 0 0 0 0 0 0 0 0 0 0 0 127 0" result="hardAlpha"/>
<feOffset dy="34"/>
<feGaussianBlur stdDeviation="12"/>
<feComposite in2="hardAlpha" operator="out"/>
<feColorMatrix type="matrix" values="0 0 0 0 0 0 0 0 0 0 0 0 0 0 0 0 0 0 0.25 0"/>
<feBlend mode="normal" in2="BackgroundImageFix" result="effect1_dropShadow_269_1080"/>
<feBlend mode="normal" in="SourceGraphic" in2="effect1_dropShadow_269_1080" result="shape"/>
</filter>
<filter id="filter2_d_269_1080" x="-270" y="2" width="497" height="97" filterUnits="userSpaceOnUse" color-interpolation-filters="sRGB">
<feFlood flood-opacity="0" result="BackgroundImageFix"/>
<feColorMatrix in="SourceAlpha" type="matrix" values="0 0 0 0 0 0 0 0 0 0 0 0 0 0 0 0 0 0 127 0" result="hardAlpha"/>
<feOffset dy="1"/>
<feComposite in2="hardAlpha" operator="out"/>
<feColorMatrix type="matrix" values="0 0 0 0 0.192187 0 0 0 0 0.192187 0 0 0 0 0.192187 0 0 0 1 0"/>
<feBlend mode="normal" in2="BackgroundImageFix" result="effect1_dropShadow_269_1080"/>
<feBlend mode="normal" in="SourceGraphic" in2="effect1_dropShadow_269_1080" result="shape"/>
</filter>
<linearGradient id="paint0_linear_269_1080" x1="-228.813" y1="-110.631" x2="-228.813" y2="98" gradientUnits="userSpaceOnUse">
<stop stop-color="#FF5C00"/>
<stop offset="1" stop-opacity="0"/>
</linearGradient>
<linearGradient id="paint1_linear_269_1080" x1="-228.444" y1="-57.4175" x2="-228.444" y2="98" gradientUnits="userSpaceOnUse">
<stop stop-color="#ACC94C"/>
<stop offset="1" stop-opacity="0"/>
</linearGradient>
<linearGradient id="paint2_linear_269_1080" x1="-228.321" y1="0.864113" x2="-228.321" y2="98" gradientUnits="userSpaceOnUse">
<stop stop-color="#DE50CF"/>
<stop offset="1" stop-opacity="0"/>
</linearGradient>
<linearGradient id="paint3_linear_269_1080" x1="-227.468" y1="55.767" x2="-227.767" y2="98.0843" gradientUnits="userSpaceOnUse">
<stop stop-color="#29A88E"/>
<stop offset="1" stop-opacity="0"/>
</linearGradient>
<clipPath id="clip0_269_1080">
<rect width="1440" height="1131" fill="white" transform="translate(-784 -265)"/>
</clipPath>
<clipPath id="clip1_269_1080">
<rect width="532.382" height="174" fill="white" transform="translate(-494.082 -76)"/>
</clipPath>
<clipPath id="clip2_269_1080">
<rect width="501" height="98" fill="white" transform="translate(-272)"/>
</clipPath>
</defs>
</svg>
