<svg width="16" height="13" viewBox="0 0 16 13" fill="none" xmlns="http://www.w3.org/2000/svg">
<mask id="path-1-outside-1_2342_3214" maskUnits="userSpaceOnUse" x="0" y="0" width="16" height="13" fill="black">
<rect fill="white" width="16" height="13"/>
<path fill-rule="evenodd" clip-rule="evenodd" d="M6.21846 1.65674C6.33084 1.85572 6.45926 2.11076 6.54605 2.31934C7.50423 2.17288 8.47746 2.17288 9.45571 2.31934C9.5425 2.1153 9.66641 1.85572 9.77828 1.65674C9.78681 1.64159 9.80337 1.63401 9.81992 1.63704C10.7294 1.7941 11.5993 2.06834 12.4105 2.44054C12.4175 2.44357 12.4236 2.44862 12.4271 2.45569C13.8643 4.56975 14.5742 6.95451 14.3088 9.69986C14.3078 9.71147 14.3018 9.72208 14.2923 9.72915C13.2037 10.5286 12.1492 11.0139 11.1092 11.3356C11.0926 11.3407 11.0746 11.3346 11.0646 11.3205C10.9396 11.1467 10.8206 10.9679 10.7083 10.7843C10.708 10.7838 10.7077 10.7832 10.7073 10.7827C10.657 10.7003 10.608 10.617 10.5604 10.5327C10.5594 10.531 10.5584 10.5292 10.5574 10.5275C10.5438 10.5033 10.5303 10.4791 10.5169 10.4547C10.4821 10.3915 10.4481 10.3278 10.4149 10.2635C10.4039 10.2418 10.4139 10.2155 10.4365 10.2069C10.5816 10.1522 10.7236 10.0929 10.8631 10.0289C10.8635 10.0287 10.864 10.0285 10.8644 10.0283C10.8768 10.0226 10.8891 10.0169 10.9015 10.0112C10.9092 10.0075 10.917 10.0039 10.9247 10.0003C10.9436 9.99134 10.9624 9.98234 10.9812 9.97325C11.0981 9.91675 11.2131 9.85681 11.3265 9.79329C11.3282 9.79233 11.3299 9.79138 11.3316 9.79042C11.3371 9.78737 11.3425 9.78432 11.3479 9.78125C11.3479 9.78127 11.3479 9.78124 11.3479 9.78125C11.3753 9.76579 11.4026 9.75008 11.4298 9.7342C11.4548 9.71955 11.4564 9.68369 11.4333 9.66652C11.4074 9.64726 11.3815 9.62761 11.3559 9.60774C11.3559 9.6077 11.356 9.60778 11.3559 9.60774C11.3151 9.57608 11.2747 9.54372 11.2356 9.51148C11.2236 9.50188 11.2075 9.49986 11.194 9.50643C11.068 9.56462 10.9413 9.61926 10.814 9.67033C10.6449 9.73812 10.4748 9.79963 10.3036 9.85488C10.3033 9.85498 10.303 9.85508 10.3027 9.85518C10.1434 9.90657 9.98332 9.95253 9.82255 9.99305C8.61963 10.2963 7.37954 10.2952 6.16898 9.98984C6.00911 9.94951 5.84976 9.90388 5.69107 9.85294C5.69097 9.85291 5.69118 9.85298 5.69107 9.85294C5.51963 9.7979 5.34865 9.73656 5.17896 9.66913C5.05131 9.6184 4.92421 9.56417 4.79775 9.50643C4.7842 9.50037 4.76815 9.50239 4.75661 9.51198C4.71791 9.54389 4.6781 9.5756 4.63786 9.60679C4.63706 9.60741 4.63626 9.60803 4.63546 9.60865C4.61024 9.62818 4.58485 9.6475 4.55946 9.66652C4.53638 9.68369 4.53839 9.71955 4.56347 9.7342C4.59006 9.74944 4.61674 9.76454 4.6435 9.77948C4.64384 9.77967 4.64418 9.77986 4.64453 9.78005C4.65204 9.78424 4.65957 9.78842 4.6671 9.79259C4.6678 9.79298 4.66849 9.79336 4.66919 9.79375C4.8078 9.87041 4.94885 9.94285 5.09266 10.0105C5.10488 10.0162 5.11713 10.0219 5.1294 10.0276C5.1298 10.0278 5.13021 10.028 5.13061 10.0282C5.2698 10.0926 5.41159 10.1525 5.55626 10.2074C5.57884 10.216 5.58938 10.2418 5.57834 10.2635C5.54614 10.3272 5.51303 10.3905 5.47902 10.4532C5.46219 10.4842 5.44515 10.5151 5.42788 10.5458C5.42754 10.5465 5.4272 10.5471 5.42686 10.5477C5.38205 10.6275 5.33577 10.7064 5.28809 10.7844C5.2878 10.7848 5.2875 10.7853 5.28721 10.7858C5.17512 10.9691 5.05523 11.1475 4.92818 11.321C4.91764 11.3346 4.90009 11.3407 4.88353 11.3356C3.8486 11.0139 2.79409 10.5286 1.70548 9.72915C1.69645 9.72208 1.68993 9.71097 1.68893 9.69935C1.46719 7.3247 1.91919 4.92024 3.56917 2.45519C3.57318 2.44862 3.5792 2.44357 3.58622 2.44054C4.39792 2.06783 5.26781 1.7936 6.17683 1.63704C6.19338 1.63451 6.20994 1.64209 6.21846 1.65674ZM3.03744 2.10554C3.11079 1.99353 3.21233 1.91126 3.32322 1.86106C4.18326 1.46641 5.10516 1.17588 6.06882 1.00991L6.07483 1.00887L6.08087 1.00795C6.34774 0.967245 6.62437 1.0892 6.76839 1.33651L6.77262 1.34378C6.82182 1.4309 6.87404 1.52827 6.92537 1.62899C7.63662 1.55426 8.3541 1.55457 9.07374 1.62953C9.12297 1.53053 9.17391 1.43321 9.22358 1.34487C9.36467 1.0942 9.64787 0.960709 9.92969 1.01021C10.8933 1.17675 11.8147 1.46723 12.6739 1.86125C12.7757 1.90746 12.8843 1.98792 12.9629 2.112C14.4706 4.33559 15.2221 6.86198 14.9424 9.75953C14.924 9.95582 14.8219 10.1286 14.6714 10.2402L14.6689 10.2421C13.5177 11.0875 12.3981 11.6031 11.2973 11.9436L11.2949 11.9443C11.0197 12.0283 10.7178 11.9293 10.5473 11.6912C10.3066 11.3562 10.0857 11.003 9.88945 10.6319C8.64225 10.9316 7.35896 10.9306 6.10579 10.6296C5.91144 11.004 5.68853 11.3598 5.44161 11.697L5.43677 11.7036L5.43176 11.7101C5.26767 11.9225 4.98007 12.0304 4.69785 11.9443L4.69463 11.9433C3.59935 11.6029 2.47999 11.0875 1.32881 10.2421L1.32089 10.2362L1.31316 10.2302C1.17876 10.125 1.07366 9.95906 1.05523 9.75756C1.05526 9.75788 1.05529 9.7582 1.05532 9.75851M3.03744 2.10554C1.30314 4.69861 0.821184 7.24915 1.05523 9.75756L3.03744 2.10554ZM6.3968 6.96612L6.39687 6.96158C6.40275 6.55025 6.11538 6.32426 5.88937 6.32426C5.67262 6.32426 5.38194 6.54196 5.38194 6.97067C5.38194 7.39556 5.67926 7.61708 5.88937 7.61708C6.10612 7.61708 6.3968 7.39938 6.3968 6.97067V6.96612ZM10.6258 6.96612L10.6259 6.96158C10.6318 6.55025 10.3444 6.32426 10.1184 6.32426C9.90166 6.32426 9.61098 6.54196 9.61098 6.97067C9.61098 7.39556 9.9083 7.61708 10.1184 7.61708C10.3385 7.61708 10.6258 7.40129 10.6258 6.97067V6.96612ZM7.03317 6.97067C7.0432 6.26868 6.5315 5.68789 5.88937 5.68789C5.25226 5.68789 4.74557 6.26363 4.74557 6.97067C4.74557 7.67771 5.26229 8.25345 5.88937 8.25345C6.52649 8.25345 7.03317 7.67771 7.03317 6.97067ZM11.2622 6.97067C11.2722 6.26868 10.7605 5.68789 10.1184 5.68789C9.4813 5.68789 8.97461 6.26363 8.97461 6.97067C8.97461 7.67771 9.49133 8.25345 10.1184 8.25345C10.7605 8.25345 11.2622 7.67771 11.2622 6.97067Z"/>
</mask>
<path fill-rule="evenodd" clip-rule="evenodd" d="M6.21846 1.65674C6.33084 1.85572 6.45926 2.11076 6.54605 2.31934C7.50423 2.17288 8.47746 2.17288 9.45571 2.31934C9.5425 2.1153 9.66641 1.85572 9.77828 1.65674C9.78681 1.64159 9.80337 1.63401 9.81992 1.63704C10.7294 1.7941 11.5993 2.06834 12.4105 2.44054C12.4175 2.44357 12.4236 2.44862 12.4271 2.45569C13.8643 4.56975 14.5742 6.95451 14.3088 9.69986C14.3078 9.71147 14.3018 9.72208 14.2923 9.72915C13.2037 10.5286 12.1492 11.0139 11.1092 11.3356C11.0926 11.3407 11.0746 11.3346 11.0646 11.3205C10.9396 11.1467 10.8206 10.9679 10.7083 10.7843C10.708 10.7838 10.7077 10.7832 10.7073 10.7827C10.657 10.7003 10.608 10.617 10.5604 10.5327C10.5594 10.531 10.5584 10.5292 10.5574 10.5275C10.5438 10.5033 10.5303 10.4791 10.5169 10.4547C10.4821 10.3915 10.4481 10.3278 10.4149 10.2635C10.4039 10.2418 10.4139 10.2155 10.4365 10.2069C10.5816 10.1522 10.7236 10.0929 10.8631 10.0289C10.8635 10.0287 10.864 10.0285 10.8644 10.0283C10.8768 10.0226 10.8891 10.0169 10.9015 10.0112C10.9092 10.0075 10.917 10.0039 10.9247 10.0003C10.9436 9.99134 10.9624 9.98234 10.9812 9.97325C11.0981 9.91675 11.2131 9.85681 11.3265 9.79329C11.3282 9.79233 11.3299 9.79138 11.3316 9.79042C11.3371 9.78737 11.3425 9.78432 11.3479 9.78125C11.3479 9.78127 11.3479 9.78124 11.3479 9.78125C11.3753 9.76579 11.4026 9.75008 11.4298 9.7342C11.4548 9.71955 11.4564 9.68369 11.4333 9.66652C11.4074 9.64726 11.3815 9.62761 11.3559 9.60774C11.3559 9.6077 11.356 9.60778 11.3559 9.60774C11.3151 9.57608 11.2747 9.54372 11.2356 9.51148C11.2236 9.50188 11.2075 9.49986 11.194 9.50643C11.068 9.56462 10.9413 9.61926 10.814 9.67033C10.6449 9.73812 10.4748 9.79963 10.3036 9.85488C10.3033 9.85498 10.303 9.85508 10.3027 9.85518C10.1434 9.90657 9.98332 9.95253 9.82255 9.99305C8.61963 10.2963 7.37954 10.2952 6.16898 9.98984C6.00911 9.94951 5.84976 9.90388 5.69107 9.85294C5.69097 9.85291 5.69118 9.85298 5.69107 9.85294C5.51963 9.7979 5.34865 9.73656 5.17896 9.66913C5.05131 9.6184 4.92421 9.56417 4.79775 9.50643C4.7842 9.50037 4.76815 9.50239 4.75661 9.51198C4.71791 9.54389 4.6781 9.5756 4.63786 9.60679C4.63706 9.60741 4.63626 9.60803 4.63546 9.60865C4.61024 9.62818 4.58485 9.6475 4.55946 9.66652C4.53638 9.68369 4.53839 9.71955 4.56347 9.7342C4.59006 9.74944 4.61674 9.76454 4.6435 9.77948C4.64384 9.77967 4.64418 9.77986 4.64453 9.78005C4.65204 9.78424 4.65957 9.78842 4.6671 9.79259C4.6678 9.79298 4.66849 9.79336 4.66919 9.79375C4.8078 9.87041 4.94885 9.94285 5.09266 10.0105C5.10488 10.0162 5.11713 10.0219 5.1294 10.0276C5.1298 10.0278 5.13021 10.028 5.13061 10.0282C5.2698 10.0926 5.41159 10.1525 5.55626 10.2074C5.57884 10.216 5.58938 10.2418 5.57834 10.2635C5.54614 10.3272 5.51303 10.3905 5.47902 10.4532C5.46219 10.4842 5.44515 10.5151 5.42788 10.5458C5.42754 10.5465 5.4272 10.5471 5.42686 10.5477C5.38205 10.6275 5.33577 10.7064 5.28809 10.7844C5.2878 10.7848 5.2875 10.7853 5.28721 10.7858C5.17512 10.9691 5.05523 11.1475 4.92818 11.321C4.91764 11.3346 4.90009 11.3407 4.88353 11.3356C3.8486 11.0139 2.79409 10.5286 1.70548 9.72915C1.69645 9.72208 1.68993 9.71097 1.68893 9.69935C1.46719 7.3247 1.91919 4.92024 3.56917 2.45519C3.57318 2.44862 3.5792 2.44357 3.58622 2.44054C4.39792 2.06783 5.26781 1.7936 6.17683 1.63704C6.19338 1.63451 6.20994 1.64209 6.21846 1.65674ZM3.03744 2.10554C3.11079 1.99353 3.21233 1.91126 3.32322 1.86106C4.18326 1.46641 5.10516 1.17588 6.06882 1.00991L6.07483 1.00887L6.08087 1.00795C6.34774 0.967245 6.62437 1.0892 6.76839 1.33651L6.77262 1.34378C6.82182 1.4309 6.87404 1.52827 6.92537 1.62899C7.63662 1.55426 8.3541 1.55457 9.07374 1.62953C9.12297 1.53053 9.17391 1.43321 9.22358 1.34487C9.36467 1.0942 9.64787 0.960709 9.92969 1.01021C10.8933 1.17675 11.8147 1.46723 12.6739 1.86125C12.7757 1.90746 12.8843 1.98792 12.9629 2.112C14.4706 4.33559 15.2221 6.86198 14.9424 9.75953C14.924 9.95582 14.8219 10.1286 14.6714 10.2402L14.6689 10.2421C13.5177 11.0875 12.3981 11.6031 11.2973 11.9436L11.2949 11.9443C11.0197 12.0283 10.7178 11.9293 10.5473 11.6912C10.3066 11.3562 10.0857 11.003 9.88945 10.6319C8.64225 10.9316 7.35896 10.9306 6.10579 10.6296C5.91144 11.004 5.68853 11.3598 5.44161 11.697L5.43677 11.7036L5.43176 11.7101C5.26767 11.9225 4.98007 12.0304 4.69785 11.9443L4.69463 11.9433C3.59935 11.6029 2.47999 11.0875 1.32881 10.2421L1.32089 10.2362L1.31316 10.2302C1.17876 10.125 1.07366 9.95906 1.05523 9.75756C1.05526 9.75788 1.05529 9.7582 1.05532 9.75851M3.03744 2.10554C1.30314 4.69861 0.821184 7.24915 1.05523 9.75756L3.03744 2.10554ZM6.3968 6.96612L6.39687 6.96158C6.40275 6.55025 6.11538 6.32426 5.88937 6.32426C5.67262 6.32426 5.38194 6.54196 5.38194 6.97067C5.38194 7.39556 5.67926 7.61708 5.88937 7.61708C6.10612 7.61708 6.3968 7.39938 6.3968 6.97067V6.96612ZM10.6258 6.96612L10.6259 6.96158C10.6318 6.55025 10.3444 6.32426 10.1184 6.32426C9.90166 6.32426 9.61098 6.54196 9.61098 6.97067C9.61098 7.39556 9.9083 7.61708 10.1184 7.61708C10.3385 7.61708 10.6258 7.40129 10.6258 6.97067V6.96612ZM7.03317 6.97067C7.0432 6.26868 6.5315 5.68789 5.88937 5.68789C5.25226 5.68789 4.74557 6.26363 4.74557 6.97067C4.74557 7.67771 5.26229 8.25345 5.88937 8.25345C6.52649 8.25345 7.03317 7.67771 7.03317 6.97067ZM11.2622 6.97067C11.2722 6.26868 10.7605 5.68789 10.1184 5.68789C9.4813 5.68789 8.97461 6.26363 8.97461 6.97067C8.97461 7.67771 9.49133 8.25345 10.1184 8.25345C10.7605 8.25345 11.2622 7.67771 11.2622 6.97067Z" fill="#676767"/>
<path d="M3.03744 2.10554L3.08584 2.11808L2.98904 2.093L3.03744 2.10554ZM1.10372 9.77105L3.08584 2.11808L2.98904 2.09301L1.00691 9.74598L1.10372 9.77105ZM1.10363 9.7701L3.08584 2.11808L2.98904 2.093L1.00683 9.74502L1.10363 9.7701ZM5.34784 10.7555C5.34726 10.7553 5.34669 10.755 5.34613 10.7548L5.31025 10.8482C5.31093 10.8484 5.3116 10.8487 5.31227 10.8489L5.34784 10.7555ZM6.54605 2.31934L6.45373 2.35775L6.48379 2.43001L6.56116 2.41819L6.54605 2.31934ZM6.21846 1.65674L6.30555 1.60756L6.30488 1.60642L6.21846 1.65674ZM9.45571 2.31934L9.4409 2.41823L9.51744 2.42969L9.54773 2.35848L9.45571 2.31934ZM9.77828 1.65674L9.69114 1.60768L9.69111 1.60773L9.77828 1.65674ZM9.81992 1.63704L9.80191 1.73541L9.8029 1.73558L9.81992 1.63704ZM12.4105 2.44054L12.3688 2.53146L12.3709 2.53236L12.4105 2.44054ZM12.4271 2.45569L12.3367 2.5006L12.3444 2.51192L12.4271 2.45569ZM14.3088 9.69986L14.2093 9.69023L14.2092 9.69125L14.3088 9.69986ZM14.2923 9.72915L14.3515 9.80975L14.3518 9.80946L14.2923 9.72915ZM11.1092 11.3356L11.1384 11.4313L11.1388 11.4312L11.1092 11.3356ZM11.0646 11.3205L11.1461 11.2626L11.1458 11.2621L11.0646 11.3205ZM10.7083 10.7843L10.7936 10.7321L10.7936 10.7321L10.7083 10.7843ZM10.7073 10.7827L10.622 10.8348L10.622 10.8349L10.7073 10.7827ZM10.5604 10.5327L10.6474 10.4835L10.6474 10.4835L10.5604 10.5327ZM10.5574 10.5275L10.4703 10.5766L10.4703 10.5766L10.5574 10.5275ZM10.5169 10.4547L10.4293 10.5029L10.4293 10.5029L10.5169 10.4547ZM10.4149 10.2635L10.3257 10.3088L10.326 10.3093L10.4149 10.2635ZM10.4365 10.2069L10.4012 10.1133L10.4009 10.1134L10.4365 10.2069ZM10.8631 10.0289L10.8214 9.93802L10.8214 9.93802L10.8631 10.0289ZM10.8644 10.0283L10.9061 10.1192L10.9062 10.1192L10.8644 10.0283ZM10.9015 10.0112L10.9438 10.1018L10.9015 10.0112ZM10.9247 10.0003L10.9673 10.0907L10.9674 10.0907L10.9247 10.0003ZM10.9812 9.97325L11.0248 10.0633L10.9812 9.97325ZM11.3265 9.79329L11.3754 9.88053L11.3754 9.88053L11.3265 9.79329ZM11.3316 9.79042L11.3806 9.87763L11.3806 9.87762L11.3316 9.79042ZM11.4298 9.7342L11.3793 9.64784L11.3793 9.64787L11.4298 9.7342ZM11.4333 9.66652L11.493 9.5863L11.493 9.58628L11.4333 9.66652ZM11.2356 9.51148L11.2992 9.43431L11.2979 9.43328L11.2356 9.51148ZM11.194 9.50643L11.2359 9.59722L11.2376 9.59642L11.194 9.50643ZM10.814 9.67033L10.7767 9.57752L10.814 9.67033ZM10.3036 9.85488L10.2729 9.75971L10.2728 9.75973L10.3036 9.85488ZM10.3027 9.85518L10.3334 9.95035L10.3335 9.95032L10.3027 9.85518ZM9.82255 9.99305L9.847 10.09L9.82255 9.99305ZM6.16898 9.98984L6.14453 10.0868L6.16898 9.98984ZM5.17896 9.66913L5.14203 9.76206H5.14203L5.17896 9.66913ZM4.79775 9.50643L4.83928 9.41546L4.83859 9.41515L4.79775 9.50643ZM4.75661 9.51198L4.82022 9.58914L4.82055 9.58887L4.75661 9.51198ZM4.63786 9.60679L4.5766 9.52775L4.57658 9.52777L4.63786 9.60679ZM4.63546 9.60865L4.69668 9.68772L4.69669 9.68772L4.63546 9.60865ZM4.55946 9.66652L4.61915 9.74675L4.61942 9.74655L4.55946 9.66652ZM4.56347 9.7342L4.51304 9.82056L4.51372 9.82095L4.56347 9.7342ZM4.6435 9.77948L4.59477 9.8668L4.59481 9.86682L4.6435 9.77948ZM4.64453 9.78005L4.69325 9.69272L4.69322 9.6927L4.64453 9.78005ZM4.6671 9.79259L4.71554 9.7051L4.71553 9.7051L4.6671 9.79259ZM4.66919 9.79375L4.71759 9.70624L4.71756 9.70622L4.66919 9.79375ZM5.09266 10.0105L5.13522 9.91999L5.13522 9.91999L5.09266 10.0105ZM5.1294 10.0276L5.08737 10.1184L5.08742 10.1184L5.1294 10.0276ZM5.13061 10.0282L5.17262 9.93744L5.17259 9.93743L5.13061 10.0282ZM5.55626 10.2074L5.59181 10.1139L5.59173 10.1139L5.55626 10.2074ZM5.57834 10.2635L5.48919 10.2182L5.48907 10.2184L5.57834 10.2635ZM5.47902 10.4532L5.39112 10.4055L5.39112 10.4055L5.47902 10.4532ZM5.42788 10.5458L5.51507 10.5948L5.51509 10.5948L5.42788 10.5458ZM5.42686 10.5477L5.33968 10.4987L5.33968 10.4987L5.42686 10.5477ZM5.28809 10.7844L5.20276 10.7322L5.20274 10.7322L5.28809 10.7844ZM5.28721 10.7858L5.37252 10.838L5.37253 10.838L5.28721 10.7858ZM4.92818 11.321L5.00734 11.3822L5.00886 11.3801L4.92818 11.321ZM4.88353 11.3356L4.85385 11.4311L4.85436 11.4313L4.88353 11.3356ZM1.70548 9.72915L1.6438 9.80792L1.64629 9.80975L1.70548 9.72915ZM1.68893 9.69935L1.78856 9.69074L1.78849 9.69005L1.68893 9.69935ZM3.56917 2.45519L3.65234 2.51086L3.65449 2.50735L3.56917 2.45519ZM3.58622 2.44054L3.62585 2.53239L3.62795 2.53142L3.58622 2.44054ZM6.17683 1.63704L6.16174 1.53817L6.15985 1.53849L6.17683 1.63704ZM3.32322 1.86106L3.36446 1.95216L3.36493 1.95195L3.32322 1.86106ZM3.03744 2.10554L3.12057 2.16114L3.1211 2.16032L3.03744 2.10554ZM6.06882 1.00991L6.05184 0.911359V0.911359L6.06882 1.00991ZM6.07483 1.00887L6.05975 0.909997L6.05786 0.910323L6.07483 1.00887ZM6.08087 1.00795L6.09595 1.10681L6.09595 1.10681L6.08087 1.00795ZM6.76839 1.33651L6.85481 1.28619L6.85481 1.28619L6.76839 1.33651ZM6.77262 1.34378L6.8597 1.2946L6.85904 1.29346L6.77262 1.34378ZM6.92537 1.62899L6.83627 1.6744L6.86747 1.73562L6.93582 1.72844L6.92537 1.62899ZM9.07374 1.62953L9.06337 1.72899L9.13238 1.73618L9.16327 1.67406L9.07374 1.62953ZM9.22358 1.34487L9.13643 1.29582L9.13641 1.29586L9.22358 1.34487ZM9.92969 1.01021L9.91239 1.10871L9.91266 1.10875L9.92969 1.01021ZM12.6739 1.86125L12.6323 1.95215L12.6326 1.95231L12.6739 1.86125ZM12.9629 2.112L12.8784 2.16553L12.8801 2.16812L12.9629 2.112ZM14.9424 9.75953L14.8428 9.74992L14.8428 9.7502L14.9424 9.75953ZM14.6714 10.2402L14.731 10.3206L14.731 10.3206L14.6714 10.2402ZM14.6689 10.2421L14.7281 10.3227L14.7285 10.3224L14.6689 10.2421ZM11.2973 11.9436L11.3268 12.0391L11.3268 12.0391L11.2973 11.9436ZM11.2949 11.9443L11.3241 12.04L11.3244 12.0399L11.2949 11.9443ZM10.5473 11.6912L10.6286 11.633L10.6285 11.6328L10.5473 11.6912ZM9.88945 10.6319L9.97784 10.5852L9.94156 10.5166L9.86608 10.5347L9.88945 10.6319ZM6.10579 10.6296L6.12914 10.5324L6.05308 10.5141L6.01703 10.5835L6.10579 10.6296ZM5.44161 11.697L5.36093 11.6379L5.44161 11.697ZM5.43677 11.7036L5.51593 11.7647L5.51745 11.7627L5.43677 11.7036ZM5.43176 11.7101L5.51089 11.7712H5.51089L5.43176 11.7101ZM4.69785 11.9443L4.66867 12.04H4.66867L4.69785 11.9443ZM4.69463 11.9433L4.66495 12.0388L4.66545 12.039L4.69463 11.9433ZM1.32881 10.2421L1.388 10.1615L1.388 10.1615L1.32881 10.2421ZM1.32089 10.2362L1.25921 10.315L1.2617 10.3168L1.32089 10.2362ZM1.31316 10.2302L1.37481 10.1515H1.37481L1.31316 10.2302ZM6.39687 6.96158L6.29688 6.96015V6.96015L6.39687 6.96158ZM6.3968 6.96612L6.2968 6.96469V6.96612H6.3968ZM10.6259 6.96158L10.5259 6.96015V6.96015L10.6259 6.96158ZM10.6258 6.96612L10.5258 6.96469V6.96612H10.6258ZM7.03317 6.97067L6.93317 6.96924V6.97067H7.03317ZM11.2622 6.97067L11.1622 6.96924V6.97067H11.2622ZM6.63838 2.28092C6.54972 2.06784 6.41939 1.80916 6.30554 1.60756L6.13139 1.70591C6.24229 1.90228 6.36881 2.15368 6.45373 2.35775L6.63838 2.28092ZM9.47052 2.22044C8.48256 2.07253 7.49924 2.07248 6.53094 2.22048L6.56116 2.41819C7.50923 2.27328 8.47237 2.27323 9.4409 2.41823L9.47052 2.22044ZM9.69111 1.60773C9.57706 1.8106 9.45157 2.0736 9.36369 2.28019L9.54773 2.35848C9.63343 2.15701 9.75576 1.90084 9.86545 1.70574L9.69111 1.60773ZM9.83793 1.53867C9.77944 1.52797 9.72063 1.5553 9.69114 1.60768L9.86542 1.70579C9.85299 1.72787 9.8273 1.74005 9.80192 1.73541L9.83793 1.53867ZM12.4522 2.34965C11.6333 1.97391 10.7552 1.69707 9.83694 1.5385L9.8029 1.73558C10.7037 1.89114 11.5653 2.16276 12.3688 2.53143L12.4522 2.34965ZM12.5166 2.4112C12.5009 2.37946 12.475 2.35946 12.4501 2.34872L12.3709 2.53236C12.3601 2.52769 12.3463 2.51779 12.3375 2.50019L12.5166 2.4112ZM14.4084 9.70948C14.6762 6.93915 13.9592 4.53134 12.5098 2.39947L12.3444 2.51192C13.7695 4.60817 14.4723 6.96987 14.2093 9.69023L14.4084 9.70948ZM14.3518 9.80946C14.3837 9.78582 14.4049 9.74942 14.4085 9.70847L14.2092 9.69125C14.2107 9.67352 14.2199 9.65834 14.2327 9.64883L14.3518 9.80946ZM11.1388 11.4312C12.1883 11.1065 13.253 10.6164 14.3515 9.80975L14.2331 9.64855C13.1543 10.4408 12.11 10.9214 11.0796 11.2401L11.1388 11.4312ZM10.983 11.3784C11.0182 11.428 11.081 11.4488 11.1384 11.4313L11.08 11.24C11.1043 11.2326 11.131 11.2413 11.1461 11.2626L10.983 11.3784ZM10.623 10.8365C10.7367 11.0223 10.857 11.2031 10.9834 11.3789L11.1458 11.2621C11.0222 11.0902 10.9046 10.9136 10.7936 10.7321L10.623 10.8365ZM10.622 10.8349C10.6222 10.8352 10.6224 10.8355 10.6226 10.8357C10.6227 10.836 10.6229 10.8363 10.623 10.8365L10.7936 10.7321C10.7934 10.7318 10.7933 10.7315 10.7931 10.7312C10.7929 10.731 10.7928 10.7307 10.7926 10.7305L10.622 10.8349ZM10.4733 10.5819C10.5215 10.6672 10.5711 10.7515 10.622 10.8348L10.7926 10.7305C10.7429 10.6491 10.6945 10.5668 10.6474 10.4835L10.4733 10.5819ZM10.4703 10.5766C10.4713 10.5783 10.4723 10.5801 10.4733 10.5819L10.6474 10.4835C10.6465 10.4818 10.6455 10.4801 10.6445 10.4784L10.4703 10.5766ZM10.4293 10.5029C10.4429 10.5276 10.4565 10.5521 10.4703 10.5766L10.6446 10.4784C10.6311 10.4545 10.6177 10.4305 10.6045 10.4065L10.4293 10.5029ZM10.326 10.3093C10.3596 10.3744 10.3941 10.439 10.4293 10.5029L10.6045 10.4065C10.5701 10.344 10.5365 10.2811 10.5038 10.2176L10.326 10.3093ZM10.4009 10.1134C10.322 10.1434 10.2881 10.2348 10.3257 10.3088L10.504 10.2182C10.5196 10.2487 10.5058 10.2875 10.472 10.3004L10.4009 10.1134ZM10.8214 9.93802C10.6841 10.001 10.5441 10.0594 10.4012 10.1133L10.4718 10.3005C10.619 10.2449 10.7632 10.1848 10.9048 10.1198L10.8214 9.93802ZM10.8227 9.9374C10.8226 9.93748 10.8224 9.93756 10.8222 9.93766C10.822 9.93776 10.8217 9.93789 10.8214 9.93802L10.9048 10.1198C10.905 10.1197 10.9051 10.1196 10.9054 10.1195C10.9056 10.1194 10.9059 10.1193 10.9061 10.1192L10.8227 9.9374ZM10.8592 9.92054C10.847 9.92621 10.8349 9.93183 10.8227 9.93742L10.9062 10.1192C10.9187 10.1134 10.9313 10.1076 10.9438 10.1018L10.8592 9.92054ZM10.882 9.9098C10.8744 9.91339 10.8668 9.91697 10.8592 9.92054L10.9438 10.1018C10.9516 10.0981 10.9595 10.0944 10.9673 10.0907L10.882 9.9098ZM10.9377 9.88322C10.9192 9.89217 10.9006 9.90103 10.882 9.90981L10.9674 10.0907C10.9865 10.0816 11.0057 10.0725 11.0248 10.0633L10.9377 9.88322ZM11.2776 9.70605C11.166 9.76858 11.0528 9.82759 10.9377 9.88322L11.0248 10.0633C11.1434 10.0059 11.2602 9.94504 11.3754 9.88053L11.2776 9.70605ZM11.2827 9.70321C11.281 9.70417 11.2793 9.70511 11.2776 9.70605L11.3754 9.88053C11.3771 9.87956 11.3789 9.87859 11.3806 9.87763L11.2827 9.70321ZM11.2987 9.6942C11.2934 9.69722 11.288 9.70022 11.2827 9.70322L11.3806 9.87762C11.3861 9.87452 11.3916 9.87142 11.3971 9.86831L11.2987 9.6942ZM11.2993 9.69384C11.2993 9.69385 11.2993 9.69383 11.2993 9.69384C11.2993 9.69384 11.2993 9.69384 11.2993 9.69384C11.2993 9.69384 11.2993 9.69384 11.2993 9.69384C11.2993 9.69384 11.2993 9.69384 11.2993 9.69384C11.2993 9.69384 11.2993 9.69384 11.2993 9.69384C11.2993 9.69384 11.2993 9.69384 11.2993 9.69384C11.2993 9.69384 11.2993 9.69384 11.2993 9.69384C11.2993 9.69384 11.2993 9.69384 11.2993 9.69384C11.4353 9.73269 11.3965 9.86867 11.3965 9.86867C11.3965 9.86867 11.3965 9.86867 11.3965 9.86867C11.3965 9.86867 11.3965 9.86867 11.3965 9.86867C11.3965 9.86867 11.3965 9.86867 11.3965 9.86867C11.3965 9.86867 11.3965 9.86867 11.3965 9.86867C11.3965 9.86867 11.3965 9.86867 11.3965 9.86867C11.3965 9.86867 11.3965 9.86867 11.3965 9.86867C11.3965 9.86866 11.3965 9.86867 11.3965 9.86867C11.3965 9.86867 11.4353 9.73269 11.2993 9.69384C11.2993 9.69384 11.2993 9.69384 11.2993 9.69384C11.2993 9.69384 11.2994 9.69383 11.2993 9.69384C11.2993 9.69384 11.2993 9.69384 11.2993 9.69384C11.2993 9.69384 11.2993 9.69384 11.2993 9.69384L11.3965 9.86867C11.3965 9.86866 11.3965 9.86868 11.3965 9.86867C11.3965 9.86867 11.3965 9.86867 11.3965 9.86867C11.3965 9.86867 11.3965 9.86867 11.3965 9.86867H11.3965C11.3965 9.86867 11.3965 9.86867 11.3965 9.86867C11.3965 9.86867 11.3965 9.86867 11.3965 9.86867C11.3965 9.86867 11.3965 9.86867 11.3965 9.86867C11.2605 9.82982 11.2993 9.69384 11.2993 9.69384C11.2993 9.69384 11.2993 9.69384 11.2993 9.69384C11.2993 9.69384 11.2993 9.69384 11.2993 9.69384C11.2993 9.69384 11.2993 9.69384 11.2993 9.69384C11.2993 9.69385 11.2993 9.69384 11.2993 9.69384C11.2993 9.69384 11.2993 9.69384 11.2993 9.69384C11.2993 9.69384 11.2993 9.69384 11.2993 9.69384C11.2993 9.69384 11.2993 9.69384 11.2993 9.69384C11.2993 9.69384 11.2993 9.69384 11.2993 9.69384C11.2993 9.69384 11.2605 9.82982 11.3965 9.86867C11.3965 9.86867 11.3965 9.86867 11.3965 9.86867C11.3965 9.86867 11.3965 9.86867 11.3965 9.86867C11.3965 9.86867 11.3965 9.86868 11.3965 9.86867C11.3965 9.86867 11.3965 9.86867 11.3965 9.86867C11.3965 9.86867 11.3965 9.86867 11.3965 9.86867L11.2993 9.69384ZM11.3793 9.64787C11.3525 9.66351 11.3256 9.67897 11.2987 9.6942L11.3971 9.86831C11.4249 9.85261 11.4526 9.83666 11.4802 9.82053L11.3793 9.64787ZM11.3736 9.74675C11.3405 9.72217 11.341 9.67022 11.3793 9.64784L11.4802 9.82055C11.5687 9.76888 11.5722 9.64522 11.493 9.5863L11.3736 9.74675ZM11.2946 9.68675C11.3207 9.70702 11.3471 9.72707 11.3736 9.74676L11.493 9.58628C11.4676 9.56744 11.4423 9.54821 11.4172 9.52873L11.2946 9.68675ZM11.2947 9.68677C11.2947 9.68678 11.2947 9.68678 11.2947 9.68678C11.2947 9.68678 11.2947 9.68678 11.2947 9.68678H11.2947C11.2947 9.68678 11.2947 9.68678 11.2947 9.68678C11.2947 9.68678 11.2947 9.68678 11.2947 9.68678C11.2947 9.68678 11.2947 9.68678 11.2947 9.68678C11.435 9.66902 11.4172 9.52872 11.4172 9.52872C11.4172 9.52872 11.4172 9.52872 11.4172 9.52872C11.4172 9.52872 11.4172 9.52872 11.4172 9.52872C11.4172 9.52872 11.4172 9.52872 11.4172 9.52872C11.4172 9.52872 11.4172 9.52872 11.4172 9.52872C11.4172 9.52872 11.4172 9.52872 11.4172 9.52872C11.4172 9.52872 11.4172 9.52872 11.4172 9.52872C11.4172 9.52871 11.4172 9.52872 11.4172 9.52872C11.4172 9.52871 11.4172 9.52872 11.4172 9.52871C11.4172 9.52871 11.4172 9.52871 11.4172 9.52871C11.4172 9.52871 11.4172 9.52871 11.4172 9.52871C11.4172 9.52871 11.4172 9.52871 11.4172 9.52871H11.4172C11.4172 9.52871 11.4172 9.52871 11.4172 9.52871C11.4171 9.52862 11.4173 9.52879 11.4172 9.52871C11.4172 9.5287 11.4172 9.52871 11.4172 9.5287C11.4172 9.52869 11.4172 9.52872 11.4172 9.5287C11.4172 9.5287 11.4172 9.5287 11.4172 9.5287C11.4172 9.5287 11.4349 9.669 11.2946 9.68676C11.2946 9.68676 11.2946 9.68676 11.2946 9.68676C11.2946 9.68676 11.2946 9.68676 11.2946 9.68676C11.2946 9.68676 11.2946 9.68676 11.2946 9.68676L11.2946 9.68676C11.2946 9.68676 11.2946 9.68676 11.2946 9.68676C11.2947 9.68677 11.2946 9.68676 11.2947 9.68676C11.2947 9.68677 11.2947 9.68677 11.2947 9.68677C11.2947 9.68677 11.2947 9.68677 11.2947 9.68677L11.4172 9.52871C11.4172 9.5287 11.4172 9.52871 11.4172 9.5287C11.4172 9.5287 11.4172 9.5287 11.4172 9.5287C11.4172 9.5287 11.4172 9.5287 11.4172 9.5287C11.4172 9.5287 11.4172 9.5287 11.4172 9.5287C11.2769 9.54646 11.2946 9.68676 11.2946 9.68676V9.68676C11.2946 9.68676 11.2946 9.68676 11.2946 9.68676C11.2946 9.68676 11.2946 9.68676 11.2946 9.68676C11.2946 9.68676 11.2946 9.68676 11.2946 9.68676L11.2946 9.68676C11.2946 9.68676 11.2946 9.68676 11.2946 9.68676C11.2947 9.68676 11.2947 9.68677 11.2947 9.68677C11.2947 9.68677 11.2947 9.68677 11.2947 9.68677C11.2947 9.68677 11.2947 9.68677 11.2947 9.68677C11.2947 9.68677 11.2947 9.68677 11.2947 9.68677C11.2947 9.68677 11.2947 9.68677 11.2947 9.68677C11.2947 9.68677 11.2947 9.68677 11.2947 9.68677C11.2947 9.68677 11.2947 9.68677 11.2947 9.68677C11.2947 9.68677 11.2947 9.68677 11.2947 9.68677C11.2947 9.68677 11.2947 9.68677 11.2947 9.68677C11.2947 9.68677 11.2947 9.68677 11.2947 9.68677C11.2947 9.68677 11.2947 9.68677 11.2947 9.68677C11.2947 9.68677 11.2947 9.68677 11.2947 9.68677C11.2948 9.68686 11.2946 9.68669 11.2947 9.68678C11.2947 9.68678 11.2947 9.68678 11.2947 9.68678C11.2947 9.68679 11.2947 9.68677 11.2947 9.68678C11.2947 9.68678 11.2947 9.68678 11.2947 9.68678C11.2947 9.68678 11.2947 9.68678 11.2947 9.68678C11.2947 9.68678 11.2769 9.54648 11.4172 9.52872C11.4172 9.52872 11.4172 9.52872 11.4172 9.52872C11.4172 9.52872 11.4172 9.52872 11.4172 9.52872C11.4172 9.52872 11.4172 9.52872 11.4172 9.52872C11.4172 9.52872 11.4172 9.52872 11.4172 9.52872C11.4172 9.52871 11.4172 9.52872 11.4172 9.52872C11.4172 9.52872 11.4172 9.52872 11.4172 9.52871C11.4172 9.52871 11.4172 9.52872 11.4172 9.52871L11.2947 9.68677ZM11.172 9.58864C11.2118 9.62148 11.253 9.65446 11.2946 9.68675L11.4172 9.52874C11.3772 9.49771 11.3376 9.46596 11.2992 9.43432L11.172 9.58864ZM11.2376 9.59642C11.2149 9.6074 11.19 9.60297 11.1733 9.58968L11.2979 9.43328C11.2572 9.40079 11.2001 9.39233 11.1504 9.41644L11.2376 9.59642ZM10.8512 9.76315C10.9801 9.71143 11.1084 9.65612 11.2359 9.59721L11.152 9.41565C11.0276 9.47313 10.9025 9.52709 10.7767 9.57752L10.8512 9.76315ZM10.3344 9.95004C10.5077 9.89409 10.68 9.83179 10.8512 9.76315L10.7767 9.57752C10.6098 9.64445 10.4418 9.70518 10.2729 9.75971L10.3344 9.95004ZM10.3335 9.95032C10.3336 9.95028 10.3337 9.95025 10.3339 9.9502C10.334 9.95015 10.3342 9.95008 10.3344 9.95002L10.2728 9.75973C10.2727 9.75977 10.2726 9.7598 10.2725 9.75986C10.2723 9.7599 10.2721 9.75997 10.2719 9.76003L10.3335 9.95032ZM9.847 10.09C10.0099 10.049 10.1721 10.0024 10.3334 9.95035L10.272 9.76001C10.1148 9.81074 9.95676 9.85609 9.79811 9.89608L9.847 10.09ZM6.14453 10.0868C7.37102 10.3962 8.62792 10.3973 9.847 10.09L9.79811 9.89608C8.61135 10.1952 7.38805 10.1942 6.19344 9.89288L6.14453 10.0868ZM5.66051 9.94816C5.8212 9.99974 5.98259 10.046 6.14453 10.0868L6.19344 9.89288C6.03564 9.85307 5.87832 9.80802 5.72164 9.75773L5.66051 9.94816ZM5.66064 9.9482C5.66066 9.9482 5.66065 9.9482 5.66066 9.94821C5.66067 9.94821 5.66066 9.94821 5.66067 9.94821C5.66067 9.94821 5.66067 9.94821 5.66067 9.94821C5.78636 9.88339 5.72154 9.7577 5.72154 9.7577C5.72154 9.7577 5.72154 9.7577 5.72154 9.7577C5.7215 9.75768 5.72158 9.75771 5.72153 9.75769C5.72153 9.75769 5.72152 9.75769 5.72152 9.75769C5.7215 9.75768 5.72154 9.7577 5.72151 9.75769C5.7215 9.75768 5.7215 9.75768 5.72149 9.75768C5.72147 9.75768 5.7215 9.75769 5.72149 9.75768C5.72148 9.75768 5.72148 9.75768 5.72148 9.75768C5.72148 9.75768 5.72148 9.75768 5.72148 9.75768C5.72148 9.75768 5.72148 9.75768 5.72148 9.75768H5.72148C5.72148 9.75768 5.7863 9.88337 5.66061 9.94819C5.66061 9.94819 5.66061 9.94819 5.66061 9.94819C5.66061 9.94819 5.66061 9.94819 5.66061 9.94819C5.66061 9.94819 5.66061 9.94819 5.66061 9.94819L5.66061 9.94819C5.66061 9.94819 5.66061 9.94819 5.66061 9.94819C5.66061 9.94819 5.66061 9.94819 5.66061 9.94819C5.66061 9.94819 5.66061 9.94819 5.66061 9.94819C5.66062 9.94819 5.66062 9.94819 5.66064 9.9482L5.72151 9.75769C5.72149 9.75768 5.7215 9.75768 5.72149 9.75768C5.72148 9.75768 5.72148 9.75768 5.72148 9.75768C5.72148 9.75768 5.72148 9.75768 5.72148 9.75768C5.59579 9.8225 5.66061 9.94819 5.66061 9.94819H5.66061C5.66061 9.94819 5.66061 9.94819 5.66061 9.94819C5.66061 9.94819 5.66061 9.94819 5.66061 9.94819C5.66061 9.94819 5.66061 9.94819 5.66061 9.94819C5.66065 9.9482 5.66057 9.94818 5.66062 9.94819C5.66062 9.94819 5.66062 9.94819 5.66063 9.9482C5.66065 9.9482 5.66061 9.94819 5.66064 9.9482C5.66065 9.9482 5.66065 9.9482 5.66066 9.9482C5.66067 9.94821 5.66064 9.9482 5.66066 9.94821C5.66066 9.94821 5.66067 9.94821 5.66067 9.94821C5.66067 9.94821 5.66067 9.94821 5.66067 9.94821C5.66067 9.94821 5.66067 9.94821 5.66067 9.94821C5.66067 9.94821 5.66067 9.94821 5.66067 9.94821C5.66067 9.94821 5.59585 9.82252 5.72154 9.7577C5.72154 9.7577 5.72154 9.7577 5.72154 9.7577C5.72154 9.7577 5.72154 9.7577 5.72154 9.7577C5.72154 9.7577 5.72154 9.7577 5.72154 9.7577C5.72154 9.7577 5.72154 9.7577 5.72154 9.7577C5.72154 9.7577 5.72154 9.7577 5.72154 9.7577C5.72154 9.7577 5.72154 9.7577 5.72154 9.7577C5.72153 9.75769 5.72153 9.75769 5.72151 9.75769L5.66064 9.9482ZM5.14203 9.76206C5.3138 9.83032 5.4869 9.89242 5.66051 9.94816L5.72164 9.75773C5.55235 9.70338 5.3835 9.6428 5.21589 9.57619L5.14203 9.76206ZM4.75622 9.5974C4.88419 9.65582 5.01282 9.71071 5.14203 9.76206L5.21589 9.57619C5.0898 9.52609 4.96424 9.47251 4.83928 9.41546L4.75622 9.5974ZM4.82055 9.58887C4.80219 9.60414 4.77748 9.60692 4.75691 9.59771L4.83859 9.41515C4.79092 9.39382 4.73411 9.40063 4.69267 9.4351L4.82055 9.58887ZM4.69912 9.68583C4.74006 9.6541 4.78066 9.62176 4.82022 9.58914L4.693 9.43482C4.65516 9.46601 4.61615 9.4971 4.5766 9.52775L4.69912 9.68583ZM4.69669 9.68772C4.69746 9.68712 4.6983 9.68647 4.69914 9.68582L4.57658 9.52777C4.57582 9.52836 4.57507 9.52894 4.57424 9.52958L4.69669 9.68772ZM4.61942 9.74655C4.64521 9.72723 4.67102 9.70759 4.69668 9.68772L4.57425 9.52957C4.54946 9.54876 4.52449 9.56777 4.49949 9.5865L4.61942 9.74655ZM4.61389 9.64784C4.6502 9.66904 4.65407 9.72077 4.61915 9.74675L4.49976 9.5863C4.41869 9.64662 4.42657 9.77006 4.51305 9.82055L4.61389 9.64784ZM4.69223 9.69215C4.66581 9.67741 4.63947 9.6625 4.61321 9.64745L4.51372 9.82095C4.54065 9.83638 4.56766 9.85167 4.59477 9.8668L4.69223 9.69215ZM4.69322 9.6927C4.69308 9.69263 4.69294 9.69255 4.69276 9.69245C4.6926 9.69236 4.6924 9.69224 4.69219 9.69213L4.59481 9.86682C4.59495 9.8669 4.59509 9.86698 4.59527 9.86707C4.59543 9.86717 4.59563 9.86728 4.59584 9.86739L4.69322 9.6927ZM4.71553 9.7051C4.70809 9.70098 4.70066 9.69685 4.69325 9.69272L4.59581 9.86738C4.60343 9.87163 4.61105 9.87586 4.61867 9.88008L4.71553 9.7051ZM4.71756 9.70622C4.7169 9.70586 4.71624 9.70549 4.71554 9.7051L4.61866 9.88008C4.61935 9.88046 4.62009 9.88087 4.62083 9.88128L4.71756 9.70622ZM5.13522 9.91999C4.9935 9.85334 4.8544 9.78191 4.71759 9.70624L4.62079 9.88126C4.7612 9.95891 4.90419 10.0324 5.0501 10.101L5.13522 9.91999ZM5.17142 9.93689C5.15933 9.93129 5.14726 9.92566 5.13522 9.91999L5.0501 10.101C5.06251 10.1068 5.07493 10.1126 5.08737 10.1184L5.17142 9.93689ZM5.17259 9.93743C5.17239 9.93734 5.17219 9.93724 5.17198 9.93715C5.17178 9.93706 5.17158 9.93696 5.17137 9.93687L5.08742 10.1184C5.08762 10.1185 5.08782 10.1186 5.08803 10.1187C5.08823 10.1188 5.08843 10.1189 5.08864 10.119L5.17259 9.93743ZM5.59173 10.1139C5.44936 10.0599 5.30976 10.0009 5.17262 9.93744L5.08861 10.1189C5.22984 10.1843 5.37381 10.2452 5.5208 10.3009L5.59173 10.1139ZM5.66749 10.3088C5.70642 10.2322 5.66795 10.1429 5.59181 10.1139L5.52072 10.3009C5.48973 10.2891 5.47233 10.2513 5.48919 10.2182L5.66749 10.3088ZM5.56692 10.5009C5.6014 10.4373 5.63497 10.3732 5.66761 10.3085L5.48907 10.2184C5.45732 10.2813 5.42466 10.3437 5.39112 10.4055L5.56692 10.5009ZM5.51509 10.5948C5.53258 10.5636 5.54986 10.5323 5.56692 10.5009L5.39112 10.4055C5.37452 10.4361 5.35771 10.4666 5.34068 10.4969L5.51509 10.5948ZM5.51405 10.5966C5.51423 10.5963 5.5144 10.596 5.51457 10.5957C5.51474 10.5954 5.51491 10.5951 5.51507 10.5948L5.3407 10.4969C5.34052 10.4972 5.34034 10.4975 5.34018 10.4978C5.34 10.4981 5.33984 10.4984 5.33968 10.4987L5.51405 10.5966ZM5.37341 10.8365C5.42173 10.7575 5.46863 10.6775 5.51405 10.5966L5.33968 10.4987C5.29547 10.5774 5.24982 10.6552 5.20276 10.7322L5.37341 10.8365ZM5.37253 10.838C5.37263 10.8378 5.37273 10.8376 5.37289 10.8374C5.37303 10.8371 5.37323 10.8368 5.37343 10.8365L5.20274 10.7322C5.20209 10.7333 5.2028 10.7322 5.20189 10.7336L5.37253 10.838ZM5.00886 11.3801C5.1375 11.2044 5.25894 11.0237 5.37252 10.838L5.2019 10.7336C5.09129 10.9145 4.97296 11.0906 4.8475 11.2619L5.00886 11.3801ZM4.85436 11.4313C4.91266 11.4491 4.97265 11.427 5.00731 11.3821L4.84905 11.2599C4.86264 11.2423 4.88752 11.2323 4.91271 11.24L4.85436 11.4313ZM1.64629 9.80975C2.74474 10.6164 3.80943 11.1065 4.85385 11.4311L4.91322 11.2402C3.88776 10.9214 2.84345 10.4408 1.76467 9.64855L1.64629 9.80975ZM1.5893 9.70796C1.5929 9.74966 1.61498 9.78529 1.64383 9.80788L1.76713 9.65041C1.77322 9.65518 1.77788 9.66078 1.78129 9.66682C1.78471 9.67288 1.7877 9.68091 1.78855 9.69074L1.5893 9.70796ZM3.48607 2.39957C1.82243 4.88502 1.36563 7.31271 1.58936 9.70865L1.78849 9.69005C1.56874 7.33668 2.01595 4.95547 3.65227 2.51081L3.48607 2.39957ZM3.54661 2.34872C3.52169 2.35948 3.49922 2.37788 3.48385 2.40303L3.65449 2.50735C3.64714 2.51937 3.63672 2.52767 3.62584 2.53236L3.54661 2.34872ZM6.15985 1.53849C5.2421 1.69655 4.3639 1.97341 3.5445 2.34967L3.62795 2.53142C4.43194 2.16225 5.29352 1.89064 6.1938 1.73559L6.15985 1.53849ZM6.30488 1.60642C6.27506 1.55521 6.21764 1.52966 6.16175 1.53818L6.19191 1.7359C6.16912 1.73937 6.14481 1.72897 6.13205 1.70706L6.30488 1.60642ZM3.28198 1.76996C3.15472 1.82757 3.03808 1.92203 2.95378 2.05076L3.1211 2.16032C3.1835 2.06504 3.26994 1.99495 3.36446 1.95216L3.28198 1.76996ZM6.05184 0.911359C5.07946 1.07883 4.14926 1.37199 3.28152 1.77018L3.36493 1.95195C4.21726 1.56084 5.13086 1.27292 6.08579 1.10846L6.05184 0.911359ZM6.05786 0.910323L6.05184 0.911359L6.08579 1.10846L6.09181 1.10742L6.05786 0.910323ZM6.06579 0.909094L6.05975 0.910015L6.08991 1.10773L6.09595 1.10681L6.06579 0.909094ZM6.85481 1.28619C6.68941 1.00216 6.37181 0.862417 6.06579 0.909095L6.09595 1.10681C6.32366 1.07207 6.55934 1.17623 6.68197 1.38683L6.85481 1.28619ZM6.85904 1.29346L6.85481 1.28619L6.68197 1.38683L6.6862 1.3941L6.85904 1.29346ZM7.01446 1.58359C6.96254 1.4817 6.90965 1.38307 6.85969 1.29461L6.68555 1.39296C6.73399 1.47874 6.78553 1.57484 6.83627 1.6744L7.01446 1.58359ZM9.0841 1.53007C8.35764 1.4544 7.63319 1.45407 6.91492 1.52954L6.93582 1.72844C7.64005 1.65445 8.35056 1.65474 9.06337 1.72899L9.0841 1.53007ZM9.13641 1.29586C9.08574 1.38599 9.034 1.48485 8.9842 1.585L9.16327 1.67406C9.21194 1.5762 9.26209 1.48042 9.31074 1.39388L9.13641 1.29586ZM9.94699 0.911721C9.62341 0.854883 9.29835 1.00817 9.13643 1.29582L9.31072 1.39392C9.431 1.18024 9.67232 1.06654 9.91239 1.1087L9.94699 0.911721ZM12.7156 1.77036C11.8487 1.3728 10.919 1.07972 9.94672 0.911674L9.91266 1.10875C10.8676 1.27379 11.7808 1.56165 12.6323 1.95215L12.7156 1.77036ZM13.0474 2.0585C12.9568 1.91552 12.8319 1.82317 12.7153 1.7702L12.6326 1.95231C12.7195 1.99176 12.8118 2.06032 12.8784 2.1655L13.0474 2.0585ZM15.0419 9.76914C15.3241 6.84667 14.5654 4.29727 13.0457 2.05588L12.8801 2.16812C14.3757 4.37391 15.1202 6.87729 14.8428 9.74992L15.0419 9.76914ZM14.731 10.3206C14.9036 10.1925 15.0208 9.99424 15.042 9.76885L14.8428 9.7502C14.8272 9.91739 14.7402 10.0647 14.6118 10.1599L14.731 10.3206ZM14.7285 10.3224L14.731 10.3206L14.6118 10.1599L14.6094 10.1617L14.7285 10.3224ZM11.3268 12.0391C12.4372 11.6956 13.567 11.1754 14.7281 10.3227L14.6098 10.1615C13.4683 10.9997 12.3589 11.5105 11.2677 11.8481L11.3268 12.0391ZM11.3244 12.0399L11.3268 12.0391L11.2677 11.8481L11.2653 11.8488L11.3244 12.0399ZM10.466 11.7494C10.6618 12.0228 11.0083 12.1363 11.3241 12.04L11.2657 11.8487C11.0311 11.9202 10.7739 11.8358 10.6286 11.633L10.466 11.7494ZM9.80105 10.6787C9.99951 11.0539 10.2228 11.411 10.4661 11.7495L10.6285 11.6328C10.3903 11.3013 10.1718 10.952 9.97784 10.5852L9.80105 10.6787ZM6.08244 10.7269C7.35087 11.0315 8.65017 11.0326 9.91281 10.7292L9.86608 10.5347C8.63434 10.8307 7.36706 10.8297 6.12914 10.5324L6.08244 10.7269ZM5.5223 11.756C5.77207 11.4149 5.99772 11.0548 6.19454 10.6757L6.01703 10.5835C5.82516 10.9532 5.60498 11.3046 5.36093 11.6379L5.5223 11.756ZM5.51745 11.7627L5.5223 11.756L5.36093 11.6379L5.35609 11.6445L5.51745 11.7627ZM5.51089 11.7712L5.5159 11.7647L5.35764 11.6424L5.35262 11.6489L5.51089 11.7712ZM4.66867 12.04C4.99293 12.1389 5.32287 12.0146 5.51089 11.7712L5.35262 11.6489C5.21247 11.8303 4.96721 11.9219 4.72703 11.8487L4.66867 12.04ZM4.66545 12.039L4.66867 12.04L4.72703 11.8487L4.72381 11.8477L4.66545 12.039ZM1.26961 10.3227C2.43063 11.1753 3.56018 11.6954 4.66495 12.0388L4.72432 11.8478C3.63851 11.5103 2.52935 10.9997 1.388 10.1615L1.26961 10.3227ZM1.2617 10.3168L1.26962 10.3227L1.388 10.1615L1.38008 10.1556L1.2617 10.3168ZM1.25151 10.3089L1.25924 10.315L1.38254 10.1575L1.37481 10.1515L1.25151 10.3089ZM0.955644 9.76667C0.976818 9.99818 1.09753 10.1884 1.25151 10.3089L1.37481 10.1515C1.26 10.0616 1.1705 9.91994 1.15481 9.74845L0.955644 9.76667ZM0.955661 9.76685C0.95569 9.76717 0.95572 9.76749 0.955751 9.76782L1.15488 9.74921C1.15485 9.7489 1.15482 9.74859 1.1548 9.74827L0.955661 9.76685ZM2.95432 2.04995C1.20638 4.66341 0.719633 7.23718 0.95566 9.76685L1.1548 9.74827C0.922736 7.26113 1.39991 4.7338 3.12056 2.16114L2.95432 2.04995ZM6.29688 6.96015L6.29681 6.96469L6.49679 6.96755L6.49686 6.963L6.29688 6.96015ZM5.88937 6.42426C6.05323 6.42426 6.30205 6.59801 6.29688 6.96015L6.49686 6.963C6.50344 6.50248 6.17754 6.22426 5.88937 6.22426V6.42426ZM5.48194 6.97067C5.48194 6.58956 5.73518 6.42426 5.88937 6.42426V6.22426C5.61006 6.22426 5.28194 6.49436 5.28194 6.97067H5.48194ZM5.88937 7.51708C5.74147 7.51708 5.48194 7.34759 5.48194 6.97067H5.28194C5.28194 7.44354 5.61705 7.71708 5.88937 7.71708V7.51708ZM6.2968 6.97067C6.2968 7.35178 6.04356 7.51708 5.88937 7.51708V7.71708C6.16868 7.71708 6.4968 7.44697 6.4968 6.97067H6.2968ZM6.2968 6.96612V6.97067H6.4968V6.96612H6.2968ZM10.5259 6.96015L10.5259 6.96469L10.7258 6.96755L10.7259 6.963L10.5259 6.96015ZM10.1184 6.42426C10.2823 6.42426 10.5311 6.59801 10.5259 6.96015L10.7259 6.963C10.7325 6.50248 10.4066 6.22426 10.1184 6.22426V6.42426ZM9.71098 6.97067C9.71098 6.58956 9.96422 6.42426 10.1184 6.42426V6.22426C9.8391 6.22426 9.51098 6.49436 9.51098 6.97067H9.71098ZM10.1184 7.51708C9.97051 7.51708 9.71098 7.34758 9.71098 6.97067H9.51098C9.51098 7.44354 9.84609 7.71708 10.1184 7.71708V7.51708ZM10.5258 6.97067C10.5258 7.35389 10.2757 7.51708 10.1184 7.51708V7.71708C10.4012 7.71708 10.7258 7.4487 10.7258 6.97067H10.5258ZM10.5258 6.96612V6.97067H10.7258V6.96612H10.5258ZM5.88937 5.78789C6.46611 5.78789 6.94256 6.31292 6.93318 6.96924L7.13316 6.9721C7.14384 6.22443 6.59689 5.58789 5.88937 5.58789V5.78789ZM4.84557 6.97067C4.84557 6.30736 5.31831 5.78789 5.88937 5.78789V5.58789C5.1862 5.58789 4.64557 6.21989 4.64557 6.97067H4.84557ZM5.88937 8.15345C5.32781 8.15345 4.84557 7.63337 4.84557 6.97067H4.64557C4.64557 7.72205 5.19677 8.35345 5.88937 8.35345V8.15345ZM6.93317 6.97067C6.93317 7.63397 6.46043 8.15345 5.88937 8.15345V8.35345C6.59254 8.35345 7.13317 7.72145 7.13317 6.97067H6.93317ZM10.1184 5.78789C10.6952 5.78789 11.1716 6.31292 11.1622 6.96924L11.3622 6.9721C11.3729 6.22443 10.8259 5.58789 10.1184 5.58789V5.78789ZM9.07461 6.97067C9.07461 6.30736 9.54735 5.78789 10.1184 5.78789V5.58789C9.41524 5.58789 8.87461 6.21989 8.87461 6.97067H9.07461ZM10.1184 8.15345C9.55685 8.15345 9.07461 7.63337 9.07461 6.97067H8.87461C8.87461 7.72205 9.42581 8.35345 10.1184 8.35345V8.15345ZM11.1622 6.97067C11.1622 7.63428 10.6942 8.15345 10.1184 8.15345V8.35345C10.8269 8.35345 11.3622 7.72115 11.3622 6.97067H11.1622Z" fill="#676767" mask="url(#path-1-outside-1_2342_3214)"/>
</svg>
