<svg width="16" height="13" viewBox="0 0 16 13" fill="none" xmlns="http://www.w3.org/2000/svg">
<path d="M5.78252 10.7787C5.56392 11.2146 5.30953 11.6279 5.02548 12.0187L5.02025 12.0259L5.01476 12.0329C4.88658 12.1966 4.65733 12.291 4.42349 12.2184L4.4225 12.2181C3.23651 11.8468 2.02536 11.2856 0.778783 10.3638L0.769353 10.3568L0.769437 10.3567C0.65841 10.2705 0.574494 10.1353 0.559937 9.97427M5.78252 10.7787L10.0953 0.509553C10.0931 0.509138 10.091 0.508737 10.0888 0.508349M5.78252 10.7787C5.7827 10.7784 5.78288 10.778 5.78305 10.7777L5.49564 10.6336L5.78252 10.7787ZM0.559937 9.97427C0.5598 9.97274 0.559669 9.97122 0.559544 9.9697L1.05787 9.92883L0.560008 9.97502C0.559985 9.97477 0.559961 9.97452 0.559937 9.97427ZM0.559937 9.97427C0.306468 7.24039 0.826754 4.46364 2.70726 1.63354C2.76524 1.54422 2.84641 1.47696 2.93718 1.43569C3.86824 1.0056 4.86592 0.688989 5.90901 0.508104L5.91805 0.506538L5.91806 0.506621C6.13688 0.472794 6.35831 0.574792 6.47256 0.771358L6.47642 0.777997L6.47637 0.778026C6.54929 0.908039 6.62831 1.05887 6.70211 1.21073C7.56051 1.10906 8.42786 1.10941 9.29827 1.21134C9.36921 1.06205 9.44594 0.910636 9.51955 0.778821C9.57439 0.680383 9.65851 0.601399 9.76027 0.552869C9.86223 0.504249 9.97707 0.488524 10.0888 0.508349M10.0888 0.508349C11.1316 0.689748 12.1286 1.00614 13.0584 1.43539M10.0888 0.508349C10.0884 0.508279 10.088 0.50821 10.0876 0.50814L13.0584 1.43539M13.0584 1.43539C13.1466 1.47532 13.2316 1.5427 13.2919 1.63911C14.9278 4.06636 15.7407 6.81797 15.4375 9.97695C15.4375 9.97702 15.4374 9.97708 15.4374 9.97715L14.9397 9.92936C14.9385 9.94223 14.9318 9.95404 14.9214 9.96177L13.0584 1.43539ZM6.43651 6.90013L6.43646 6.90013V6.90721C6.43646 7.47467 6.04589 7.82769 5.67823 7.82769C5.31912 7.82769 4.92014 7.47171 4.92014 6.90721C4.92014 6.33948 5.31081 5.98654 5.67823 5.98654C6.05467 5.98654 6.44435 6.34764 6.43651 6.90013ZM11.0883 6.90013L11.0883 6.90013V6.90721C11.0883 7.47625 10.7019 7.82769 10.3302 7.82769C9.97091 7.82769 9.57198 7.47167 9.57198 6.90721C9.57198 6.33953 9.9626 5.98654 10.3302 5.98654C10.7065 5.98654 11.0962 6.34759 11.0883 6.90013Z" stroke="#6F7383"/>
</svg>
