<svg width="22" height="12" viewBox="0 0 22 12" fill="none" xmlns="http://www.w3.org/2000/svg">
<path id="Vector" d="M21.7076 1.70806L11.7076 11.7081C11.6147 11.801 11.5044 11.8748 11.383 11.9251C11.2616 11.9754 11.1315 12.0013 11.0001 12.0013C10.8687 12.0013 10.7385 11.9754 10.6171 11.9251C10.4957 11.8748 10.3854 11.801 10.2926 11.7081L0.292568 1.70806C0.104927 1.52042 -0.000488281 1.26592 -0.000488281 1.00056C-0.000488281 0.735192 0.104927 0.480696 0.292568 0.293056C0.480208 0.105415 0.734704 0 1.00007 0C1.26543 0 1.51993 0.105415 1.70757 0.293056L11.0001 9.58681L20.2926 0.293056C20.3855 0.200145 20.4958 0.126445 20.6172 0.0761623C20.7386 0.0258797 20.8687 0 21.0001 0C21.1315 0 21.2616 0.0258797 21.383 0.0761623C21.5044 0.126445 21.6147 0.200145 21.7076 0.293056C21.8005 0.385966 21.8742 0.496267 21.9245 0.61766C21.9747 0.739053 22.0006 0.869161 22.0006 1.00056C22.0006 1.13195 21.9747 1.26206 21.9245 1.38345C21.8742 1.50485 21.8005 1.61515 21.7076 1.70806Z" fill="#1C1C1C"/>
</svg>
