<svg width="16" height="9" viewBox="0 0 16 9" fill="none" xmlns="http://www.w3.org/2000/svg">
<path d="M15.1928 1.2809L8.45254 8.78006C8.38994 8.84978 8.3156 8.9051 8.23378 8.94284C8.15195 8.98058 8.06425 9 7.97567 9C7.88709 9 7.79938 8.98058 7.71756 8.94284C7.63573 8.9051 7.5614 8.84978 7.4988 8.78006L0.758562 1.2809C0.632088 1.14018 0.561035 0.949334 0.561035 0.750333C0.561035 0.551332 0.632088 0.360482 0.758562 0.219767C0.885036 0.0790523 1.05657 0 1.23543 0C1.41429 0 1.58583 0.0790523 1.71231 0.219767L7.97567 7.1893L14.239 0.219767C14.3017 0.150092 14.376 0.0948231 14.4578 0.0571154C14.5396 0.0194076 14.6273 0 14.7159 0C14.8045 0 14.8922 0.0194076 14.974 0.0571154C15.0558 0.0948231 15.1302 0.150092 15.1928 0.219767C15.2554 0.289442 15.3051 0.372158 15.339 0.463193C15.3729 0.554227 15.3903 0.651798 15.3903 0.750333C15.3903 0.848868 15.3729 0.946439 15.339 1.03747C15.3051 1.12851 15.2554 1.21122 15.1928 1.2809Z" fill="white"/>
</svg>
