<svg width="16" height="9" viewBox="0 0 16 9" fill="none" xmlns="http://www.w3.org/2000/svg">
<path id="Vector" d="M15.1923 1.2809L8.45205 8.78006C8.38945 8.84978 8.31512 8.9051 8.23329 8.94284C8.15147 8.98058 8.06376 9 7.97518 9C7.8866 9 7.79889 8.98058 7.71707 8.94284C7.63524 8.9051 7.56091 8.84978 7.49831 8.78006L0.758074 1.2809C0.631599 1.14018 0.560547 0.949334 0.560547 0.750333C0.560547 0.551332 0.631599 0.360482 0.758074 0.219767C0.884548 0.0790523 1.05608 0 1.23495 0C1.41381 0 1.58534 0.0790523 1.71182 0.219767L7.97518 7.1893L14.2385 0.219767C14.3012 0.150092 14.3755 0.0948231 14.4573 0.0571154C14.5392 0.0194076 14.6269 0 14.7154 0C14.804 0 14.8917 0.0194076 14.9735 0.0571154C15.0553 0.0948231 15.1297 0.150092 15.1923 0.219767C15.2549 0.289442 15.3046 0.372158 15.3385 0.463193C15.3724 0.554227 15.3898 0.651798 15.3898 0.750333C15.3898 0.848868 15.3724 0.946439 15.3385 1.03747C15.3046 1.12851 15.2549 1.21122 15.1923 1.2809Z" fill="#1C1C1C"/>
</svg>
