<svg width="32" height="32" viewBox="0 0 32 32" fill="none" xmlns="http://www.w3.org/2000/svg">
<g id="arcticons:ai-chat-open-assistant-chatbot">
<path id="Vector" d="M15.9999 29.6663C19.5478 29.6663 22.4239 23.5476 22.4239 15.9997C22.4239 8.45178 19.5478 2.33301 15.9999 2.33301C12.452 2.33301 9.57593 8.45178 9.57593 15.9997C9.57593 23.5476 12.452 29.6663 15.9999 29.6663Z" stroke="#63B8FF" stroke-width="1.5" stroke-linecap="round" stroke-linejoin="round"/>
<path id="Vector_2" d="M19.2119 10.4367C25.7486 14.21 29.6099 19.7607 27.8359 22.8334C26.0619 25.906 19.3246 25.3374 12.7879 21.5634C6.25128 17.7894 2.39061 12.24 4.16461 9.16671C4.87394 7.93804 6.37661 7.29204 8.34261 7.20004C11.2939 7.06138 15.2893 8.17138 19.2119 10.4367Z" stroke="#63B8FF" stroke-width="1.5" stroke-linecap="round" stroke-linejoin="round"/>
<path id="Vector_3" d="M13.6199 14.1677H18.3799M12.8759 16.0003H19.1239M14.6273 17.833H17.3726M19.2119 21.5637C12.6753 25.3377 5.93861 25.9063 4.16461 22.8337C2.39061 19.761 6.25128 14.211 12.7879 10.437C16.5626 8.25699 20.4039 7.14699 23.3179 7.18966C25.4499 7.22033 27.0859 7.86833 27.8359 9.16699C29.6093 12.2397 25.7493 17.7897 19.2119 21.5637Z" stroke="#63B8FF" stroke-width="1.5" stroke-linecap="round" stroke-linejoin="round"/>
</g>
</svg>
