<svg width="138" height="25" viewBox="0 0 138 25" fill="none" xmlns="http://www.w3.org/2000/svg">
<circle cx="12" cy="12.5" r="12" fill="white"/>
<path fill-rule="evenodd" clip-rule="evenodd" d="M6.81616 5.1084H14.3037C15.9622 5.1084 17.2802 6.4471 17.2802 8.06238V17.0344C17.2802 18.6804 15.9313 19.9884 14.3037 19.9884H9.70023C8.10335 19.9884 6.81616 18.711 6.81616 17.1262C6.81616 15.5414 8.10335 14.2639 9.70023 14.2639H13.1759V16.2822H9.70023C9.2265 16.2822 8.8498 16.656 8.8498 17.1262C8.8498 17.5963 9.2265 17.9701 9.70023 17.9701H14.3037C14.8206 17.9701 15.2465 17.5534 15.2465 17.0344V8.06238C15.2465 7.54933 14.8266 7.12665 14.3037 7.12665H8.8498V10.3192C8.8498 10.8322 9.26971 11.2549 9.79267 11.2549H13.1759V13.2731H9.79267C8.13409 13.2731 6.81616 11.9344 6.81616 10.3192V5.1084Z" fill="black"/>
<path d="M110.917 18.8193C110.917 19.1965 110.793 19.5157 110.546 19.7768C110.299 20.0235 109.987 20.1468 109.609 20.1468C109.231 20.1468 108.918 20.0235 108.671 19.7768C108.424 19.5157 108.301 19.1965 108.301 18.8193V9.83166C108.301 9.45445 108.424 9.14253 108.671 8.8959C108.918 8.63476 109.231 8.50418 109.609 8.50418C109.987 8.50418 110.299 8.63476 110.546 8.8959C110.793 9.14253 110.917 9.45445 110.917 9.83166V18.8193ZM109.587 7.08966C109.093 7.08966 108.744 7.00987 108.541 6.85028C108.337 6.6907 108.235 6.40779 108.235 6.00157V5.58809C108.235 5.16736 108.344 4.88446 108.562 4.73938C108.795 4.57979 109.144 4.5 109.609 4.5C110.118 4.5 110.474 4.57979 110.677 4.73938C110.881 4.89897 110.982 5.18187 110.982 5.58809V6.00157C110.982 6.4223 110.873 6.71246 110.655 6.87204C110.437 7.01712 110.081 7.08966 109.587 7.08966Z" fill="#4682B4"/>
<path d="M97.8018 20.1474C97.3948 20.1474 97.0605 20.024 96.7989 19.7774C96.5518 19.5163 96.4282 19.1971 96.4282 18.8199V6.24154C96.4282 5.86433 96.5518 5.55241 96.7989 5.30578C97.0605 5.04463 97.3803 4.91406 97.7582 4.91406H104.844C105.222 4.91406 105.534 5.03738 105.781 5.28401C106.043 5.51614 106.174 5.82081 106.174 6.19801C106.174 6.51719 106.043 6.80009 105.781 7.04672C105.534 7.29336 105.222 7.41668 104.844 7.41668H98.9573L99.1535 7.15553V11.5297L99.0009 11.2468H103.863C104.241 11.2468 104.553 11.3701 104.8 11.6167C105.062 11.8488 105.193 12.1535 105.193 12.5307C105.193 12.8499 105.062 13.1328 104.8 13.3794C104.553 13.6261 104.241 13.7494 103.863 13.7494H98.9573L99.1535 13.5535V18.8199C99.1535 19.1971 99.0154 19.5163 98.7393 19.7774C98.4776 20.024 98.1651 20.1474 97.8018 20.1474Z" fill="#4682B4"/>
<path d="M87.1437 8.28711C87.7542 8.28711 88.3138 8.38141 88.8225 8.57001C89.3312 8.75862 89.7673 8.998 90.1306 9.28816C90.5085 9.57831 90.7992 9.87573 91.0027 10.1804C91.2207 10.4705 91.3297 10.7172 91.3297 10.9203L90.7629 11.2032V9.61458C90.7629 9.23738 90.8864 8.92546 91.1335 8.67882C91.3806 8.41768 91.6931 8.28711 92.071 8.28711C92.4489 8.28711 92.7614 8.41043 93.0085 8.65706C93.2556 8.9037 93.3792 9.22287 93.3792 9.61458V19.2986C93.3792 20.5608 93.103 21.5691 92.5507 22.3235C92.0129 23.0924 91.3007 23.6437 90.4141 23.9774C89.5274 24.3256 88.5754 24.4997 87.558 24.4997C87.2673 24.4997 86.8893 24.4634 86.4242 24.3909C85.9591 24.3184 85.5158 24.2313 85.0943 24.1297C84.6728 24.0282 84.353 23.9339 84.135 23.8468C83.6989 23.6582 83.3937 23.4189 83.2193 23.1287C83.0594 22.8531 83.0303 22.5556 83.1321 22.2365C83.2629 21.8157 83.4737 21.5256 83.7644 21.366C84.0551 21.2209 84.3603 21.2064 84.6801 21.3225C84.8254 21.366 85.0652 21.453 85.3995 21.5836C85.7338 21.7142 86.0972 21.8302 86.4896 21.9318C86.8966 22.0479 87.2527 22.1059 87.558 22.1059C88.6481 22.1059 89.4547 21.8883 89.978 21.453C90.5013 21.0178 90.7629 20.4157 90.7629 19.6468V17.7535L91.0245 17.9494C91.0245 18.138 90.9228 18.3701 90.7193 18.6458C90.5303 18.9069 90.2614 19.168 89.9126 19.4292C89.5783 19.6903 89.1786 19.9152 88.7135 20.1038C88.2484 20.2779 87.7542 20.3649 87.2309 20.3649C86.1989 20.3649 85.2687 20.1111 84.4402 19.6033C83.6117 19.081 82.9577 18.3701 82.478 17.4706C81.9984 16.5566 81.7585 15.512 81.7585 14.3369C81.7585 13.1473 81.9984 12.1027 82.478 11.2032C82.9577 10.2892 83.6045 9.57831 84.4184 9.07054C85.2324 8.54825 86.1408 8.28711 87.1437 8.28711ZM87.558 10.6809C86.9039 10.6809 86.3298 10.8405 85.8356 11.1597C85.3414 11.4788 84.9562 11.9141 84.6801 12.4654C84.4039 13.0167 84.2658 13.6405 84.2658 14.3369C84.2658 15.0188 84.4039 15.6354 84.6801 16.1867C84.9562 16.738 85.3414 17.1732 85.8356 17.4924C86.3298 17.8116 86.9039 17.9711 87.558 17.9711C88.2266 17.9711 88.808 17.8116 89.3021 17.4924C89.7963 17.1732 90.1815 16.738 90.4577 16.1867C90.7338 15.6354 90.8719 15.0188 90.8719 14.3369C90.8719 13.6405 90.7338 13.0167 90.4577 12.4654C90.1815 11.9141 89.7963 11.4788 89.3021 11.1597C88.808 10.8405 88.2266 10.6809 87.558 10.6809Z" fill="white"/>
<path d="M78.4861 8.50391C78.864 8.50391 79.1765 8.63448 79.4236 8.89562C79.6707 9.14226 79.7942 9.45418 79.7942 9.83138V19.0802C79.7942 20.4149 79.5398 21.474 79.0311 22.2574C78.5369 23.0553 77.8683 23.6284 77.0253 23.9766C76.1823 24.3248 75.2375 24.4989 74.191 24.4989C73.7259 24.4989 73.2317 24.4626 72.7085 24.3901C72.1852 24.3175 71.7564 24.2087 71.4221 24.0636C70.9861 23.875 70.6809 23.6357 70.5064 23.3455C70.3466 23.0698 70.3175 22.7724 70.4192 22.4533C70.55 22.0325 70.7608 21.7424 71.0515 21.5828C71.3422 21.4377 71.6474 21.4232 71.9672 21.5393C72.1997 21.6118 72.505 21.7206 72.8829 21.8657C73.2608 22.0253 73.6968 22.1051 74.191 22.1051C74.8596 22.1051 75.412 22.0108 75.848 21.8222C76.2986 21.6481 76.6329 21.3434 76.8509 20.9082C77.0835 20.4874 77.1997 19.9071 77.1997 19.1672V17.7092L77.6576 18.2315C77.4105 18.7102 77.098 19.1092 76.7201 19.4284C76.3567 19.733 75.9207 19.9652 75.412 20.1247C74.9032 20.2843 74.3218 20.3641 73.6678 20.3641C72.8974 20.3641 72.2216 20.19 71.6402 19.8418C71.0733 19.4791 70.63 18.9859 70.3102 18.362C69.9904 17.7237 69.8306 16.9983 69.8306 16.1858V9.83138C69.8306 9.45418 69.9541 9.14226 70.2012 8.89562C70.4483 8.63448 70.7608 8.50391 71.1387 8.50391C71.5166 8.50391 71.8291 8.63448 72.0762 8.89562C72.3233 9.14226 72.4468 9.45418 72.4468 9.83138V15.4024C72.4468 16.3454 72.6503 17.0128 73.0573 17.4045C73.4788 17.7817 74.0602 17.9703 74.8015 17.9703C75.3102 17.9703 75.739 17.876 76.0878 17.6874C76.4367 17.4843 76.7056 17.1941 76.8945 16.8169C77.0835 16.4252 77.1779 15.9537 77.1779 15.4024V9.83138C77.1779 9.45418 77.3015 9.14226 77.5486 8.89562C77.7957 8.63448 78.1082 8.50391 78.4861 8.50391Z" fill="white"/>
<path d="M61.0373 8.72219H66.2045C66.5533 8.72219 66.844 8.83825 67.0766 9.07038C67.3091 9.3025 67.4254 9.59266 67.4254 9.94085C67.4254 10.2745 67.3091 10.5574 67.0766 10.7896C66.844 11.0072 66.5533 11.116 66.2045 11.116H61.0373C60.6885 11.116 60.3978 10.9999 60.1652 10.7678C59.9327 10.5357 59.8164 10.2455 59.8164 9.89733C59.8164 9.56364 59.9327 9.288 60.1652 9.07038C60.3978 8.83825 60.6885 8.72219 61.0373 8.72219ZM63.3702 6.00195C63.7481 6.00195 64.0533 6.13252 64.2859 6.39367C64.533 6.6403 64.6565 6.95222 64.6565 7.32943V17.0135C64.6565 17.2166 64.6929 17.3834 64.7655 17.514C64.8527 17.6446 64.9617 17.7389 65.0926 17.7969C65.2379 17.8549 65.3905 17.8839 65.5504 17.8839C65.7248 17.8839 65.8847 17.8549 66.0301 17.7969C66.1754 17.7243 66.3426 17.6881 66.5315 17.6881C66.735 17.6881 66.9167 17.7824 67.0766 17.971C67.251 18.1596 67.3382 18.4207 67.3382 18.7544C67.3382 19.1606 67.1129 19.4943 66.6623 19.7555C66.2263 20.0166 65.7539 20.1472 65.2452 20.1472C64.9399 20.1472 64.5984 20.1254 64.2205 20.0819C63.8571 20.0238 63.5083 19.9005 63.174 19.7119C62.8542 19.5088 62.5853 19.2042 62.3673 18.7979C62.1493 18.3917 62.0402 17.8332 62.0402 17.1223V7.32943C62.0402 6.95222 62.1638 6.6403 62.4109 6.39367C62.6725 6.13252 62.9923 6.00195 63.3702 6.00195Z" fill="white"/>
<path d="M53.5368 20.3649C52.3013 20.3649 51.2257 20.1111 50.3101 19.6033C49.4089 19.081 48.7112 18.3774 48.217 17.4924C47.7374 16.6074 47.4976 15.6063 47.4976 14.4892C47.4976 13.1835 47.7592 12.0737 48.2824 11.1597C48.8202 10.2312 49.5179 9.52028 50.3755 9.02701C51.233 8.53374 52.1414 8.28711 53.1007 8.28711C53.842 8.28711 54.5397 8.43944 55.1938 8.74411C55.8624 9.04877 56.451 9.4695 56.9597 10.0063C57.4685 10.5286 57.8682 11.1379 58.1589 11.8343C58.4641 12.5307 58.6167 13.2706 58.6167 14.054C58.6022 14.4022 58.4641 14.6851 58.2025 14.9027C57.9409 15.1203 57.6356 15.2291 57.2868 15.2291H48.9583L48.3042 13.053H56.3057L55.826 13.4882V12.9006C55.797 12.4799 55.6443 12.1027 55.3682 11.769C55.1066 11.4353 54.7723 11.1742 54.3653 10.9856C53.9728 10.7825 53.5513 10.6809 53.1007 10.6809C52.6647 10.6809 52.2577 10.7389 51.8798 10.855C51.5019 10.9711 51.1749 11.1669 50.8987 11.4426C50.6226 11.7182 50.4045 12.0882 50.2446 12.5524C50.0848 13.0167 50.0048 13.6043 50.0048 14.3151C50.0048 15.0986 50.1647 15.7659 50.4845 16.3172C50.8188 16.854 51.2403 17.2675 51.749 17.5577C52.2723 17.8333 52.8246 17.9711 53.406 17.9711C53.9438 17.9711 54.3725 17.9276 54.6923 17.8406C55.0121 17.7535 55.2664 17.652 55.4554 17.5359C55.6589 17.4053 55.8406 17.2965 56.0004 17.2095C56.2621 17.0789 56.5092 17.0136 56.7417 17.0136C57.0615 17.0136 57.3231 17.1224 57.5266 17.34C57.7446 17.5577 57.8536 17.8116 57.8536 18.1017C57.8536 18.4934 57.6502 18.8489 57.2432 19.168C56.8653 19.4872 56.3348 19.7701 55.6516 20.0168C54.9685 20.2489 54.2635 20.3649 53.5368 20.3649Z" fill="white"/>
<path d="M40.8241 4.91406C42.2195 4.91406 43.2587 5.24049 43.9418 5.89335C44.625 6.5462 44.9665 7.51098 44.9665 8.78767C44.9665 9.46955 44.7994 10.0716 44.4651 10.5939C44.1308 11.1017 43.6366 11.5007 42.9825 11.7908C42.3285 12.0665 41.5218 12.2043 40.5625 12.2043L40.6497 11.225C41.1003 11.225 41.6163 11.2903 42.1977 11.4209C42.7791 11.5369 43.3386 11.7545 43.8764 12.0737C44.4288 12.3784 44.8793 12.8136 45.2282 13.3794C45.5915 13.9307 45.7732 14.6416 45.7732 15.5121C45.7732 16.4696 45.6133 17.253 45.2936 17.8624C44.9883 18.4717 44.5814 18.9432 44.0727 19.2769C43.5639 19.6106 43.0189 19.8427 42.4375 19.9733C41.8561 20.0893 41.2965 20.1474 40.7587 20.1474H35.3299C34.952 20.1474 34.6323 20.024 34.3706 19.7774C34.1235 19.5163 34 19.1971 34 18.8199V6.24154C34 5.86433 34.1235 5.55241 34.3706 5.30578C34.6323 5.04463 34.952 4.91406 35.3299 4.91406H40.8241ZM40.4317 7.48196H36.5509L36.8343 7.13377V11.0727L36.5727 10.8768H40.4971C40.9186 10.8768 41.2965 10.739 41.6308 10.4633C41.9651 10.1877 42.1323 9.78872 42.1323 9.26644C42.1323 8.6426 41.9724 8.19285 41.6526 7.9172C41.3474 7.62704 40.9404 7.48196 40.4317 7.48196ZM40.6061 13.4447H36.6381L36.8343 13.2706V17.8624L36.6163 17.6448H40.7587C41.4273 17.6448 41.9578 17.4707 42.3503 17.1225C42.7427 16.7598 42.9389 16.223 42.9389 15.5121C42.9389 14.8592 42.8081 14.3877 42.5465 14.0976C42.2849 13.8074 41.9724 13.6261 41.609 13.5535C41.2456 13.481 40.9113 13.4447 40.6061 13.4447Z" fill="white"/>
</svg>
