<svg width="32" height="32" viewBox="0 0 32 32" fill="none" xmlns="http://www.w3.org/2000/svg">
<path d="M28 16V6C28 5.46957 27.7893 4.96086 27.4142 4.58579C27.0391 4.21071 26.5304 4 26 4H6C5.46957 4 4.96086 4.21071 4.58579 4.58579C4.21071 4.96086 4 5.46957 4 6V26C4 26.5304 4.21071 27.0391 4.58579 27.4142C4.96086 27.7893 5.46957 28 6 28H16" stroke="#63B8FF" stroke-width="2" stroke-linecap="round" stroke-linejoin="round"/>
<path d="M21.3333 25.333C23.5424 25.333 25.3333 23.5421 25.3333 21.333C25.3333 19.1239 23.5424 17.333 21.3333 17.333C19.1241 17.333 17.3333 19.1239 17.3333 21.333C17.3333 23.5421 19.1241 25.333 21.3333 25.333Z" stroke="#63B8FF" stroke-width="2"/>
<path d="M24.6666 24.0003L27.9999 26.667M9.33325 10.667H22.6666M9.33325 16.0003H14.6666" stroke="#63B8FF" stroke-width="2" stroke-linecap="round" stroke-linejoin="round"/>
</svg>
