<svg width="24" height="24" viewBox="0 0 24 24" fill="none" xmlns="http://www.w3.org/2000/svg">
<g id="majesticons:analytics-line" clip-path="url(#clip0_5322_4173)">
<path id="Vector" d="M6.66671 17.333V10.6663M12 17.333V6.66634M17.3334 17.333V14.6663M20 1.33301H4.00004C3.2928 1.33301 2.61452 1.61396 2.11442 2.11406C1.61433 2.61415 1.33337 3.29243 1.33337 3.99967V19.9997C1.33337 20.7069 1.61433 21.3852 2.11442 21.8853C2.61452 22.3854 3.2928 22.6663 4.00004 22.6663H20C20.7073 22.6663 21.3856 22.3854 21.8857 21.8853C22.3858 21.3852 22.6667 20.7069 22.6667 19.9997V3.99967C22.6667 3.29243 22.3858 2.61415 21.8857 2.11406C21.3856 1.61396 20.7073 1.33301 20 1.33301Z" stroke="#63B8FF" stroke-width="2" stroke-linecap="round" stroke-linejoin="round"/>
</g>
<defs>
<clipPath id="clip0_5322_4173">
<rect width="24" height="24" fill="white"/>
</clipPath>
</defs>
</svg>
