<svg width="32" height="32" viewBox="0 0 32 32" fill="none" xmlns="http://www.w3.org/2000/svg">
<path d="M18.8933 27.8536C24.472 27.4842 28.9146 22.9776 29.28 17.3202C29.3506 16.2136 29.3506 15.0669 29.28 13.9602C28.9146 8.30424 24.472 3.80024 18.8933 3.42824C16.9665 3.30126 15.0334 3.30126 13.1066 3.42824C7.52796 3.79891 3.0853 8.30424 2.71996 13.9616C2.64933 15.0805 2.64933 16.2027 2.71996 17.3216C2.8533 19.3816 3.76396 21.2896 4.8373 22.9002C5.45996 24.0269 5.0493 25.4336 4.39996 26.6642C3.9333 27.5509 3.69863 27.9936 3.88663 28.3136C4.0733 28.6336 4.4933 28.6442 5.33196 28.6642C6.99196 28.7042 8.11063 28.2349 8.99863 27.5802C9.5013 27.2082 9.7533 27.0229 9.92663 27.0016C10.1 26.9802 10.4426 27.1216 11.1253 27.4016C11.7386 27.6549 12.452 27.8109 13.1053 27.8549C15.0053 27.9802 16.9906 27.9802 18.8946 27.8549" stroke="#63B8FF" stroke-width="1.5" stroke-linecap="round" stroke-linejoin="round"/>
<path d="M13.9826 9.33532V11.974M9.33325 14.002H12.0693M20.0306 14.002H22.7666M20.0306 17.9673H22.7666M9.33325 17.9673H12.0693M13.9826 20.0273V22.6673M18.0159 20.0273V22.6673M18.0039 9.33398V11.974M13.4039 19.9593H18.6986C19.0522 19.9593 19.3913 19.8188 19.6414 19.5688C19.8914 19.3187 20.0319 18.9796 20.0319 18.626V13.3073C20.0319 12.9537 19.8914 12.6146 19.6414 12.3645C19.3913 12.1145 19.0522 11.974 18.6986 11.974H13.4039C13.0503 11.974 12.7112 12.1145 12.4611 12.3645C12.2111 12.6146 12.0706 12.9537 12.0706 13.3073V18.626C12.0706 18.9796 12.2111 19.3187 12.4611 19.5688C12.7112 19.8188 13.0503 19.9593 13.4039 19.9593Z" stroke="#63B8FF" stroke-width="1.5" stroke-linecap="round" stroke-linejoin="round"/>
</svg>
