<svg width="28" height="28" viewBox="0 0 28 28" fill="none" xmlns="http://www.w3.org/2000/svg">
<g clip-path="url(#clip0_5322_4177)">
<path d="M10.04 6.96973H3.04004C2.50961 6.96973 2.0009 7.18044 1.62583 7.55551C1.25075 7.93059 1.04004 8.43929 1.04004 8.96973V24.9697C1.04004 25.5002 1.25075 26.0089 1.62583 26.3839C2.0009 26.759 2.50961 26.9697 3.04004 26.9697H21.04C21.5705 26.9697 22.0792 26.759 22.4543 26.3839C22.8293 26.0089 23.04 25.5002 23.04 24.9697V16.9697M1.04004 11.9697H14.04" stroke="#63B8FF" stroke-width="1.5" stroke-linecap="round" stroke-linejoin="round"/>
<path d="M6.04004 21.9698L9.04004 18.9698L6.04004 15.9698M12.04 21.9698H15.04M14.792 7.89783C14.092 7.77583 14.092 6.76783 14.792 6.64583C16.0354 6.42986 17.1862 5.84844 18.0977 4.97574C19.0093 4.10303 19.6402 2.97859 19.91 1.74583L19.95 1.55183C20.104 0.85783 21.09 0.85183 21.25 1.54583L21.3 1.77183C21.58 2.99912 22.2166 4.11625 23.1297 4.98276C24.0428 5.84927 25.1918 6.42649 26.432 6.64183C27.136 6.76383 27.136 7.77783 26.432 7.90183C25.1918 8.11717 24.0428 8.69439 23.1297 9.5609C22.2166 10.4274 21.58 11.5445 21.3 12.7718L21.248 12.9958C21.09 13.6878 20.104 13.6838 19.952 12.9898L19.91 12.7998C19.6402 11.5671 19.0093 10.4426 18.0977 9.56992C17.1862 8.69722 16.0354 8.1158 14.792 7.89983V7.89783Z" stroke="#63B8FF" stroke-width="1.5" stroke-linecap="round" stroke-linejoin="round"/>
</g>
<defs>
<clipPath id="clip0_5322_4177">
<rect width="28" height="28" fill="white"/>
</clipPath>
</defs>
</svg>
