<svg width="32" height="32" viewBox="0 0 32 32" fill="none" xmlns="http://www.w3.org/2000/svg">
<g id="tabler:transaction-dollar">
<path id="Vector" d="M27.7333 17.3333C27.4918 16.9143 27.1409 16.5689 26.7181 16.3341C26.2954 16.0992 25.8167 15.9837 25.3333 16H22.6667C21.9594 16 21.2811 16.281 20.781 16.781C20.281 17.2811 20 17.9594 20 18.6667C20 19.3739 20.281 20.0522 20.781 20.5523C21.2811 21.0524 21.9594 21.3333 22.6667 21.3333H25.3333C26.0406 21.3333 26.7189 21.6143 27.219 22.1144C27.719 22.6145 28 23.2928 28 24C28 24.7072 27.719 25.3855 27.219 25.8856C26.7189 26.3857 26.0406 26.6667 25.3333 26.6667H22.6667C22.1833 26.6829 21.7047 26.5675 21.2819 26.3326C20.8591 26.0977 20.5082 25.7523 20.2667 25.3333M24 14.6667V28M9.33333 6.66667C9.33333 7.37391 9.05238 8.05219 8.55229 8.55229C8.05219 9.05238 7.37391 9.33333 6.66667 9.33333C5.95942 9.33333 5.28115 9.05238 4.78105 8.55229C4.28095 8.05219 4 7.37391 4 6.66667C4 5.95942 4.28095 5.28115 4.78105 4.78105C5.28115 4.28095 5.95942 4 6.66667 4C7.37391 4 8.05219 4.28095 8.55229 4.78105C9.05238 5.28115 9.33333 5.95942 9.33333 6.66667ZM9.33333 6.66667H20M9.33333 6.66667V17.3333C9.33333 18.3942 9.75476 19.4116 10.5049 20.1618C11.2551 20.9119 12.2725 21.3333 13.3333 21.3333H14.6667M20 6.66667C20 7.37391 20.281 8.05219 20.781 8.55229C21.2811 9.05238 21.9594 9.33333 22.6667 9.33333C23.3739 9.33333 24.0522 9.05238 24.5523 8.55229C25.0524 8.05219 25.3333 7.37391 25.3333 6.66667C25.3333 5.95942 25.0524 5.28115 24.5523 4.78105C24.0522 4.28095 23.3739 4 22.6667 4C21.9594 4 21.2811 4.28095 20.781 4.78105C20.281 5.28115 20 5.95942 20 6.66667Z" stroke="#63B8FF" stroke-width="2" stroke-linecap="round" stroke-linejoin="round"/>
</g>
</svg>
