<svg width="28" height="28" viewBox="0 0 28 28" fill="none" xmlns="http://www.w3.org/2000/svg">
<g id="streamline:ai-settings-spark" clip-path="url(#clip0_5322_4175)">
<path id="Vector" d="M11.8384 5.13975H10.4644C10.1264 5.14058 9.79659 5.2436 9.51819 5.43527C9.23979 5.62694 9.02584 5.8983 8.90444 6.21375L8.18444 8.07375L5.70444 9.47975L3.72844 9.17975C3.39926 9.13493 3.06419 9.18896 2.76578 9.33496C2.46737 9.48096 2.21908 9.71235 2.05244 9.99975L1.38244 11.1737C1.21105 11.4657 1.13212 11.8028 1.15604 12.1405C1.17996 12.4783 1.30561 12.8008 1.51644 13.0657L2.77244 14.6257V17.4397L1.55044 18.9997C1.33961 19.2647 1.21396 19.5872 1.19004 19.925C1.16612 20.2627 1.24505 20.5998 1.41644 20.8917L2.08644 22.0637C2.2528 22.3515 2.50097 22.5833 2.7994 22.7297C3.09784 22.8761 3.43305 22.9304 3.76244 22.8857L5.73844 22.5857L8.18444 23.9917L8.90444 25.8517C9.02616 26.1668 9.24024 26.4378 9.51862 26.6291C9.79699 26.8203 10.1267 26.9231 10.4644 26.9237H11.8724C12.2099 26.9227 12.5391 26.8198 12.8171 26.6285C13.0951 26.4372 13.3088 26.1665 13.4304 25.8517L14.1504 23.9917L16.5964 22.5837L18.5744 22.8857C18.9036 22.9306 19.2387 22.8765 19.5371 22.7305C19.8355 22.5845 20.0838 22.3531 20.2504 22.0657L20.9204 20.8917C21.0923 20.5995 21.1714 20.2621 21.1475 19.9239C21.1236 19.5858 20.9977 19.2629 20.7864 18.9977L19.5284 17.4397V15.6257M7.80044 16.0317C7.78952 16.4787 7.86812 16.9233 8.03161 17.3394C8.19511 17.7555 8.44019 18.1347 8.75244 18.4547C9.06469 18.7747 9.4378 19.029 9.84979 19.2026C10.2618 19.3762 10.7044 19.4656 11.1514 19.4656C11.5985 19.4656 12.0411 19.3762 12.4531 19.2026C12.8651 19.029 13.2382 18.7747 13.5504 18.4547C13.8627 18.1347 14.1078 17.7555 14.2713 17.3394C14.4348 16.9233 14.5134 16.4787 14.5024 16.0317C14.4811 15.1572 14.1186 14.3256 13.4925 13.7146C12.8664 13.1036 12.0263 12.7616 11.1514 12.7616C10.2766 12.7616 9.43645 13.1036 8.81034 13.7146C8.18423 14.3256 7.8218 15.1572 7.80044 16.0317ZM16.1984 7.08375C15.5864 6.97775 15.5864 6.09575 16.1984 5.98975C17.287 5.80092 18.2946 5.29195 19.0926 4.52783C19.8905 3.76371 20.4426 2.77911 20.6784 1.69975L20.7144 1.52975C20.8484 0.923747 21.7124 0.919747 21.8504 1.52575L21.8964 1.72175C22.1411 2.79543 22.6977 3.77283 23.4962 4.53114C24.2947 5.28945 25.2996 5.79482 26.3844 5.98375C27.0024 6.09175 27.0024 6.97775 26.3844 7.08375C25.2996 7.27268 24.2947 7.77805 23.4962 8.53635C22.6977 9.29466 22.1411 10.2721 21.8964 11.3457L21.8504 11.5437C21.7124 12.1497 20.8484 12.1437 20.7144 11.5377L20.6784 11.3697C20.4426 10.2913 19.8909 9.30752 19.0937 8.54384C18.2965 7.78016 17.29 7.27116 16.2024 7.08175L16.1984 7.08375Z" stroke="#63B8FF" stroke-width="1.5" stroke-linecap="round" stroke-linejoin="round"/>
</g>
<defs>
<clipPath id="clip0_5322_4175">
<rect width="28" height="28" fill="white"/>
</clipPath>
</defs>
</svg>
