<svg width="24" height="24" viewBox="0 0 24 24" fill="none" xmlns="http://www.w3.org/2000/svg">
<path d="M5.795 14.3056L4.023 12.5306L2.25 14.3056M18.205 9.72656L19.977 11.5026L21.75 9.72656" stroke="white" stroke-width="1.63" stroke-linecap="round" stroke-linejoin="round"/>
<path d="M19.9774 11.5017C19.9774 9.38173 19.1374 7.35073 17.6414 5.85173C16.9011 5.11003 16.0219 4.52159 15.0539 4.12006C14.086 3.71854 13.0484 3.51182 12.0004 3.51173C10.9824 3.51014 9.97379 3.70609 9.03044 4.08873C7.977 4.51089 7.02576 5.15298 6.24027 5.9721C5.45477 6.79122 4.8531 7.76853 4.47544 8.83873M4.02344 12.5287C4.02472 14.3833 4.67057 16.1798 5.85044 17.6107C7.02846 19.0405 8.66793 20.0151 10.4868 20.3668C12.3057 20.7185 14.1903 20.4253 15.8164 19.5377C17.4434 18.6499 18.7108 17.2237 19.4014 15.5037" stroke="white" stroke-width="1.08" stroke-linecap="round" stroke-linejoin="round"/>
<path d="M9.58008 13.9767C9.63188 14.5705 9.91423 15.1203 10.3666 15.5084C10.819 15.8964 11.4054 16.0918 12.0001 16.0527C13.9521 16.0527 14.4201 14.9297 14.4201 13.9767C14.4201 13.0237 13.6131 12.0137 12.0001 12.0137C10.3871 12.0137 9.58008 11.3757 9.58008 10.0757C9.60302 9.6254 9.7623 9.1927 10.0368 8.83497C10.3113 8.47725 10.688 8.21142 11.1171 8.07272C11.4021 7.98072 11.7021 7.94772 12.0001 7.97572C12.5956 7.9496 13.1784 8.15278 13.6286 8.54344C14.0788 8.9341 14.362 9.48249 14.4201 10.0757M12.0001 17.2627V16.2117M12.0001 6.76172V7.97172" stroke="white" stroke-width="1.08" stroke-linecap="round" stroke-linejoin="round"/>
</svg>
