<svg width="32" height="32" viewBox="0 0 32 32" fill="none" xmlns="http://www.w3.org/2000/svg">
<path d="M25.0008 16C25.5528 16 26.0055 15.5516 25.9502 15.0025C25.8684 14.1896 25.6862 13.3903 25.4083 12.6229C25.1788 11.9893 24.3767 11.8657 23.9003 12.3424L23.8421 12.4006C23.5538 12.6891 23.4753 13.1221 23.6027 13.5096C23.7623 13.9953 23.8746 14.495 23.9382 15.0018C24.007 15.55 24.4483 16 25.0008 16ZM22.7071 10.7071C23.0975 10.3166 23.0975 9.6835 22.707 9.29302C22.3165 8.90255 21.6835 8.90251 21.2929 9.29295L17.7879 12.7972C17.4868 13.0982 17.0304 13.1588 16.6144 13.0684C16.4131 13.0246 16.2072 13.0016 16 13C15.4067 13 14.8266 13.176 14.3333 13.5056C13.84 13.8353 13.4554 14.3038 13.2284 14.852C13.0013 15.4002 12.9419 16.0034 13.0577 16.5853C13.1734 17.1672 13.4591 17.7018 13.8787 18.1213C14.2982 18.5409 14.8328 18.8266 15.4147 18.9424C15.9967 19.0581 16.5999 18.9987 17.1481 18.7717C17.6962 18.5446 18.1648 18.1601 18.4944 17.6667C18.8241 17.1734 19 16.5934 19 16C18.9984 15.7928 18.9754 15.5869 18.9316 15.3857C18.8412 14.9696 18.9018 14.5132 19.2028 14.2121L22.7071 10.7071ZM16 17C15.8022 17 15.6089 16.9414 15.4444 16.8315C15.28 16.7216 15.1518 16.5654 15.0761 16.3827C15.0004 16.2 14.9806 15.9989 15.0192 15.8049C15.0578 15.611 15.1531 15.4328 15.2929 15.2929C15.4328 15.1531 15.6109 15.0578 15.8049 15.0192C15.9989 14.9807 16.2 15.0005 16.3827 15.0761C16.5654 15.1518 16.7216 15.28 16.8315 15.4445C16.9414 15.6089 17 15.8022 17 16C17 16.2652 16.8947 16.5196 16.7071 16.7071C16.5196 16.8947 16.2652 17 16 17ZM16 8.00002C16.8475 8.00019 17.6882 8.13503 18.4909 8.39821C18.8781 8.52517 19.3106 8.4464 19.5988 8.15823L19.656 8.101C20.1331 7.62391 20.0083 6.82077 19.3736 6.59189C18.1921 6.16585 16.9369 5.96509 15.6735 6.00465C13.9551 6.05846 12.2797 6.55499 10.8096 7.44617C9.33937 8.33735 8.12417 9.593 7.28158 11.0916C6.60259 12.2991 6.1841 13.6315 6.04847 15.003C5.99417 15.5521 6.44819 16 6.99992 16C7.55172 16 7.99411 15.5513 8.06341 15.0039C8.28538 13.2504 9.08311 11.6091 10.3461 10.3461C11.8458 8.84637 13.8791 8.00267 16 8.00002Z" fill="#4682B4"/>
<path d="M16 30C13.2311 30 10.5243 29.1789 8.22202 27.6406C5.91973 26.1022 4.12532 23.9157 3.06569 21.3576C2.00607 18.7994 1.72882 15.9845 2.26901 13.2687C2.80921 10.553 4.14258 8.05845 6.10051 6.10051C8.05845 4.14258 10.553 2.80921 13.2687 2.26901C15.9845 1.72882 18.7994 2.00607 21.3576 3.06569C23.9157 4.12532 26.1022 5.91973 27.6406 8.22202C29.1789 10.5243 30 13.2311 30 16C29.9958 19.7117 28.5194 23.2702 25.8948 25.8948C23.2702 28.5194 19.7117 29.9958 16 30ZM16 4.00001C13.6266 4.00001 11.3066 4.70379 9.33316 6.02237C7.35977 7.34095 5.8217 9.21509 4.91345 11.4078C4.0052 13.6005 3.76756 16.0133 4.23058 18.3411C4.69361 20.6689 5.83649 22.8071 7.51472 24.4853C9.19296 26.1635 11.3312 27.3064 13.6589 27.7694C15.9867 28.2325 18.3995 27.9948 20.5922 27.0866C22.7849 26.1783 24.6591 24.6402 25.9776 22.6668C27.2962 20.6935 28 18.3734 28 16C27.9963 12.8185 26.7308 9.76845 24.4812 7.51882C22.2316 5.26918 19.1815 4.00371 16 4.00001Z" fill="#4682B4"/>
</svg>
