<svg width="12" height="12" viewBox="0 0 12 12" fill="none" xmlns="http://www.w3.org/2000/svg">
<mask id="mask0_4761_10579" style="mask-type:alpha" maskUnits="userSpaceOnUse" x="0" y="0" width="12" height="12">
<rect width="12" height="12" fill="#D9D9D9"/>
</mask>
<g mask="url(#mask0_4761_10579)">
<path d="M5.31795 9.78125C4.94976 9.78125 4.65129 9.48277 4.65129 9.11458C4.65129 8.74639 4.94976 8.44792 5.31795 8.44792H6.65129C7.01948 8.44792 7.31795 8.74639 7.31795 9.11458C7.31795 9.48277 7.01948 9.78125 6.65129 9.78125H5.31795ZM2.65129 6.44792C2.2831 6.44792 1.98462 6.14944 1.98462 5.78125C1.98462 5.41306 2.2831 5.11458 2.65129 5.11458H9.31795C9.68614 5.11458 9.98462 5.41306 9.98462 5.78125C9.98462 6.14944 9.68614 6.44792 9.31795 6.44792H2.65129ZM0.651286 3.11458C0.283096 3.11458 -0.0153809 2.81611 -0.0153809 2.44792C-0.0153809 2.07973 0.283096 1.78125 0.651286 1.78125H11.318C11.6861 1.78125 11.9846 2.07973 11.9846 2.44792C11.9846 2.81611 11.6861 3.11458 11.318 3.11458H0.651286Z" fill="#757575"/>
</g>
</svg>
