<?xml version="1.0" standalone="no"?>
<!DOCTYPE svg PUBLIC "-//W3C//DTD SVG 20010904//EN"
 "http://www.w3.org/TR/2001/REC-SVG-20010904/DTD/svg10.dtd">
<svg version="1.0" xmlns="http://www.w3.org/2000/svg"
 width="256.000000pt" height="256.000000pt" viewBox="0 0 256.000000 256.000000"
 preserveAspectRatio="xMidYMid meet">

<g transform="translate(0.000000,256.000000) scale(0.100000,-0.100000)"
fill="#000000" stroke="none">
<path d="M1175 2554 c-141 -19 -192 -30 -275 -56 -200 -63 -369 -166 -520
-318 -152 -151 -255 -320 -318 -520 -43 -136 -56 -226 -56 -380 0 -154 13
-244 56 -380 63 -200 166 -369 318 -520 151 -152 320 -255 520 -318 136 -43
226 -56 380 -56 154 0 244 13 380 56 200 63 369 166 520 318 152 151 255 320
318 520 43 136 56 226 56 380 0 154 -13 244 -56 380 -63 200 -166 369 -318
520 -185 186 -414 308 -664 355 -81 16 -285 27 -341 19z m-225 -1274 l0 -740
-135 0 -135 0 0 740 0 740 135 0 135 0 0 -740z m755 376 c-151 -201 -275 -370
-275 -376 0 -6 124 -175 275 -376 l274 -364 -172 1 -172 0 -275 361 c-151 199
-275 369 -275 378 0 9 124 179 275 378 l275 361 172 0 172 1 -274 -364z"/>
</g>
</svg>
