<svg width="87" height="23" viewBox="0 0 87 23" fill="none" xmlns="http://www.w3.org/2000/svg">
<mask id="path-1-inside-1_417_8193" fill="white">
<path d="M80.8393 23C79.5666 23 79.3081 21.2254 79.0098 19.1748C78.8308 17.9128 78.6121 16.4537 78.115 15.1918C77.1605 12.7074 75.9077 13.3384 74.4759 14.0482C74.0186 14.2848 73.5413 14.5214 73.0442 14.6397C72.0698 14.9158 71.1352 15.8228 70.3 16.6509C69.4052 17.5185 68.6296 18.2678 68.0728 17.9523C67.695 17.7551 67.2774 17.2819 66.8002 16.7692C66.0246 15.9411 65.0502 14.8763 63.8969 14.5609C62.9424 14.2848 62.2464 15.2707 61.5504 16.2566C60.9539 17.0847 60.3374 17.9523 59.5619 17.9523H59.542C57.9313 17.9129 52.4827 11.9976 50.1561 8.17233C48.1079 4.82033 44.966 0.364145 41.148 0.600757C38.9009 0.758498 37.668 4.34711 36.4749 7.85685C35.5602 10.5384 34.6057 13.3384 33.1938 14.5214C31.5831 15.8622 28.6798 15.3101 26.3334 14.8369C24.9414 14.5609 23.7483 14.3242 23.0721 14.5214C22.2171 14.758 21.1234 15.9411 19.9501 17.203C18.6377 18.5833 17.2855 20.0424 16.1321 20.3184C13.7658 20.9099 11.8767 20.7128 8.67511 17.8734C5.45367 15.0341 0.223807 17.8734 0.184036 17.8734C0.104495 17.9128 0.0249529 17.834 0.00506748 17.6762C-0.0148179 17.5185 0.0249529 17.3608 0.104495 17.3213C0.323234 17.203 5.47356 14.4031 8.81431 17.3213C11.9562 20.0818 13.8055 20.279 16.1123 19.7269C17.2258 19.4508 18.5582 18.0312 19.8308 16.6509C21.0239 15.389 22.1375 14.1665 23.0523 13.9299C23.7681 13.7327 24.9811 13.9693 26.393 14.2454C28.6997 14.6792 31.5632 15.2313 33.0944 13.9693C34.4267 12.8651 35.3017 10.2624 36.2363 7.54137C37.4692 3.91332 38.7419 0.166969 41.148 0.00922763C45.5029 -0.266819 49.1618 5.72734 50.3549 7.69911C52.602 11.406 58.0108 17.3213 59.542 17.3213H59.5619C60.238 17.3213 60.7948 16.5326 61.3715 15.7439C62.1072 14.7186 62.8629 13.6538 63.9168 13.9693C65.1099 14.2848 66.1241 15.389 66.9195 16.2566C67.3768 16.7692 67.7746 17.1636 68.1325 17.3608C68.57 17.5974 69.3057 16.927 70.1409 16.0988C70.996 15.2707 71.9505 14.3242 72.9845 14.0482C73.4618 13.8904 73.939 13.6933 74.3964 13.4567C75.8878 12.7074 77.2798 12.037 78.3536 14.8369C78.8706 16.2171 79.0894 17.6762 79.2882 19.017C79.6064 21.1465 79.8052 22.5662 80.9984 22.4085C83.0465 22.1719 86.7055 15.9805 86.7452 15.9016C86.8049 15.7833 86.9043 15.8228 86.964 15.9411C87.0236 16.0594 87.0038 16.2566 86.9441 16.3749C86.785 16.6509 83.1659 22.7634 81.0182 23C80.9586 23 80.8989 23 80.8393 23Z"/>
</mask>
<path d="M80.8393 23C79.5666 23 79.3081 21.2254 79.0098 19.1748C78.8308 17.9128 78.6121 16.4537 78.115 15.1918C77.1605 12.7074 75.9077 13.3384 74.4759 14.0482C74.0186 14.2848 73.5413 14.5214 73.0442 14.6397C72.0698 14.9158 71.1352 15.8228 70.3 16.6509C69.4052 17.5185 68.6296 18.2678 68.0728 17.9523C67.695 17.7551 67.2774 17.2819 66.8002 16.7692C66.0246 15.9411 65.0502 14.8763 63.8969 14.5609C62.9424 14.2848 62.2464 15.2707 61.5504 16.2566C60.9539 17.0847 60.3374 17.9523 59.5619 17.9523H59.542C57.9313 17.9129 52.4827 11.9976 50.1561 8.17233C48.1079 4.82033 44.966 0.364145 41.148 0.600757C38.9009 0.758498 37.668 4.34711 36.4749 7.85685C35.5602 10.5384 34.6057 13.3384 33.1938 14.5214C31.5831 15.8622 28.6798 15.3101 26.3334 14.8369C24.9414 14.5609 23.7483 14.3242 23.0721 14.5214C22.2171 14.758 21.1234 15.9411 19.9501 17.203C18.6377 18.5833 17.2855 20.0424 16.1321 20.3184C13.7658 20.9099 11.8767 20.7128 8.67511 17.8734C5.45367 15.0341 0.223807 17.8734 0.184036 17.8734C0.104495 17.9128 0.0249529 17.834 0.00506748 17.6762C-0.0148179 17.5185 0.0249529 17.3608 0.104495 17.3213C0.323234 17.203 5.47356 14.4031 8.81431 17.3213C11.9562 20.0818 13.8055 20.279 16.1123 19.7269C17.2258 19.4508 18.5582 18.0312 19.8308 16.6509C21.0239 15.389 22.1375 14.1665 23.0523 13.9299C23.7681 13.7327 24.9811 13.9693 26.393 14.2454C28.6997 14.6792 31.5632 15.2313 33.0944 13.9693C34.4267 12.8651 35.3017 10.2624 36.2363 7.54137C37.4692 3.91332 38.7419 0.166969 41.148 0.00922763C45.5029 -0.266819 49.1618 5.72734 50.3549 7.69911C52.602 11.406 58.0108 17.3213 59.542 17.3213H59.5619C60.238 17.3213 60.7948 16.5326 61.3715 15.7439C62.1072 14.7186 62.8629 13.6538 63.9168 13.9693C65.1099 14.2848 66.1241 15.389 66.9195 16.2566C67.3768 16.7692 67.7746 17.1636 68.1325 17.3608C68.57 17.5974 69.3057 16.927 70.1409 16.0988C70.996 15.2707 71.9505 14.3242 72.9845 14.0482C73.4618 13.8904 73.939 13.6933 74.3964 13.4567C75.8878 12.7074 77.2798 12.037 78.3536 14.8369C78.8706 16.2171 79.0894 17.6762 79.2882 19.017C79.6064 21.1465 79.8052 22.5662 80.9984 22.4085C83.0465 22.1719 86.7055 15.9805 86.7452 15.9016C86.8049 15.7833 86.9043 15.8228 86.964 15.9411C87.0236 16.0594 87.0038 16.2566 86.9441 16.3749C86.785 16.6509 83.1659 22.7634 81.0182 23C80.9586 23 80.8989 23 80.8393 23Z" fill="#0A7F00"/>
<path d="M79.0098 19.1748L69.1089 20.5789L69.1114 20.5966L69.114 20.6142L79.0098 19.1748ZM78.115 15.1918L68.7802 18.7782L68.7954 18.8177L68.8109 18.8571L78.115 15.1918ZM74.4759 14.0482L70.0341 5.08885L69.9572 5.12695L69.881 5.16636L74.4759 14.0482ZM73.0442 14.6397L70.7291 4.91139L70.5226 4.96053L70.3184 5.01838L73.0442 14.6397ZM70.3 16.6509L77.2608 23.8305L77.3012 23.7914L77.3411 23.7519L70.3 16.6509ZM68.0728 17.9523L73.0026 9.25184L72.8524 9.16677L72.6994 9.08693L68.0728 17.9523ZM66.8002 16.7692L74.1195 9.95545L74.1094 9.94461L74.0993 9.93381L66.8002 16.7692ZM63.8969 14.5609L61.1187 24.1672L61.1884 24.1874L61.2585 24.2065L63.8969 14.5609ZM61.5504 16.2566L69.6644 22.1016L69.6923 22.0628L69.7198 22.0238L61.5504 16.2566ZM59.542 17.9523L59.2972 27.9493L59.4196 27.9523H59.542V17.9523ZM50.1561 8.17233L58.6999 2.9758L58.6945 2.96704L58.6892 2.95829L50.1561 8.17233ZM41.148 0.600757L40.5294 -9.3801L40.4886 -9.37756L40.4477 -9.37469L41.148 0.600757ZM36.4749 7.85685L45.9394 11.0853L45.9428 11.0754L36.4749 7.85685ZM33.1938 14.5214L39.5915 22.2071L39.604 22.1967L39.6165 22.1862L33.1938 14.5214ZM26.3334 14.8369L28.3103 5.03426L28.2944 5.03106L28.2786 5.02792L26.3334 14.8369ZM23.0721 14.5214L25.7391 24.1592L25.8056 24.1408L25.8719 24.1215L23.0721 14.5214ZM19.9501 17.203L27.1969 24.0939L27.2356 24.0532L27.2739 24.012L19.9501 17.203ZM16.1321 20.3184L13.8045 10.5931L13.7557 10.6048L13.707 10.6169L16.1321 20.3184ZM8.67511 17.8734L15.3103 10.3918L15.2988 10.3816L15.2873 10.3714L8.67511 17.8734ZM0.184036 17.8734V7.87341H-2.15881L-4.25784 8.91407L0.184036 17.8734ZM0.104495 17.3213L4.54637 26.2807L4.70553 26.2017L4.86179 26.1172L0.104495 17.3213ZM8.81431 17.3213L15.4147 9.80897L15.4039 9.79949L15.393 9.79003L8.81431 17.3213ZM16.1123 19.7269L18.4399 29.4522L18.4792 29.4428L18.5183 29.4331L16.1123 19.7269ZM19.8308 16.6509L12.5644 9.78072L12.5215 9.82616L12.4791 9.87214L19.8308 16.6509ZM23.0523 13.9299L25.5565 23.6112L25.6323 23.5916L25.7077 23.5709L23.0523 13.9299ZM26.393 14.2454L24.4741 24.0595L24.5095 24.0664L24.5449 24.0731L26.393 14.2454ZM33.0944 13.9693L39.4543 21.6862L39.4649 21.6775L39.4755 21.6688L33.0944 13.9693ZM36.2363 7.54137L45.6939 10.7899L45.6993 10.7744L45.7045 10.7589L36.2363 7.54137ZM41.148 0.00922763L40.5154 -9.97074L40.5046 -9.97006L40.4938 -9.96935L41.148 0.00922763ZM50.3549 7.69911L41.7993 12.8761L41.8034 12.8829L50.3549 7.69911ZM61.3715 15.7439L69.4438 21.6462L69.4701 21.6102L69.4961 21.5741L61.3715 15.7439ZM63.9168 13.9693L61.0491 23.5493L61.2041 23.5957L61.3605 23.6371L63.9168 13.9693ZM66.9195 16.2566L74.3815 9.59938L74.3363 9.54872L74.2904 9.49868L66.9195 16.2566ZM68.1325 17.3608L63.3075 26.1197L63.3413 26.1383L63.3752 26.1567L68.1325 17.3608ZM70.1409 16.0988L63.1839 8.91554L63.1416 8.95646L63.0999 8.99787L70.1409 16.0988ZM72.9845 14.0482L75.5638 23.7098L75.8457 23.6346L76.1228 23.543L72.9845 14.0482ZM74.3964 13.4567L69.9072 4.52096L69.8542 4.54758L69.8015 4.57483L74.3964 13.4567ZM78.3536 14.8369L87.7182 11.329L87.7045 11.2925L87.6905 11.256L78.3536 14.8369ZM79.2882 19.017L69.3964 20.4841L69.398 20.4947L79.2882 19.017ZM80.9984 22.4085L79.8508 12.4745L79.7691 12.484L79.6877 12.4947L80.9984 22.4085ZM86.7452 15.9016L77.8162 11.3991V11.3991L86.7452 15.9016ZM86.9441 16.3749L95.6083 21.368L95.7476 21.1264L95.8731 20.8774L86.9441 16.3749ZM81.0182 23V33H81.5675L82.1133 32.9399L81.0182 23ZM80.8393 13C83.1559 13 85.3569 13.9239 86.9631 15.457C88.2914 16.7249 88.7971 18.009 88.929 18.3627C89.0864 18.7849 89.1111 19.0049 89.0681 18.7779C89.0291 18.5718 88.9873 18.2968 88.9057 17.7353L69.114 20.6142C69.2058 21.2457 69.4717 23.4255 70.1893 25.3501C70.5822 26.4038 71.4097 28.2596 73.1538 29.9244C75.1757 31.8543 77.8863 33 80.8393 33V13ZM88.9107 17.7706C88.7532 16.6599 88.4134 14.0506 87.419 11.5265L68.8109 18.8571C68.7747 18.7651 68.8134 18.8395 68.8847 19.188C68.9563 19.5379 69.0192 19.9468 69.1089 20.5789L88.9107 17.7706ZM87.4497 11.6055C86.4986 9.12977 83.7946 4.13454 77.5167 3.47662C75.0828 3.22155 73.128 3.80879 72.1266 4.16937C71.1462 4.52237 70.2547 4.97947 70.0341 5.08885L78.9178 23.0075C79.4131 22.762 79.215 22.874 78.9021 22.9867C78.568 23.107 77.2546 23.5587 75.4321 23.3677C73.2862 23.1428 71.4612 22.1461 70.2093 20.871C69.1679 19.8103 68.81 18.8557 68.7802 18.7782L87.4497 11.6055ZM69.881 5.16636C69.6761 5.27236 69.6994 5.25593 69.7952 5.21436C69.9032 5.16751 70.2357 5.02882 70.7291 4.91139L75.3593 24.368C77.1962 23.9309 78.673 23.1358 79.0708 22.93L69.881 5.16636ZM70.3184 5.01838C68.0009 5.67495 66.3148 6.88234 65.4052 7.60387C64.4512 8.36063 63.6405 9.17158 63.259 9.54996L77.3411 23.7519C77.5469 23.5478 77.6693 23.4282 77.7708 23.3334C77.869 23.2416 77.8829 23.2343 77.8345 23.2727C77.7897 23.3083 77.61 23.4483 77.3097 23.6212C77.0113 23.7929 76.4907 24.0569 75.77 24.2611L70.3184 5.01838ZM63.3392 9.47131C62.6742 10.116 62.9323 9.82031 63.42 9.48726C63.7034 9.29375 64.6858 8.64117 66.2052 8.27802C67.9801 7.85377 70.5149 7.84233 73.0026 9.25184L63.1431 26.6527C68.9532 29.9448 74.045 26.4501 74.6993 26.0032C75.9376 25.1575 77.0309 24.0534 77.2608 23.8305L63.3392 9.47131ZM72.6994 9.08693C73.357 9.4301 73.8137 9.775 74.0435 9.95959C74.2846 10.1532 74.4364 10.301 74.4727 10.3366C74.5129 10.376 74.5135 10.3788 74.4396 10.3C74.3349 10.1884 74.306 10.1558 74.1195 9.95545L59.4809 23.583C59.5796 23.689 60.0482 24.2035 60.4749 24.6216C60.7224 24.8641 61.0793 25.1993 61.5199 25.5531C61.9492 25.8979 62.5998 26.3759 63.4462 26.8176L72.6994 9.08693ZM74.0993 9.93381C73.8177 9.63308 72.9615 8.69302 71.9405 7.83119C70.9275 6.9761 69.0975 5.61604 66.5353 4.91519L61.2585 24.2065C60.5174 24.0038 59.9717 23.7276 59.6373 23.5297C59.3055 23.3335 59.1034 23.168 59.04 23.1144C58.9743 23.0589 58.9747 23.053 59.0659 23.1454C59.1697 23.2504 59.271 23.3589 59.5011 23.6046L74.0993 9.93381ZM66.6751 4.95452C61.6292 3.49521 57.7626 5.8928 56.0146 7.43353C54.5723 8.7047 53.5255 10.2847 53.381 10.4893L69.7198 22.0238C69.9233 21.7355 69.9489 21.7033 69.9418 21.7124C69.9362 21.7194 69.6922 22.0379 69.2389 22.4374C68.7899 22.8331 67.8263 23.5857 66.3428 24.0724C64.7007 24.6112 62.8684 24.6732 61.1187 24.1672L66.6751 4.95452ZM53.4365 10.4116C52.9873 11.0351 53.205 10.6851 53.6095 10.2871C53.9695 9.93284 56.0338 7.95229 59.5619 7.95229V27.9523C63.8655 27.9523 66.6258 25.5379 67.6371 24.5429C68.6928 23.504 69.517 22.3062 69.6644 22.1016L53.4365 10.4116ZM59.5619 7.95229H59.542V27.9523H59.5619V7.95229ZM59.7868 7.95528C61.1042 7.98754 62.0909 8.29163 62.584 8.46914C63.1198 8.66204 63.4941 8.86055 63.6726 8.96092C64.0144 9.15307 64.1296 9.26462 63.9758 9.14139C63.6921 8.91407 63.1365 8.40804 62.385 7.613C61.666 6.85228 60.9098 5.97762 60.2259 5.11143C59.5255 4.22451 59.0067 3.48031 58.6999 2.9758L41.6123 13.3689C43.2474 16.0571 45.6771 19.052 47.85 21.351C48.9528 22.5178 50.2068 23.7371 51.4704 24.7495C52.0902 25.2462 52.9136 25.8562 53.8707 26.3943C54.5351 26.7679 56.5674 27.8825 59.2972 27.9493L59.7868 7.95528ZM58.6892 2.95829C57.5884 1.15687 55.7748 -1.66641 53.3509 -4.06591C51.0762 -6.31772 46.6776 -9.76112 40.5294 -9.3801L41.7665 10.5816C40.618 10.6528 39.7648 10.3385 39.3636 10.1356C39.0229 9.96314 39.0056 9.87542 39.2805 10.1475C39.5378 10.4023 39.8907 10.8124 40.3265 11.4133C40.7546 12.0034 41.1827 12.6658 41.623 13.3864L58.6892 2.95829ZM40.4477 -9.37469C33.7364 -8.90357 30.5661 -3.52225 29.6341 -1.8109C28.4026 0.450436 27.524 3.1175 27.007 4.63827L45.9428 11.0754C46.2505 10.1704 46.4921 9.46552 46.7323 8.83779C46.9756 8.20186 47.1302 7.87963 47.1984 7.7545C47.2961 7.57504 47.0779 8.05182 46.4016 8.6729C45.6195 9.3911 44.0712 10.4202 41.8483 10.5762L40.4477 -9.37469ZM27.0104 4.62838C26.7754 5.31736 26.5785 5.89339 26.381 6.43462C26.1847 6.97237 26.0255 7.37041 25.8931 7.66623C25.7548 7.97531 25.7044 8.0397 25.7592 7.95442C25.798 7.89393 26.105 7.41483 26.7712 6.8566L39.6165 22.1862C42.1498 20.0635 43.496 17.2937 44.1484 15.8359C44.9021 14.1519 45.5187 12.3187 45.9394 11.0853L27.0104 4.62838ZM26.7961 6.83576C27.8184 5.98482 28.8215 5.62816 29.4229 5.4828C29.722 5.41052 29.95 5.38288 30.0819 5.3716C30.1502 5.36576 30.2013 5.36358 30.2331 5.36276C30.2493 5.36234 30.2615 5.36224 30.2694 5.36224C30.2774 5.36224 30.2815 5.36234 30.2818 5.36235C30.2818 5.36235 30.2687 5.36202 30.2412 5.36019C30.2138 5.35837 30.175 5.35526 30.124 5.35006C30.0197 5.33943 29.8816 5.32191 29.7023 5.29408C29.3217 5.23502 28.8991 5.15302 28.3103 5.03426L24.3564 24.6395C25.4114 24.8523 27.5644 25.3024 29.7972 25.3565C31.8658 25.4066 35.9958 25.2002 39.5915 22.2071L26.7961 6.83576ZM28.2786 5.02792C27.6904 4.91127 26.6557 4.70051 25.6643 4.57764C24.9496 4.48905 22.7176 4.20823 20.2724 4.92133L25.8719 24.1215C25.3288 24.2799 24.8653 24.3573 24.5266 24.3975C24.1852 24.438 23.9102 24.4476 23.7251 24.4486C23.5375 24.4496 23.3988 24.4419 23.3225 24.4364C23.2822 24.4336 23.2521 24.4308 23.2334 24.4289C23.2146 24.427 23.2046 24.4258 23.2042 24.4258C23.2039 24.4257 23.211 24.4266 23.2266 24.4288C23.2421 24.4311 23.2642 24.4344 23.2936 24.4391C23.3538 24.4487 23.4341 24.4623 23.5406 24.4817C23.7674 24.523 24.0234 24.5735 24.3881 24.6459L28.2786 5.02792ZM20.4052 4.8836C17.48 5.69304 15.4718 7.55743 14.873 8.10641C13.9887 8.91707 13.1247 9.85805 12.6264 10.394L27.2739 24.012C27.5836 23.6789 27.81 23.4354 28.0204 23.2166C28.2294 22.9993 28.3414 22.8917 28.388 22.849C28.4496 22.7925 28.3114 22.9283 28.0105 23.1329C27.8494 23.2423 27.5901 23.407 27.2405 23.5832C26.8942 23.7576 26.3877 23.9797 25.7391 24.1592L20.4052 4.8836ZM12.7033 10.3122C12.3402 10.694 12.0851 10.9641 11.8291 11.2247C11.5803 11.4778 11.4335 11.616 11.3551 11.6854C11.2632 11.7667 11.3746 11.6557 11.6572 11.4756C11.8094 11.3787 12.0565 11.2325 12.392 11.0781C12.7261 10.9243 13.2021 10.7373 13.8045 10.5931L18.4598 30.0437C21.5956 29.2932 23.793 27.3852 24.6079 26.6641C25.6539 25.7387 26.6647 24.6536 27.1969 24.0939L12.7033 10.3122ZM13.707 10.6169C13.527 10.6619 13.6929 10.605 14.056 10.5918C14.4713 10.5767 14.9579 10.6241 15.4372 10.7596C15.8868 10.8867 16.1186 11.0319 16.0966 11.0183C16.0547 10.9926 15.8048 10.8304 15.3103 10.3918L2.03994 25.355C4.18982 27.2617 6.78398 29.0972 9.99642 30.0053C13.4619 30.985 16.4384 30.5495 18.5573 30.0199L13.707 10.6169ZM15.2873 10.3714C10.1473 5.84114 4.06323 6.4257 1.21003 7.01613C-0.40983 7.35134 -1.76645 7.83472 -2.68806 8.20898C-3.16323 8.40195 -3.55229 8.5781 -3.83195 8.70978C-3.97107 8.77529 -4.07993 8.82836 -4.12809 8.85181C-4.17333 8.87385 -4.12835 8.85177 -4.07765 8.82776C-4.06355 8.82108 -3.94183 8.76308 -3.78234 8.69405C-3.71616 8.66541 -3.50825 8.57572 -3.23519 8.4763C-3.105 8.4289 -2.82696 8.33024 -2.46627 8.23108C-2.33716 8.19558 -1.24278 7.87341 0.184036 7.87341V27.8734C0.737146 27.8581 1.64337 27.7664 1.99641 27.7078C2.24102 27.6596 2.66038 27.562 2.83575 27.5155C3.19706 27.4162 3.47589 27.3172 3.60702 27.2695C3.88196 27.1694 4.09238 27.0787 4.16169 27.0487C4.32744 26.9769 4.45789 26.9149 4.48315 26.903C4.53012 26.8807 4.56914 26.8618 4.58504 26.8541C4.60319 26.8453 4.62171 26.8363 4.6292 26.8326C4.6636 26.8159 4.67432 26.8107 4.6883 26.8041C4.71485 26.7916 4.76607 26.7681 4.83712 26.7393C5.00797 26.6699 5.16761 26.6209 5.26286 26.6012C5.38975 26.5749 5.13441 26.6531 4.59875 26.5776C3.96805 26.4887 2.9759 26.18 2.06296 25.3754L15.2873 10.3714ZM-4.25784 8.91407C-2.39868 7.99234 -0.074262 7.58034 2.34427 8.13072C4.6632 8.65844 6.32598 9.89712 7.37128 11.0133C9.3099 13.0835 9.79 15.3424 9.92654 16.4255L-9.91641 18.927C-9.75998 20.1678 -9.23017 22.5451 -7.22692 24.6842C-6.1493 25.8349 -4.45048 27.0958 -2.09365 27.6321C0.362793 28.1911 2.72698 27.7742 4.62591 26.8328L-4.25784 8.91407ZM9.92654 16.4255C10.0588 17.4747 10.0345 18.7252 9.66808 20.0748C9.48238 20.7587 9.1383 21.7267 8.47324 22.765C7.82215 23.7815 6.60238 25.2613 4.54637 26.2807L-4.33738 8.36198C-8.28097 10.3171 -9.37694 13.8907 -9.63309 14.8341C-10.0343 16.3118 -10.0686 17.7201 -9.91641 18.927L9.92654 16.4255ZM4.86179 26.1172C4.86196 26.1171 4.83834 26.1299 4.81596 26.1415C4.79805 26.1508 4.79065 26.1544 4.79268 26.1534C4.79857 26.1506 4.83871 26.1312 4.90312 26.1046C5.0586 26.0405 5.19808 25.9989 5.26876 25.9846C5.36392 25.9654 5.09648 26.0401 4.56483 25.9589C3.93896 25.8633 3.04255 25.5575 2.23557 24.8526L15.393 9.79003C10.3057 5.3461 4.3531 5.76559 1.30853 6.38063C-0.353308 6.71634 -1.75121 7.21455 -2.72734 7.61744C-3.22873 7.82439 -3.65294 8.0204 -3.98363 8.18189C-4.14989 8.26308 -4.29364 8.3361 -4.41265 8.398C-4.47225 8.429 -4.52451 8.45662 -4.56884 8.48028C-4.59092 8.49206 -4.6101 8.50236 -4.62588 8.51087C-4.64017 8.51857 -4.65427 8.5262 -4.6528 8.5254L4.86179 26.1172ZM2.21395 24.8337C4.33556 26.6977 6.88812 28.4878 10.0397 29.3845C13.438 30.3515 16.358 29.9505 18.4399 29.4522L13.7846 10.0016C13.6152 10.0421 13.7853 9.98702 14.1478 9.9764C14.5608 9.9643 15.0412 10.0138 15.5132 10.1481C15.9564 10.2742 16.1874 10.4171 16.1708 10.407C16.135 10.3851 15.8949 10.2309 15.4147 9.80897L2.21395 24.8337ZM18.5183 29.4331C21.5915 28.6713 23.7458 26.7977 24.5604 26.0727C25.6208 25.1289 26.5995 24.0621 27.1826 23.4297L12.4791 9.87214C12.1605 10.2176 11.9141 10.4829 11.6885 10.7156C11.4627 10.9486 11.3289 11.0749 11.2633 11.1332C11.1841 11.2038 11.2992 11.0901 11.5819 10.9087C11.7334 10.8114 11.9778 10.6657 12.3087 10.5111C12.638 10.3574 13.1088 10.1687 13.7062 10.0207L18.5183 29.4331ZM27.0972 23.5211C27.4389 23.1597 27.661 22.9224 27.8919 22.684C28.1129 22.4558 28.2274 22.3465 28.2751 22.3031C28.3372 22.2466 28.1902 22.3899 27.8736 22.6007C27.704 22.7137 27.4352 22.88 27.0749 23.0553C26.7165 23.2297 26.2048 23.4436 25.5565 23.6112L20.548 4.24853C17.5245 5.03062 15.4552 6.92792 14.8168 7.50872C13.9226 8.32214 13.0194 9.29952 12.5644 9.78072L27.0972 23.5211ZM25.7077 23.5709C25.2101 23.7079 24.7857 23.776 24.4719 23.8116C24.1561 23.8475 23.9019 23.8561 23.7298 23.857C23.4056 23.8587 23.2216 23.8331 23.2581 23.8375C23.2815 23.8403 23.3837 23.8542 23.6134 23.8953C23.8446 23.9367 24.1053 23.9874 24.4741 24.0595L28.3119 4.4312C27.7098 4.31347 26.6679 4.10442 25.6652 3.98286C24.8935 3.8893 22.7541 3.63961 20.3968 4.2889L25.7077 23.5709ZM24.5449 24.0731C25.5064 24.2539 27.6132 24.6775 29.746 24.7391C31.6539 24.7941 35.8283 24.6747 39.4543 21.6862L26.7344 6.25239C27.8336 5.34651 28.9013 4.99363 29.4956 4.85768C30.0618 4.72814 30.3909 4.74936 30.323 4.7474C30.2762 4.74605 30.0878 4.73464 29.6896 4.67458C29.2849 4.61352 28.8581 4.53365 28.2412 4.41763L24.5449 24.0731ZM39.4755 21.6688C42.0082 19.5697 43.3241 16.8361 43.9514 15.4258C44.6709 13.8081 45.276 12.0066 45.6939 10.7899L26.7786 4.29287C26.5338 5.00565 26.3374 5.57984 26.1411 6.11932C25.947 6.65291 25.7971 7.02881 25.6776 7.29756C25.5524 7.57907 25.5222 7.6018 25.604 7.47453C25.6732 7.36675 26.012 6.85109 26.7133 6.26985L39.4755 21.6688ZM45.7045 10.7589C46.0248 9.81654 46.2749 9.08441 46.5261 8.42723C46.7799 7.76332 46.9439 7.4215 47.0205 7.28189C47.1253 7.09071 46.9124 7.55866 46.2357 8.16887C45.4438 8.88299 43.9299 9.84832 41.8022 9.98781L40.4938 -9.96935C33.7479 -9.52711 30.5046 -4.19553 29.4838 -2.33403C28.2041 -8.38788e-05 27.2984 2.76323 26.7681 4.32384L45.7045 10.7589ZM41.7806 9.9892C40.4199 10.0754 39.5309 9.63385 39.3126 9.50972C39.1315 9.40675 39.2616 9.44629 39.6516 9.86115C40.0121 10.2446 40.4074 10.7477 40.8073 11.3245C41.199 11.8895 41.5178 12.4108 41.7993 12.8761L58.9105 2.52207C58.3112 1.53162 56.6271 -1.28135 54.2226 -3.83867C52.1997 -5.99022 47.4194 -10.4084 40.5154 -9.97074L41.7806 9.9892ZM41.8034 12.8829C43.3996 15.516 45.7988 18.4801 47.9284 20.7471C49.0108 21.8993 50.2459 23.1101 51.4892 24.1153C52.0968 24.6066 52.9176 25.2217 53.8773 25.7645C54.5007 26.117 56.6479 27.3213 59.542 27.3213V7.32132C60.9708 7.32132 62.043 7.64738 62.5642 7.83288C63.1353 8.03612 63.5341 8.24894 63.7222 8.35535C64.0844 8.56012 64.2138 8.68418 64.0639 8.56296C63.7921 8.3432 63.2475 7.84354 62.5054 7.05354C61.7965 6.29896 61.0513 5.43296 60.3803 4.5806C59.6911 3.70527 59.1912 2.98507 58.9065 2.51536L41.8034 12.8829ZM59.542 27.3213H59.5619V7.32132H59.542V27.3213ZM59.5619 27.3213C63.9432 27.3213 66.6943 24.78 67.5747 23.8998C68.5432 22.9314 69.3367 21.7926 69.4438 21.6462L53.2991 9.84164C53.2105 9.96279 53.1655 10.0247 53.1143 10.094C53.0925 10.1234 53.0768 10.1444 53.0653 10.1597C53.0597 10.1671 53.0556 10.1726 53.0527 10.1763C53.0499 10.18 53.0486 10.1816 53.0487 10.1815C53.0488 10.1813 53.0506 10.179 53.0539 10.1749C53.0572 10.1707 53.0623 10.1643 53.0691 10.156C53.0824 10.1396 53.104 10.1134 53.1332 10.0793C53.1889 10.0144 53.29 9.90015 53.4332 9.75695C53.722 9.46826 55.8567 7.32132 59.5619 7.32132V27.3213ZM69.4961 21.5741C69.5979 21.4321 69.6532 21.3551 69.7045 21.2854C69.7517 21.2213 69.7619 21.2093 69.7478 21.227C69.7339 21.2444 69.6722 21.3211 69.5687 21.4331C69.4663 21.544 69.2916 21.7237 69.0459 21.9351C68.588 22.329 67.6193 23.0619 66.1392 23.5208C64.5078 24.0266 62.7232 24.0505 61.0491 23.5493L66.7845 4.38932C61.7803 2.89136 57.8681 5.1689 56.0038 6.77253C54.4943 8.0709 53.3953 9.70685 53.2468 9.91375L69.4961 21.5741ZM61.3605 23.6371C60.6092 23.4384 60.0565 23.162 59.7188 22.9639C59.3837 22.7674 59.1804 22.601 59.1161 22.5467C59.0491 22.4902 59.0491 22.4835 59.1363 22.5726C59.2305 22.6689 59.3369 22.7837 59.5485 23.0145L74.2904 9.49868C73.9546 9.13235 73.0859 8.1663 72.0184 7.26508C70.9711 6.3808 69.0946 4.99476 66.4731 4.30158L61.3605 23.6371ZM59.4575 22.9138C59.8275 23.3285 61.2556 24.9894 63.3075 26.1197L72.9575 8.60181C73.404 8.84776 73.7354 9.08362 73.9435 9.24327C74.1551 9.40563 74.3013 9.53717 74.3748 9.60554C74.5035 9.72528 74.5255 9.76078 74.3815 9.59938L59.4575 22.9138ZM63.3752 26.1567C66.535 27.8657 69.5869 27.4913 71.3533 26.9681C72.9938 26.4822 74.1786 25.7042 74.745 25.3054C75.8799 24.5062 76.8412 23.5377 77.182 23.1998L63.0999 8.99787C62.6055 9.4881 62.7812 9.26885 63.2302 8.95274C63.4535 8.79551 64.3201 8.19244 65.6736 7.79158C67.1528 7.35344 69.9487 6.97415 72.8898 8.56484L63.3752 26.1567ZM77.098 23.2821C77.3483 23.0397 77.4738 22.9175 77.6007 22.7999C77.7158 22.6931 77.7355 22.6811 77.6902 22.7167C77.6476 22.7504 77.4617 22.8949 77.1493 23.0717C76.8363 23.2488 76.3002 23.5132 75.5638 23.7098L70.4053 4.38655C67.9896 5.03144 66.2394 6.27568 65.301 7.01621C64.3438 7.77156 63.4958 8.61349 63.1839 8.91554L77.098 23.2821ZM76.1228 23.543C77.0646 23.2317 78.0324 22.8345 78.9913 22.3385L69.8015 4.57483C69.8259 4.56221 69.8405 4.55594 69.8452 4.55397C69.85 4.55196 69.85 4.55216 69.8463 4.55338L76.1228 23.543ZM78.8856 22.3924C79.3576 22.1553 79.146 22.2792 78.785 22.4051C78.3922 22.542 77.0501 22.9723 75.2161 22.7289C73.1011 22.4483 71.3881 21.4223 70.26 20.241C69.7654 19.7231 69.4568 19.2548 69.2832 18.9551C69.1096 18.6554 69.031 18.455 69.0167 18.4178L87.6905 11.256C86.7093 8.69771 84.0422 3.72484 77.8471 2.90274C75.3444 2.57064 73.3076 3.13404 72.2008 3.51992C71.1258 3.89471 70.1809 4.38343 69.9072 4.52096L78.8856 22.3924ZM68.989 18.3448C69.0089 18.3977 69.0663 18.5702 69.143 18.9455C69.2245 19.3437 69.2924 19.7829 69.3964 20.4841L89.18 17.55C89.0024 16.3527 88.6646 13.8556 87.7182 11.329L68.989 18.3448ZM69.398 20.4947C69.4746 21.0076 69.7498 23.3171 70.5201 25.2586C70.9649 26.3794 71.9872 28.523 74.2555 30.2318C76.8666 32.1988 79.8426 32.6483 82.309 32.3222L79.6877 12.4947C81.5576 12.2475 84.0612 12.5787 86.2896 14.2574C88.175 15.6778 88.9041 17.3629 89.1102 17.8823C89.3403 18.4623 89.3879 18.8202 89.3448 18.5941C89.3088 18.4054 89.2688 18.144 89.1784 17.5394L69.398 20.4947ZM82.1459 32.3424C84.5565 32.0639 86.3405 31.0591 87.2736 30.4538C88.3062 29.784 89.1363 29.0467 89.7303 28.4684C90.9175 27.3126 91.9345 26.0284 92.6606 25.0481C94.0294 23.2001 95.3079 21.1307 95.6743 20.4041L77.8162 11.3991C77.9079 11.2174 77.9866 11.0761 77.9921 11.0662C78.0164 11.0221 78.0358 10.988 78.0451 10.9716C78.0648 10.9369 78.0793 10.9119 78.0839 10.904C78.095 10.8849 78.0993 10.8777 78.0945 10.8859C78.0864 10.8994 78.0638 10.9373 78.0274 10.9972C77.9551 11.1161 77.8405 11.3016 77.6937 11.5311C77.3921 12.0027 76.9996 12.5898 76.5893 13.1437C76.3866 13.4175 76.2025 13.6518 76.0442 13.8406C75.9665 13.9332 75.9029 14.0054 75.8539 14.059C75.8299 14.0852 75.8112 14.105 75.7979 14.1187C75.7846 14.1325 75.7784 14.1386 75.7792 14.1377C75.78 14.137 75.7902 14.1271 75.8097 14.1095C75.8291 14.0919 75.861 14.0637 75.9053 14.027C75.9874 13.9589 76.1499 13.8302 76.3898 13.6746C76.6233 13.5231 77.0091 13.2947 77.5361 13.0739C78.058 12.8553 78.8456 12.5907 79.8508 12.4745L82.1459 32.3424ZM95.6743 20.4041C95.1292 21.4851 94.0127 23.1838 91.9092 24.4353C89.5901 25.815 86.8971 26.1459 84.4483 25.5388C80.3075 24.5122 78.523 21.4115 78.035 20.4436L95.893 11.4386C95.3453 10.3523 93.4813 7.17275 89.2609 6.12646C86.7723 5.50953 84.0396 5.84531 81.6832 7.24722C79.5424 8.52089 78.3911 10.2591 77.8162 11.3991L95.6743 20.4041ZM78.035 20.4436C76.9729 18.3374 76.9612 16.4401 77.0186 15.5293C77.0825 14.5147 77.3307 13.2296 78.0151 11.8724L95.8731 20.8774C96.6172 19.4019 96.9051 17.959 96.979 16.7867C97.0463 15.7181 97.0147 13.6631 95.893 11.4386L78.035 20.4436ZM78.2799 11.3818C78.3269 11.3002 78.1549 11.5972 77.8382 12.0904C77.526 12.5767 77.132 13.1615 76.7244 13.7055C76.5232 13.9741 76.3425 14.2005 76.1892 14.3802C76.114 14.4683 76.0534 14.5356 76.0081 14.5842C75.962 14.6335 75.9412 14.653 75.9461 14.6484C75.9494 14.6452 75.997 14.6 76.088 14.5269C76.1761 14.4562 76.3432 14.3284 76.5866 14.1765C76.8248 14.0277 77.2064 13.8116 77.7216 13.6055C78.2339 13.4004 78.9815 13.1639 79.9231 13.0601L82.1133 32.9399C84.4436 32.6831 86.1984 31.7535 87.1793 31.141C88.2383 30.4797 89.0919 29.7452 89.7096 29.1593C90.9394 27.9928 91.9835 26.6942 92.7293 25.6989C94.2507 23.6688 95.418 21.6983 95.6083 21.368L78.2799 11.3818ZM81.0182 13C80.9586 13 80.8989 13 80.8393 13V33C80.9188 33 80.9387 33 81.0182 33V13Z" fill="#0A7F00" mask="url(#path-1-inside-1_417_8193)"/>
</svg>
