<svg width="16" height="20" viewBox="0 0 16 20" fill="none" xmlns="http://www.w3.org/2000/svg">
<path fill-rule="evenodd" clip-rule="evenodd" d="M7.77766 0C11.8983 0 15.2311 3.13 15.2311 7C15.2311 12.25 7.77766 20 7.77766 20C7.77766 20 0.324219 12.25 0.324219 7C0.324219 3.13 3.65697 0 7.77766 0ZM2.45312 7C2.45312 9.85 5.56227 14.21 7.77701 16.88C10.0343 14.19 13.1009 9.88 13.1009 7C13.1009 4.24 10.7158 2 7.77701 2C4.83823 2 2.45312 4.24 2.45312 7ZM7.77913 9.5C6.30898 9.5 5.11719 8.38071 5.11719 7C5.11719 5.61929 6.30898 4.5 7.77913 4.5C9.24928 4.5 10.4411 5.61929 10.4411 7C10.4411 8.38071 9.24928 9.5 7.77913 9.5Z" fill="#333333"/>
</svg>
