<?xml version="1.0" standalone="no"?>
<!DOCTYPE svg PUBLIC "-//W3C//DTD SVG 20010904//EN"
 "http://www.w3.org/TR/2001/REC-SVG-20010904/DTD/svg10.dtd">
<svg version="1.0" xmlns="http://www.w3.org/2000/svg"
 width="64.000000pt" height="64.000000pt" viewBox="0 0 64.000000 64.000000"
 preserveAspectRatio="xMidYMid meet">

<g transform="translate(0.000000,64.000000) scale(0.100000,-0.100000)"
fill="#000000" stroke="none">
<path d="M0 178 c0 -60 2 -108 5 -108 12 0 111 53 118 64 7 10 4 51 -9 118 -5
24 -10 27 -60 30 l-54 3 0 -107z"/>
<path d="M583 282 c-50 -3 -53 -4 -58 -35 -3 -18 -6 -52 -8 -77 l-2 -45 58
-29 c32 -16 60 -26 63 -24 2 3 3 52 2 109 l-3 104 -52 -3z"/>
<path d="M210 255 c0 -18 7 -26 25 -31 14 -3 25 -9 25 -13 0 -4 15 -14 34 -23
32 -16 35 -15 77 10 24 14 46 29 47 34 2 4 8 6 13 2 5 -3 9 6 9 20 l0 26 -115
0 -115 0 0 -25z"/>
</g>
</svg>
