<svg width="19" height="21" viewBox="0 0 19 21" fill="none" xmlns="http://www.w3.org/2000/svg">
<path id="Vector" d="M7.84582 2.5602C7.50199 4.02812 7.45521 5.54998 7.70823 7.03625C7.96124 8.52252 8.50895 9.94317 9.31912 11.2146C10.1293 12.4861 11.1856 13.5827 12.4258 14.4399C13.666 15.2971 15.0652 15.8977 16.5409 16.2061C15.765 17.0088 14.8358 17.6474 13.8083 18.0841C12.7809 18.5208 11.6762 18.7466 10.5598 18.7481C10.4559 18.7481 10.3511 18.7519 10.2464 18.7481C8.30292 18.6794 6.44489 17.932 4.99505 16.6359C3.54521 15.3398 2.59515 13.5768 2.30987 11.6531C2.0246 9.72944 2.42214 7.7666 3.43344 6.10551C4.44474 4.44442 6.00592 3.19003 7.84582 2.5602ZM8.95395 0.75C8.91004 0.750069 8.86622 0.753983 8.823 0.7617C6.43482 1.18589 4.28806 2.47876 2.79622 4.39129C1.30437 6.30382 0.572975 8.70072 0.742895 11.1203C0.912815 13.5399 1.97203 15.8111 3.71653 17.4963C5.46103 19.1816 7.76742 20.1617 10.1914 20.248C10.3145 20.2525 10.4376 20.248 10.5596 20.248C12.1337 20.2488 13.6849 19.8706 15.082 19.1454C16.4791 18.4201 17.681 17.3691 18.5861 16.0813C18.6595 15.9703 18.7023 15.8419 18.7103 15.7091C18.7183 15.5763 18.6911 15.4438 18.6316 15.3248C18.572 15.2058 18.4821 15.1047 18.371 15.0315C18.2599 14.9583 18.1315 14.9157 17.9986 14.908C16.5003 14.7765 15.0522 14.3023 13.7664 13.5219C12.4805 12.7416 11.3913 11.676 10.583 10.4076C9.77467 9.13911 9.26883 7.70177 9.1046 6.20665C8.94037 4.71153 9.12213 3.19867 9.63585 1.785C9.67955 1.6719 9.6956 1.54999 9.68266 1.42942C9.66972 1.30886 9.62817 1.19314 9.56145 1.09188C9.49474 0.990628 9.40481 0.906776 9.29914 0.847308C9.19347 0.787841 9.07512 0.754479 8.95395 0.75Z" fill="#161616"/>
</svg>
