<svg width="138" height="24" viewBox="0 0 138 24" fill="none" xmlns="http://www.w3.org/2000/svg">
<circle cx="12" cy="12" r="12" fill="#060606"/>
<path fill-rule="evenodd" clip-rule="evenodd" d="M6.81616 4.60742H14.3037C15.9622 4.60742 17.2802 5.94612 17.2802 7.5614V16.5334C17.2802 18.1795 15.9313 19.4874 14.3037 19.4874H9.70023C8.10335 19.4874 6.81616 18.21 6.81616 16.6252C6.81616 15.0404 8.10335 13.7629 9.70023 13.7629H13.1759V15.7812H9.70023C9.2265 15.7812 8.8498 16.155 8.8498 16.6252C8.8498 17.0953 9.2265 17.4692 9.70023 17.4692H14.3037C14.8206 17.4692 15.2465 17.0524 15.2465 16.5334V7.5614C15.2465 7.04835 14.8266 6.62567 14.3037 6.62567H8.8498V9.81817C8.8498 10.3312 9.26971 10.7539 9.79267 10.7539H13.1759V12.7722H9.79267C8.13409 12.7722 6.81616 11.4335 6.81616 9.81817V4.60742Z" fill="white"/>
<path d="M110.917 18.3193C110.917 18.6965 110.793 19.0157 110.546 19.2768C110.299 19.5235 109.987 19.6468 109.609 19.6468C109.231 19.6468 108.918 19.5235 108.671 19.2768C108.424 19.0157 108.301 18.6965 108.301 18.3193V9.33166C108.301 8.95445 108.424 8.64253 108.671 8.3959C108.918 8.13476 109.231 8.00418 109.609 8.00418C109.987 8.00418 110.299 8.13476 110.546 8.3959C110.793 8.64253 110.917 8.95445 110.917 9.33166V18.3193ZM109.587 6.58966C109.093 6.58966 108.744 6.50987 108.541 6.35028C108.337 6.1907 108.235 5.90779 108.235 5.50157V5.08809C108.235 4.66736 108.344 4.38446 108.562 4.23938C108.795 4.07979 109.144 4 109.609 4C110.118 4 110.474 4.07979 110.677 4.23938C110.881 4.39897 110.982 4.68187 110.982 5.08809V5.50157C110.982 5.9223 110.873 6.21246 110.655 6.37204C110.437 6.51712 110.081 6.58966 109.587 6.58966Z" fill="#4682B4"/>
<path d="M97.8018 19.6474C97.3948 19.6474 97.0605 19.524 96.7989 19.2774C96.5518 19.0163 96.4282 18.6971 96.4282 18.3199V5.74154C96.4282 5.36433 96.5518 5.05241 96.7989 4.80578C97.0605 4.54463 97.3803 4.41406 97.7582 4.41406H104.844C105.222 4.41406 105.534 4.53738 105.781 4.78401C106.043 5.01614 106.174 5.32081 106.174 5.69801C106.174 6.01719 106.043 6.30009 105.781 6.54672C105.534 6.79336 105.222 6.91668 104.844 6.91668H98.9573L99.1535 6.65553V11.0297L99.0009 10.7468H103.863C104.241 10.7468 104.553 10.8701 104.8 11.1167C105.062 11.3488 105.193 11.6535 105.193 12.0307C105.193 12.3499 105.062 12.6328 104.8 12.8794C104.553 13.1261 104.241 13.2494 103.863 13.2494H98.9573L99.1535 13.0535V18.3199C99.1535 18.6971 99.0154 19.0163 98.7393 19.2774C98.4776 19.524 98.1651 19.6474 97.8018 19.6474Z" fill="#4682B4"/>
<path d="M87.1437 7.78711C87.7542 7.78711 88.3138 7.88141 88.8225 8.07001C89.3312 8.25862 89.7673 8.498 90.1306 8.78816C90.5085 9.07831 90.7992 9.37573 91.0027 9.68039C91.2207 9.97055 91.3297 10.2172 91.3297 10.4203L90.7629 10.7032V9.11458C90.7629 8.73738 90.8864 8.42546 91.1335 8.17882C91.3806 7.91768 91.6931 7.78711 92.071 7.78711C92.4489 7.78711 92.7614 7.91043 93.0085 8.15706C93.2556 8.4037 93.3792 8.72287 93.3792 9.11458V18.7986C93.3792 20.0608 93.103 21.0691 92.5507 21.8235C92.0129 22.5924 91.3007 23.1437 90.4141 23.4774C89.5274 23.8256 88.5754 23.9997 87.558 23.9997C87.2673 23.9997 86.8893 23.9634 86.4242 23.8909C85.9591 23.8184 85.5158 23.7313 85.0943 23.6297C84.6728 23.5282 84.353 23.4339 84.135 23.3468C83.6989 23.1582 83.3937 22.9189 83.2193 22.6287C83.0594 22.3531 83.0303 22.0556 83.1321 21.7365C83.2629 21.3157 83.4737 21.0256 83.7644 20.866C84.0551 20.7209 84.3603 20.7064 84.6801 20.8225C84.8254 20.866 85.0652 20.953 85.3995 21.0836C85.7338 21.2142 86.0972 21.3302 86.4896 21.4318C86.8966 21.5479 87.2527 21.6059 87.558 21.6059C88.6481 21.6059 89.4547 21.3883 89.978 20.953C90.5013 20.5178 90.7629 19.9157 90.7629 19.1468V17.2535L91.0245 17.4494C91.0245 17.638 90.9228 17.8701 90.7193 18.1458C90.5303 18.4069 90.2614 18.668 89.9126 18.9292C89.5783 19.1903 89.1786 19.4152 88.7135 19.6038C88.2484 19.7779 87.7542 19.8649 87.2309 19.8649C86.1989 19.8649 85.2687 19.6111 84.4402 19.1033C83.6117 18.581 82.9577 17.8701 82.478 16.9706C81.9984 16.0566 81.7585 15.012 81.7585 13.8369C81.7585 12.6473 81.9984 11.6027 82.478 10.7032C82.9577 9.7892 83.6045 9.07831 84.4184 8.57054C85.2324 8.04825 86.1408 7.78711 87.1437 7.78711ZM87.558 10.1809C86.9039 10.1809 86.3298 10.3405 85.8356 10.6597C85.3414 10.9788 84.9562 11.4141 84.6801 11.9654C84.4039 12.5167 84.2658 13.1405 84.2658 13.8369C84.2658 14.5188 84.4039 15.1354 84.6801 15.6867C84.9562 16.238 85.3414 16.6732 85.8356 16.9924C86.3298 17.3116 86.9039 17.4711 87.558 17.4711C88.2266 17.4711 88.808 17.3116 89.3021 16.9924C89.7963 16.6732 90.1815 16.238 90.4577 15.6867C90.7338 15.1354 90.8719 14.5188 90.8719 13.8369C90.8719 13.1405 90.7338 12.5167 90.4577 11.9654C90.1815 11.4141 89.7963 10.9788 89.3021 10.6597C88.808 10.3405 88.2266 10.1809 87.558 10.1809Z" fill="#060606"/>
<path d="M78.4861 8.00391C78.864 8.00391 79.1765 8.13448 79.4236 8.39562C79.6707 8.64226 79.7942 8.95418 79.7942 9.33138V18.5802C79.7942 19.9149 79.5398 20.974 79.0311 21.7574C78.5369 22.5553 77.8683 23.1284 77.0253 23.4766C76.1823 23.8248 75.2375 23.9989 74.191 23.9989C73.7259 23.9989 73.2317 23.9626 72.7085 23.8901C72.1852 23.8175 71.7564 23.7087 71.4221 23.5636C70.9861 23.375 70.6809 23.1357 70.5064 22.8455C70.3466 22.5698 70.3175 22.2724 70.4192 21.9533C70.55 21.5325 70.7608 21.2424 71.0515 21.0828C71.3422 20.9377 71.6474 20.9232 71.9672 21.0393C72.1997 21.1118 72.505 21.2206 72.8829 21.3657C73.2608 21.5253 73.6968 21.6051 74.191 21.6051C74.8596 21.6051 75.412 21.5108 75.848 21.3222C76.2986 21.1481 76.6329 20.8434 76.8509 20.4082C77.0835 19.9874 77.1997 19.4071 77.1997 18.6672V17.2092L77.6576 17.7315C77.4105 18.2102 77.098 18.6092 76.7201 18.9284C76.3567 19.233 75.9207 19.4652 75.412 19.6247C74.9032 19.7843 74.3218 19.8641 73.6678 19.8641C72.8974 19.8641 72.2216 19.69 71.6402 19.3418C71.0733 18.9791 70.63 18.4859 70.3102 17.862C69.9904 17.2237 69.8306 16.4983 69.8306 15.6858V9.33138C69.8306 8.95418 69.9541 8.64226 70.2012 8.39562C70.4483 8.13448 70.7608 8.00391 71.1387 8.00391C71.5166 8.00391 71.8291 8.13448 72.0762 8.39562C72.3233 8.64226 72.4468 8.95418 72.4468 9.33138V14.9024C72.4468 15.8454 72.6503 16.5128 73.0573 16.9045C73.4788 17.2817 74.0602 17.4703 74.8015 17.4703C75.3102 17.4703 75.739 17.376 76.0878 17.1874C76.4367 16.9843 76.7056 16.6941 76.8945 16.3169C77.0835 15.9252 77.1779 15.4537 77.1779 14.9024V9.33138C77.1779 8.95418 77.3015 8.64226 77.5486 8.39562C77.7957 8.13448 78.1082 8.00391 78.4861 8.00391Z" fill="#060606"/>
<path d="M61.0373 8.22219H66.2045C66.5533 8.22219 66.844 8.33825 67.0766 8.57038C67.3091 8.8025 67.4254 9.09266 67.4254 9.44085C67.4254 9.77453 67.3091 10.0574 67.0766 10.2896C66.844 10.5072 66.5533 10.616 66.2045 10.616H61.0373C60.6885 10.616 60.3978 10.4999 60.1652 10.2678C59.9327 10.0357 59.8164 9.74552 59.8164 9.39733C59.8164 9.06364 59.9327 8.788 60.1652 8.57038C60.3978 8.33825 60.6885 8.22219 61.0373 8.22219ZM63.3702 5.50195C63.7481 5.50195 64.0533 5.63252 64.2859 5.89367C64.533 6.1403 64.6565 6.45222 64.6565 6.82943V16.5135C64.6565 16.7166 64.6929 16.8834 64.7655 17.014C64.8527 17.1446 64.9617 17.2389 65.0926 17.2969C65.2379 17.3549 65.3905 17.3839 65.5504 17.3839C65.7248 17.3839 65.8847 17.3549 66.0301 17.2969C66.1754 17.2243 66.3426 17.1881 66.5315 17.1881C66.735 17.1881 66.9167 17.2824 67.0766 17.471C67.251 17.6596 67.3382 17.9207 67.3382 18.2544C67.3382 18.6606 67.1129 18.9943 66.6623 19.2555C66.2263 19.5166 65.7539 19.6472 65.2452 19.6472C64.9399 19.6472 64.5984 19.6254 64.2205 19.5819C63.8571 19.5238 63.5083 19.4005 63.174 19.2119C62.8542 19.0088 62.5853 18.7042 62.3673 18.2979C62.1493 17.8917 62.0402 17.3332 62.0402 16.6223V6.82943C62.0402 6.45222 62.1638 6.1403 62.4109 5.89367C62.6725 5.63252 62.9923 5.50195 63.3702 5.50195Z" fill="#060606"/>
<path d="M53.5368 19.8649C52.3013 19.8649 51.2257 19.6111 50.3101 19.1033C49.4089 18.581 48.7112 17.8774 48.217 16.9924C47.7374 16.1074 47.4976 15.1063 47.4976 13.9892C47.4976 12.6835 47.7592 11.5737 48.2824 10.6597C48.8202 9.73117 49.5179 9.02028 50.3755 8.52701C51.233 8.03374 52.1414 7.78711 53.1007 7.78711C53.842 7.78711 54.5397 7.93944 55.1938 8.24411C55.8624 8.54877 56.451 8.9695 56.9597 9.5063C57.4685 10.0286 57.8682 10.6379 58.1589 11.3343C58.4641 12.0307 58.6167 12.7706 58.6167 13.554C58.6022 13.9022 58.4641 14.1851 58.2025 14.4027C57.9409 14.6203 57.6356 14.7291 57.2868 14.7291H48.9583L48.3042 12.553H56.3057L55.826 12.9882V12.4006C55.797 11.9799 55.6443 11.6027 55.3682 11.269C55.1066 10.9353 54.7723 10.6742 54.3653 10.4856C53.9728 10.2825 53.5513 10.1809 53.1007 10.1809C52.6647 10.1809 52.2577 10.2389 51.8798 10.355C51.5019 10.4711 51.1749 10.6669 50.8987 10.9426C50.6226 11.2182 50.4045 11.5882 50.2446 12.0524C50.0848 12.5167 50.0048 13.1043 50.0048 13.8151C50.0048 14.5986 50.1647 15.2659 50.4845 15.8172C50.8188 16.354 51.2403 16.7675 51.749 17.0577C52.2723 17.3333 52.8246 17.4711 53.406 17.4711C53.9438 17.4711 54.3725 17.4276 54.6923 17.3406C55.0121 17.2535 55.2664 17.152 55.4554 17.0359C55.6589 16.9053 55.8406 16.7965 56.0004 16.7095C56.2621 16.5789 56.5092 16.5136 56.7417 16.5136C57.0615 16.5136 57.3231 16.6224 57.5266 16.84C57.7446 17.0577 57.8536 17.3116 57.8536 17.6017C57.8536 17.9934 57.6502 18.3489 57.2432 18.668C56.8653 18.9872 56.3348 19.2701 55.6516 19.5168C54.9685 19.7489 54.2635 19.8649 53.5368 19.8649Z" fill="#060606"/>
<path d="M40.8241 4.41406C42.2195 4.41406 43.2587 4.74049 43.9418 5.39335C44.625 6.0462 44.9665 7.01098 44.9665 8.28767C44.9665 8.96955 44.7994 9.57162 44.4651 10.0939C44.1308 10.6017 43.6366 11.0007 42.9825 11.2908C42.3285 11.5665 41.5218 11.7043 40.5625 11.7043L40.6497 10.725C41.1003 10.725 41.6163 10.7903 42.1977 10.9209C42.7791 11.0369 43.3386 11.2545 43.8764 11.5737C44.4288 11.8784 44.8793 12.3136 45.2282 12.8794C45.5915 13.4307 45.7732 14.1416 45.7732 15.0121C45.7732 15.9696 45.6133 16.753 45.2936 17.3624C44.9883 17.9717 44.5814 18.4432 44.0727 18.7769C43.5639 19.1106 43.0189 19.3427 42.4375 19.4733C41.8561 19.5893 41.2965 19.6474 40.7587 19.6474H35.3299C34.952 19.6474 34.6323 19.524 34.3706 19.2774C34.1235 19.0163 34 18.6971 34 18.3199V5.74154C34 5.36433 34.1235 5.05241 34.3706 4.80578C34.6323 4.54463 34.952 4.41406 35.3299 4.41406H40.8241ZM40.4317 6.98196H36.5509L36.8343 6.63377V10.5727L36.5727 10.3768H40.4971C40.9186 10.3768 41.2965 10.239 41.6308 9.96334C41.9651 9.68769 42.1323 9.28872 42.1323 8.76644C42.1323 8.1426 41.9724 7.69285 41.6526 7.4172C41.3474 7.12704 40.9404 6.98196 40.4317 6.98196ZM40.6061 12.9447H36.6381L36.8343 12.7706V17.3624L36.6163 17.1448H40.7587C41.4273 17.1448 41.9578 16.9707 42.3503 16.6225C42.7427 16.2598 42.9389 15.723 42.9389 15.0121C42.9389 14.3592 42.8081 13.8877 42.5465 13.5976C42.2849 13.3074 41.9724 13.1261 41.609 13.0535C41.2456 12.981 40.9113 12.9447 40.6061 12.9447Z" fill="#060606"/>
</svg>
