<svg width="19" height="20" viewBox="0 0 19 20" fill="none" xmlns="http://www.w3.org/2000/svg">
<path d="M6.27249 7.45501L1.07969 4.55013L9.2545 0L17.4293 4.55013L12.2365 7.45501C11.8423 7.0437 11.3882 6.72665 10.874 6.50386C10.3599 6.28106 9.82005 6.16967 9.2545 6.16967C8.68895 6.16967 8.1491 6.28106 7.63496 6.50386C7.12082 6.72665 6.66667 7.0437 6.27249 7.45501ZM8.22622 20L0 15.4242V6.2982L5.26992 9.2545C5.21851 9.42588 5.18423 9.59314 5.16709 9.7563C5.14996 9.91945 5.14139 10.0949 5.14139 10.2828C5.14139 11.2254 5.42416 12.0651 5.98972 12.8021C6.55527 13.539 7.30077 14.0274 8.22622 14.2674V20ZM9.2545 12.3393C8.68895 12.3393 8.20497 12.1381 7.80257 11.7357C7.40017 11.3333 7.19863 10.849 7.19794 10.2828C7.19726 9.71654 7.3988 9.23256 7.80257 8.83085C8.20634 8.42914 8.69032 8.22759 9.2545 8.22622C9.81868 8.22485 10.303 8.42639 10.7075 8.83085C11.1119 9.2353 11.3131 9.71928 11.3111 10.2828C11.309 10.8463 11.1078 11.3306 10.7075 11.7357C10.3071 12.1409 9.82279 12.3421 9.2545 12.3393ZM10.2828 20V14.2674C11.2082 14.0274 11.9537 13.539 12.5193 12.8021C13.0848 12.0651 13.3676 11.2254 13.3676 10.2828C13.3676 10.0943 13.359 9.91842 13.3419 9.75527C13.3248 9.59212 13.2905 9.42519 13.2391 9.2545L18.509 6.2982V15.4242L10.2828 20Z" fill="#777E90"/>
</svg>
