<svg width="21" height="20" viewBox="0 0 21 20" fill="none" xmlns="http://www.w3.org/2000/svg">
<path d="M10.5088 6.66667L8.00879 8.125V11.0417L10.5088 12.5L13.0088 11.0417V8.125L10.5088 6.66667ZM11.773 8.36667L10.498 9.11L9.23379 8.3725L10.5088 7.62917L11.773 8.36667ZM8.83379 9.10167L10.0705 9.82333V11.2817L8.83379 10.5608V9.10167ZM10.8955 11.3125V9.84L12.1838 9.08833V10.5608L10.8955 11.3125ZM3.00879 0L0.508789 1.45833V4.375L3.00879 5.83333L5.50879 4.375V1.45833L3.00879 0ZM4.27296 1.7L2.99796 2.44333L1.73379 1.70583L3.00879 0.9625L4.27296 1.7ZM1.33379 2.43417L2.57046 3.15583V4.61417L1.33379 3.895V2.43417ZM3.39546 4.645V3.17333L4.68379 2.42167V3.89417L3.39546 4.645ZM3.00879 14.1667L0.508789 15.625V18.5417L3.00879 20L5.50879 18.5417V15.625L3.00879 14.1667ZM4.27296 15.8667L2.99796 16.61L1.73379 15.8725L3.00879 15.1292L4.27296 15.8667ZM1.33379 16.6017L2.57046 17.3233V18.7817L1.33379 18.0617V16.6017ZM3.39546 18.8125V17.34L4.68379 16.5883V18.0608L3.39546 18.8125ZM18.0088 0L15.5088 1.45833V4.375L18.0088 5.83333L20.5088 4.375V1.45833L18.0088 0ZM19.273 1.7L17.998 2.44333L16.7338 1.70583L18.0088 0.9625L19.273 1.7ZM16.3338 2.435L17.5705 3.15667V4.615L16.3338 3.89417V2.435ZM18.3955 4.64583V3.17333L19.6838 2.42167V3.89417L18.3955 4.64583ZM18.0088 14.1667L15.5088 15.625V18.5417L18.0088 20L20.5088 18.5417V15.625L18.0088 14.1667ZM19.273 15.8667L17.998 16.61L16.7338 15.8725L18.0088 15.1292L19.273 15.8667ZM16.3338 16.6017L17.5705 17.3233V18.7817L16.3338 18.0608V16.6017ZM18.3955 18.8125V17.34L19.6838 16.5883V18.0608L18.3955 18.8125ZM8.00879 2.5H13.0088V3.33333H8.00879V2.5ZM8.00879 16.6667H13.0088V17.5H8.00879V16.6667ZM3.42546 7.5V12.5H2.59212V7.5H3.42546ZM6.58629 7.35667L4.81879 5.58917L5.40796 5L7.17546 6.76667L6.58629 7.35667ZM13.8421 6.91083L15.6096 5.14333L16.1988 5.7325L14.4313 7.5L13.8421 6.91083ZM7.28212 12.3992L5.51462 14.1667L4.92546 13.5775L6.69296 11.81L7.28212 12.3992ZM14.5746 11.7742L16.3421 13.5417L15.753 14.1308L13.9855 12.3633L14.5746 11.7742ZM18.4255 7.5V12.5H17.5921V7.5H18.4255Z" fill="#777E90"/>
</svg>
