<svg width="24" height="24" viewBox="0 0 24 24" fill="none" xmlns="http://www.w3.org/2000/svg">
<path fill-rule="evenodd" clip-rule="evenodd" d="M18.0435 0.682392C17.7744 0.413182 17.4433 0.214046 17.0793 0.102409C16.7154 -0.00922749 16.3296 -0.0299619 15.9558 0.0420201C15.5819 0.114002 15.2314 0.276507 14.9349 0.515314C14.6385 0.754121 14.405 1.06195 14.255 1.41187L12.1345 6.35981C11.1163 6.15846 10.0641 6.21116 9.07107 6.51322C8.07805 6.81529 7.17476 7.35741 6.44111 8.09165L4.16482 10.3679C3.97786 10.5551 3.87285 10.8089 3.87285 11.0735C3.87285 11.338 3.97786 11.5918 4.16482 11.779L7.48608 15.1016L0.31776 22.2712C0.219671 22.3626 0.140996 22.4728 0.0864291 22.5953C0.0318621 22.7178 0.00252057 22.85 0.000155375 22.984C-0.00220982 23.1181 0.0224495 23.2512 0.0726624 23.3755C0.122875 23.4999 0.197613 23.6128 0.292417 23.7076C0.387221 23.8024 0.500148 23.8771 0.624463 23.9273C0.748778 23.9775 0.881933 24.0022 1.01599 23.9998C1.15004 23.9975 1.28224 23.9681 1.40471 23.9136C1.52717 23.859 1.63739 23.7803 1.72879 23.6822L8.89844 16.5139L12.2197 19.8352C12.3124 19.928 12.4225 20.0015 12.5437 20.0518C12.6648 20.102 12.7947 20.1278 12.9259 20.1278C13.057 20.1278 13.1869 20.102 13.3081 20.0518C13.4293 20.0015 13.5393 19.928 13.6321 19.8352L15.9083 17.5589C16.6428 16.8254 17.1852 15.9221 17.4875 14.9291C17.7898 13.9361 17.8427 12.8838 17.6415 11.8655L22.5881 9.74629C22.938 9.59632 23.2459 9.36288 23.4847 9.06639C23.7235 8.7699 23.886 8.41941 23.958 8.04558C24.03 7.67174 24.0092 7.28596 23.8976 6.922C23.786 6.55803 23.5868 6.22698 23.3176 5.95779L18.0435 0.682392ZM16.0894 2.19859C16.1108 2.14852 16.1442 2.10448 16.1866 2.07033C16.229 2.03618 16.2792 2.01296 16.3327 2.00271C16.3862 1.99246 16.4414 1.99549 16.4934 2.01154C16.5454 2.02759 16.5928 2.05616 16.6312 2.09476L21.9066 7.36883C21.9451 7.40734 21.9736 7.45474 21.9896 7.50685C22.0055 7.55896 22.0085 7.61419 21.9981 7.66769C21.9877 7.72119 21.9643 7.77132 21.93 7.81367C21.8957 7.85603 21.8516 7.88932 21.8014 7.91061L16.0574 10.3733C15.8243 10.4736 15.6381 10.6589 15.5367 10.8916C15.4353 11.1243 15.4264 11.3868 15.5117 11.6259C15.7884 12.3982 15.8398 13.2332 15.66 14.0336C15.4802 14.834 15.0765 15.5668 14.496 16.1465L12.9252 17.7173L6.2827 11.0748L7.85348 9.50401C8.43331 8.92375 9.16616 8.5203 9.96657 8.3407C10.767 8.16111 11.6019 8.21277 12.3741 8.48967C12.6133 8.57536 12.8762 8.5666 13.1092 8.4652C13.3422 8.36379 13.5278 8.17736 13.6281 7.94389L16.0894 2.19859Z" fill="#A5A5A5"/>
</svg>
