<svg width="24" height="24" viewBox="0 0 24 24" fill="none" xmlns="http://www.w3.org/2000/svg">
<path fill-rule="evenodd" clip-rule="evenodd" d="M18.7852 3.72357C18.583 3.52133 18.3343 3.37173 18.0608 3.28787C17.7874 3.20401 17.4976 3.18843 17.2168 3.2425C16.936 3.29658 16.6727 3.41866 16.4499 3.59805C16.2272 3.77745 16.0518 4.0087 15.9392 4.27157L14.3462 7.98857C13.5813 7.83731 12.7908 7.8769 12.0449 8.10382C11.2989 8.33073 10.6203 8.73799 10.0692 9.28957L8.35918 10.9996C8.21873 11.1402 8.13984 11.3308 8.13984 11.5296C8.13984 11.7283 8.21873 11.9189 8.35918 12.0596L10.8542 14.5556L5.46918 19.9416C5.39549 20.0102 5.33639 20.093 5.2954 20.185C5.2544 20.277 5.23236 20.3763 5.23059 20.477C5.22881 20.5777 5.24733 20.6778 5.28505 20.7712C5.32278 20.8646 5.37892 20.9494 5.45014 21.0206C5.52136 21.0918 5.60619 21.148 5.69958 21.1857C5.79297 21.2234 5.893 21.2419 5.9937 21.2402C6.0944 21.2384 6.19372 21.2163 6.28572 21.1753C6.37771 21.1344 6.46052 21.0753 6.52918 21.0016L11.9152 15.6166L14.4102 18.1116C14.4798 18.1813 14.5625 18.2365 14.6536 18.2743C14.7446 18.312 14.8421 18.3314 14.9407 18.3314C15.0392 18.3314 15.1368 18.312 15.2278 18.2743C15.3188 18.2365 15.4015 18.1813 15.4712 18.1116L17.1812 16.4016C17.7329 15.8505 18.1404 15.172 18.3675 14.426C18.5946 13.68 18.6343 12.8896 18.4832 12.1246L22.1992 10.5326C22.462 10.4199 22.6933 10.2445 22.8727 10.0218C23.0521 9.79909 23.1742 9.53579 23.2282 9.25495C23.2823 8.97412 23.2667 8.68432 23.1829 8.4109C23.099 8.13748 22.9494 7.88878 22.7472 7.68657L18.7852 3.72357ZM17.3172 4.86257C17.3333 4.82496 17.3584 4.79187 17.3902 4.76621C17.4221 4.74056 17.4598 4.72312 17.5 4.71542C17.5401 4.70771 17.5816 4.70999 17.6207 4.72205C17.6598 4.73411 17.6953 4.75557 17.7242 4.78457L21.6872 8.74657C21.7161 8.7755 21.7376 8.8111 21.7495 8.85025C21.7615 8.88939 21.7637 8.93089 21.7559 8.97108C21.7481 9.01126 21.7306 9.04892 21.7048 9.08074C21.679 9.11256 21.6459 9.13757 21.6082 9.15357L17.2932 11.0036C17.118 11.0789 16.9781 11.2181 16.902 11.3929C16.8258 11.5677 16.8191 11.765 16.8832 11.9446C17.0911 12.5247 17.1297 13.152 16.9946 13.7533C16.8595 14.3546 16.5563 14.9051 16.1202 15.3406L14.9402 16.5206L9.95018 11.5306L11.1302 10.3506C11.5658 9.91466 12.1163 9.61158 12.7176 9.47666C13.3189 9.34174 13.9461 9.38055 14.5262 9.58857C14.7059 9.65294 14.9034 9.64636 15.0784 9.57018C15.2534 9.494 15.3928 9.35395 15.4682 9.17857L17.3172 4.86257Z" fill="#757575"/>
</svg>
