<svg width="48" height="48" viewBox="0 0 48 48" fill="none" xmlns="http://www.w3.org/2000/svg">
<path d="M23.3071 15.5437L9.00086 32.0812C8.34047 32.7373 7.44737 33.1055 6.51649 33.1055C5.5856 33.1055 4.6925 32.7373 4.03211 32.0812C3.37603 31.4209 3.00781 30.5278 3.00781 29.5969C3.00781 28.666 3.37603 27.7729 4.03211 27.1125L20.4759 12.75" stroke="#0D75D3" stroke-width="2" stroke-linecap="round" stroke-linejoin="round"/>
<path d="M30.6562 16.9688C29.7179 14.2878 28.1787 11.857 26.1562 9.8625C21.3375 5.0625 16.65 4.6125 9.28125 2.90625C15.3984 7.73238 21.1111 13.0501 26.3625 18.8063" stroke="#0D75D3" stroke-width="2" stroke-linecap="round" stroke-linejoin="round"/>
<path d="M27.1127 26.0625C25.5008 27.0273 24.1563 28.3803 23.2016 29.9982C22.247 31.6161 21.7127 33.4472 21.6474 35.3246C21.5822 37.202 21.9881 39.0658 22.8281 40.746C23.6681 42.4262 24.9155 43.8694 26.4564 44.9437" stroke="#0D75D3" stroke-width="2" stroke-linecap="round" stroke-linejoin="round"/>
<path d="M40.2969 44.9437C41.8378 43.8694 43.0852 42.4262 43.9252 40.746C44.7652 39.0658 45.1711 37.202 45.1059 35.3246C45.0406 33.4472 44.5063 31.6161 43.5517 29.9982C42.597 28.3803 41.2524 27.0273 39.6406 26.0625" stroke="#0D75D3" stroke-width="2" stroke-linecap="round" stroke-linejoin="round"/>
<path fill-rule="evenodd" clip-rule="evenodd" d="M30 30H36.0383C37.3759 30 38.4387 31.0796 38.4387 32.3822V39.6178C38.4387 40.9452 37.3509 42 36.0383 42H32.3259C31.0381 42 30 40.9698 30 39.6917C30 38.4137 31.0381 37.3835 32.3259 37.3835H35.1288V39.0111H32.3259C31.9438 39.0111 31.64 39.3126 31.64 39.6917C31.64 40.0709 31.9438 40.3724 32.3259 40.3724H36.0383C36.4552 40.3724 36.7987 40.0363 36.7987 39.6178V32.3822C36.7987 31.9685 36.46 31.6276 36.0383 31.6276H31.64V34.2022C31.64 34.616 31.9787 34.9568 32.4004 34.9568H35.1288V36.5845H32.4004C31.0628 36.5845 30 35.5049 30 34.2022V30Z" fill="#0D75D3"/>
</svg>
