<svg width="20" height="20" viewBox="0 0 20 20" fill="none" xmlns="http://www.w3.org/2000/svg">
<g id="Question-Icon" clip-path="url(#clip0_2073_30659)">
<path id="Vector" d="M10.0013 18.3346C5.3988 18.3346 1.66797 14.6038 1.66797 10.0013C1.66797 5.3988 5.3988 1.66797 10.0013 1.66797C14.6038 1.66797 18.3346 5.3988 18.3346 10.0013C18.3346 14.6038 14.6038 18.3346 10.0013 18.3346ZM10.0013 16.668C11.7694 16.668 13.4651 15.9656 14.7153 14.7153C15.9656 13.4651 16.668 11.7694 16.668 10.0013C16.668 8.23319 15.9656 6.5375 14.7153 5.28726C13.4651 4.03701 11.7694 3.33464 10.0013 3.33464C8.23319 3.33464 6.5375 4.03701 5.28726 5.28726C4.03701 6.5375 3.33464 8.23319 3.33464 10.0013C3.33464 11.7694 4.03701 13.4651 5.28726 14.7153C6.5375 15.9656 8.23319 16.668 10.0013 16.668ZM9.16797 12.5013H10.8346V14.168H9.16797V12.5013ZM10.8346 11.1305V11.668H9.16797V10.418C9.16797 10.197 9.25577 9.98499 9.41205 9.82871C9.56833 9.67243 9.78029 9.58464 10.0013 9.58464C10.238 9.58462 10.4699 9.51738 10.6699 9.39074C10.8699 9.2641 11.0299 9.08327 11.1311 8.86929C11.2324 8.6553 11.2708 8.41697 11.2419 8.182C11.213 7.94704 11.1179 7.72512 10.9678 7.54206C10.8177 7.359 10.6187 7.22233 10.394 7.14794C10.1692 7.07356 9.928 7.06452 9.69832 7.12189C9.46865 7.17925 9.25998 7.30066 9.09661 7.47198C8.93323 7.6433 8.82187 7.8575 8.77547 8.08964L7.14047 7.76214C7.24183 7.25554 7.47589 6.78494 7.81874 6.39846C8.16158 6.01197 8.6009 5.72345 9.09179 5.5624C9.58269 5.40135 10.1075 5.37354 10.6127 5.48181C11.1179 5.59009 11.5852 5.83056 11.967 6.17866C12.3487 6.52675 12.6312 6.96997 12.7856 7.46302C12.9399 7.95607 12.9605 8.48126 12.8454 8.98489C12.7302 9.48853 12.4833 9.95255 12.1301 10.3295C11.7768 10.7065 11.3297 10.9829 10.8346 11.1305Z" fill="#A4A8AB"/>
</g>
<defs>
<clipPath id="clip0_2073_30659">
<rect width="20" height="20" fill="white"/>
</clipPath>
</defs>
</svg>
