<svg width="14" height="14" viewBox="0 0 14 14" fill="none" xmlns="http://www.w3.org/2000/svg">
<path d="M7 13C10.3137 13 13 10.3137 13 7C13 3.68629 10.3137 1 7 1C3.68629 1 1 3.68629 1 7C1 10.3137 3.68629 13 7 13Z" stroke="#6F7383" stroke-linecap="round" stroke-linejoin="round"/>
<path d="M5.25391 5.19994C5.39497 4.79894 5.6734 4.4608 6.03988 4.24542C6.40636 4.03003 6.83724 3.9513 7.25621 4.02317C7.67518 4.09503 8.0552 4.31285 8.32895 4.63806C8.60271 4.96326 8.75254 5.37485 8.75191 5.79994C8.75191 6.99994 6.95191 7.59994 6.95191 7.59994" stroke="#6F7383" stroke-linecap="round" stroke-linejoin="round"/>
<path d="M6.99994 10H7.00714" stroke="#6F7383" stroke-linecap="round" stroke-linejoin="round"/>
</svg>
