<svg width="16" height="13" viewBox="0 0 16 13" fill="none" xmlns="http://www.w3.org/2000/svg">
<path d="M6.10415 10.1575C6.00178 10.0617 5.8351 10.0617 5.73273 10.1575C5.63254 10.2603 5.63254 10.4243 5.73273 10.5267C6.19223 10.9862 6.90259 11.2123 7.90629 11.2236L6.10415 10.1575ZM6.10415 10.1575C6.4712 10.5245 7.08631 10.7087 7.98622 10.7087M6.10415 10.1575L7.98622 10.7087M7.98622 10.7087C8.88613 10.7087 9.49686 10.5333 9.86391 10.1662M7.98622 10.7087L9.86391 10.1662M9.86391 10.1662C9.95972 10.0704 10.126 10.0704 10.231 10.1662H9.86391ZM13.5526 8.07963L13.5521 8.07982L13.5561 8.08801L13.5609 8.09753C13.5905 8.24422 13.6051 8.39303 13.6051 8.54445C13.6051 9.51455 12.985 10.4054 11.9613 11.0575C10.9386 11.709 9.52213 12.115 7.95647 12.115C6.3908 12.115 4.97433 11.7091 3.9516 11.0577C2.92793 10.4056 2.30784 9.51477 2.30784 8.54445C2.30784 8.38592 2.32512 8.22718 2.3573 8.07444L2.35869 8.07105L2.35869 8.07105L2.35897 8.07036C2.37289 8.03533 2.38508 7.99658 2.38681 7.95302C2.56408 7.28803 3.03371 6.68074 3.71713 6.18769C3.75127 6.17631 3.78306 6.15681 3.80922 6.13363C3.82104 6.12422 3.83103 6.11452 3.83964 6.10457C4.8704 5.40912 6.33269 4.973 7.95822 4.973C9.59801 4.973 11.0735 5.41842 12.1047 6.12527C12.1175 6.13995 12.1308 6.15226 12.1455 6.16492L12.1452 6.16517L12.1509 6.1692C12.1757 6.1868 12.2031 6.20203 12.2311 6.21337C12.9022 6.70653 13.3615 7.30991 13.5326 7.96863C13.5335 8.00452 13.5391 8.04178 13.5526 8.07963ZM7.8783 11.2982L7.87144 11.3166H7.97966C9.03682 11.3166 9.79211 11.0869 10.284 10.595L10.284 10.5951L10.2863 10.5927C10.4084 10.4594 10.4082 10.2492 10.2864 10.1157L10.2866 10.1154L10.2815 10.1108C10.1493 9.99014 9.93724 9.98682 9.81088 10.1132C9.46528 10.4588 8.87995 10.6337 7.98622 10.6337C7.09324 10.6337 6.50309 10.4503 6.15719 10.1044L6.15721 10.1044L6.1554 10.1027C6.02419 9.97991 5.81269 9.97991 5.68148 10.1027L5.68142 10.1026L5.67901 10.1051C5.55051 10.237 5.55035 10.4476 5.67912 10.5792L5.67969 10.5797C6.15475 11.0548 6.87949 11.2831 7.8783 11.2982ZM14.3755 6.72626C14.3755 7.00876 14.2604 7.26533 14.0644 7.44655C13.8342 6.86682 13.4229 6.33779 12.8819 5.88339C13.034 5.79148 13.2086 5.74167 13.3909 5.74167C13.9353 5.74167 14.3755 6.18189 14.3755 6.72626ZM7.95866 12.7896H7.97246L7.98536 12.7847L7.99086 12.7826C9.72319 12.7801 11.2942 12.3101 12.4363 11.5486C13.581 10.7855 14.302 9.7237 14.3068 8.54256V8.54226C14.3068 8.40547 14.292 8.27515 14.2759 8.14428C14.7639 7.84529 15.075 7.31121 15.075 6.72626C15.075 5.8096 14.3302 5.06975 13.4141 5.06975C13.0141 5.06975 12.6349 5.21035 12.3376 5.46972C11.3051 4.81272 9.95108 4.38837 8.45532 4.31305L9.25964 1.86106L11.3826 2.36504C11.414 3.09427 12.0184 3.68154 12.7553 3.68154C13.5142 3.68154 14.1335 3.06217 14.1335 2.30327C14.1335 1.54439 13.5146 0.925 12.7553 0.925C12.2067 0.925 11.7337 1.24529 11.5096 1.70611L9.11598 1.14364C9.11477 1.14315 9.11374 1.14277 9.11291 1.14247C9.10397 1.13928 9.0961 1.1383 9.0934 1.13798C9.09246 1.13787 9.09156 1.13777 9.0907 1.13769L8.85967 1.08441L8.79292 1.06902L8.77156 1.13411L7.73072 4.30572C6.15615 4.3433 4.72318 4.77004 3.64496 5.44855C3.34909 5.20473 2.98178 5.068 2.59026 5.068C1.67421 5.068 0.925 5.81215 0.925 6.7267C0.925 7.29146 1.20867 7.80756 1.66823 8.1122C1.64713 8.25506 1.63592 8.39993 1.63592 8.54708C1.63592 9.72842 2.3566 10.7909 3.50121 11.5545C4.64639 12.3186 6.22325 12.7896 7.95866 12.7896ZM12.0213 2.30108C12.0213 1.94503 12.2872 1.65055 12.631 1.60348H12.7185C13.1151 1.60348 13.4297 1.91916 13.4297 2.30546C13.4297 2.69234 13.1146 3.00744 12.7277 3.00744C12.3386 3.00744 12.0213 2.69015 12.0213 2.30108ZM5.88279 6.73351C5.30794 6.73351 4.83044 7.21389 4.83044 7.78585C4.83044 8.35941 5.30999 8.82245 5.88279 8.82245C6.45739 8.82245 6.92157 8.35849 6.92157 7.78585C6.92157 7.21467 6.45621 6.73351 5.88279 6.73351ZM10.1028 6.73351C9.52819 6.73351 9.04781 7.21363 9.04781 7.78585C9.04781 8.35964 9.52978 8.82245 10.1028 8.82245C10.6776 8.82245 11.1394 8.35827 11.1394 7.78585C11.1394 7.21491 10.6769 6.73351 10.1028 6.73351ZM1.59692 6.72845C1.59692 6.18407 2.03714 5.74385 2.58151 5.74385C2.75125 5.74385 2.91416 5.78869 3.05816 5.86818C2.51813 6.31408 2.10424 6.83285 1.86816 7.40867C1.69594 7.22758 1.59692 6.98619 1.59692 6.72845Z" fill="#6F7383" stroke="#6F7383" stroke-width="0.15"/>
</svg>
