<svg width="20" height="20" viewBox="0 0 20 20" fill="none" xmlns="http://www.w3.org/2000/svg">
<g clip-path="url(#clip0_4761_5564)">
<rect width="20" height="20" fill="white" fill-opacity="0.01" style="mix-blend-mode:multiply"/>
<path d="M19.9527 18.7492L14.5584 13.3548C15.8546 11.7986 16.501 9.80264 16.363 7.78204C16.2251 5.76143 15.3134 3.87179 13.8178 2.50622C12.3221 1.14064 10.3575 0.404264 8.33272 0.450276C6.30794 0.496287 4.37884 1.32114 2.94673 2.75325C1.51462 4.18536 0.689768 6.11446 0.643757 8.13924C0.597746 10.164 1.33412 12.1286 2.6997 13.6243C4.06527 15.12 5.95491 16.0316 7.97552 16.1695C9.99612 16.3075 11.9921 15.6611 13.5483 14.3649L18.9426 19.7592L19.9527 18.7492ZM2.09558 8.33067C2.09558 7.05921 2.4726 5.81632 3.17899 4.75914C3.88537 3.70197 4.88937 2.878 6.06404 2.39144C7.23871 1.90488 8.53128 1.77757 9.7783 2.02562C11.0253 2.27367 12.1708 2.88593 13.0698 3.78498C13.9689 4.68403 14.5811 5.82949 14.8292 7.07651C15.0772 8.32353 14.9499 9.61611 14.4634 10.7908C13.9768 11.9654 13.1528 12.9694 12.0957 13.6758C11.0385 14.3822 9.7956 14.7592 8.52415 14.7592C6.81976 14.7573 5.18573 14.0794 3.98055 12.8743C2.77537 11.6691 2.09747 10.035 2.09558 8.33067Z" fill="white"/>
</g>
<defs>
<clipPath id="clip0_4761_5564">
<rect width="20" height="20" fill="white"/>
</clipPath>
</defs>
</svg>
