<svg width="14" height="13" viewBox="0 0 14 13" fill="none" xmlns="http://www.w3.org/2000/svg">
<g id="Group 427319018">
<path id="Vector" d="M7.00006 8.1365C7.9038 8.1365 8.63642 7.40387 8.63642 6.50013C8.63642 5.59639 7.9038 4.86377 7.00006 4.86377C6.09632 4.86377 5.36369 5.59639 5.36369 6.50013C5.36369 7.40387 6.09632 8.1365 7.00006 8.1365Z" stroke="#6F7383" stroke-linecap="round" stroke-linejoin="round"/>
<path id="Vector_2" d="M11.0364 8.13636C10.9638 8.30088 10.9421 8.48338 10.9742 8.66032C11.0063 8.83726 11.0906 9.00054 11.2164 9.12909L11.2491 9.16182C11.3505 9.26313 11.431 9.38345 11.4859 9.51588C11.5408 9.64832 11.569 9.79027 11.569 9.93364C11.569 10.077 11.5408 10.219 11.4859 10.3514C11.431 10.4838 11.3505 10.6041 11.2491 10.7055C11.1478 10.8069 11.0275 10.8873 10.895 10.9422C10.7626 10.9971 10.6206 11.0254 10.4773 11.0254C10.3339 11.0254 10.192 10.9971 10.0595 10.9422C9.92709 10.8873 9.80677 10.8069 9.70545 10.7055L9.67273 10.6727C9.54418 10.547 9.3809 10.4626 9.20396 10.4305C9.02701 10.3985 8.84452 10.4201 8.68 10.4927C8.51867 10.5619 8.38108 10.6767 8.28417 10.823C8.18725 10.9694 8.13525 11.1408 8.13455 11.3164V11.4091C8.13455 11.6984 8.01961 11.9759 7.81503 12.1805C7.61044 12.3851 7.33296 12.5 7.04364 12.5C6.75431 12.5 6.47683 12.3851 6.27225 12.1805C6.06766 11.9759 5.95273 11.6984 5.95273 11.4091V11.36C5.9485 11.1795 5.89006 11.0044 5.78501 10.8575C5.67995 10.7106 5.53313 10.5987 5.36364 10.5364C5.19912 10.4638 5.01662 10.4421 4.83968 10.4742C4.66274 10.5063 4.49946 10.5906 4.37091 10.7164L4.33818 10.7491C4.23687 10.8505 4.11655 10.931 3.98412 10.9859C3.85168 11.0408 3.70973 11.069 3.56636 11.069C3.423 11.069 3.28104 11.0408 3.14861 10.9859C3.01618 10.931 2.89586 10.8505 2.79455 10.7491C2.69312 10.6478 2.61265 10.5275 2.55775 10.395C2.50285 10.2626 2.4746 10.1206 2.4746 9.97727C2.4746 9.83391 2.50285 9.69195 2.55775 9.55952C2.61265 9.42709 2.69312 9.30677 2.79455 9.20545L2.82727 9.17273C2.95302 9.04418 3.03737 8.8809 3.06946 8.70396C3.10154 8.52701 3.07988 8.34452 3.00727 8.18C2.93813 8.01867 2.82332 7.88108 2.67698 7.78417C2.53064 7.68725 2.35916 7.63525 2.18364 7.63455H2.09091C1.80158 7.63455 1.52411 7.51961 1.31952 7.31503C1.11493 7.11044 1 6.83296 1 6.54364C1 6.25431 1.11493 5.97683 1.31952 5.77225C1.52411 5.56766 1.80158 5.45273 2.09091 5.45273H2.14C2.32054 5.4485 2.49564 5.39006 2.64253 5.28501C2.78941 5.17995 2.9013 5.03313 2.96364 4.86364C3.03624 4.69912 3.0579 4.51662 3.02582 4.33968C2.99374 4.16274 2.90938 3.99946 2.78364 3.87091L2.75091 3.83818C2.64948 3.73687 2.56902 3.61655 2.51412 3.48412C2.45922 3.35168 2.43096 3.20973 2.43096 3.06636C2.43096 2.923 2.45922 2.78104 2.51412 2.64861C2.56902 2.51618 2.64948 2.39586 2.75091 2.29455C2.85223 2.19312 2.97254 2.11265 3.10497 2.05775C3.23741 2.00285 3.37936 1.9746 3.52273 1.9746C3.66609 1.9746 3.80805 2.00285 3.94048 2.05775C4.07291 2.11265 4.19323 2.19312 4.29455 2.29455L4.32727 2.32727C4.45583 2.45302 4.6191 2.53737 4.79604 2.56946C4.97299 2.60154 5.15548 2.57988 5.32 2.50727H5.36364C5.52497 2.43813 5.66255 2.32332 5.75947 2.17698C5.85638 2.03064 5.90839 1.85916 5.90909 1.68364V1.59091C5.90909 1.30158 6.02403 1.02411 6.22861 0.81952C6.4332 0.614935 6.71067 0.5 7 0.5C7.28933 0.5 7.5668 0.614935 7.77139 0.81952C7.97597 1.02411 8.09091 1.30158 8.09091 1.59091V1.64C8.09161 1.81552 8.14362 1.987 8.24053 2.13334C8.33745 2.27969 8.47504 2.39449 8.63636 2.46364C8.80088 2.53624 8.98338 2.5579 9.16032 2.52582C9.33726 2.49374 9.50054 2.40938 9.62909 2.28364L9.66182 2.25091C9.76313 2.14948 9.88345 2.06902 10.0159 2.01412C10.1483 1.95922 10.2903 1.93096 10.4336 1.93096C10.577 1.93096 10.719 1.95922 10.8514 2.01412C10.9838 2.06902 11.1041 2.14948 11.2055 2.25091C11.3069 2.35223 11.3873 2.47254 11.4422 2.60497C11.4971 2.73741 11.5254 2.87936 11.5254 3.02273C11.5254 3.16609 11.4971 3.30805 11.4422 3.44048C11.3873 3.57291 11.3069 3.69323 11.2055 3.79455L11.1727 3.82727C11.047 3.95583 10.9626 4.1191 10.9305 4.29604C10.8985 4.47299 10.9201 4.65548 10.9927 4.82V4.86364C11.0619 5.02497 11.1767 5.16255 11.323 5.25947C11.4694 5.35638 11.6408 5.40839 11.8164 5.40909H11.9091C12.1984 5.40909 12.4759 5.52403 12.6805 5.72861C12.8851 5.9332 13 6.21067 13 6.5C13 6.78933 12.8851 7.0668 12.6805 7.27139C12.4759 7.47597 12.1984 7.59091 11.9091 7.59091H11.86C11.6845 7.59161 11.513 7.64362 11.3667 7.74053C11.2203 7.83745 11.1055 7.97504 11.0364 8.13636Z" stroke="#6F7383" stroke-linecap="round" stroke-linejoin="round"/>
</g>
</svg>
