<svg width="34" height="36" viewBox="0 0 34 36" fill="none" xmlns="http://www.w3.org/2000/svg">
<rect width="34" height="36" rx="4" fill="#F0F0F5"/>
<path d="M23 14C24.6569 14 26 12.6569 26 11C26 9.34315 24.6569 8 23 8C21.3431 8 20 9.34315 20 11C20 12.6569 21.3431 14 23 14Z" stroke="#757575" stroke-width="2" stroke-linecap="round" stroke-linejoin="round"/>
<path d="M11 21C12.6569 21 14 19.6569 14 18C14 16.3431 12.6569 15 11 15C9.34315 15 8 16.3431 8 18C8 19.6569 9.34315 21 11 21Z" stroke="#757575" stroke-width="2" stroke-linecap="round" stroke-linejoin="round"/>
<path d="M23 28C24.6569 28 26 26.6569 26 25C26 23.3431 24.6569 22 23 22C21.3431 22 20 23.3431 20 25C20 26.6569 21.3431 28 23 28Z" stroke="#757575" stroke-width="2" stroke-linecap="round" stroke-linejoin="round"/>
<path d="M13.5898 19.5117L20.4198 23.4917" stroke="#757575" stroke-width="2" stroke-linecap="round" stroke-linejoin="round"/>
<path d="M20.4098 12.5117L13.5898 16.4917" stroke="#757575" stroke-width="2" stroke-linecap="round" stroke-linejoin="round"/>
</svg>
