<svg width="23" height="24" viewBox="0 0 23 24" fill="none" xmlns="http://www.w3.org/2000/svg">
<rect width="22.6667" height="24" rx="4" fill="#222222"/>
<path d="M15.333 9.33301C16.4376 9.33301 17.333 8.43758 17.333 7.33301C17.333 6.22844 16.4376 5.33301 15.333 5.33301C14.2284 5.33301 13.333 6.22844 13.333 7.33301C13.333 8.43758 14.2284 9.33301 15.333 9.33301Z" stroke="#A5A5A5" stroke-linecap="round" stroke-linejoin="round"/>
<path d="M7.33301 14C8.43758 14 9.33301 13.1046 9.33301 12C9.33301 10.8954 8.43758 10 7.33301 10C6.22844 10 5.33301 10.8954 5.33301 12C5.33301 13.1046 6.22844 14 7.33301 14Z" stroke="#A5A5A5" stroke-linecap="round" stroke-linejoin="round"/>
<path d="M15.333 18.667C16.4376 18.667 17.333 17.7716 17.333 16.667C17.333 15.5624 16.4376 14.667 15.333 14.667C14.2284 14.667 13.333 15.5624 13.333 16.667C13.333 17.7716 14.2284 18.667 15.333 18.667Z" stroke="#A5A5A5" stroke-linecap="round" stroke-linejoin="round"/>
<path d="M9.05957 13.0078L13.6129 15.6611" stroke="#A5A5A5" stroke-linecap="round" stroke-linejoin="round"/>
<path d="M13.6062 8.34082L9.05957 10.9942" stroke="#A5A5A5" stroke-linecap="round" stroke-linejoin="round"/>
</svg>
