<?xml version="1.0" standalone="no"?>
<!DOCTYPE svg PUBLIC "-//W3C//DTD SVG 20010904//EN"
 "http://www.w3.org/TR/2001/REC-SVG-20010904/DTD/svg10.dtd">
<svg version="1.0" xmlns="http://www.w3.org/2000/svg"
 width="64.000000pt" height="64.000000pt" viewBox="0 0 64.000000 64.000000"
 preserveAspectRatio="xMidYMid meet">

<g transform="translate(0.000000,64.000000) scale(0.100000,-0.100000)"
fill="#000000" stroke="none">
<path d="M0 320 l0 -320 320 0 320 0 0 320 0 320 -320 0 -320 0 0 -320z m510
163 c0 -4 -17 -24 -37 -45 l-37 -38 -129 0 c-74 0 -137 5 -149 11 -20 11 -19
12 13 45 l33 34 153 0 c84 0 153 -3 153 -7z m-33 -155 c18 -18 33 -36 33 -40
0 -4 -46 -8 -102 -8 l-103 1 -45 39 -44 40 114 0 114 0 33 -32z m33 -96 c0 -4
-15 -22 -33 -40 l-32 -31 -45 39 -45 40 78 0 c42 0 77 -4 77 -8z"/>
</g>
</svg>
