<svg width="12" height="12" viewBox="0 0 12 12" fill="none" xmlns="http://www.w3.org/2000/svg">
<g clip-path="url(#clip0_1_548)">
<path d="M11.5406 3.61498C10.9781 3.0956 10.2 2.30248 9.56627 1.73998L9.52877 1.71373C9.46638 1.66362 9.39603 1.62433 9.32065 1.59748C7.79252 1.31248 0.680649 -0.0168989 0.541899 -2.38682e-05C0.503021 0.00542114 0.465859 0.0195171 0.433149 0.0412261L0.397524 0.0693511C0.353658 0.113901 0.32034 0.167722 0.300024 0.226851L0.290649 0.251226V0.384351V0.404976C1.09127 2.63435 4.25252 9.93748 4.87502 11.6512C4.91252 11.7675 4.98377 11.9887 5.1169 12H5.1469C5.21815 12 5.5219 11.5987 5.5219 11.5987C5.5219 11.5987 10.9519 5.01373 11.5013 4.31248C11.5724 4.2261 11.6352 4.13318 11.6888 4.03498C11.7025 3.95814 11.696 3.87906 11.67 3.80546C11.6441 3.73186 11.5995 3.66623 11.5406 3.61498ZM6.91502 4.38185L9.23252 2.45998L10.5919 3.71248L6.91502 4.38185ZM6.01503 4.25623L2.02502 0.986226L8.48065 2.17685L6.01503 4.25623ZM6.37502 5.1131L10.4588 4.45498L5.79002 10.08L6.37502 5.1131ZM1.48315 1.31248L5.68127 4.87498L5.07377 10.0837L1.48315 1.31248Z" fill="#FF060A"/>
</g>
<defs>
<clipPath id="clip0_1_548">
<rect width="12" height="12" fill="white"/>
</clipPath>
</defs>
</svg>
