<svg width="14" height="12" viewBox="0 0 14 12" fill="none" xmlns="http://www.w3.org/2000/svg">
<path d="M1.44856 1.70261C1.45152 1.69116 1.45449 1.67981 1.45745 1.66855C2.0516 2.31605 2.75986 2.85268 3.54948 3.25012C4.62239 3.79015 5.81221 4.05646 7.01296 4.02532C7.28396 4.01829 7.5 3.79658 7.5 3.52549V2.88913H7.50004L7.49996 2.88242C7.4935 2.40087 7.63509 1.92896 7.90558 1.5305L7.4919 1.24967L7.90558 1.5305C8.17607 1.13205 8.56241 0.826276 9.01235 0.654546C9.46228 0.482815 9.9541 0.45341 10.4213 0.570308C10.8885 0.687206 11.3085 0.944766 11.6245 1.30815C11.7536 1.45655 11.9577 1.51551 12.146 1.4588C12.4339 1.37209 12.7159 1.26813 12.9904 1.14764C12.8044 1.45157 12.5814 1.73327 12.3253 1.98585C12.2064 2.10304 12.1539 2.2718 12.1853 2.43573C12.2127 2.57916 12.2267 2.72483 12.2273 2.87086C12.227 6.35454 10.5705 8.80421 8.27644 10.0253C6.45678 10.9938 4.20433 11.2059 1.99626 10.5088C2.96994 10.2942 3.90031 9.89601 4.73536 9.32918C4.88557 9.22722 4.96871 9.05185 4.95256 8.87102C4.93642 8.69019 4.82352 8.53232 4.65761 8.45858C3.30575 7.85775 2.47185 7.08398 1.9636 6.28149C1.45334 5.47582 1.25215 4.61063 1.21539 3.80188C1.17853 2.99094 1.30773 2.24718 1.44856 1.70261Z" stroke="#6F7383" stroke-linecap="round" stroke-linejoin="round"/>
</svg>
