<svg width="24" height="24" viewBox="0 0 24 24" fill="none" xmlns="http://www.w3.org/2000/svg">
<g clip-path="url(#clip0_6411_4786)">
<path d="M18.0723 0.501946C17.8744 0.303988 17.6311 0.157534 17.3635 0.0754013C17.096 -0.00673099 16.8124 -0.0220382 16.5376 0.0308193C16.2627 0.0836769 16.005 0.203088 15.7871 0.378603C15.5691 0.554117 15.3974 0.780385 15.2871 1.03761L12.876 6.66134C11.8707 6.36303 10.8035 6.34177 9.78706 6.59978C8.77067 6.8578 7.84283 7.38552 7.10153 8.12721L5.24248 9.98352C5.05007 10.1762 4.94199 10.4373 4.94199 10.7096C4.94199 10.9819 5.05007 11.243 5.24248 11.4357L8.17696 14.3715L0.313324 22.2338C0.215235 22.3286 0.137014 22.4421 0.0832249 22.5674C0.0294357 22.6928 0.00115543 22.8277 3.46718e-05 22.9641C-0.00108609 23.1005 0.0249748 23.2358 0.0766969 23.362C0.128419 23.4883 0.204766 23.603 0.301284 23.6994C0.397802 23.7958 0.512557 23.8721 0.638854 23.9237C0.765152 23.9753 0.900461 24.0012 1.03689 24C1.17331 23.9987 1.30813 23.9703 1.43346 23.9164C1.55879 23.8625 1.67213 23.7842 1.76686 23.686L9.6305 15.8237L12.5636 18.7582C12.7563 18.9506 13.0174 19.0587 13.2897 19.0587C13.562 19.0587 13.8231 18.9506 14.0158 18.7582L15.8762 16.9005C16.6181 16.1588 17.1459 15.2304 17.4037 14.2135C17.6615 13.1966 17.6397 12.1289 17.3407 11.1233L22.9644 8.71219C23.2215 8.60196 23.4477 8.43044 23.6231 8.21262C23.7986 7.99481 23.9181 7.73732 23.971 7.46268C24.024 7.18804 24.0089 6.9046 23.9271 6.63714C23.8452 6.36968 23.6991 6.12635 23.5015 5.9284L18.0723 0.501946Z" fill="white"/>
</g>
<defs>
<clipPath id="clip0_6411_4786">
<rect width="24" height="24" fill="white"/>
</clipPath>
</defs>
</svg>
