<svg width="24" height="24" viewBox="0 0 24 24" fill="none" xmlns="http://www.w3.org/2000/svg">
<path d="M16.4319 4.07733C16.2875 3.93283 16.1099 3.82593 15.9146 3.76598C15.7193 3.70602 15.5123 3.69485 15.3117 3.73343C15.1111 3.77202 14.923 3.85918 14.7639 3.9873C14.6047 4.11541 14.4795 4.28057 14.3989 4.46833L12.6389 8.57333C11.9051 8.35558 11.1261 8.34006 10.3842 8.5284C9.64232 8.71673 8.96505 9.10194 8.42394 9.64333L7.06694 10.9983C6.92649 11.139 6.8476 11.3296 6.8476 11.5283C6.8476 11.7271 6.92649 11.9177 7.06694 12.0583L9.20894 14.2013L3.46894 19.9403C3.39734 20.0095 3.34025 20.0923 3.30098 20.1839C3.26172 20.2754 3.24108 20.3738 3.24026 20.4734C3.23944 20.573 3.25846 20.6717 3.29622 20.7639C3.33397 20.856 3.3897 20.9397 3.46015 21.0101C3.53061 21.0805 3.61437 21.1362 3.70656 21.1738C3.79875 21.2115 3.89752 21.2304 3.9971 21.2295C4.09669 21.2286 4.19509 21.2079 4.28658 21.1685C4.37806 21.1292 4.46079 21.072 4.52994 21.0003L10.2699 15.2613L12.4109 17.4033C12.5516 17.5438 12.7422 17.6227 12.9409 17.6227C13.1397 17.6227 13.3303 17.5438 13.4709 17.4033L14.8289 16.0473C15.3705 15.5059 15.7557 14.8283 15.9439 14.086C16.1321 13.3437 16.1162 12.5643 15.8979 11.8303L20.0029 10.0703C20.1906 9.98987 20.3557 9.86467 20.4838 9.70568C20.6118 9.54668 20.699 9.35874 20.7377 9.15826C20.7764 8.95779 20.7654 8.7509 20.7056 8.55567C20.6459 8.36044 20.5392 8.18282 20.3949 8.03833L16.4319 4.07733Z" fill="black"/>
</svg>
