<svg width="259" height="254" viewBox="0 0 259 254" fill="none" xmlns="http://www.w3.org/2000/svg">
<path fill-rule="evenodd" clip-rule="evenodd" d="M-2.70662e-06 206.514L57.2021 77.7318L78.6979 87.1362L25.2934 206.514L-2.70662e-06 206.514Z" fill="url(#paint0_linear_313_2383)"/>
<path fill-rule="evenodd" clip-rule="evenodd" d="M209.765 159.599L195.721 188.627C187.958 204.671 168.889 211.692 152.575 204.513C135.878 197.165 128.269 177.696 135.558 160.973L182.16 54.065C185.108 47.3007 181.943 39.4325 175.132 36.5944C168.474 33.8204 160.822 36.8997 157.942 43.5119L86.8263 206.768L60.5057 206.768L136.431 34.1417C144.428 15.7838 165.672 7.23474 184.156 14.9363C203.067 22.8158 211.854 44.6605 203.668 63.4405L157.067 170.349C154.942 175.222 157.16 180.896 162.026 183.038C166.78 185.13 172.338 183.084 174.6 178.408L188.645 149.38L209.765 159.599Z" fill="url(#paint1_linear_313_2383)"/>
<defs>
<linearGradient id="paint0_linear_313_2383" x1="70.3934" y1="169.376" x2="18.8564" y2="160.441" gradientUnits="userSpaceOnUse">
<stop stop-color="#F7F7F7"/>
<stop offset="1" stop-color="#E7E7EC"/>
</linearGradient>
<linearGradient id="paint1_linear_313_2383" x1="321.23" y1="212.208" x2="116.923" y2="259.74" gradientUnits="userSpaceOnUse">
<stop stop-color="#F7F7F7"/>
<stop offset="1" stop-color="#E7E7EC"/>
</linearGradient>
</defs>
</svg>
